<?xml version="1.0" standalone="no"?>
<!DOCTYPE svg PUBLIC "-//W3C//DTD SVG 1.1//EN" "http://www.w3.org/Graphics/SVG/1.1/DTD/svg11.dtd" >
<svg xmlns="http://www.w3.org/2000/svg" xmlns:xlink="http://www.w3.org/1999/xlink" version="1.1">
<metadata>
Created by FontForge 20161003 at Wed Jul 12 18:53:08 2017
 By www-data
[c] Copyright 2003-2004, The Font Bureau, Inc. Designed by David Berlow. All rights reserved.
</metadata>
<defs>
<font id="TitlingGothicFBNarrow-Medium" horiz-adv-x="439" >
  <font-face 
    font-family="TitlingGothicFB Narrow Medium"
    font-weight="400"
    font-stretch="normal"
    units-per-em="1000"
    panose-1="2 0 6 3 4 0 0 2 0 4"
    ascent="800"
    descent="-200"
    x-height="550"
    cap-height="792"
    bbox="-111 -200.087 1308 996"
    underline-thickness="20"
    underline-position="-133"
    unicode-range="U+0020-FB02"
  />
<missing-glyph horiz-adv-x="500" 
 />
    <glyph glyph-name=".notdef" horiz-adv-x="500" 
 />
    <glyph glyph-name="NUL" horiz-adv-x="0" 
 />
    <glyph glyph-name="nonmarkingreturn" horiz-adv-x="244" 
 />
    <glyph glyph-name="space" unicode=" " horiz-adv-x="244" 
 />
    <glyph glyph-name="Lslash" unicode="&#x141;" horiz-adv-x="576" 
d="M227 143h336v-143h-502v272l-39 -11v107l39 11v413h166v-366l186 52v-107l-186 -52v-176z" />
    <glyph glyph-name="lslash" unicode="&#x142;" horiz-adv-x="269" 
d="M210 48q0 -21 0.5 -32.5t3.5 -15.5h-153q-2 2 -3 11t-1 32v201l-48 -15v114l48 15v381q0 19 -0.5 34.5t-2.5 22.5h152q2 -5 3 -17t1 -29v-344q0 1 8 3.5t18 5.5q11 4 25 8v-114l-51 -16v-245z" />
    <glyph glyph-name="Scaron" unicode="&#x160;" horiz-adv-x="672" 
d="M641 215q0 -52 -18 -93.5t-54.5 -71t-92 -45.5t-130.5 -16q-76 0 -130.5 11.5t-90.5 32.5t-57 51.5t-30 67.5q-3 11 -4.5 24t-2 25t-1 22.5t-0.5 14.5h165q0 -4 0.5 -12t2 -16.5t3 -16t3.5 -12.5q13 -32 45.5 -45.5t95.5 -13.5q72 0 100.5 22t28.5 64q0 44 -27.5 69
t-94.5 45l-55 17.5t-60 20.5q-97 30 -151 82.5t-54 145.5q0 96 74 154.5t222 58.5q66 0 115.5 -12t84.5 -34t56.5 -53t32.5 -68q5 -18 9 -40.5t4 -38.5h-166q0 7 -1.5 21.5t-6.5 27.5q-11 30 -40.5 46t-89.5 16q-37 0 -61 -5t-38.5 -14t-20.5 -22.5t-6 -30.5q0 -21 7 -36.5
t23.5 -28.5t43.5 -25t67 -24q13 -4 28.5 -9.5t30.5 -10.5t29 -10.5t24 -9.5q45 -13 80 -32t59 -46t36.5 -63t12.5 -84zM279 990l57 -73l56 73h120l-100 -151h-154l-100 151h121z" />
    <glyph glyph-name="scaron" unicode="&#x161;" horiz-adv-x="556" 
d="M530 158q0 -85 -61 -126.5t-180 -41.5q-118 0 -181 29t-77 94q-3 16 -4 32t-1 27h148q0 -6 0.5 -14t3.5 -18q10 -32 107 -32q54 0 76 11.5t22 36.5q0 24 -21.5 34.5t-72.5 21.5q-9 2 -22 4.5t-27.5 5.5t-28.5 6t-25 5q-77 16 -114.5 56.5t-37.5 114.5q0 70 59 114.5
t174 44.5q98 0 157 -27t79 -86q6 -19 7.5 -41.5t1.5 -30.5h-144q0 5 -1.5 16t-3.5 16q-7 13 -26.5 22t-65.5 9q-53 0 -72 -11t-19 -31t18.5 -31t60.5 -19q13 -3 29 -6.5t32 -6.5t29.5 -6t20.5 -5q79 -16 119.5 -55t40.5 -112zM217 748l57 -73l56 73h120l-100 -151h-154
l-100 151h121z" />
    <glyph glyph-name="Yacute" unicode="&#xdd;" horiz-adv-x="699" 
d="M428 275v-275h-166v274l-260 518h174q48 -99 85 -177q16 -33 31 -65.5l27 -58.5t19.5 -43t7.5 -19q0 2 8 19t21 43t29.5 58.5t33.5 65.5q40 78 92 177h169zM353 987h159l-104 -153h-140z" />
    <glyph glyph-name="yacute" unicode="&#xfd;" horiz-adv-x="589" 
d="M308 -170h-160l67 173l-210 547h161q37 -105 66 -189q12 -36 24 -70t21.5 -61.5t15 -44.5t5.5 -19q0 2 6 19t15 44.5t20.5 61.5t23.5 70q28 84 64 189h157zM297 745h159l-104 -153h-140z" />
    <glyph glyph-name="Thorn" unicode="&#xde;" horiz-adv-x="682" 
d="M231 669h198q135 0 182 -78q23 -27 34.5 -73t11.5 -106q0 -59 -10 -103t-32 -73q-26 -41 -73 -60t-113 -21h-108q-42 0 -93 1v-156h-168v792h170zM491 408q0 21 -2 38.5t-7 26.5q-9 29 -30 41t-56 12h-168v-231h165q40 0 60.5 12.5t28.5 35.5q5 11 7 28t2 37z" />
    <glyph glyph-name="thorn" unicode="&#xfe;" horiz-adv-x="610" 
d="M593 285q0 -66 -12.5 -117.5t-37.5 -85.5q-25 -38 -72.5 -62t-104.5 -24q-54 0 -97.5 14t-68.5 46v-226h-150v967h149v-314q14 31 58.5 54.5t111.5 23.5q63 0 103.5 -21t69.5 -62q25 -35 38 -82.5t13 -110.5zM439 276q0 35 -7 66t-24 51q-14 17 -36.5 26t-56.5 9
q-28 0 -48.5 -9t-34.5 -25q-36 -46 -36 -118q0 -79 28 -116q29 -38 91 -38q38 0 64.5 13t40.5 36q10 19 14.5 47t4.5 58z" />
    <glyph glyph-name="Zcaron" unicode="&#x17d;" horiz-adv-x="620" 
d="M21 0v127l373 520h-352v145h553v-124l-378 -525h388v-143h-584zM253 990l57 -73l56 73h120l-100 -151h-154l-100 151h121z" />
    <glyph glyph-name="zcaron" unicode="&#x17e;" horiz-adv-x="517" 
d="M24 0v110l273 311h-264v129h454v-120l-266 -302h276v-128h-473zM201 748l57 -73l56 73h120l-100 -151h-154l-100 151h121z" />
    <glyph glyph-name="onehalf" unicode="&#xbd;" horiz-adv-x="729" 
d="M130 388v287l-123 -19v82q18 0 41.5 6.5t45.5 15t39 18t21 16.5h84v-406h-108zM526 792l-62 -142q-13 -30 -27.5 -63.5t-29.5 -67.5t-29 -67.5t-27 -63.5l-52.5 -122.5t-53.5 -126.5q-29 -70 -59 -139h-81q31 74 64 148q14 32 29 66.5t30.5 70t30.5 69.5t28 65
q12 27 24.5 57.5t26 62t26.5 62.5t25 59q28 66 55 132h82v0zM354 0v76q41 27 82 50t74 45t53.5 45.5t20.5 52.5v19q0 19 -13 30t-48 11q-25 0 -36.5 -7.5t-18.5 -26.5q-3 -8 -3.5 -16.5t-0.5 -18.5h-108q0 11 1 28.5t4 27.5q11 40 51.5 66t121.5 26q48 0 79.5 -9.5t51 -24.5
t27.5 -34.5t9 -40.5q1 -5 0.5 -16.5t-1.5 -17.5q-1 -29 -17 -53.5t-41.5 -46t-58 -40.5t-67.5 -39h190v-86h-352z" />
    <glyph glyph-name="onequarter" unicode="&#xbc;" horiz-adv-x="737" 
d="M133 388v287l-123 -19v82q18 0 41.5 6.5t45.5 15t39 18t21 16.5h84v-406h-108zM545 792l-62 -142q-13 -30 -27.5 -63.5t-29.5 -67.5t-29 -67.5t-27 -63.5l-52.5 -122.5t-53.5 -126.5q-29 -70 -59 -139h-81q31 74 64 148q14 32 29 66.5t30.5 70t30.5 69.5t28 65
q12 27 24.5 57.5t26 62t26.5 62.5t25 59q28 66 55 132h82v0zM653 83v-83h-105v85h-219v86l217 233h107v-237h62v-84h-62zM548 287l-112 -120h112v120z" />
    <glyph glyph-name="onesuperior" unicode="&#xb9;" horiz-adv-x="365" 
d="M158 388v287l-123 -19v82q18 0 41.5 6.5t45.5 15t39 18t21 16.5h83v-406h-107z" />
    <glyph glyph-name="threequarters" unicode="&#xbe;" horiz-adv-x="839" 
d="M276 598q30 -2 51 -9t33.5 -17.5t18.5 -23.5t7 -25q1 -8 1 -14.5t-2 -17.5q-1 -24 -12.5 -44t-34 -34t-57 -22t-83.5 -8q-90 0 -132.5 24.5t-48.5 64.5q-2 14 -2.5 28t-0.5 17h110v-39q1 -17 19.5 -21.5t52.5 -4.5q39 0 55 10t18 30v23q-2 20 -17 27.5t-59 8.5h-84v75h87
q34 2 48 11t15 29q0 8 0.5 12t-0.5 10q-2 17 -16 26t-46 9q-30 0 -45.5 -9t-17.5 -24q-1 -8 -1 -16v-10h-106q0 3 1.5 18.5t3.5 27.5q8 38 49.5 62.5t121.5 24.5q44 0 74.5 -7t50 -19t29.5 -28.5t12 -34.5v-26q-1 -31 -20.5 -54t-72.5 -30zM646 792q-30 -71 -62 -142
q-27 -61 -57.5 -131.5t-56.5 -130.5l-52.5 -122.5t-53.5 -126.5q-29 -70 -59 -139h-80l64 148q14 32 29 66.5t30 70t30 69.5t28 65q12 27 24.5 57.5t26 62t26.5 62.5t25 59l56 132h82v0zM759 83v-83h-104v85h-220v86l218 233h106v-237h62v-84h-62zM655 289l-113 -122h113
v122z" />
    <glyph glyph-name="threesuperior" unicode="&#xb3;" horiz-adv-x="455" 
d="M305 598q30 -2 51 -9t33.5 -17.5t18.5 -23.5t7 -25q1 -8 1 -14.5t-1 -17.5q-3 -48 -46.5 -78t-140.5 -30q-91 0 -133.5 24.5t-48.5 64.5l-2 28t-1 17h110v-39q1 -17 19.5 -21.5t52.5 -4.5q39 0 55 10t18 30v23q-1 20 -16.5 27.5t-59.5 8.5h-84v75h87q34 2 48 11t15 29
q0 8 0.5 12t-0.5 10q-2 17 -15.5 26t-46.5 9q-30 0 -45.5 -9t-17.5 -24q0 -8 -0.5 -16t-0.5 -10h-105q0 3 1.5 18.5t3.5 27.5q8 38 49 62.5t122 24.5q44 0 74.5 -7t50 -19t29 -28.5t11.5 -34.5q1 -6 1 -12v-14q-2 -31 -21.5 -54t-72.5 -30z" />
    <glyph glyph-name="twosuperior" unicode="&#xb2;" horiz-adv-x="441" 
d="M47 388v76q41 27 82 50t74 45t53.5 45.5t20.5 52.5v19q0 19 -13 30t-47 11q-26 0 -37.5 -7.5t-18.5 -26.5q-3 -8 -3.5 -16.5t-0.5 -18.5h-108q0 11 1 28.5t4 27.5q11 40 51.5 66t121.5 26q48 0 79.5 -9.5t51 -24.5t28 -34.5t9.5 -40.5q0 -5 -0.5 -16.5t-0.5 -17.5
q-1 -29 -17 -53.5t-41.5 -46t-58.5 -40.5t-68 -39h190v-86h-352z" />
    <glyph glyph-name="brokenbar" unicode="&#xa6;" horiz-adv-x="313" 
d="M97 355v445h120v-445h-120zM97 -200v430h120v-430h-120z" />
    <glyph glyph-name="minus" unicode="&#x2212;" horiz-adv-x="540" 
d="M32 318v124h475v-124h-475z" />
    <glyph glyph-name="multiply" unicode="&#xd7;" horiz-adv-x="504" 
d="M330 377l104 -106l-78 -77l-104 103l-103 -103l-78 78l104 105l-104 102l78 79l103 -103l104 104l77 -80z" />
    <glyph glyph-name="eth" unicode="&#xf0;" horiz-adv-x="610" 
d="M417 540q-13 -7 -23 -10.5t-21 -3.5q-29 0 -51 17.5t-30 57.5l46 16q5 -20 12 -29.5t23 -9.5q21 0 39 13q-2 13 -4.5 22t-4.5 14q-9 28 -35.5 44t-64.5 16q-42 0 -62.5 -10t-28.5 -33q-2 -5 -2.5 -11.5t-0.5 -11.5h-150q0 8 1.5 23.5t6.5 29.5q8 26 25 49.5t45.5 41
t70 28t99.5 10.5q94 0 151 -37.5t80 -91.5q4 -9 6 -14t5 -14q14 8 23 10.5t21 2.5q32 -1 53.5 -22t28.5 -55l-44 -19q-3 15 -10.5 28.5t-28.5 13.5q-10 0 -14.5 -2.5t-12.5 -7.5q3 -15 7 -38.5t7 -50t5.5 -53.5t2.5 -50t-1.5 -56t-4.5 -67.5t-8.5 -66.5t-13.5 -54
q-27 -83 -90.5 -126t-167.5 -43q-45 0 -85 6.5t-73.5 22.5t-59 43t-40.5 67q-9 26 -13.5 59.5t-4 68t6 67t14.5 56.5q13 29 30.5 50.5t42 36t58 22t77.5 7.5q63 0 103.5 -18.5t69.5 -44.5q0 19 -2.5 49t-7.5 58zM196 174q21 -56 106 -56q49 0 77.5 21t36.5 58q2 10 4 25
t3.5 32l3 34t1.5 31q-4 7 -13 17.5t-24 20t-35.5 16t-49.5 6.5q-44 0 -68 -11.5t-37 -37.5q-5 -11 -8.5 -32t-4.5 -44.5t1 -45.5t7 -34z" />
    <glyph glyph-name="exclam" unicode="!" horiz-adv-x="284" 
d="M213 229h-143l-19 563h183zM62 0v178h160v-178h-160z" />
    <glyph glyph-name="quotedbl" unicode="&#x22;" horiz-adv-x="448" 
d="M407 446h-142l-8 346h158zM178 446h-139l-8 346h156z" />
    <glyph glyph-name="numbersign" unicode="#" horiz-adv-x="537" 
d="M509 436h-101q-1 -5 -4 -22t-6 -35q-4 -21 -7 -47h108l-15 -107h-109l-30 -243h-85l31 243h-96l-32 -243h-85l31 243h-97l15 107h97l16 104h-103l16 109h104q1 3 2.5 14.5t3.5 28.5t4.5 37.5t5.5 41.5q6 49 13 110h86l-30 -232h96q1 3 2.5 14.5t4 28.5t5 37.5t5.5 41.5
q6 49 13 110h85q-7 -61 -13 -110q-3 -21 -5.5 -41.5t-4.5 -37t-3.5 -28.5t-2.5 -15h100zM227 436l-17 -104h96l16 104h-95z" />
    <glyph glyph-name="dollar" unicode="$" horiz-adv-x="626" 
d="M270 812h82v-28q58 -4 98 -18t66.5 -35t41.5 -48t22 -59q5 -17 6 -38t1 -37h-154q1 14 -1 30.5t-5 25.5q-6 20 -23 36t-52 23v-200q8 -2 16.5 -5t17.5 -5q63 -22 104.5 -46.5t66 -53.5t34.5 -64t10 -80q0 -93 -65.5 -146.5t-183.5 -61.5v-57h-82v56q-112 6 -170.5 46.5
t-72.5 112.5q-4 17 -5.5 39.5t-1.5 34.5h155q0 -4 0.5 -11.5t1.5 -16t2.5 -16.5t3.5 -13q7 -25 31 -38.5t56 -18.5v232q-8 2 -17 5t-19 6q-51 19 -90.5 40.5t-65.5 49t-39.5 62t-13.5 77.5q0 38 13.5 72t42.5 60t76 42.5t113 19.5v26zM270 668q-54 -5 -75.5 -24.5
t-21.5 -50.5q0 -15 4 -27.5t14.5 -24t29.5 -22.5t49 -24v173zM352 119q57 7 76 30t19 59q0 16 -2.5 30.5t-12.5 28t-29 27t-51 27.5v-202v0z" />
    <glyph glyph-name="percent" unicode="%" horiz-adv-x="910" 
d="M437 570q0 -36 -14 -68.5t-40 -56.5t-63.5 -38.5t-84.5 -14.5q-48 0 -85.5 14t-63 38.5t-39 57t-13.5 68.5v57q0 35 11.5 67.5t36 57t62.5 39t91 14.5q54 0 92 -16t62.5 -41.5t36 -57t11.5 -63.5v-57v0zM271 0h-91l448 779h89zM875 169q0 -37 -11.5 -69.5t-36.5 -57
t-63.5 -38.5t-92.5 -14q-48 0 -85 15t-62.5 39.5t-38.5 57t-13 67.5v57q0 33 12 65t36.5 57t63 40.5t90.5 15.5t90 -16.5t62.5 -42t36.5 -57t12 -62.5v-57v0zM317 623q0 14 -6 27.5t-17 24.5t-26 17.5t-33 6.5q-38 0 -60 -21.5t-22 -54.5v-48q0 -32 22.5 -55.5t60.5 -23.5
q20 0 35.5 7t25.5 18.5t15 25.5t5 28v48zM755 222q0 13 -5 26t-15 24t-25 18t-36 7q-44 0 -63 -23.5t-19 -51.5v-48q0 -13 5 -27.5t15 -25.5t25.5 -18.5t36.5 -7.5q23 0 38.5 7t25 18.5t13.5 25.5t4 28v48z" />
    <glyph glyph-name="ampersand" unicode="&#x26;" horiz-adv-x="764" 
d="M366 375q30 -34 68 -74.5t81 -80.5q23 29 34.5 67t11.5 80h146q0 -72 -22 -133t-62 -109q32 -29 66.5 -60.5t72.5 -64.5h-214q-11 9 -21 18.5t-20 18.5q-43 -23 -95 -34t-121 -11q-55 0 -104.5 9t-86.5 30t-60 54.5t-26 82.5q-1 10 -1 24t1 23q1 30 14 55.5t34.5 47.5
t49 41t57.5 36q-38 57 -54.5 103.5t-18.5 84.5v45q2 36 17.5 67t44 54.5t69.5 36.5t92 13q48 0 84.5 -13.5t61.5 -36.5t39.5 -53.5t17.5 -65.5v-8v-11v-11.5v-7.5q-2 -35 -15.5 -65.5t-34.5 -57t-48.5 -50t-57.5 -44.5zM288 470q36 25 58.5 53.5t24.5 59.5v26
q-1 24 -13.5 43t-47.5 19q-33 0 -47 -18.5t-17 -44.5q-1 -5 -1 -16t1 -16q2 -23 13 -50.5t29 -55.5zM249 294q-42 -24 -59.5 -48.5t-17.5 -52.5q0 -74 129 -74q28 0 53 4.5t45 12.5q-44 42 -82.5 83.5t-67.5 74.5z" />
    <glyph glyph-name="quotesingle" unicode="'" horiz-adv-x="274" 
d="M209 432h-145l-8 360h162z" />
    <glyph glyph-name="parenleft" unicode="(" horiz-adv-x="338" 
d="M168 -69q-23 27 -47.5 70.5t-45 99t-34 121.5t-13.5 140q0 69 13.5 135t34.5 123t45.5 101.5t46.5 70.5h162q-23 -31 -47 -79t-43.5 -105.5t-31.5 -121t-12 -126.5q0 -66 11.5 -129t30 -119t43 -102.5t49.5 -78.5h-162z" />
    <glyph glyph-name="parenright" unicode=")" horiz-adv-x="338" 
d="M314 362q0 -73 -13 -139t-33 -121.5t-45 -99t-48 -71.5h-162q25 32 49 78.5t43 102.5t30.5 119t11.5 129q0 63 -12.5 126.5t-32 121t-43 105.5t-46.5 79h162q22 -27 46.5 -71.5t45 -101t34 -122.5t13.5 -135z" />
    <glyph glyph-name="asterisk" unicode="*" horiz-adv-x="535" 
d="M450 710l38 -109l-145 -48l106 -117l-91 -71l-93 130l-89 -129l-93 70l104 116l-147 49l38 109l138 -62l-8 155h114l-6 -155z" />
    <glyph glyph-name="plus" unicode="+" horiz-adv-x="541" 
d="M337 334v-164h-131v164h-174v120h173v165h133v-165h172v-120h-173z" />
    <glyph glyph-name="comma" unicode="," horiz-adv-x="295" 
d="M147 -117l-92 22l49 96l-8 -1h-34v189h168v-191z" />
    <glyph glyph-name="hyphen" unicode="-" horiz-adv-x="421" 
d="M18 299v150h387v-150h-387z" />
    <glyph glyph-name="period" unicode="." horiz-adv-x="295" 
d="M61 0v189h174v-189h-174z" />
    <glyph glyph-name="slash" unicode="/" horiz-adv-x="279" 
d="M54 -160h-87l238 957h88z" />
    <glyph glyph-name="zero" unicode="0" horiz-adv-x="632" 
d="M317 801q62 0 109.5 -15t81.5 -41.5t55 -62.5t29 -77q9 -44 11 -97.5t2 -111.5q0 -22 -1 -50t-3 -56.5t-5 -55t-7 -45.5q-45 -199 -273 -199q-118 0 -183.5 47.5t-89.5 153.5q-4 20 -7 46.5t-5 54.5t-2.5 55.5t-0.5 49.5q0 59 1 107.5t11 99.5q9 44 29.5 80.5t54 62.5
t81.5 40t112 14zM437 398q0 42 -1.5 86.5t-5.5 84.5q-5 44 -33 69t-80 25q-54 0 -82.5 -25t-33.5 -70q-2 -18 -3.5 -41t-2 -47t-1 -46t-0.5 -38q0 -24 1 -50t2 -50t3 -44.5t3 -33.5q6 -48 35 -70.5t79 -22.5q51 0 78.5 24t34.5 69q2 11 3 33.5t2 48.5t1.5 52.5t0.5 45.5z
" />
    <glyph glyph-name="one" unicode="1" horiz-adv-x="428" 
d="M191 0v612l-164 -20v124q53 6 88.5 15.5t58 20t34.5 21.5t17 22h126v-795h-160z" />
    <glyph glyph-name="two" unicode="2" horiz-adv-x="605" 
d="M24 0v133q73 48 139.5 95.5t117 97t81.5 103.5t32 116q1 9 0.5 17t-0.5 15q0 39 -25.5 62t-76.5 23t-74.5 -22.5t-26.5 -57.5q0 -3 -0.5 -11t-0.5 -17.5v-18.5v-14h-162v20t0.5 25t1 25.5t1.5 19.5q4 37 21.5 71.5t51 60.5t84 42t119.5 16q72 0 121 -16t80.5 -43t46 -62
t17.5 -74v-13v-19t-0.5 -19.5t-0.5 -15.5q-4 -63 -33.5 -121t-74.5 -109.5t-99.5 -95t-107.5 -75.5h332v-138h-564z" />
    <glyph glyph-name="three" unicode="3" horiz-adv-x="614" 
d="M429 422q63 -8 104.5 -41.5t52.5 -84.5q6 -26 7 -62.5t-5 -70.5q-15 -82 -89 -127.5t-201 -45.5q-60 0 -104.5 9.5t-76 28t-51.5 45.5t-31 62q-10 35 -11.5 66.5t-1.5 50.5h163v-15t1 -22t3 -24.5t6 -22.5q9 -23 34 -36.5t70 -13.5q52 0 79 19t35 49q5 23 5.5 47.5
t-6.5 45.5q-12 38 -39.5 50.5t-75.5 13.5h-130v125q33 1 60 1h69q45 1 64.5 12.5t30.5 37.5q5 9 7 22t2.5 26.5t-0.5 25t-3 18.5q-8 26 -29 40.5t-66 14.5q-48 0 -71.5 -18t-28.5 -45q-2 -13 -3 -31t-1 -29h-154q0 28 2 57.5t7 47.5q17 67 79.5 110t177.5 43
q109 0 172 -37.5t77 -110.5q6 -29 5.5 -59.5t-7.5 -55.5q-12 -43 -42.5 -75.5t-85.5 -40.5z" />
    <glyph glyph-name="four" unicode="4" horiz-adv-x="611" 
d="M509 162v-162h-155v162h-342v146l337 489h160v-498h97v-137h-97zM354 570l-191 -271h191v271z" />
    <glyph glyph-name="five" unicode="5" horiz-adv-x="612" 
d="M588 176q-4 -40 -24.5 -74.5t-55.5 -59t-84.5 -38.5t-111.5 -14q-135 0 -200.5 44.5t-79.5 136.5q-2 16 -2.5 38t-0.5 40h160q0 -9 0.5 -24.5t2.5 -29.5q9 -38 37 -53.5t72 -15.5q101 0 111 74q2 12 2.5 29.5t0.5 36t-1 35.5t-3 29q-6 42 -32 59.5t-72 17.5
q-35 0 -65.5 -14.5t-40.5 -51.5h-156v450h508v-142h-362v-182q11 21 30 35.5t43 24t51.5 13.5t54.5 4q100 0 153.5 -45t64.5 -128q2 -16 3.5 -41.5t1.5 -53t-1.5 -54.5t-3.5 -46z" />
    <glyph glyph-name="six" unicode="6" horiz-adv-x="618" 
d="M580 139q-26 -72 -89 -110.5t-169 -38.5q-48 0 -91 8.5t-77.5 28t-60 50.5t-39.5 76q-7 21 -12 50t-8 61.5t-4.5 67t-1.5 65.5q0 61 4 116t11 95q7 41 27.5 76t53.5 61t79.5 41t106.5 15q59 0 102.5 -10.5t74 -30t48.5 -46.5t27 -60q4 -17 6 -41.5t2 -39.5h-151
q0 5 -1 14.5t-3 17.5q-8 28 -31.5 43.5t-74.5 15.5q-52 0 -80.5 -27t-32.5 -74q-2 -23 -3.5 -57.5t-1.5 -59.5q24 25 73 41.5t112 16.5q81 0 133 -31.5t72 -97.5q5 -15 8 -47t3 -68t-3 -69.5t-9 -51.5zM425 183q3 11 4.5 29t2 37.5t-1 38.5t-4.5 31q-8 26 -32 42.5t-72 16.5
q-28 0 -50.5 -6.5t-39 -16t-26.5 -20t-14 -18.5q1 -29 3 -61t5 -50q9 -45 41 -65t78 -20q45 0 71.5 16.5t34.5 45.5z" />
    <glyph glyph-name="seven" unicode="7" horiz-adv-x="525" 
d="M251 0h-170l273 649h-350v143h515v-132z" />
    <glyph glyph-name="eight" unicode="8" horiz-adv-x="610" 
d="M580 151q-20 -75 -88 -118t-188 -43q-123 0 -191 44.5t-85 116.5q-20 85 3 167q7 25 22.5 44.5t36 34t43 22.5t43.5 9q-21 1 -40 10.5t-34 24.5t-25.5 33t-15.5 35q-4 13 -6.5 30t-3 36t1.5 37.5t6 33.5q7 26 24.5 50.5t47 43t72.5 30t101 11.5q53 0 95.5 -10.5t73.5 -29
t50.5 -43t26.5 -52.5q8 -32 6.5 -71t-7.5 -64q-4 -19 -15 -37.5t-26.5 -33t-34.5 -24t-41 -10.5q23 -1 46 -9.5t43 -23t35.5 -35t22.5 -44.5q5 -16 7.5 -36.5t2.5 -43t-2 -44.5t-7 -41zM400 527q3 9 5 22.5t1.5 28t-2.5 27.5t-6 22q-11 24 -37.5 34.5t-56.5 10.5
q-29 0 -55.5 -11t-38.5 -34q-4 -8 -6 -21t-2 -27.5t2 -28t6 -23.5q17 -45 94 -45q37 0 62 11t34 34zM423 173q11 32 11 69t-11 63q-25 58 -119 58t-119 -58q-5 -12 -7.5 -29t-2.5 -35.5t2.5 -36.5t7.5 -31q11 -27 43 -42t76 -15t76 14.5t43 42.5z" />
    <glyph glyph-name="nine" unicode="9" horiz-adv-x="616" 
d="M572 182q-9 -40 -29.5 -75t-53.5 -61t-78.5 -41t-105.5 -15q-115 0 -174.5 39.5t-76.5 108.5q-4 17 -6.5 39.5t-2.5 39.5h152q0 -5 0.5 -14.5t2.5 -18.5q16 -57 107 -57q50 0 79.5 25t32.5 70q1 12 2 28t2 33t1.5 33t0.5 28q-25 -24 -70 -41t-107 -17q-80 0 -132 33
t-70 86q-7 21 -10.5 55t-3.5 70t3.5 69.5t10.5 54.5q27 68 90 107.5t167 39.5q93 0 159 -35.5t98 -123.5q8 -21 13 -51t8.5 -63t5 -66.5t1.5 -62.5q0 -26 -0.5 -56t-2.5 -59t-5 -55.5t-8 -46.5zM424 467q0 14 -1 31t-2 33t-2 30t-3 23q-8 44 -35.5 66t-77.5 22
q-42 0 -69.5 -19t-35.5 -46q-3 -11 -5 -29.5t-2 -38.5t1.5 -38.5t4.5 -29.5q9 -28 33 -44.5t72 -16.5q28 0 49 6.5t36 15.5t24 18.5t13 16.5z" />
    <glyph glyph-name="colon" unicode=":" horiz-adv-x="292" 
d="M68 374v173h158v-173h-158zM68 0v173h158v-173h-158z" />
    <glyph glyph-name="semicolon" unicode=";" horiz-adv-x="292" 
d="M70 374v173h156v-173h-156zM130 -120l-68 49l45 74l-11 -3h-26v175h156v-176z" />
    <glyph glyph-name="less" unicode="&#x3c;" horiz-adv-x="540" 
d="M35 290v137l458 171v-130l-325 -110l325 -111v-130z" />
    <glyph glyph-name="equal" unicode="=" horiz-adv-x="532" 
d="M26 421v113h479v-113h-479zM26 246v112h479v-112h-479z" />
    <glyph glyph-name="greater" unicode="&#x3e;" horiz-adv-x="540" 
d="M39 118v129l325 111l-325 110v131l458 -172v-137z" />
    <glyph glyph-name="question" unicode="?" horiz-adv-x="568" 
d="M185 228q0 63 14.5 105t36 71t46.5 49.5t46.5 40.5t36 43t14.5 58q0 40 -21 59t-81 19q-44 0 -68 -15.5t-29 -42.5q-1 -3 -1.5 -11t-1 -16.5t-1 -16.5t-0.5 -11h-155q0 9 0.5 22t2 26.5t3.5 26.5t5 22q8 33 26.5 60t50 46t77 29t108.5 10q135 0 197 -45.5t62 -146.5
q0 -55 -17 -91.5t-42 -63t-54.5 -47t-54.5 -44.5t-42 -55.5t-17 -80.5h-141zM175 0v178h163v-178h-163z" />
    <glyph glyph-name="at" unicode="@" horiz-adv-x="894" 
d="M870 396q-3 -60 -20 -108.5t-45.5 -82.5t-68 -52.5t-87.5 -18.5q-47 0 -76.5 24.5t-29.5 69.5q-17 -40 -59 -66.5t-109 -26.5q-37 0 -68.5 12.5t-54.5 37t-34.5 61.5t-8.5 85q3 49 20 93.5t46.5 78.5t71.5 54t94 20q45 0 75 -19.5t39 -48.5l14 51l114 1q-5 -27 -11.5 -58
t-13 -63t-13 -62.5t-11.5 -55.5q-9 -45 1 -70.5t45 -25.5q52 0 79 46t31 127q3 68 -14 126.5t-56 101.5t-99 67.5t-143 24.5q-82 0 -150.5 -26t-118.5 -74t-78.5 -115.5t-31.5 -150.5q-4 -99 22 -169.5t73 -115t110.5 -65t135.5 -20.5q88 0 151.5 25t104.5 58l31 -47
q-21 -16 -48.5 -32.5t-62.5 -29t-79 -20.5t-100 -8q-88 0 -164.5 25.5t-132 78t-85.5 132t-27 187.5q2 94 36.5 171.5t94.5 132.5t142.5 85t182.5 30q98 0 171.5 -30t122.5 -81t72 -119t20 -145zM533 413q1 10 -3 22.5t-13 24t-24 19t-35 7.5q-23 0 -45 -10.5t-39.5 -29
t-29.5 -45t-15 -59.5q-7 -54 11 -83t64 -29q26 0 44.5 8t32 21.5t22 31t12.5 35.5q1 6 3.5 17t5 23.5t5.5 25t4 21.5z" />
    <glyph glyph-name="A" unicode="A" horiz-adv-x="700" 
d="M166 0h-167l252 792h214l235 -792h-169l-54 189h-255zM437 324q-2 10 -7.5 30.5t-13 45.5t-15 52.5t-14.5 51t-11.5 40.5t-5.5 21q-1 5 -3 17.5t-5 26.5q-4 16 -7 34q-3 -19 -7 -35q-3 -14 -5.5 -26.5t-4.5 -17.5q-1 -4 -6 -20.5t-12 -39.5t-15.5 -50.5t-16 -52.5
t-13.5 -46t-9 -31h171v0z" />
    <glyph glyph-name="B" unicode="B" horiz-adv-x="716" 
d="M639 66q-29 -31 -68 -48.5t-101 -17.5h-409v792h384q60 0 100.5 -16t66.5 -45q21 -23 32.5 -57t11.5 -76t-9.5 -79t-32.5 -64q-15 -18 -35.5 -29t-43.5 -15q32 -3 62.5 -18.5t51.5 -40.5q20 -23 28.5 -59t8.5 -78q0 -45 -13 -85.5t-34 -63.5zM486 562q0 23 -6 43t-17 31
t-29 17t-40 6h-172v-200h186q15 0 29.5 5t25.5 17q23 26 23 81zM491 157q12 13 17.5 32.5t5.5 39.5q0 23 -6 43.5t-18 34.5q-12 13 -29.5 18.5t-37.5 5.5h-201v-197h199q22 0 40 4.5t30 18.5z" />
    <glyph glyph-name="C" unicode="C" horiz-adv-x="705" 
d="M681 292q0 -35 -8 -79.5t-31 -85.5q-35 -66 -102 -102t-176 -36q-181 0 -258 103q-38 48 -57.5 128t-19.5 178q0 91 16.5 165t52.5 124q39 57 103.5 86t164.5 29q63 0 111 -12t83 -33.5t58 -51t36 -65.5q14 -40 20 -77.5t6 -68.5h-165q0 22 -6 54t-20 54
q-17 29 -46.5 42.5t-79.5 13.5q-46 0 -76 -15t-49 -41q-10 -15 -17.5 -37t-12 -49t-6.5 -57.5t-2 -61.5q0 -75 10.5 -130.5t30.5 -84.5q21 -30 54 -41.5t70 -11.5q46 0 75.5 14.5t45.5 40.5q15 24 22 52t9 56h164v0z" />
    <glyph glyph-name="D" unicode="D" horiz-adv-x="700" 
d="M615 93q-30 -44 -80.5 -68.5t-134.5 -24.5h-339v792h326q86 0 139.5 -21t84.5 -64q34 -45 44.5 -116t10.5 -181q0 -63 -2 -112.5t-8 -87.5t-16 -66.5t-25 -50.5zM481 185q8 12 13.5 37.5t8.5 57.5t4 66.5t1 63.5q0 27 -1.5 57t-5 57t-9.5 48.5t-14 31.5q-19 25 -43 35.5
t-66 10.5h-146v-511h147q42 0 68 10.5t43 35.5z" />
    <glyph glyph-name="E" unicode="E" horiz-adv-x="622" 
d="M61 0v792h523v-145h-361v-178h346v-145h-346v-180h365v-144h-527z" />
    <glyph glyph-name="F" unicode="F" horiz-adv-x="599" 
d="M225 647v-177h333v-146h-333v-324h-164v792h517v-145h-353z" />
    <glyph glyph-name="G" unicode="G" horiz-adv-x="697" 
d="M536 0l-8 62q-26 -31 -71 -51.5t-123 -20.5q-86 0 -148 31t-98 88q-26 42 -42.5 116.5t-16.5 169.5q0 83 10.5 151.5t45.5 126.5q15 26 38.5 49.5t56.5 41.5t76.5 28.5t98.5 10.5q59 0 104 -10.5t78.5 -29t56 -43.5t36.5 -55q17 -34 23 -75t6 -70h-161q0 20 -6.5 47
t-20.5 47q-15 22 -43.5 35t-66.5 13q-87 0 -123 -53q-20 -30 -29.5 -80.5t-9.5 -136.5q0 -78 9.5 -132t26.5 -80t49 -41.5t79 -15.5q61 0 100.5 27t47.5 72v96h-182v138h335v-251v-72t0.5 -65.5t0.5 -48v-19.5h-129z" />
    <glyph glyph-name="H" unicode="H" horiz-adv-x="716" 
d="M492 0v322h-268v-322h-163v792h163v-323h268v323h164v-792h-164z" />
    <glyph glyph-name="I" unicode="I" horiz-adv-x="289" 
d="M61 0v792h167v-792h-167z" />
    <glyph glyph-name="J" unicode="J" horiz-adv-x="445" 
d="M393 209q0 -109 -61.5 -161.5t-172.5 -52.5q-48 0 -86.5 3t-59.5 8v139q18 -3 48 -5.5t63 -2.5q57 1 80.5 32t23.5 76v547h165v-583v0z" />
    <glyph glyph-name="K" unicode="K" horiz-adv-x="680" 
d="M224 258v-258h-163v792h163v-326l273 326h183l-288 -343l294 -449h-184l-215 332z" />
    <glyph glyph-name="L" unicode="L" horiz-adv-x="576" 
d="M61 0v792h165v-650h337v-142h-502z" />
    <glyph glyph-name="M" unicode="M" horiz-adv-x="882" 
d="M673 0v513l-153 -513h-160l-146 513v-513h-153v792h223l160 -571l167 571h213v-792h-151z" />
    <glyph glyph-name="N" unicode="N" horiz-adv-x="704" 
d="M474 0l-257 498v-498h-156v792h181l248 -486v486h155v-792h-171z" />
    <glyph glyph-name="O" unicode="O" horiz-adv-x="722" 
d="M361 802q110 0 177.5 -33.5t103.5 -95.5q26 -43 38.5 -115t12.5 -157q0 -89 -13 -156t-43 -127q-32 -60 -99.5 -94.5t-176.5 -34.5q-98 0 -169 30.5t-107 96.5q-29 51 -42.5 124.5t-13.5 158.5q0 81 12.5 151.5t41.5 118.5q18 29 42.5 53.5t58.5 42t78 27.5t99 10z
M362 128q50 0 78 15.5t46 37.5q11 14 18.5 38t12.5 53.5t7.5 62t2.5 62.5q0 29 -2 59t-6.5 57.5t-11.5 51t-17 39.5q-17 26 -46.5 42.5t-82.5 16.5t-80.5 -15t-47.5 -44q-9 -12 -15.5 -35.5t-11 -52t-7 -60t-2.5 -61.5t2.5 -62.5t8 -62t14 -54t19.5 -38.5q19 -23 46 -36.5
t75 -13.5z" />
    <glyph glyph-name="P" unicode="P" horiz-adv-x="681" 
d="M655 535q0 -129 -45 -184q-28 -35 -74 -52.5t-110 -19.5h-108q-41 0 -92 1v-280h-165v792h355q66 0 114 -14.5t77 -52.5q25 -33 36.5 -77t11.5 -113zM489 532q0 57 -11 79q-10 18 -30.5 28t-53.5 10h-168v-231h164q39 0 60 10t29 30q6 15 8 31t2 43z" />
    <glyph glyph-name="Q" unicode="Q" horiz-adv-x="722" 
d="M519 24q9 -8 19.5 -15.5t21.5 -13.5q13 -8 25.5 -14t23.5 -9l-93 -116q-14 5 -44 23t-62 40q-28 19 -53.5 40t-36.5 34q-33 3 -67 10.5t-65 22t-57.5 37t-45.5 55.5q-30 54 -43 124.5t-13 156.5q0 80 13 150t43 119q17 29 41.5 53.5t58 42.5t77.5 28t99 10
q110 0 178 -33.5t103 -95.5q26 -44 38.5 -115.5t12.5 -156.5q0 -87 -15.5 -158t-41.5 -123q-20 -34 -52.5 -59.5t-64.5 -36.5zM362 126q50 0 78.5 15.5t45.5 37.5q11 14 19 38.5t13 54.5t7 62.5t2 62.5q0 27 -1.5 56.5t-6 57t-11.5 51.5t-18 42q-16 25 -46 42.5t-83 17.5
q-50 0 -78 -15.5t-48 -41.5q-10 -13 -17.5 -37t-12 -53t-6.5 -61t-2 -61q0 -30 2.5 -62.5t8 -62t13.5 -54t19 -38.5q19 -24 46.5 -38t75.5 -14z" />
    <glyph glyph-name="R" unicode="R" horiz-adv-x="704" 
d="M647 558q0 -46 -7 -80t-19 -57q-15 -29 -37.5 -47t-48.5 -23l157 -351h-180l-130 315h-160v-315h-161v792h374q66 0 111.5 -21.5t67.5 -61.5q17 -29 25 -64.5t8 -86.5zM486 544q0 18 -2.5 37t-6.5 29q-15 40 -77 40h-177v-201h185q24 0 42 8t25 22q5 12 8 30.5t3 34.5z
" />
    <glyph glyph-name="S" unicode="S" horiz-adv-x="672" 
d="M641 215q0 -52 -18 -93.5t-54.5 -71t-92 -45.5t-130.5 -16q-76 0 -130.5 11.5t-90.5 32.5t-57 51.5t-30 67.5q-3 11 -4.5 24t-2 25t-1 22.5t-0.5 14.5h165q0 -4 0.5 -12t2 -16.5t3 -16t3.5 -12.5q13 -32 45.5 -45.5t95.5 -13.5q72 0 100.5 22t28.5 64q0 44 -27.5 69
t-94.5 45l-55 17.5t-60 20.5q-97 30 -151 82.5t-54 145.5q0 96 74 154.5t222 58.5q66 0 115.5 -12t84.5 -34t56.5 -53t32.5 -68q5 -18 9 -40.5t4 -38.5h-166q0 7 -1.5 21.5t-6.5 27.5q-11 30 -40.5 46t-89.5 16q-37 0 -61 -5t-38.5 -14t-20.5 -22.5t-6 -30.5q0 -21 7 -36.5
t23.5 -28.5t43.5 -25t67 -24q13 -4 28.5 -9.5t30.5 -10.5t29 -10.5t24 -9.5q45 -13 80 -32t59 -46t36.5 -63t12.5 -84z" />
    <glyph glyph-name="T" unicode="T" horiz-adv-x="604" 
d="M385 648v-648h-166v648h-215v144h596v-144h-215z" />
    <glyph glyph-name="U" unicode="U" horiz-adv-x="705" 
d="M652 223q0 -58 -21.5 -101.5t-61 -72.5t-94.5 -44t-123 -15q-66 0 -121 14t-95 43.5t-62 74.5t-22 108v562h164v-548q0 -55 34.5 -85.5t103.5 -30.5q62 0 98 30t36 85v549h164v-569v0z" />
    <glyph glyph-name="V" unicode="V" horiz-adv-x="699" 
d="M448 0h-201l-247 792h173l178 -606l180 606h167z" />
    <glyph glyph-name="W" unicode="W" horiz-adv-x="988" 
d="M799 0h-189q-31 147 -56 265q-10 50 -20.5 99t-18.5 89t-13 66t-5 31q0 -5 -5 -31t-13.5 -66t-19 -89t-21.5 -99q-26 -118 -59 -265h-188l-191 792h173q35 -158 62 -284q12 -54 23 -106t19.5 -94t13.5 -69.5t5 -32.5q0 5 5 32.5t13 69.5t18 94t21 106q26 126 57 284h178
q32 -158 58 -284q11 -54 21.5 -106t18.5 -94t13 -69.5t5 -32.5q0 5 5.5 32.5t14 69.5t19.5 94t23 106q27 126 61 284h160z" />
    <glyph glyph-name="X" unicode="X" horiz-adv-x="670" 
d="M176 0h-174l248 402l-232 390h182l143 -245l148 245h171l-237 -386l242 -406h-181l-153 261z" />
    <glyph glyph-name="Y" unicode="Y" horiz-adv-x="699" 
d="M428 275v-275h-166v274l-260 518h174q48 -99 85 -177q16 -33 31 -65.5l27 -58.5t19.5 -43t7.5 -19q0 2 8 19t21 43t29.5 58.5t33.5 65.5q40 78 92 177h169z" />
    <glyph glyph-name="Z" unicode="Z" horiz-adv-x="620" 
d="M21 0v127l373 520h-352v145h553v-124l-378 -525h388v-143h-584z" />
    <glyph glyph-name="bracketleft" unicode="[" horiz-adv-x="364" 
d="M55 -171v963h281v-114h-137v-738h137v-111h-281z" />
    <glyph glyph-name="backslash" unicode="\" horiz-adv-x="279" 
d="M73 797l238 -957h-87l-240 957h89z" />
    <glyph glyph-name="bracketright" unicode="]" horiz-adv-x="369" 
d="M32 -60h136v739h-136v113h281v-963h-281v111z" />
    <glyph glyph-name="asciicircum" unicode="^" horiz-adv-x="582" 
d="M116 510l-95 87l203 203h138l203 -203l-96 -87l-176 173z" />
    <glyph glyph-name="underscore" unicode="_" horiz-adv-x="432" 
d="M0 -187v130h431v-130h-431z" />
    <glyph glyph-name="grave" unicode="`" 
d="M176 592l-104 153h160l86 -153h-142z" />
    <glyph glyph-name="a" unicode="a" horiz-adv-x="590" 
d="M413 0q-5 0 -9 12t-4 40q-27 -27 -71.5 -42t-116.5 -15q-78 0 -128.5 33t-55.5 96q-1 13 -1.5 27.5t1.5 29.5q2 31 17 59t44.5 49.5t74.5 35.5t108 18q57 3 124 -3q0 10 0.5 23.5t-1.5 26.5q-4 24 -27 38t-63 14q-34 0 -56 -5.5t-33 -21.5q-19 -26 -19 -55h-144
q-1 23 6 53t19 51q31 51 85.5 74.5t140.5 23.5q114 0 170 -38t64 -106q2 -13 3 -32.5t1.5 -41t0.5 -43.5v-40q0 -14 -0.5 -33t-0.5 -39.5v-40.5v-35q0 -16 0.5 -34.5t2 -34.5t3 -28t4.5 -16h-139zM400 241q-18 2 -37.5 4t-42.5 1t-52 -3t-54 -15q-37 -19 -37 -56
q0 -11 1 -21.5t9 -20.5q10 -13 31.5 -18.5t46.5 -5.5q23 0 47 6t40 18q14 11 26 26.5t17 40.5q3 11 4 24.5t1 19.5z" />
    <glyph glyph-name="b" unicode="b" horiz-adv-x="620" 
d="M369 561q119 0 175 -80q26 -34 39.5 -82t13.5 -114q0 -64 -14.5 -114t-37.5 -85q-26 -42 -74 -66t-105 -24q-54 0 -98 14.5t-70 48.5l-13 -59h-136v797h150v-315q8 15 23.5 29.5t37.5 25.5t50 17.5t59 6.5zM323 428q-42 0 -69 -15t-41 -42q-19 -40 -19 -96q0 -31 4.5 -58
t15.5 -47q13 -24 39 -37.5t68 -13.5q76 0 104 48q19 37 19 108q0 28 -3.5 52.5t-13.5 46.5q-13 26 -39 40t-65 14z" />
    <glyph glyph-name="c" unicode="c" horiz-adv-x="581" 
d="M412 329q0 14 -4 30t-13 30q-12 18 -35 30t-61 12q-33 0 -57 -9t-39 -30q-15 -22 -20.5 -52.5t-5.5 -63.5q0 -35 4.5 -66t20.5 -54q26 -38 100 -38q38 0 61.5 10t34.5 27q11 15 13.5 31t2.5 29h145q0 -42 -11.5 -81.5t-39.5 -68.5q-31 -35 -81 -54.5t-127 -19.5
q-141 0 -208 71q-37 40 -52 92t-15 123q0 133 59 204q36 42 90 61.5t121 19.5q57 0 99 -10.5t71.5 -28t48 -41t28.5 -49.5q10 -22 13.5 -51.5t3.5 -52.5h-147z" />
    <glyph glyph-name="d" unicode="d" horiz-adv-x="613" 
d="M253 556q52 0 96.5 -15t68.5 -49v303h152v-722q0 -11 0.5 -24t1.5 -24q1 -13 2 -25h-135l-17 68q-15 -30 -58.5 -53t-109.5 -23q-62 0 -105 20.5t-71 59.5q-26 35 -39.5 83.5t-13.5 112.5q0 67 13.5 116t39.5 87q26 39 73.5 62t101.5 23zM303 425q-73 0 -101 -45
q-25 -43 -25 -109q0 -28 4 -54t15 -49q13 -23 38.5 -38t66.5 -15q33 0 56 12t38 32q14 18 20.5 45t6.5 67q0 81 -29 117q-30 37 -90 37z" />
    <glyph glyph-name="e" unicode="e" horiz-adv-x="583" 
d="M561 179q-5 -32 -22.5 -68.5t-52.5 -64.5q-32 -26 -77 -40.5t-110 -14.5q-80 0 -141.5 25.5t-94.5 82.5q-18 32 -28 76.5t-10 101.5q0 48 10.5 94t33.5 82q31 49 89.5 79t140.5 30q86 0 142 -31t85 -79q26 -41 35 -99.5t4 -127.5h-391q0 -19 6 -38.5t17 -35.5
q13 -17 39.5 -27.5t62.5 -10.5q53 0 84 20q16 11 23.5 23.5t8.5 22.5h146v0zM416 329q0 17 -4.5 37t-15.5 34q-13 16 -37 27t-60 11q-35 0 -60 -10.5t-40 -27.5q-13 -14 -19 -35t-7 -36h243v0z" />
    <glyph glyph-name="f" unicode="f" horiz-adv-x="375" 
d="M242 420v-420h-153v420h-78v130h78v97q0 33 9 61.5t28.5 49.5t50.5 33t76 12q14 0 32 -0.5t35.5 -1.5t31.5 -2t20 -2v-123q-11 2 -31 3.5t-33 1.5q-38 0 -52.5 -17t-14.5 -40v-73h128v-129h-127z" />
    <glyph glyph-name="g" unicode="g" horiz-adv-x="582" 
d="M280 564q70 0 113 -14t63 -30q11 11 27 18t34.5 11.5t37.5 5.5t34 0v-86q-4 0 -16.5 -0.5t-27 -2t-27 -3.5t-15.5 -5q8 -11 15 -32.5t8 -43.5q1 -11 0 -31t-3 -34q-9 -62 -68 -102.5t-164 -40.5q-37 0 -68 7t-43 15q-26 -3 -26 -25q0 -10 6.5 -16.5t23 -9.5t45 -3.5
t71.5 -0.5q82 2 136 -7.5t86.5 -29t46 -47t13.5 -62.5q0 -76 -68.5 -117t-222.5 -41q-149 0 -215.5 30.5t-66.5 93.5q0 46 27.5 66t67.5 28q-40 5 -58 30t-18 56q0 29 20 54.5t52 33.5q-26 12 -42.5 40.5t-18.5 63.5v15.5v20t0.5 20t0.5 15.5q2 30 17.5 59t45 51.5t73.5 36
t104 13.5zM284 447q-47 0 -71 -17.5t-27 -41.5q-2 -9 -2.5 -24t1.5 -30q3 -23 26 -39.5t71 -16.5q51 0 73 16.5t25 39.5q2 13 2.5 30t-1.5 27q-3 24 -26 40t-71 16zM284 -55q83 0 118 12t35 35q0 11 -5 18t-19 11.5t-40 6.5t-67 3q-15 0 -33.5 0.5t-36 0.5t-31 0.5
t-19.5 0.5q-45 -9 -45 -41q0 -11 7 -20t23.5 -15t44 -9t68.5 -3z" />
    <glyph glyph-name="h" unicode="h" horiz-adv-x="590" 
d="M395 0q-1 0 -1.5 2.5t-0.5 13t-0.5 32t-0.5 59.5v95.5v139.5q0 38 -20.5 61t-68.5 23q-45 0 -73.5 -25t-28.5 -67v-334h-152v797h150v-318q17 39 60.5 60.5t109.5 21.5q176 0 176 -186v-155.5t0.5 -105.5t1 -64.5t1 -33.5t1.5 -13.5t2 -2.5h-156z" />
    <glyph glyph-name="i" unicode="i" horiz-adv-x="255" 
d="M49 600v140h158v-140h-158zM57 0q-4 2 -5 11t-1 41v498h154v-496q0 -31 0.5 -41.5t3.5 -12.5h-152z" />
    <glyph glyph-name="j" unicode="j" horiz-adv-x="262" 
d="M55 600v140h158v-140h-158zM211 -11q0 -87 -42.5 -125t-116.5 -38q-12 0 -28 0.5t-30.5 2t-26 2.5t-15.5 3v122q8 -2 18.5 -2h22.5q32 0 48 15t16 51v530h154v-561v0z" />
    <glyph glyph-name="k" unicode="k" horiz-adv-x="564" 
d="M405 0l-127 246l-77 -83v-163h-152v797h152v-449l182 202h172l-171 -193l187 -357h-166z" />
    <glyph glyph-name="l" unicode="l" horiz-adv-x="250" 
d="M55 0q-2 2 -3 11t-1 32v696q0 19 -1 35t-2 22h152q2 -5 3 -17t1 -29v-702q0 -21 0.5 -32.5t3.5 -15.5h-153z" />
    <glyph glyph-name="m" unicode="m" horiz-adv-x="878" 
d="M692 0q-2 0 -3 32t-1.5 82.5t-0.5 112v120.5q0 16 -3.5 30.5t-12.5 25.5t-25 17.5t-40 6.5q-38 0 -63.5 -22.5t-25.5 -62.5v-342h-145v353q0 34 -20.5 54t-58.5 20q-43 0 -67.5 -27t-24.5 -60v-340h-152v550h148v-76q17 42 59.5 64t99.5 22q62 0 97.5 -25t49.5 -63
q17 42 58 65t102 23q45 0 76.5 -12t51 -33t28.5 -51t9 -66v-139.5t0.5 -127.5t1.5 -93t2 -38h-140v0z" />
    <glyph glyph-name="n" unicode="n" horiz-adv-x="590" 
d="M398 0q-2 0 -3.5 7t-2 39.5t-0.5 100.5v189q0 43 -20.5 66.5t-65.5 23.5q-42 0 -73.5 -23.5t-31.5 -70.5v-332h-152v550h147v-72q20 42 67 62.5t103 20.5q94 0 136.5 -47t42.5 -138v-214t0.5 -112t1.5 -43t2 -7h-151z" />
    <glyph glyph-name="o" unicode="o" horiz-adv-x="604" 
d="M579 277q0 -56 -13 -103t-41 -85q-33 -43 -88.5 -70.5t-134.5 -27.5q-81 0 -135 25t-87 67q-28 38 -41.5 87t-13.5 107q0 53 12.5 100.5t42.5 88.5q32 43 85.5 69.5t138.5 26.5q82 0 135.5 -25.5t83.5 -66.5q29 -38 42.5 -88.5t13.5 -104.5zM430 276q0 32 -5 63t-17 49
q-14 21 -39.5 32t-65.5 11q-74 0 -104 -50q-12 -18 -17 -47.5t-5 -57.5q0 -32 4 -61.5t15 -48.5q31 -48 107 -48q74 0 105 49q11 19 16.5 48t5.5 61z" />
    <glyph glyph-name="p" unicode="p" horiz-adv-x="618" 
d="M592 285q0 -66 -11.5 -116t-37.5 -87q-26 -39 -73 -62.5t-104 -23.5q-53 0 -96.5 14t-69.5 46v-226h-151v720h147l4 -67q14 31 57 54.5t108 23.5q57 0 103 -22t72 -61q24 -35 38 -82t14 -111zM441 276q0 35 -6.5 62.5t-22.5 49.5q-14 19 -38 29.5t-57 10.5q-28 0 -52 -9
t-38 -29q-15 -20 -22.5 -46.5t-7.5 -67.5t6 -66.5t19 -45.5q12 -20 37 -31.5t57 -11.5q36 0 63.5 12t41.5 38q11 20 15.5 47.5t4.5 57.5z" />
    <glyph glyph-name="q" unicode="q" horiz-adv-x="614" 
d="M424 -170l-5 7v230q-17 -34 -57 -55t-100 -21q-66 0 -111.5 21.5t-73.5 63.5q-24 35 -38 81.5t-14 111.5q0 72 14 117.5t39 81.5q26 39 75 63.5t103 24.5q51 0 97 -15t71 -57v66h143v-647q0 -37 1.5 -53t2.5 -20h-147zM422 273q0 36 -7 66.5t-23 48.5q-28 36 -89 36
q-71 0 -101 -44q-12 -19 -18 -48.5t-6 -58.5q0 -27 4 -55t14 -48q13 -25 38 -40t67 -15q34 0 57 12t37 32q14 18 20.5 49t6.5 65z" />
    <glyph glyph-name="r" unicode="r" horiz-adv-x="443" 
d="M439 407q-23 7 -50 10.5t-62 3.5q-55 0 -89.5 -33.5t-34.5 -104.5v-283h-154v550h150v-82q4 20 18 37t34.5 29.5t46 20t52.5 7.5q31 0 53 -3.5t36 -8.5v-143z" />
    <glyph glyph-name="s" unicode="s" horiz-adv-x="556" 
d="M530 158q0 -85 -61 -126.5t-180 -41.5q-118 0 -181 29t-77 94q-3 16 -4 32t-1 27h148q0 -6 0.5 -14t3.5 -18q10 -32 107 -32q54 0 76 11.5t22 36.5q0 24 -21.5 34.5t-72.5 21.5q-9 2 -22 4.5t-27.5 5.5t-28.5 6t-25 5q-77 16 -114.5 56.5t-37.5 114.5q0 70 59 114.5
t174 44.5q98 0 157 -27t79 -86q6 -19 7.5 -41.5t1.5 -30.5h-144q0 5 -1.5 16t-3.5 16q-7 13 -26.5 22t-65.5 9q-53 0 -72 -11t-19 -31t18.5 -31t60.5 -19q13 -3 29 -6.5t32 -6.5t29.5 -6t20.5 -5q79 -16 119.5 -55t40.5 -112z" />
    <glyph glyph-name="t" unicode="t" horiz-adv-x="376" 
d="M231 420v-241q0 -35 15 -47t48 -12q14 0 31 2t29 4v-121q-20 -5 -51 -8t-68 -3q-30 0 -58.5 7t-50.5 24t-35.5 45t-13.5 70v280h-73v130h71q2 4 2.5 22.5t1.5 38.5q1 24 1 53l148 1v-115h132v-130h-129z" />
    <glyph glyph-name="u" unicode="u" horiz-adv-x="589" 
d="M544 0h-146l-4 64q-25 -39 -69 -55.5t-101 -16.5q-36 0 -68.5 9t-57 29t-39 52.5t-14.5 79.5v209.5t-0.5 116t-1.5 50.5t-2 12h154q2 0 2.5 -90t0.5 -266q0 -46 25 -63.5t63 -17.5q48 0 75.5 23.5t27.5 67.5v346h152v-470q0 -33 1 -54t2 -26z" />
    <glyph glyph-name="v" unicode="v" horiz-adv-x="588" 
d="M387 0h-186l-196 550h161l130 -406l131 406h156z" />
    <glyph glyph-name="w" unicode="w" horiz-adv-x="889" 
d="M720 0h-181q-23 88 -42 160q-8 31 -16 61t-14.5 55t-11 43t-5.5 24q-1 5 -1.5 16t-2.5 22q-2 13 -3 28q-1 -15 -3 -28q-2 -11 -2.5 -21.5t-1.5 -15.5q-1 -6 -5 -24t-10.5 -43.5t-14 -55.5t-15.5 -61q-18 -72 -42 -160h-178l-166 550h153l108 -411l97 411h168l101 -411
l104 411h151z" />
    <glyph glyph-name="x" unicode="x" horiz-adv-x="560" 
d="M390 550h161q-52 -75 -93 -134q-18 -25 -34.5 -49t-30 -42.5t-21.5 -30.5l-8 -12l194 -282h-167l-116 170l-112 -170h-160l195 280l-185 270h167l106 -157z" />
    <glyph glyph-name="y" unicode="y" horiz-adv-x="589" 
d="M308 -170h-160l67 173l-210 547h161q37 -105 66 -189q12 -36 24 -70t21.5 -61.5t15 -44.5t5.5 -19q0 2 6 19t15 44.5t20.5 61.5t23.5 70q28 84 64 189h157z" />
    <glyph glyph-name="z" unicode="z" horiz-adv-x="517" 
d="M24 0v110l273 311h-264v129h454v-120l-266 -302h276v-128h-473z" />
    <glyph glyph-name="braceleft" unicode="{" horiz-adv-x="419" 
d="M281 -166q-41 0 -70.5 11t-48 29t-27.5 42t-9 51t3 55.5t6.5 57t6.5 56t3 51.5q0 23 -5.5 43t-18.5 34t-34.5 22t-53.5 8v117q65 1 89 27.5t24 69.5q0 22 -3 39.5t-7 35.5t-7 37t-3 44q0 26 10.5 49.5t30 41t47.5 27.5t64 10h109v-115q-71 4 -97.5 -15t-24.5 -64
q1 -24 8 -59t7 -66q0 -45 -23.5 -77.5t-78.5 -38.5q29 -3 48.5 -15t31.5 -29.5t17 -39t5 -44.5q0 -44 -7.5 -98t-8.5 -100q-2 -44 25 -64t98 -15v-118h-106z" />
    <glyph glyph-name="bar" unicode="|" horiz-adv-x="313" 
d="M98 -200v1000h119v-1000h-119z" />
    <glyph glyph-name="braceright" unicode="}" horiz-adv-x="419" 
d="M31 -48q72 -5 99 15t25 64q-1 46 -9 100t-8 98q0 23 5 44.5t17 39t31.5 29.5t48.5 15q-54 6 -78 38.5t-24 77.5q0 31 7.5 66t8.5 59q2 44 -25 63.5t-98 15.5v115h109q36 0 64.5 -10t48 -27.5t29.5 -41t10 -49.5q0 -25 -3 -44t-6.5 -37t-6.5 -35.5t-3 -39.5
q0 -43 23.5 -69.5t88.5 -27.5v-117q-64 0 -87.5 -30t-23.5 -77q0 -24 3 -51.5t6 -56l6 -57t3 -55.5t-8.5 -51t-27.5 -42t-48.5 -29t-70.5 -11h-106v118z" />
    <glyph glyph-name="asciitilde" unicode="~" horiz-adv-x="602" 
d="M294 297q-15 14 -27.5 29.5t-25 28t-26.5 20.5t-32 8q-16 0 -27.5 -10t-18.5 -25t-10.5 -33.5t-4.5 -35.5l-115 11q5 114 50.5 167.5t120.5 53.5q45 0 77.5 -16.5t64.5 -50.5q13 -14 24.5 -28.5t23.5 -26t26 -19t30 -7.5q29 0 46 25t19 70l103 -15q-5 -103 -47 -153
t-114 -50q-42 0 -73.5 12t-63.5 45z" />
    <glyph glyph-name="Adieresis" unicode="&#xc4;" horiz-adv-x="700" 
d="M166 0h-167l252 792h214l235 -792h-169l-54 189h-255zM437 324q-2 10 -7.5 30.5t-13 45.5t-15 52.5t-14.5 51t-11.5 40.5t-5.5 21q-1 5 -3 17.5t-5 26.5q-4 16 -7 34q-3 -19 -7 -35q-3 -14 -5.5 -26.5t-4.5 -17.5q-1 -4 -6 -20.5t-12 -39.5t-15.5 -50.5t-16 -52.5
t-13.5 -46t-9 -31h171v0zM393 832v139h128v-139h-128zM193 832v139h128v-139h-128z" />
    <glyph glyph-name="Aring" unicode="&#xc5;" horiz-adv-x="700" 
d="M281 792q-19 16 -30.5 39.5t-11.5 50.5q0 23 9.5 44t25.5 36.5t37.5 24.5t45.5 9t45.5 -9t37.5 -24.5t25 -36.5t9 -44q0 -27 -11 -50.5t-31 -39.5h33l235 -792h-169l-54 189h-255l-56 -189h-167l252 792h30v0zM357 920q-16 0 -26.5 -11.5t-10.5 -26.5q0 -16 10.5 -28.5
t26.5 -12.5q15 0 26 12.5t11 28.5q0 15 -11 26.5t-26 11.5zM437 324q-2 10 -7.5 30.5t-13 45.5t-15 52.5t-14.5 51t-11.5 40.5t-5.5 21q-1 5 -3 17.5t-5 26.5q-4 16 -7 34q-3 -19 -7 -35q-3 -14 -5.5 -26.5t-4.5 -17.5q-1 -4 -6 -20.5t-12 -39.5t-15.5 -50.5t-16 -52.5
t-13.5 -46t-9 -31h171v0z" />
    <glyph glyph-name="Ccedilla" unicode="&#xc7;" horiz-adv-x="705" 
d="M314 -9q-72 7 -123.5 32t-84.5 69q-38 48 -57.5 128t-19.5 178q0 91 16.5 165t52.5 124q39 57 103.5 86t164.5 29q63 0 111 -12t83 -33.5t58 -51t36 -65.5q14 -40 20 -77.5t6 -68.5h-165q0 22 -6 54t-20 54q-17 29 -46.5 42.5t-79.5 13.5q-46 0 -76 -15t-49 -41
q-10 -15 -17.5 -37t-12 -49t-6.5 -57.5t-2 -61.5q0 -75 10.5 -130.5t30.5 -84.5q21 -30 54 -41.5t70 -11.5q46 0 75.5 14.5t45.5 40.5q15 24 22 52t9 56h164q0 -35 -8 -79.5t-31 -85.5q-32 -60 -90 -95t-150 -42v-17q17 0 34 -4t31 -13t22.5 -24.5t8.5 -38.5
q0 -30 -15.5 -51.5t-44.5 -32t-70.5 -9.5t-92.5 17v65q46 -17 77 -12t31 31q0 25 -20 32.5t-49 7.5v50v0z" />
    <glyph glyph-name="Eacute" unicode="&#xc9;" horiz-adv-x="622" 
d="M61 0v792h523v-145h-361v-178h346v-145h-346v-180h365v-144h-527zM327 988h159l-104 -153h-140z" />
    <glyph glyph-name="Ntilde" unicode="&#xd1;" horiz-adv-x="704" 
d="M477 0l-257 498v-498h-156v792h181l248 -486v486h155v-792h-171zM370 856q-16 13 -28.5 20.5t-28.5 5.5q-12 -2 -20 -10.5t-9 -35.5h-98q1 69 28 107.5t78 38.5q20 0 37 -4.5t38 -23.5q15 -13 27.5 -19.5t26.5 -4.5q13 2 21 10.5t9 35.5h97q-1 -71 -28 -108.5t-77 -37.5
q-20 0 -36.5 4t-36.5 22z" />
    <glyph glyph-name="Odieresis" unicode="&#xd6;" horiz-adv-x="722" 
d="M361 802q110 0 177.5 -33.5t103.5 -95.5q26 -43 38.5 -115t12.5 -157q0 -89 -13 -156t-43 -127q-32 -60 -99.5 -94.5t-176.5 -34.5q-98 0 -169 30.5t-107 96.5q-29 51 -42.5 124.5t-13.5 158.5q0 81 12.5 151.5t41.5 118.5q18 29 42.5 53.5t58.5 42t78 27.5t99 10z
M362 128q50 0 78 15.5t46 37.5q11 14 18.5 38t12.5 53.5t7.5 62t2.5 62.5q0 29 -2 59t-6.5 57.5t-11.5 51t-17 39.5q-17 26 -46.5 42.5t-82.5 16.5t-80.5 -15t-47.5 -44q-9 -12 -15.5 -35.5t-11 -52t-7 -60t-2.5 -61.5t2.5 -62.5t8 -62t14 -54t19.5 -38.5q19 -23 46 -36.5
t75 -13.5zM397 832v139h128v-139h-128zM197 832v139h128v-139h-128z" />
    <glyph glyph-name="Udieresis" unicode="&#xdc;" horiz-adv-x="705" 
d="M652 223q0 -58 -21.5 -101.5t-61 -72.5t-94.5 -44t-123 -15q-66 0 -121 14t-95 43.5t-62 74.5t-22 108v562h164v-548q0 -55 34.5 -85.5t103.5 -30.5q62 0 98 30t36 85v549h164v-569v0zM394 832v139h128v-139h-128zM194 832v139h128v-139h-128z" />
    <glyph glyph-name="aacute" unicode="&#xe1;" horiz-adv-x="590" 
d="M413 0q-5 0 -9 12t-4 40q-27 -27 -71.5 -42t-116.5 -15q-78 0 -128.5 33t-55.5 96q-1 13 -1.5 27.5t1.5 29.5q2 31 17 59t44.5 49.5t74.5 35.5t108 18q57 3 124 -3q0 10 0.5 23.5t-1.5 26.5q-4 24 -27 38t-63 14q-34 0 -56 -5.5t-33 -21.5q-19 -26 -19 -55h-144
q-1 23 6 53t19 51q31 51 85.5 74.5t140.5 23.5q114 0 170 -38t64 -106q2 -13 3 -32.5t1.5 -41t0.5 -43.5v-40q0 -14 -0.5 -33t-0.5 -39.5v-40.5v-35q0 -16 0.5 -34.5t2 -34.5t3 -28t4.5 -16h-139zM400 241q-18 2 -37.5 4t-42.5 1t-52 -3t-54 -15q-37 -19 -37 -56
q0 -11 1 -21.5t9 -20.5q10 -13 31.5 -18.5t46.5 -5.5q23 0 47 6t40 18q14 11 26 26.5t17 40.5q3 11 4 24.5t1 19.5zM301 745h159l-104 -153h-140z" />
    <glyph glyph-name="agrave" unicode="&#xe0;" horiz-adv-x="590" 
d="M413 0q-5 0 -9 12t-4 40q-27 -27 -71.5 -42t-116.5 -15q-78 0 -128.5 33t-55.5 96q-1 13 -1.5 27.5t1.5 29.5q2 31 17 59t44.5 49.5t74.5 35.5t108 18q57 3 124 -3q0 10 0.5 23.5t-1.5 26.5q-4 24 -27 38t-63 14q-34 0 -56 -5.5t-33 -21.5q-19 -26 -19 -55h-144
q-1 23 6 53t19 51q31 51 85.5 74.5t140.5 23.5q114 0 170 -38t64 -106q2 -13 3 -32.5t1.5 -41t0.5 -43.5v-40q0 -14 -0.5 -33t-0.5 -39.5v-40.5v-35q0 -16 0.5 -34.5t2 -34.5t3 -28t4.5 -16h-139zM400 241q-18 2 -37.5 4t-42.5 1t-52 -3t-54 -15q-37 -19 -37 -56
q0 -11 1 -21.5t9 -20.5q10 -13 31.5 -18.5t46.5 -5.5q23 0 47 6t40 18q14 11 26 26.5t17 40.5q3 11 4 24.5t1 19.5zM242 592l-104 153h160l86 -153h-142z" />
    <glyph glyph-name="acircumflex" unicode="&#xe2;" horiz-adv-x="590" 
d="M413 0q-5 0 -9 12t-4 40q-27 -27 -71.5 -42t-116.5 -15q-78 0 -128.5 33t-55.5 96q-1 13 -1.5 27.5t1.5 29.5q2 31 17 59t44.5 49.5t74.5 35.5t108 18q57 3 124 -3q0 10 0.5 23.5t-1.5 26.5q-4 24 -27 38t-63 14q-34 0 -56 -5.5t-33 -21.5q-19 -26 -19 -55h-144
q-1 23 6 53t19 51q31 51 85.5 74.5t140.5 23.5q114 0 170 -38t64 -106q2 -13 3 -32.5t1.5 -41t0.5 -43.5v-40q0 -14 -0.5 -33t-0.5 -39.5v-40.5v-35q0 -16 0.5 -34.5t2 -34.5t3 -28t4.5 -16h-139zM400 241q-18 2 -37.5 4t-42.5 1t-52 -3t-54 -15q-37 -19 -37 -56
q0 -11 1 -21.5t9 -20.5q10 -13 31.5 -18.5t46.5 -5.5q23 0 47 6t40 18q14 11 26 26.5t17 40.5q3 11 4 24.5t1 19.5zM358 594l-56 73l-56 -73h-120l100 152h154l100 -152h-122z" />
    <glyph glyph-name="adieresis" unicode="&#xe4;" horiz-adv-x="590" 
d="M413 0q-5 0 -9 12t-4 40q-27 -27 -71.5 -42t-116.5 -15q-78 0 -128.5 33t-55.5 96q-1 13 -1.5 27.5t1.5 29.5q2 31 17 59t44.5 49.5t74.5 35.5t108 18q57 3 124 -3q0 10 0.5 23.5t-1.5 26.5q-4 24 -27 38t-63 14q-34 0 -56 -5.5t-33 -21.5q-19 -26 -19 -55h-144
q-1 23 6 53t19 51q31 51 85.5 74.5t140.5 23.5q114 0 170 -38t64 -106q2 -13 3 -32.5t1.5 -41t0.5 -43.5v-40q0 -14 -0.5 -33t-0.5 -39.5v-40.5v-35q0 -16 0.5 -34.5t2 -34.5t3 -28t4.5 -16h-139zM400 241q-18 2 -37.5 4t-42.5 1t-52 -3t-54 -15q-37 -19 -37 -56
q0 -11 1 -21.5t9 -20.5q10 -13 31.5 -18.5t46.5 -5.5q23 0 47 6t40 18q14 11 26 26.5t17 40.5q3 11 4 24.5t1 19.5zM340 590v139h128v-139h-128zM140 590v139h128v-139h-128z" />
    <glyph glyph-name="atilde" unicode="&#xe3;" horiz-adv-x="590" 
d="M413 0q-5 0 -9 12t-4 40q-27 -27 -71.5 -42t-116.5 -15q-78 0 -128.5 33t-55.5 96q-1 13 -1.5 27.5t1.5 29.5q2 31 17 59t44.5 49.5t74.5 35.5t108 18q57 3 124 -3q0 10 0.5 23.5t-1.5 26.5q-4 24 -27 38t-63 14q-34 0 -56 -5.5t-33 -21.5q-19 -26 -19 -55h-144
q-1 23 6 53t19 51q31 51 85.5 74.5t140.5 23.5q114 0 170 -38t64 -106q2 -13 3 -32.5t1.5 -41t0.5 -43.5v-40q0 -14 -0.5 -33t-0.5 -39.5v-40.5v-35q0 -16 0.5 -34.5t2 -34.5t3 -28t4.5 -16h-139zM400 241q-18 2 -37.5 4t-42.5 1t-52 -3t-54 -15q-37 -19 -37 -56
q0 -11 1 -21.5t9 -20.5q10 -13 31.5 -18.5t46.5 -5.5q23 0 47 6t40 18q14 11 26 26.5t17 40.5q3 11 4 24.5t1 19.5zM306 616q-16 13 -28.5 20.5t-28.5 5.5q-12 -2 -20 -10.5t-9 -35.5h-98q1 69 28 107.5t78 38.5q20 0 37 -4.5t38 -23.5q15 -13 27.5 -19.5t26.5 -4.5
q13 2 21 10.5t9 35.5h97q-1 -71 -28 -108.5t-77 -37.5q-20 0 -36.5 4t-36.5 22z" />
    <glyph glyph-name="aring" unicode="&#xe5;" horiz-adv-x="590" 
d="M413 0q-5 0 -9 12t-4 40q-27 -27 -71.5 -42t-116.5 -15q-78 0 -128.5 33t-55.5 96q-1 13 -1.5 27.5t1.5 29.5q2 31 17 59t44.5 49.5t74.5 35.5t108 18q57 3 124 -3q0 10 0.5 23.5t-1.5 26.5q-4 24 -27 38t-63 14q-34 0 -56 -5.5t-33 -21.5q-19 -26 -19 -55h-144
q-1 23 6 53t19 51q31 51 85.5 74.5t140.5 23.5q114 0 170 -38t64 -106q2 -13 3 -32.5t1.5 -41t0.5 -43.5v-40q0 -14 -0.5 -33t-0.5 -39.5v-40.5v-35q0 -16 0.5 -34.5t2 -34.5t3 -28t4.5 -16h-139zM400 241q-18 2 -37.5 4t-42.5 1t-52 -3t-54 -15q-37 -19 -37 -56
q0 -11 1 -21.5t9 -20.5q10 -13 31.5 -18.5t46.5 -5.5q23 0 47 6t40 18q14 11 26 26.5t17 40.5q3 11 4 24.5t1 19.5zM301 797q24 0 45.5 -9t37.5 -24.5t25 -36.5t9 -44q0 -24 -9 -45.5t-25 -37.5t-37.5 -25t-45.5 -9t-45.5 9t-37.5 25t-25.5 37.5t-9.5 45.5q0 23 9.5 44
t25.5 36.5t37.5 24.5t45.5 9zM301 721q-16 0 -26.5 -11.5t-10.5 -26.5q0 -16 10.5 -28.5t26.5 -12.5q15 0 26 12.5t11 28.5q0 15 -11 26.5t-26 11.5z" />
    <glyph glyph-name="ccedilla" unicode="&#xe7;" horiz-adv-x="581" 
d="M250 -7q-102 10 -158 69q-37 40 -52 92t-15 123q0 133 59 204q36 42 90 61.5t121 19.5q57 0 99 -10.5t71.5 -28t48 -41t28.5 -49.5q10 -22 13.5 -51.5t3.5 -52.5h-147q0 14 -4 30t-13 30q-12 18 -35 30t-61 12q-33 0 -57 -9t-39 -30q-15 -22 -20.5 -52.5t-5.5 -63.5
q0 -35 4.5 -66t20.5 -54q26 -38 100 -38q38 0 61.5 10t34.5 27q11 15 13.5 31t2.5 29h145q0 -42 -11.5 -81.5t-39.5 -68.5q-27 -30 -68 -49t-102 -24v-17q17 0 34 -4t31 -13t22.5 -24.5t8.5 -38.5q0 -30 -15.5 -51.5t-44.5 -32t-70.5 -9.5t-92.5 17v65q46 -17 77 -12t31 31
q0 25 -20 32.5t-49 7.5v50v0z" />
    <glyph glyph-name="eacute" unicode="&#xe9;" horiz-adv-x="583" 
d="M561 179q-5 -32 -22.5 -68.5t-52.5 -64.5q-32 -26 -77 -40.5t-110 -14.5q-80 0 -141.5 25.5t-94.5 82.5q-18 32 -28 76.5t-10 101.5q0 48 10.5 94t33.5 82q31 49 89.5 79t140.5 30q86 0 142 -31t85 -79q26 -41 35 -99.5t4 -127.5h-391q0 -19 6 -38.5t17 -35.5
q13 -17 39.5 -27.5t62.5 -10.5q53 0 84 20q16 11 23.5 23.5t8.5 22.5h146v0zM416 329q0 17 -4.5 37t-15.5 34q-13 16 -37 27t-60 11q-35 0 -60 -10.5t-40 -27.5q-13 -14 -19 -35t-7 -36h243v0zM303 745h159l-104 -153h-140z" />
    <glyph glyph-name="egrave" unicode="&#xe8;" horiz-adv-x="583" 
d="M561 179q-5 -32 -22.5 -68.5t-52.5 -64.5q-32 -26 -77 -40.5t-110 -14.5q-80 0 -141.5 25.5t-94.5 82.5q-18 32 -28 76.5t-10 101.5q0 48 10.5 94t33.5 82q31 49 89.5 79t140.5 30q86 0 142 -31t85 -79q26 -41 35 -99.5t4 -127.5h-391q0 -19 6 -38.5t17 -35.5
q13 -17 39.5 -27.5t62.5 -10.5q53 0 84 20q16 11 23.5 23.5t8.5 22.5h146v0zM416 329q0 17 -4.5 37t-15.5 34q-13 16 -37 27t-60 11q-35 0 -60 -10.5t-40 -27.5q-13 -14 -19 -35t-7 -36h243v0zM242 592l-104 153h160l86 -153h-142z" />
    <glyph glyph-name="ecircumflex" unicode="&#xea;" horiz-adv-x="583" 
d="M561 179q-5 -32 -22.5 -68.5t-52.5 -64.5q-32 -26 -77 -40.5t-110 -14.5q-80 0 -141.5 25.5t-94.5 82.5q-18 32 -28 76.5t-10 101.5q0 48 10.5 94t33.5 82q31 49 89.5 79t140.5 30q86 0 142 -31t85 -79q26 -41 35 -99.5t4 -127.5h-391q0 -19 6 -38.5t17 -35.5
q13 -17 39.5 -27.5t62.5 -10.5q53 0 84 20q16 11 23.5 23.5t8.5 22.5h146v0zM416 329q0 17 -4.5 37t-15.5 34q-13 16 -37 27t-60 11q-35 0 -60 -10.5t-40 -27.5q-13 -14 -19 -35t-7 -36h243v0zM353 594l-56 73l-56 -73h-120l100 152h154l100 -152h-122z" />
    <glyph glyph-name="edieresis" unicode="&#xeb;" horiz-adv-x="583" 
d="M561 179q-5 -32 -22.5 -68.5t-52.5 -64.5q-32 -26 -77 -40.5t-110 -14.5q-80 0 -141.5 25.5t-94.5 82.5q-18 32 -28 76.5t-10 101.5q0 48 10.5 94t33.5 82q31 49 89.5 79t140.5 30q86 0 142 -31t85 -79q26 -41 35 -99.5t4 -127.5h-391q0 -19 6 -38.5t17 -35.5
q13 -17 39.5 -27.5t62.5 -10.5q53 0 84 20q16 11 23.5 23.5t8.5 22.5h146v0zM416 329q0 17 -4.5 37t-15.5 34q-13 16 -37 27t-60 11q-35 0 -60 -10.5t-40 -27.5q-13 -14 -19 -35t-7 -36h243v0zM333 590v139h128v-139h-128zM133 590v139h128v-139h-128z" />
    <glyph glyph-name="iacute" unicode="&#xed;" horiz-adv-x="255" 
d="M57 0q-4 2 -5 11t-1 41v498h154v-496q0 -31 0.5 -41.5t3.5 -12.5h-152zM140 745h159l-104 -153h-140z" />
    <glyph glyph-name="igrave" unicode="&#xec;" horiz-adv-x="255" 
d="M57 0q-4 2 -5 11t-1 41v498h154v-496q0 -31 0.5 -41.5t3.5 -12.5h-152zM63 592l-104 153h160l86 -153h-142z" />
    <glyph glyph-name="icircumflex" unicode="&#xee;" horiz-adv-x="255" 
d="M57 0q-4 2 -5 11t-1 41v498h154v-496q0 -31 0.5 -41.5t3.5 -12.5h-152zM183 594l-56 73l-56 -73h-120l100 152h154l100 -152h-122z" />
    <glyph glyph-name="idieresis" unicode="&#xef;" horiz-adv-x="255" 
d="M57 0q-4 2 -5 11t-1 41v498h154v-496q0 -31 0.5 -41.5t3.5 -12.5h-152zM165 590v139h128v-139h-128zM-35 590v139h128v-139h-128z" />
    <glyph glyph-name="ntilde" unicode="&#xf1;" horiz-adv-x="590" 
d="M398 0q-2 0 -3.5 7t-2 39.5t-0.5 100.5v189q0 43 -20.5 66.5t-65.5 23.5q-42 0 -73.5 -23.5t-31.5 -70.5v-332h-152v550h147v-72q20 42 67 62.5t103 20.5q94 0 136.5 -47t42.5 -138v-214t0.5 -112t1.5 -43t2 -7h-151zM303 616q-16 13 -28.5 20.5t-28.5 5.5
q-12 -2 -20 -10.5t-9 -35.5h-98q1 69 28 107.5t78 38.5q20 0 37 -4.5t38 -23.5q15 -13 27.5 -19.5t26.5 -4.5q13 2 21 10.5t9 35.5h97q-1 -71 -28 -108.5t-77 -37.5q-20 0 -36.5 4t-36.5 22z" />
    <glyph glyph-name="oacute" unicode="&#xf3;" horiz-adv-x="604" 
d="M579 277q0 -56 -13 -103t-41 -85q-33 -43 -88.5 -70.5t-134.5 -27.5q-81 0 -135 25t-87 67q-28 38 -41.5 87t-13.5 107q0 53 12.5 100.5t42.5 88.5q32 43 85.5 69.5t138.5 26.5q82 0 135.5 -25.5t83.5 -66.5q29 -38 42.5 -88.5t13.5 -104.5zM430 276q0 32 -5 63t-17 49
q-14 21 -39.5 32t-65.5 11q-74 0 -104 -50q-12 -18 -17 -47.5t-5 -57.5q0 -32 4 -61.5t15 -48.5q31 -48 107 -48q74 0 105 49q11 19 16.5 48t5.5 61zM303 745h159l-104 -153h-140z" />
    <glyph glyph-name="ograve" unicode="&#xf2;" horiz-adv-x="604" 
d="M579 277q0 -56 -13 -103t-41 -85q-33 -43 -88.5 -70.5t-134.5 -27.5q-81 0 -135 25t-87 67q-28 38 -41.5 87t-13.5 107q0 53 12.5 100.5t42.5 88.5q32 43 85.5 69.5t138.5 26.5q82 0 135.5 -25.5t83.5 -66.5q29 -38 42.5 -88.5t13.5 -104.5zM430 276q0 32 -5 63t-17 49
q-14 21 -39.5 32t-65.5 11q-74 0 -104 -50q-12 -18 -17 -47.5t-5 -57.5q0 -32 4 -61.5t15 -48.5q31 -48 107 -48q74 0 105 49q11 19 16.5 48t5.5 61zM238 592l-104 153h160l86 -153h-142z" />
    <glyph glyph-name="ocircumflex" unicode="&#xf4;" horiz-adv-x="604" 
d="M579 277q0 -56 -13 -103t-41 -85q-33 -43 -88.5 -70.5t-134.5 -27.5q-81 0 -135 25t-87 67q-28 38 -41.5 87t-13.5 107q0 53 12.5 100.5t42.5 88.5q32 43 85.5 69.5t138.5 26.5q82 0 135.5 -25.5t83.5 -66.5q29 -38 42.5 -88.5t13.5 -104.5zM430 276q0 32 -5 63t-17 49
q-14 21 -39.5 32t-65.5 11q-74 0 -104 -50q-12 -18 -17 -47.5t-5 -57.5q0 -32 4 -61.5t15 -48.5q31 -48 107 -48q74 0 105 49q11 19 16.5 48t5.5 61zM359 594l-56 73l-56 -73h-120l100 152h154l100 -152h-122z" />
    <glyph glyph-name="odieresis" unicode="&#xf6;" horiz-adv-x="604" 
d="M579 277q0 -56 -13 -103t-41 -85q-33 -43 -88.5 -70.5t-134.5 -27.5q-81 0 -135 25t-87 67q-28 38 -41.5 87t-13.5 107q0 53 12.5 100.5t42.5 88.5q32 43 85.5 69.5t138.5 26.5q82 0 135.5 -25.5t83.5 -66.5q29 -38 42.5 -88.5t13.5 -104.5zM430 276q0 32 -5 63t-17 49
q-14 21 -39.5 32t-65.5 11q-74 0 -104 -50q-12 -18 -17 -47.5t-5 -57.5q0 -32 4 -61.5t15 -48.5q31 -48 107 -48q74 0 105 49q11 19 16.5 48t5.5 61zM339 590v139h128v-139h-128zM139 590v139h128v-139h-128z" />
    <glyph glyph-name="otilde" unicode="&#xf5;" horiz-adv-x="604" 
d="M579 277q0 -56 -13 -103t-41 -85q-33 -43 -88.5 -70.5t-134.5 -27.5q-81 0 -135 25t-87 67q-28 38 -41.5 87t-13.5 107q0 53 12.5 100.5t42.5 88.5q32 43 85.5 69.5t138.5 26.5q82 0 135.5 -25.5t83.5 -66.5q29 -38 42.5 -88.5t13.5 -104.5zM430 276q0 32 -5 63t-17 49
q-14 21 -39.5 32t-65.5 11q-74 0 -104 -50q-12 -18 -17 -47.5t-5 -57.5q0 -32 4 -61.5t15 -48.5q31 -48 107 -48q74 0 105 49q11 19 16.5 48t5.5 61zM309 616q-16 13 -28.5 20.5t-28.5 5.5q-12 -2 -20 -10.5t-9 -35.5h-98q1 69 28 107.5t78 38.5q20 0 37 -4.5t38 -23.5
q15 -13 27.5 -19.5t26.5 -4.5q13 2 21 10.5t9 35.5h97q-1 -71 -28 -108.5t-77 -37.5q-20 0 -36.5 4t-36.5 22z" />
    <glyph glyph-name="uacute" unicode="&#xfa;" horiz-adv-x="589" 
d="M544 0h-146l-4 64q-25 -39 -69 -55.5t-101 -16.5q-36 0 -68.5 9t-57 29t-39 52.5t-14.5 79.5v209.5t-0.5 116t-1.5 50.5t-2 12h154q2 0 2.5 -90t0.5 -266q0 -46 25 -63.5t63 -17.5q48 0 75.5 23.5t27.5 67.5v346h152v-470q0 -33 1 -54t2 -26zM298 745h159l-104 -153h-140
z" />
    <glyph glyph-name="ugrave" unicode="&#xf9;" horiz-adv-x="589" 
d="M544 0h-146l-4 64q-25 -39 -69 -55.5t-101 -16.5q-36 0 -68.5 9t-57 29t-39 52.5t-14.5 79.5v209.5t-0.5 116t-1.5 50.5t-2 12h154q2 0 2.5 -90t0.5 -266q0 -46 25 -63.5t63 -17.5q48 0 75.5 23.5t27.5 67.5v346h152v-470q0 -33 1 -54t2 -26zM237 592l-104 153h160
l86 -153h-142z" />
    <glyph glyph-name="ucircumflex" unicode="&#xfb;" horiz-adv-x="589" 
d="M544 0h-146l-4 64q-25 -39 -69 -55.5t-101 -16.5q-36 0 -68.5 9t-57 29t-39 52.5t-14.5 79.5v209.5t-0.5 116t-1.5 50.5t-2 12h154q2 0 2.5 -90t0.5 -266q0 -46 25 -63.5t63 -17.5q48 0 75.5 23.5t27.5 67.5v346h152v-470q0 -33 1 -54t2 -26zM349 594l-56 73l-56 -73
h-120l100 152h154l100 -152h-122z" />
    <glyph glyph-name="udieresis" unicode="&#xfc;" horiz-adv-x="589" 
d="M544 0h-146l-4 64q-25 -39 -69 -55.5t-101 -16.5q-36 0 -68.5 9t-57 29t-39 52.5t-14.5 79.5v209.5t-0.5 116t-1.5 50.5t-2 12h154q2 0 2.5 -90t0.5 -266q0 -46 25 -63.5t63 -17.5q48 0 75.5 23.5t27.5 67.5v346h152v-470q0 -33 1 -54t2 -26zM330 590v139h128v-139h-128z
M130 590v139h128v-139h-128z" />
    <glyph glyph-name="dagger" unicode="&#x2020;" horiz-adv-x="417" 
d="M287 398v-397l-80 -117l-77 117v397h-118v129h118v27t-0.5 37.5t-0.5 43.5v45v114h159v-114v-45.5t-0.5 -44t-0.5 -37v-26.5h117v-129h-117z" />
    <glyph glyph-name="degree" unicode="&#xb0;" horiz-adv-x="326" 
d="M162 766q30 0 55.5 -11t44.5 -30t30 -45t11 -55t-11 -54.5t-30 -44t-44.5 -29.5t-55.5 -11q-28 0 -53.5 11t-44.5 29.5t-30 44t-11 54.5t11 55t30 45t44.5 30t53.5 11zM162 680q-22 0 -37.5 -16t-15.5 -39t15.5 -38.5t37.5 -15.5q23 0 38.5 15.5t15.5 38.5t-15.5 39
t-38.5 16z" />
    <glyph glyph-name="cent" unicode="&#xa2;" horiz-adv-x="585" 
d="M256 112q-72 8 -119 34t-74 71q-17 29 -26.5 73t-9.5 104q0 107 40 177q25 42 72 69t117 35v71h93v-70q81 -7 127 -36.5t71 -76.5q5 -10 9 -25t6.5 -31t4 -32t2.5 -28h-145q-1 12 -2 29t-6 34q-8 26 -26.5 40t-42.5 20v-354q44 9 63 49q6 11 9.5 33t4.5 36h145
q0 -10 -2 -26t-5 -33t-8.5 -34t-13.5 -29q-26 -42 -73.5 -68t-117.5 -32v-88h-93v88v0zM258 564q-35 -13 -48 -44q-11 -23 -16.5 -52t-5.5 -74q0 -40 4 -70.5t10 -47.5q19 -42 56 -56v344v0z" />
    <glyph glyph-name="sterling" unicode="&#xa3;" horiz-adv-x="632" 
d="M108 410q-22 38 -36 82t-15.5 87.5t11 83.5t42.5 70.5t80.5 49t124.5 18.5q77 0 127 -16.5t80 -44t43 -62.5t16 -72v-20t0.5 -34t0.5 -33.5v-19.5h-162v21v29.5t-0.5 29t-0.5 17.5q-4 34 -26 54t-70 21q-49 0 -72.5 -21t-27 -56.5t9.5 -83t35 -100.5h256v-120h-221
q10 -59 -5.5 -103t-63.5 -62h354v-125h-546v130q63 20 91 58.5t14 101.5h-99v120h60v0z" />
    <glyph glyph-name="section" unicode="&#xa7;" horiz-adv-x="509" 
d="M107 546q-24 16 -34.5 39t-12.5 55q0 5 -0.5 19t0.5 21q5 57 56.5 87t136.5 30q40 0 73 -6t58 -20.5t40.5 -38t19.5 -59.5q1 -8 1.5 -23.5t0.5 -25.5h-113v35q-3 29 -24 36t-50 7q-30 0 -51.5 -6.5t-24.5 -25.5q-1 -2 -0.5 -9.5t0.5 -10.5q1 -13 6 -21t15 -14.5t26 -12
t39 -13.5q5 -1 16 -5t24 -8.5t27 -9.5t26 -10q49 -17 70 -42.5t29 -57.5q5 -20 0.5 -49t-15.5 -49q-12 -20 -31 -30.5t-39 -13.5q104 -39 113 -133q1 -7 1 -23t-1 -23q-4 -68 -57 -107t-166 -39q-49 0 -90 7t-71 23.5t-49.5 44.5t-25.5 69q-2 8 -2 23.5t-1 25.5h143v-18
t1 -18q3 -33 25.5 -44t70.5 -11q47 0 65.5 13.5t20.5 36.5v25q-3 28 -22.5 46.5t-64.5 34.5q-7 2 -23 8t-36.5 14t-42.5 16.5t-41 15.5q-92 35 -92 133q0 23 7 41.5t17.5 32.5t24.5 23.5t27 14.5zM173 405q21 -12 59.5 -27t79.5 -27q31 3 37 37q4 17 -1 33t-17 23
q-20 13 -58.5 28t-82.5 28q-13 -2 -22.5 -11.5t-12.5 -25.5q-5 -18 0 -34t18 -24z" />
    <glyph glyph-name="bullet" unicode="&#x2022;" horiz-adv-x="418" 
d="M210 251q-23 0 -43.5 9t-35.5 24t-24 35.5t-9 43.5q0 24 9 44.5t24 36t35.5 24t43.5 8.5q24 0 44.5 -8.5t36 -24t24.5 -36t9 -44.5q0 -23 -9 -43.5t-24.5 -35.5t-36 -24t-44.5 -9z" />
    <glyph glyph-name="paragraph" unicode="&#xb6;" horiz-adv-x="545" 
d="M506 -111h-54v797h-35v-797h-55v363q-18 -22 -56.5 -36.5t-80.5 -14.5q-74 0 -118 29t-62 85q-11 34 -15.5 83t-4.5 104q0 124 25 188q20 48 64 79t111 31q43 0 81.5 -13t55.5 -35l9 43h135v-906zM361 620q0 13 -6.5 23t-16.5 17t-22.5 10.5t-23.5 3.5q-26 0 -47 -9
t-33 -36q-6 -13 -10 -30.5t-6.5 -35t-3.5 -34.5t-1 -30v-31t1 -36t3.5 -35.5t7.5 -29.5q8 -21 29.5 -34t50.5 -13q31 0 53 16.5t24 39.5q0 5 0.5 18.5t0.5 32v39.5v41v113z" />
    <glyph glyph-name="germandbls" unicode="&#xdf;" horiz-adv-x="831" 
d="M315 678q-39 -1 -54.5 -20.5t-15.5 -52.5v-605h-156v421h-78v128h78v81q0 81 60.5 127t172.5 46q50 0 90 -11t69 -31.5t44.5 -49t15.5 -64.5q0 -37 -14 -61t-30.5 -43.5t-30.5 -39.5t-14 -49q0 -19 7 -31t19.5 -20t29.5 -13.5t38 -11.5q16 -5 46.5 -12t58.5 -15
q89 -23 128 -68t39 -118q0 -39 -14.5 -71.5t-45 -55.5t-78.5 -35.5t-114 -12.5q-123 0 -185 32.5t-76 96.5q-2 14 -3 35.5t-2 35.5h157q0 -6 0.5 -17.5t3.5 -25.5q10 -50 104 -50q54 0 77 13.5t23 45.5q0 34 -21 51.5t-73 28.5q-21 5 -41.5 11t-40.5 11q-40 10 -74 23
t-59 33t-39 48.5t-14 67.5q0 35 12 58t26.5 41.5t26.5 37t12 45.5q0 26 -14.5 46t-50.5 20z" />
    <glyph glyph-name="registered" unicode="&#xae;" horiz-adv-x="704" 
d="M674 430q-3 -57 -25.5 -104t-63 -80.5t-98.5 -51.5t-133 -18q-76 0 -135 18.5t-100 52t-63.5 80t-24.5 103.5q-1 9 -1.5 23.5t-0.5 32t0.5 35.5t1.5 33q4 57 28 102.5t65.5 78t99 49.5t129.5 17q70 0 127 -16.5t98.5 -48.5t66 -78t29.5 -105q2 -22 2 -58.5t-2 -64.5z
M624 443q0 10 0.5 24.5t0.5 30t-0.5 29t-0.5 21.5q-7 99 -77 151.5t-194 52.5q-60 0 -109 -12.5t-84.5 -38t-55.5 -63t-23 -88.5q-1 -12 -1 -27.5v-31.5t0.5 -29t0.5 -19q4 -107 76 -163t196 -56q131 0 198 56.5t73 162.5zM419 307l-66 124h-55v-124h-116v356h206
q39 0 65.5 -8t46.5 -22t28 -37t8 -41q0 -20 -4.5 -42t-16.5 -36q-10 -12 -25 -21t-30 -11l78 -138h-119zM423 540q0 20 -11.5 28.5t-34.5 8.5h-15t-24 0.5t-24 0.5h-16v-75h84q41 0 41 37z" />
    <glyph glyph-name="copyright" unicode="&#xa9;" horiz-adv-x="704" 
d="M674 430q-3 -57 -25.5 -104t-63 -80.5t-98.5 -51.5t-133 -18q-76 0 -135 18.5t-100 52t-63.5 80t-24.5 103.5q-1 9 -1.5 23.5t-0.5 32t0.5 35.5t1.5 33q4 57 28 102.5t65.5 78t99 49.5t129.5 17q70 0 127 -16.5t98.5 -48.5t66 -78t29.5 -105q2 -22 2 -58.5t-2 -64.5z
M624 443q0 10 0.5 24.5t0.5 30t-0.5 29t-0.5 21.5q-7 99 -77 151.5t-194 52.5q-60 0 -109 -12.5t-84.5 -38t-55.5 -63t-23 -88.5q-1 -12 -1 -27.5v-31.5t0.5 -29t0.5 -19q4 -107 76 -163t196 -56q131 0 198 56.5t73 162.5zM549 449q0 -76 -46 -115.5t-149 -39.5
q-43 0 -80 8.5t-63 30t-41 58.5t-15 94q0 52 14.5 88.5t41 59t64 33t83.5 10.5q56 0 93 -12t58.5 -33t30.5 -49.5t9 -60.5h-116q0 28 -17 43.5t-59 15.5q-46 0 -64 -27t-18 -69q0 -29 4.5 -48t14 -30t25.5 -15t39 -4q45 0 61 15.5t16 46.5h114v0z" />
    <glyph glyph-name="trademark" unicode="&#x2122;" horiz-adv-x="870" 
d="M724 655q0 18 -8 28.5t-28 10.5q-18 0 -29 -13.5t-11 -36.5v-139h-117v154q0 17 -9.5 26t-25.5 9q-19 0 -30.5 -15t-11.5 -36v-138h-117v291h116v-46q9 25 37.5 38t62.5 13q38 0 57.5 -15t27.5 -38q11 30 40.5 41.5t61.5 11.5q28 0 48 -8t32.5 -21.5t18 -30t5.5 -33.5
v-203h-120v150zM207 694v-13v-18t0.5 -17t0.5 -11q0 -36 43 -36h20.5t19.5 1v-93q-4 -1 -15 -2t-23.5 -1.5t-24.5 -1t-20 -0.5q-51 0 -80 24t-29 68v100h-93v102h306v-102h-105z" />
    <glyph glyph-name="acute" unicode="&#xb4;" 
d="M213 745h159l-104 -153h-140z" />
    <glyph glyph-name="dieresis" unicode="&#xa8;" 
d="M256 590v139h128v-139h-128zM56 590v139h128v-139h-128z" />
    <glyph glyph-name="notequal" unicode="&#x2260;" horiz-adv-x="530" 
d="M26 421v113h278l40 79h70l-40 -79h131v-113h-188l-31 -63h219v-112h-275l-36 -71h-71l36 71h-133v112h189l32 63h-221z" />
    <glyph glyph-name="AE" unicode="&#xc6;" horiz-adv-x="942" 
d="M919 647h-340v-179h323v-144h-323v-180h343v-144h-502v173h-192l-70 -173h-171l359 792h573v-145zM420 633q-7 -20 -13 -38q-5 -15 -9.5 -28t-6.5 -18l-107 -246h136v330v0z" />
    <glyph glyph-name="Oslash" unicode="&#xd8;" horiz-adv-x="722" 
d="M124 65q-24 24 -38 52q-30 51 -43.5 124t-13.5 158q0 81 12.5 151.5t42.5 118.5q35 59 100.5 96t176.5 37q105 0 171 -31l20 35h93l-46 -78q24 -23 42 -55q26 -43 39 -115t13 -157q0 -89 -13 -156t-44 -126q-31 -61 -98.5 -95.5t-176.5 -34.5q-50 0 -92 8t-77 23l-36 -62
h-96q13 22 24 42q10 17 21 35.5t19 29.5zM456 640q-17 11 -40 18t-55 7q-53 0 -80.5 -16t-47.5 -45q-9 -13 -15.5 -36t-11.5 -51.5t-7.5 -60t-2.5 -61.5q0 -28 2.5 -57t7.5 -57t12 -50zM268 152q17 -12 39.5 -19t54.5 -7q51 0 78.5 15.5t46.5 38.5q11 14 18.5 38t12.5 53.5
t7.5 62.5t2.5 63q0 66 -11 127q-2 11 -4.5 21t-6.5 19z" />
    <glyph glyph-name="infinity" unicode="&#x221e;" horiz-adv-x="596" 
d="M562 375q0 -62 -34 -93.5t-116 -31.5q-45 0 -72 10t-44 27q-17 -17 -44 -27t-72 -10q-43 0 -72 9t-45.5 25t-23.5 38t-7 49q0 59 33 92t112 33q47 0 75 -12.5t43 -29.5q17 17 50.5 29.5t77.5 12.5q42 0 68.5 -9t42.5 -25.5t22 -38.5t6 -48zM463 376q0 26 -12.5 40
t-41.5 14q-16 0 -28 -7t-21 -17t-15 -22t-9 -23q11 -20 25.5 -32t41.5 -12q29 0 44.5 12.5t15.5 46.5zM184 317q29 0 42.5 17.5t24.5 42.5q-8 22 -22 37t-43 15q-30 0 -42 -14t-12 -44q0 -31 11.5 -42.5t40.5 -11.5z" />
    <glyph glyph-name="plusminus" unicode="&#xb1;" horiz-adv-x="534" 
d="M326 409v-121h-118v121h-176v99h175v125h119v-125h176v-99h-176zM33 159v100h468v-100h-468z" />
    <glyph glyph-name="lessequal" unicode="&#x2264;" horiz-adv-x="533" 
d="M32 411v100l468 131v-102l-330 -79l330 -76v-103zM32 159v100h468v-100h-468z" />
    <glyph glyph-name="greaterequal" unicode="&#x2265;" horiz-adv-x="533" 
d="M33 282v103l330 76l-330 79v102l467 -131v-100zM32 159v100h468v-100h-468z" />
    <glyph glyph-name="yen" unicode="&#xa5;" horiz-adv-x="723" 
d="M43 179v87h233v28l-274 498h176q49 -93 89 -169q17 -32 33 -64l29 -58t21 -44.5t8 -24.5q0 6 8.5 24.5t21.5 44.5t29.5 58t34.5 64q41 76 94 169h175l-283 -495v-31h235v-87h-235v-29h235v-87h-234v-63h-164v63h-232v87h233v29h-233z" />
    <glyph glyph-name="mu" unicode="&#xb5;" horiz-adv-x="600" 
d="M409 0l-4 60q-19 -30 -49.5 -41.5t-61.5 -15.5q-33 -2 -55 3.5t-37 18.5v-195h-152v233v487h153q1 0 1 -21t0.5 -54t0.5 -74v-81.5v-76.5v-59q0 -46 26 -63.5t64 -17.5q50 0 78 23t28 68v356h151v-470q0 -33 1 -54t2 -26h-146z" />
    <glyph glyph-name="partialdiff" unicode="&#x2202;" horiz-adv-x="435" 
d="M134 321q-6 -7 -11 -14t-9 -12q-7 -10 -15 -8t-12.5 9.5t-3.5 15.5t11 10q13 2 32 8q-12 15 -19 33.5t-7 39.5q0 20 7 38.5t19 33.5q-8 2 -15.5 4t-12.5 3q-10 2 -11 10t3.5 15.5t12.5 9.5t15 -8q3 -5 8 -11l10 -12q28 26 65 32v163h-196v114h425v-114h-197v-163
q37 -6 63 -31q5 7 10.5 13.5t8.5 11.5q7 10 15 8t12.5 -9.5t4 -15.5t-11.5 -10q-5 -1 -13.5 -3t-16.5 -4q28 -31 28 -75q0 -39 -24 -71q14 -4 27 -6q11 -2 11.5 -10t-4 -15.5t-12.5 -9.5t-15 8q-7 11 -17 22q-27 -28 -67 -33v-157h198v-126h-424v126h194v157q-37 6 -66 33z
M232 441l-16 -34l-14 34v47q-30 -6 -50.5 -29.5t-20.5 -55.5t20 -55t50 -29v47l15 33l15 -33v-47q30 5 51 28.5t21 55.5t-20.5 55.5t-50.5 29.5v-47z" />
    <glyph glyph-name="summation" unicode="&#x2211;" horiz-adv-x="435" 
d="M134 321q-6 -7 -11 -14t-9 -12q-7 -10 -15 -8t-12.5 9.5t-3.5 15.5t11 10q13 2 32 8q-12 15 -19 33.5t-7 39.5q0 20 7 38.5t19 33.5q-8 2 -15.5 4t-12.5 3q-10 2 -11 10t3.5 15.5t12.5 9.5t15 -8q3 -5 8 -11l10 -12q28 26 65 32v163h-196v114h425v-114h-197v-163
q37 -6 63 -31q5 7 10.5 13.5t8.5 11.5q7 10 15 8t12.5 -9.5t4 -15.5t-11.5 -10q-5 -1 -13.5 -3t-16.5 -4q28 -31 28 -75q0 -39 -24 -71q14 -4 27 -6q11 -2 11.5 -10t-4 -15.5t-12.5 -9.5t-15 8q-7 11 -17 22q-27 -28 -67 -33v-157h198v-126h-424v126h194v157q-37 6 -66 33z
M232 441l-16 -34l-14 34v47q-30 -6 -50.5 -29.5t-20.5 -55.5t20 -55t50 -29v47l15 33l15 -33v-47q30 5 51 28.5t21 55.5t-20.5 55.5t-50.5 29.5v-47z" />
    <glyph glyph-name="product" unicode="&#x220f;" horiz-adv-x="435" 
d="M134 321q-6 -7 -11 -14t-9 -12q-7 -10 -15 -8t-12.5 9.5t-3.5 15.5t11 10q13 2 32 8q-12 15 -19 33.5t-7 39.5q0 20 7 38.5t19 33.5q-8 2 -15.5 4t-12.5 3q-10 2 -11 10t3.5 15.5t12.5 9.5t15 -8q3 -5 8 -11l10 -12q28 26 65 32v163h-196v114h425v-114h-197v-163
q37 -6 63 -31q5 7 10.5 13.5t8.5 11.5q7 10 15 8t12.5 -9.5t4 -15.5t-11.5 -10q-5 -1 -13.5 -3t-16.5 -4q28 -31 28 -75q0 -39 -24 -71q14 -4 27 -6q11 -2 11.5 -10t-4 -15.5t-12.5 -9.5t-15 8q-7 11 -17 22q-27 -28 -67 -33v-157h198v-126h-424v126h194v157q-37 6 -66 33z
M232 441l-16 -34l-14 34v47q-30 -6 -50.5 -29.5t-20.5 -55.5t20 -55t50 -29v47l15 33l15 -33v-47q30 5 51 28.5t21 55.5t-20.5 55.5t-50.5 29.5v-47z" />
    <glyph glyph-name="pi" unicode="&#x3c0;" horiz-adv-x="704" 
d="M674 430q-3 -57 -25.5 -104t-63 -80.5t-98.5 -51.5t-133 -18q-76 0 -135 18.5t-100 52t-63.5 80t-24.5 103.5q-1 9 -1.5 23.5t-0.5 32t0.5 35.5t1.5 33q4 57 28 102.5t65.5 78t99 49.5t129.5 17q70 0 127 -16.5t98.5 -48.5t66 -78t29.5 -105q2 -22 2 -58.5t-2 -64.5z
M624 443q0 10 0.5 24.5t0.5 30t-0.5 29t-0.5 21.5q-7 99 -77 151.5t-194 52.5q-60 0 -109 -12.5t-84.5 -38t-55.5 -63t-23 -88.5q-1 -12 -1 -27.5v-31.5t0.5 -29t0.5 -19q4 -107 76 -163t196 -56q131 0 198 56.5t73 162.5zM299 307h-115v356h209q39 0 66 -9t44 -23
q22 -17 29.5 -41.5t7.5 -47.5q0 -22 -5.5 -47t-20.5 -42q-16 -17 -44.5 -27t-54.5 -10h-116v-109zM426 536q0 7 -1.5 14t-6.5 12q-11 14 -40 14h-79v-80h82q28 0 37 12q5 6 6.5 13t1.5 15z" />
    <glyph glyph-name="integral" unicode="&#x222b;" horiz-adv-x="435" 
d="M134 321q-6 -7 -11 -14t-9 -12q-7 -10 -15 -8t-12.5 9.5t-3.5 15.5t11 10q13 2 32 8q-12 15 -19 33.5t-7 39.5q0 20 7 38.5t19 33.5q-8 2 -15.5 4t-12.5 3q-10 2 -11 10t3.5 15.5t12.5 9.5t15 -8q3 -5 8 -11l10 -12q28 26 65 32v163h-196v114h425v-114h-197v-163
q37 -6 63 -31q5 7 10.5 13.5t8.5 11.5q7 10 15 8t12.5 -9.5t4 -15.5t-11.5 -10q-5 -1 -13.5 -3t-16.5 -4q28 -31 28 -75q0 -39 -24 -71q14 -4 27 -6q11 -2 11.5 -10t-4 -15.5t-12.5 -9.5t-15 8q-7 11 -17 22q-27 -28 -67 -33v-157h198v-126h-424v126h194v157q-37 6 -66 33z
M232 441l-16 -34l-14 34v47q-30 -6 -50.5 -29.5t-20.5 -55.5t20 -55t50 -29v47l15 33l15 -33v-47q30 5 51 28.5t21 55.5t-20.5 55.5t-50.5 29.5v-47z" />
    <glyph glyph-name="ordfeminine" unicode="&#xaa;" horiz-adv-x="522" 
d="M348 258q-1 12 -3 23q-2 9 -2.5 18t-0.5 13q-19 -29 -55.5 -43.5t-102.5 -14.5q-33 0 -63 8t-52.5 23.5t-36.5 39.5t-16 56q-1 8 -0.5 23.5t2.5 30.5q6 54 55.5 93t151.5 48q27 4 55.5 5t57.5 0q1 11 1 28.5t-2 28.5q-2 26 -20 38.5t-56 12.5q-52 0 -68 -28
q-8 -12 -11 -22t-3 -26h-140q0 50 18 93q20 43 71 71.5t136 28.5q57 0 96 -10t64 -28t37.5 -43t16.5 -55q2 -13 3 -32.5t1.5 -41t0 -43t-0.5 -38.5v-31t-0.5 -37.5t-0.5 -38.5v-35t0.5 -34.5t1.5 -35t3.5 -28.5t5.5 -17h-144zM23 117v110h478v-110h-478zM338 489
q-17 2 -35 2.5t-35 0.5q-35 -2 -57 -7.5t-33 -14.5q-19 -15 -21 -40q-1 -11 1 -21.5t8 -19.5q9 -13 28 -20.5t45 -7.5q52 0 77 23q11 11 16 25.5t6 33.5v46v0z" />
    <glyph glyph-name="ordmasculine" unicode="&#xba;" horiz-adv-x="540" 
d="M516 530q0 -55 -11 -97.5t-33 -78.5q-26 -45 -76 -73.5t-129 -28.5q-82 0 -129.5 29t-73.5 73q-20 31 -31.5 75t-11.5 101q0 52 11.5 98.5t34.5 80.5q26 41 74 68.5t128 27.5q82 0 132 -28t74 -72q23 -35 32 -78.5t9 -96.5zM23 117v110h492v-110h-492zM370 529
q0 39 -5.5 73.5t-18.5 53.5q-21 33 -78 33q-56 0 -76 -34q-14 -20 -20 -54.5t-6 -71.5q0 -88 27 -130q23 -33 76 -33t73 32q14 20 21 54.5t7 76.5z" />
    <glyph glyph-name="Omega" unicode="&#x3a9;" horiz-adv-x="435" 
d="M134 321q-6 -7 -11 -14t-9 -12q-7 -10 -15 -8t-12.5 9.5t-3.5 15.5t11 10q13 2 32 8q-12 15 -19 33.5t-7 39.5q0 20 7 38.5t19 33.5q-8 2 -15.5 4t-12.5 3q-10 2 -11 10t3.5 15.5t12.5 9.5t15 -8q3 -5 8 -11l10 -12q28 26 65 32v163h-196v114h425v-114h-197v-163
q37 -6 63 -31q5 7 10.5 13.5t8.5 11.5q7 10 15 8t12.5 -9.5t4 -15.5t-11.5 -10q-5 -1 -13.5 -3t-16.5 -4q28 -31 28 -75q0 -39 -24 -71q14 -4 27 -6q11 -2 11.5 -10t-4 -15.5t-12.5 -9.5t-15 8q-7 11 -17 22q-27 -28 -67 -33v-157h198v-126h-424v126h194v157q-37 6 -66 33z
M232 441l-16 -34l-14 34v47q-30 -6 -50.5 -29.5t-20.5 -55.5t20 -55t50 -29v47l15 33l15 -33v-47q30 5 51 28.5t21 55.5t-20.5 55.5t-50.5 29.5v-47z" />
    <glyph glyph-name="ae" unicode="&#xe6;" horiz-adv-x="954" 
d="M456 75q-37 -42 -91 -61t-134 -19q-88 0 -143 33t-60 96q-1 13 -1.5 27.5t1.5 29.5q3 31 17 58.5t43 49.5t74 36t110 18q57 3 124 -3q0 10 -0.5 23.5t-2.5 26.5q-5 24 -27 37t-67 13q-67 0 -87 -27q-9 -12 -12.5 -25t-3.5 -28h-143q-1 25 5 50.5t18 47.5q26 48 78.5 76
t143.5 28q83 0 127 -24t58 -57q6 14 22 28.5t40 26t56 19t71 7.5q81 0 136.5 -31t84.5 -79q26 -41 35 -98.5t4 -126.5h-391q1 -19 6.5 -40t16.5 -36q14 -17 40 -27.5t62 -10.5q53 0 84 20q16 11 23.5 23.5t8.5 22.5h146q-5 -32 -22.5 -68.5t-52.5 -64.5q-32 -26 -77 -40.5
t-110 -14.5q-80 0 -133.5 23t-76.5 61zM784 326q0 17 -4.5 38.5t-15.5 35.5q-13 16 -37.5 27t-60.5 11q-70 0 -100 -38q-12 -15 -18.5 -36.5t-7.5 -37.5h244v0zM400 242q-18 2 -37.5 3.5t-42.5 0.5q-23 0 -52 -2.5t-54 -15.5q-37 -19 -37 -56q0 -11 1.5 -21.5t9.5 -20.5
q10 -12 31 -18t46 -6q23 0 47 6t40 19q14 11 26.5 26t17.5 40q3 11 3.5 24.5t0.5 20.5z" />
    <glyph glyph-name="oslash" unicode="&#xf8;" horiz-adv-x="604" 
d="M109 51q-17 15 -29 32q-28 38 -41.5 87t-13.5 107q0 53 12.5 100.5t42.5 88.5q32 43 85.5 69.5t138.5 26.5q39 0 72 -6.5t59 -17.5l25 36h82q-13 -19 -24 -35q-9 -14 -17 -24.5t-8 -11.5q9 -8 16.5 -15.5t13.5 -17.5q29 -38 42.5 -88.5t13.5 -104.5q0 -56 -13 -103
t-41 -85q-33 -43 -88.5 -70.5t-134.5 -27.5q-42 0 -76 7t-63 20q-4 -5 -9 -12.5t-10 -14.5q-5 -8 -11 -16h-76l52 76v0zM358 424q-24 8 -55 8q-74 0 -104 -50q-12 -18 -17 -48t-5 -58q0 -17 1 -33.5t3 -31.5q5 -20 12 -34zM239 129q27 -12 64 -12q74 0 105 49
q11 19 16.5 48.5t5.5 61.5q0 17 -1.5 36t-5.5 36q-4 18 -13 32z" />
    <glyph glyph-name="questiondown" unicode="&#xbf;" horiz-adv-x="568" 
d="M400 792v-178h-163v178h163zM390 564q0 -63 -14.5 -105t-36 -71t-46.5 -49.5t-46.5 -40.5t-36 -43t-14.5 -58q0 -40 21 -59t81 -19q44 0 68 15.5t29 42.5q1 3 1.5 11t1 16.5t1 16.5t0.5 11h155q0 -9 -1 -22t-2.5 -26.5t-3.5 -26.5t-4 -22q-8 -33 -26.5 -60t-50 -46
t-77 -29t-108.5 -10q-135 0 -197 45.5t-62 146.5q0 55 17 91.5t42 63t54.5 47t54.5 44.5t42 56t17 80h141z" />
    <glyph glyph-name="exclamdown" unicode="&#xa1;" horiz-adv-x="284" 
d="M222 794v-178h-160v178h160zM71 566h143l19 -570h-182z" />
    <glyph glyph-name="logicalnot" unicode="&#xac;" horiz-adv-x="435" 
d="M134 321q-6 -7 -11 -14t-9 -12q-7 -10 -15 -8t-12.5 9.5t-3.5 15.5t11 10q13 2 32 8q-12 15 -19 33.5t-7 39.5q0 20 7 38.5t19 33.5q-8 2 -15.5 4t-12.5 3q-10 2 -11 10t3.5 15.5t12.5 9.5t15 -8q3 -5 8 -11l10 -12q28 26 65 32v163h-196v114h425v-114h-197v-163
q37 -6 63 -31q5 7 10.5 13.5t8.5 11.5q7 10 15 8t12.5 -9.5t4 -15.5t-11.5 -10q-5 -1 -13.5 -3t-16.5 -4q28 -31 28 -75q0 -39 -24 -71q14 -4 27 -6q11 -2 11.5 -10t-4 -15.5t-12.5 -9.5t-15 8q-7 11 -17 22q-27 -28 -67 -33v-157h198v-126h-424v126h194v157q-37 6 -66 33z
M232 441l-16 -34l-14 34v47q-30 -6 -50.5 -29.5t-20.5 -55.5t20 -55t50 -29v47l15 33l15 -33v-47q30 5 51 28.5t21 55.5t-20.5 55.5t-50.5 29.5v-47z" />
    <glyph glyph-name="radical" unicode="&#x221a;" horiz-adv-x="698" 
d="M379 -22h-195l-173 344h162l103 -210l250 682h166z" />
    <glyph glyph-name="florin" unicode="&#x192;" horiz-adv-x="434" 
d="M230 -22q-8 -72 -51 -113.5t-127 -41.5q-41 0 -65 2t-40 4l2 127q11 -2 27.5 -2.5t32.5 -0.5q34 1 49 17.5t17 41.5q0 1 2.5 30.5t7 74t9 96.5t9 97.5t7.5 78t3 37.5h-75l1 129h90l11 104q3 33 15.5 60t35.5 46.5t58 30t83 10.5q42 0 65 -3.5t40 -5.5l-1 -121
q-12 2 -32.5 4.5t-36.5 2.5q-37 -1 -55 -16t-20 -39l-7 -75h122l-1 -127h-135q0 -4 -3 -38.5t-7.5 -83.5t-10 -105.5t-10 -105t-7.5 -81t-3 -34.5z" />
    <glyph glyph-name="approxequal" unicode="&#x2248;" horiz-adv-x="571" 
d="M546 562q1 -78 -36.5 -122t-102.5 -44q-19 0 -33 1.5t-26 5.5t-24.5 10.5t-29.5 15.5q-29 16 -51.5 27.5t-52.5 11.5q-55 0 -55 -53h-111q-2 75 35.5 119.5t103.5 44.5q47 0 76.5 -14t55.5 -29t43.5 -23.5t43.5 -8.5q55 0 55 58h109v0zM546 372q1 -78 -36.5 -121.5
t-102.5 -43.5q-19 0 -33.5 2t-27 6t-25 10.5t-27.5 14.5q-17 9 -29.5 16t-24 12.5t-23.5 8t-27 2.5q-55 0 -55 -53h-111q-2 75 35.5 119t103.5 44q47 0 77 -14.5t55 -28.5q28 -15 46 -23.5t41 -8.5q28 0 41.5 15.5t13.5 42.5h109v0z" />
    <glyph glyph-name="Delta" unicode="&#x2206;" horiz-adv-x="435" 
d="M134 321q-6 -7 -11 -14t-9 -12q-7 -10 -15 -8t-12.5 9.5t-3.5 15.5t11 10q13 2 32 8q-12 15 -19 33.5t-7 39.5q0 20 7 38.5t19 33.5q-8 2 -15.5 4t-12.5 3q-10 2 -11 10t3.5 15.5t12.5 9.5t15 -8q3 -5 8 -11l10 -12q28 26 65 32v163h-196v114h425v-114h-197v-163
q37 -6 63 -31q5 7 10.5 13.5t8.5 11.5q7 10 15 8t12.5 -9.5t4 -15.5t-11.5 -10q-5 -1 -13.5 -3t-16.5 -4q28 -31 28 -75q0 -39 -24 -71q14 -4 27 -6q11 -2 11.5 -10t-4 -15.5t-12.5 -9.5t-15 8q-7 11 -17 22q-27 -28 -67 -33v-157h198v-126h-424v126h194v157q-37 6 -66 33z
M232 441l-16 -34l-14 34v47q-30 -6 -50.5 -29.5t-20.5 -55.5t20 -55t50 -29v47l15 33l15 -33v-47q30 5 51 28.5t21 55.5t-20.5 55.5t-50.5 29.5v-47z" />
    <glyph glyph-name="guillemotleft" unicode="&#xab;" horiz-adv-x="585" 
d="M294 282v101l264 201v-153l-137 -98l137 -98v-153zM31 282v101l264 201v-153l-137 -98l137 -98v-153z" />
    <glyph glyph-name="guillemotright" unicode="&#xbb;" horiz-adv-x="585" 
d="M292 254l133 100l-133 98v151l264 -200v-101l-264 -200v152zM29 254l133 100l-133 98v151l264 -200v-101l-264 -200v152z" />
    <glyph glyph-name="ellipsis" unicode="&#x2026;" horiz-adv-x="886" 
d="M650 0v190h175v-190h-175zM355 0v190h176v-190h-176zM60 0v190h176v-190h-176z" />
    <glyph glyph-name="nonbreakingspace" unicode="&#xa0;" horiz-adv-x="122" 
 />
    <glyph glyph-name="Agrave" unicode="&#xc0;" horiz-adv-x="700" 
d="M166 0h-167l252 792h214l235 -792h-169l-54 189h-255zM437 324q-2 10 -7.5 30.5t-13 45.5t-15 52.5t-14.5 51t-11.5 40.5t-5.5 21q-1 5 -3 17.5t-5 26.5q-4 16 -7 34q-3 -19 -7 -35q-3 -14 -5.5 -26.5t-4.5 -17.5q-1 -4 -6 -20.5t-12 -39.5t-15.5 -50.5t-16 -52.5
t-13.5 -46t-9 -31h171v0zM292 834l-104 153h160l86 -153h-142z" />
    <glyph glyph-name="Atilde" unicode="&#xc3;" horiz-adv-x="700" 
d="M166 0h-167l252 792h214l235 -792h-169l-54 189h-255zM437 324q-2 10 -7.5 30.5t-13 45.5t-15 52.5t-14.5 51t-11.5 40.5t-5.5 21q-1 5 -3 17.5t-5 26.5q-4 16 -7 34q-3 -19 -7 -35q-3 -14 -5.5 -26.5t-4.5 -17.5q-1 -4 -6 -20.5t-12 -39.5t-15.5 -50.5t-16 -52.5
t-13.5 -46t-9 -31h171v0zM355 859q-16 13 -28.5 20.5t-28.5 5.5q-12 -2 -20 -10.5t-9 -35.5h-98q1 69 28 107.5t78 38.5q20 0 37 -4.5t38 -23.5q15 -13 27.5 -19.5t26.5 -4.5q13 2 21 10.5t9 35.5h97q-1 -71 -28 -108.5t-77 -37.5q-20 0 -36.5 4t-36.5 22z" />
    <glyph glyph-name="Otilde" unicode="&#xd5;" horiz-adv-x="722" 
d="M361 802q110 0 177.5 -33.5t103.5 -95.5q26 -43 38.5 -115t12.5 -157q0 -89 -13 -156t-43 -127q-32 -60 -99.5 -94.5t-176.5 -34.5q-98 0 -169 30.5t-107 96.5q-29 51 -42.5 124.5t-13.5 158.5q0 81 12.5 151.5t41.5 118.5q18 29 42.5 53.5t58.5 42t78 27.5t99 10z
M362 128q50 0 78 15.5t46 37.5q11 14 18.5 38t12.5 53.5t7.5 62t2.5 62.5q0 29 -2 59t-6.5 57.5t-11.5 51t-17 39.5q-17 26 -46.5 42.5t-82.5 16.5t-80.5 -15t-47.5 -44q-9 -12 -15.5 -35.5t-11 -52t-7 -60t-2.5 -61.5t2.5 -62.5t8 -62t14 -54t19.5 -38.5q19 -23 46 -36.5
t75 -13.5zM367 858q-16 13 -28.5 20.5t-28.5 5.5q-12 -2 -20 -10.5t-9 -35.5h-98q1 69 28 107.5t78 38.5q20 0 37 -4.5t38 -23.5q15 -13 27.5 -19.5t26.5 -4.5q13 2 21 10.5t9 35.5h97q-1 -71 -28 -108.5t-77 -37.5q-20 0 -36.5 4t-36.5 22z" />
    <glyph glyph-name="OE" unicode="&#x152;" horiz-adv-x="1028" 
d="M1004 792v-144h-351v-180h335v-144h-335v-181h355v-143h-505v38q-16 -16 -55 -32.5t-110 -16.5q-90 0 -161.5 39t-106.5 117q-9 20 -17 48.5t-13.5 62t-8.5 70.5t-3 73q0 72 9.5 137.5t31.5 110.5q38 82 107 118.5t168 36.5q62 0 100.5 -14.5t61.5 -36.5v41h498zM364 130
q51 0 83.5 10.5t42.5 28.5q2 5 3 32.5t1.5 63t0.5 72.5v61v55.5t-0.5 64t-2 56t-3.5 30.5q-14 25 -43 41t-82 16q-55 0 -87 -19.5t-50 -53.5q-6 -13 -11.5 -34.5t-9.5 -48t-6.5 -55t-2.5 -55.5q0 -25 2 -53t6 -54.5t9.5 -49t12.5 -35.5q19 -35 51.5 -54t85.5 -19z" />
    <glyph glyph-name="oe" unicode="&#x153;" horiz-adv-x="985" 
d="M302 -9q-81 0 -135 25t-87 67q-28 38 -41.5 87t-13.5 107q0 53 12.5 100.5t42.5 88.5q32 43 85.5 69.5t138.5 26.5q72 0 125.5 -23.5t76.5 -60.5q18 35 68 59.5t126 24.5q86 0 141.5 -31t85.5 -79q25 -41 34 -99t4 -127h-390q0 -20 5.5 -40t17.5 -35q14 -17 39.5 -27.5
t61.5 -10.5q55 0 84 20q17 11 24 23.5t9 22.5h146q-5 -32 -22.5 -68.5t-52.5 -64.5q-32 -26 -77.5 -40.5t-110.5 -14.5q-80 0 -129.5 21.5t-70.5 57.5q-23 -36 -72 -57.5t-125 -21.5zM817 327q0 17 -4.5 38t-15.5 35q-14 16 -37.5 27t-59.5 11q-35 0 -60 -10.5t-41 -27.5
q-13 -14 -19 -35.5t-6 -37.5h243v0zM430 276q0 32 -5 63t-17 49q-14 21 -39.5 32t-65.5 11q-74 0 -104 -50q-12 -18 -17 -47.5t-5 -57.5q0 -32 4 -61.5t15 -48.5q31 -48 107 -48q74 0 105 49q11 19 16.5 48t5.5 61z" />
    <glyph glyph-name="endash" unicode="&#x2013;" horiz-adv-x="451" 
d="M22 269v146h407v-146h-407z" />
    <glyph glyph-name="emdash" unicode="&#x2014;" horiz-adv-x="625" 
d="M46 269v147h532v-147h-532z" />
    <glyph glyph-name="quotedblleft" unicode="&#x201c;" horiz-adv-x="456" 
d="M421 491h-167v184l108 127l72 -50l-52 -78l6 -2l33 -1v-180zM203 491h-167v184l109 127l72 -50l-52 -78l6 -2h32v-181z" />
    <glyph glyph-name="quotedblright" unicode="&#x201d;" horiz-adv-x="456" 
d="M257 792h167v-184l-108 -127l-72 50l52 78l-7 2h-32v181zM40 792h166v-184l-108 -127l-72 50l52 78l-7 2h-31v181z" />
    <glyph glyph-name="quoteleft" unicode="&#x2018;" horiz-adv-x="240" 
d="M210 491h-174v190l107 121l73 -50l-46 -72l7 -2h33v-187z" />
    <glyph glyph-name="quoteright" unicode="&#x2019;" horiz-adv-x="240" 
d="M33 792h175v-190l-108 -121l-73 50l46 72l-7 2h-33v187z" />
    <glyph glyph-name="divide" unicode="&#xf7;" horiz-adv-x="541" 
d="M205 519v109h133v-109h-133zM32 334v120h478v-120h-478zM206 160v109h131v-109h-131z" />
    <glyph glyph-name="lozenge" unicode="&#x25ca;" horiz-adv-x="667" 
d="M415 0h-163l-231 320l231 320h163l231 -320zM334 539l-150 -219l150 -221l149 221z" />
    <glyph glyph-name="ydieresis" unicode="&#xff;" horiz-adv-x="589" 
d="M308 -170h-160l67 173l-210 547h161q37 -105 66 -189q12 -36 24 -70t21.5 -61.5t15 -44.5t5.5 -19q0 2 6 19t15 44.5t20.5 61.5t23.5 70q28 84 64 189h157zM336 590v139h128v-139h-128zM136 590v139h128v-139h-128z" />
    <glyph glyph-name="Ydieresis" unicode="&#x178;" horiz-adv-x="699" 
d="M428 275v-275h-166v274l-260 518h174q48 -99 85 -177q16 -33 31 -65.5l27 -58.5t19.5 -43t7.5 -19q0 2 8 19t21 43t29.5 58.5t33.5 65.5q40 78 92 177h169zM396 832v139h128v-139h-128zM196 832v139h128v-139h-128z" />
    <glyph glyph-name="fraction" unicode="&#x2044;" horiz-adv-x="190" 
d="M-41 0h-70l342 792h71z" />
    <glyph glyph-name="currency" unicode="&#xa4;" horiz-adv-x="680" 
d="M245 396v-14h187v-87h-184q2 -24 3 -44t3 -33q6 -48 35 -70.5t79 -22.5q51 0 78.5 24t34.5 69q2 9 2.5 25t1.5 36h166q-2 -26 -4.5 -49.5t-6.5 -40.5q-45 -199 -273 -199q-118 0 -183.5 47.5t-89.5 153.5q-5 21 -7.5 48t-4.5 56h-71v87h68v15v14h-68v87h69q1 27 3.5 53
t7.5 53q9 44 29.5 80.5t54 62.5t81.5 40t112 14q62 0 109.5 -15t81.5 -41.5t55 -62.5t29 -77q5 -23 7 -48.5t4 -52.5h-168q-2 17 -2.5 33t-2.5 32q-5 44 -33 69t-80 25q-54 0 -82.5 -25t-33.5 -70q-2 -14 -3 -32t-2 -38h185v-87h-187v-15z" />
    <glyph glyph-name="guilsinglleft" unicode="&#x2039;" horiz-adv-x="302" 
d="M20 302v101l264 200v-151l-143 -98l143 -100v-152z" />
    <glyph glyph-name="guilsinglright" unicode="&#x203a;" horiz-adv-x="302" 
d="M19 254l143 100l-143 98v151l264 -200v-101l-264 -200v152z" />
    <glyph glyph-name="fi" unicode="&#xfb01;" horiz-adv-x="619" 
d="M243 423v-423h-154v420h-78v130h78v97q0 33 9.5 61.5t30.5 49.5t53.5 33t78.5 12q14 0 30 -0.5t31.5 -1.5t28 -2t18.5 -2v-121q-8 1 -26.5 2.5t-32.5 1.5q-37 0 -52.5 -17t-15.5 -45v-70h325v-494q0 -48 6 -54h-154q-4 5 -6 17t-2 35v371h-168z" />
    <glyph glyph-name="fl" unicode="&#xfb02;" horiz-adv-x="614" 
d="M11 550h76v96q0 33 9 61.5t28.5 50t51 33.5t76.5 12q13 0 30 -0.5t33.5 -1.5t30 -2t18.5 -2v-121q-7 1 -28.5 2.5t-34.5 1.5q-35 0 -48.5 -15t-13.5 -38v-79h123v-128h-121v-420h-154v420h-76v130zM419 0q-5 2 -6.5 14t-1.5 29v696q0 19 -1 35t-2 22h151q2 -5 3 -17
t1 -29v-702q0 -19 2 -32t7 -16h-153z" />
    <glyph glyph-name="daggerdbl" unicode="&#x2021;" horiz-adv-x="417" 
d="M398 360v-115h-109v-245l-79 -116l-76 116v245h-115v115h116v92h-116v116h115q0 18 -0.5 55.5t-0.5 75.5v95h156v-226h109v-116h-111v-92h111z" />
    <glyph glyph-name="periodcentered" unicode="&#xb7;" horiz-adv-x="294" 
d="M56 300v190h183v-190h-183z" />
    <glyph glyph-name="quotesinglbase" unicode="&#x201a;" horiz-adv-x="240" 
d="M33 188h175v-189l-108 -123l-73 49l46 73l-7 2h-33v188z" />
    <glyph glyph-name="quotedblbase" unicode="&#x201e;" horiz-adv-x="456" 
d="M257 181h167v-183l-108 -128l-72 49l52 79l-7 2h-32v181zM40 181h166v-183l-108 -128l-72 49l52 79l-7 2h-31v181z" />
    <glyph glyph-name="perthousand" unicode="&#x2030;" horiz-adv-x="1335" 
d="M437 570q0 -36 -14 -68.5t-40 -56.5t-63.5 -38.5t-84.5 -14.5q-48 0 -85.5 14t-63 38.5t-39 57t-13.5 68.5v57q0 35 11.5 67.5t36 57t62.5 39t91 14.5q54 0 92 -16t62.5 -41.5t36 -57t11.5 -63.5v-57v0zM271 0h-91l448 779h89zM1308 169q0 -37 -12 -69.5t-36.5 -57
t-63.5 -38.5t-93 -14q-48 0 -84.5 15t-62 39.5t-38.5 57t-13 67.5v57q0 33 11.5 65t36.5 57t63 40.5t90 15.5t90 -16.5t63 -42t37 -57t12 -62.5v-57v0zM875 169q0 -37 -11.5 -69.5t-36.5 -57t-63.5 -38.5t-92.5 -14q-48 0 -85 15t-62.5 39.5t-38.5 57t-13 67.5v57
q0 33 12 65t36.5 57t63 40.5t90.5 15.5t90 -16.5t62.5 -42t36.5 -57t12 -62.5v-57v0zM317 623q0 14 -6 27.5t-17 24.5t-26 17.5t-33 6.5q-38 0 -60 -21.5t-22 -54.5v-48q0 -32 22.5 -55.5t60.5 -23.5q20 0 35.5 7t25.5 18.5t15 25.5t5 28v48zM1188 222q0 13 -5 26t-15 24
t-25.5 18t-36.5 7q-43 0 -62.5 -23.5t-19.5 -51.5v-48q0 -13 5 -27.5t15.5 -25.5t25.5 -18.5t36 -7.5q23 0 39 7t25.5 18.5t13.5 25.5t4 28v48zM755 222q0 13 -5 26t-15 24t-25 18t-36 7q-44 0 -63 -23.5t-19 -51.5v-48q0 -13 5 -27.5t15 -25.5t25.5 -18.5t36.5 -7.5
q23 0 38.5 7t25 18.5t13.5 25.5t4 28v48z" />
    <glyph glyph-name="Acircumflex" unicode="&#xc2;" horiz-adv-x="700" 
d="M166 0h-167l252 792h214l235 -792h-169l-54 189h-255zM437 324q-2 10 -7.5 30.5t-13 45.5t-15 52.5t-14.5 51t-11.5 40.5t-5.5 21q-1 5 -3 17.5t-5 26.5q-4 16 -7 34q-3 -19 -7 -35q-3 -14 -5.5 -26.5t-4.5 -17.5q-1 -4 -6 -20.5t-12 -39.5t-15.5 -50.5t-16 -52.5
t-13.5 -46t-9 -31h171v0zM408 836l-56 73l-56 -73h-120l100 152h154l100 -152h-122z" />
    <glyph glyph-name="Ecircumflex" unicode="&#xca;" horiz-adv-x="622" 
d="M61 0v792h523v-145h-361v-178h346v-145h-346v-180h365v-144h-527zM385 837l-56 73l-56 -73h-120l100 152h154l100 -152h-122z" />
    <glyph glyph-name="Aacute" unicode="&#xc1;" horiz-adv-x="700" 
d="M166 0h-167l252 792h214l235 -792h-169l-54 189h-255zM437 324q-2 10 -7.5 30.5t-13 45.5t-15 52.5t-14.5 51t-11.5 40.5t-5.5 21q-1 5 -3 17.5t-5 26.5q-4 16 -7 34q-3 -19 -7 -35q-3 -14 -5.5 -26.5t-4.5 -17.5q-1 -4 -6 -20.5t-12 -39.5t-15.5 -50.5t-16 -52.5
t-13.5 -46t-9 -31h171v0zM367 988h159l-104 -153h-140z" />
    <glyph glyph-name="Edieresis" unicode="&#xcb;" horiz-adv-x="622" 
d="M61 0v792h523v-145h-361v-178h346v-145h-346v-180h365v-144h-527zM369 833v139h128v-139h-128zM169 833v139h128v-139h-128z" />
    <glyph glyph-name="Egrave" unicode="&#xc8;" horiz-adv-x="622" 
d="M61 0v792h523v-145h-361v-178h346v-145h-346v-180h365v-144h-527zM273 835l-104 153h160l86 -153h-142z" />
    <glyph glyph-name="Iacute" unicode="&#xcd;" horiz-adv-x="289" 
d="M61 0v792h167v-792h-167zM154 988h159l-104 -153h-140z" />
    <glyph glyph-name="Icircumflex" unicode="&#xce;" horiz-adv-x="289" 
d="M61 0v792h167v-792h-167zM199 836l-56 73l-56 -73h-120l100 152h154l100 -152h-122z" />
    <glyph glyph-name="Idieresis" unicode="&#xcf;" horiz-adv-x="289" 
d="M61 0v792h167v-792h-167zM180 832v139h128v-139h-128zM-20 832v139h128v-139h-128z" />
    <glyph glyph-name="Igrave" unicode="&#xcc;" horiz-adv-x="289" 
d="M61 0v792h167v-792h-167zM83 834l-104 153h160l86 -153h-142z" />
    <glyph glyph-name="Oacute" unicode="&#xd3;" horiz-adv-x="722" 
d="M361 802q110 0 177.5 -33.5t103.5 -95.5q26 -43 38.5 -115t12.5 -157q0 -89 -13 -156t-43 -127q-32 -60 -99.5 -94.5t-176.5 -34.5q-98 0 -169 30.5t-107 96.5q-29 51 -42.5 124.5t-13.5 158.5q0 81 12.5 151.5t41.5 118.5q18 29 42.5 53.5t58.5 42t78 27.5t99 10z
M362 128q50 0 78 15.5t46 37.5q11 14 18.5 38t12.5 53.5t7.5 62t2.5 62.5q0 29 -2 59t-6.5 57.5t-11.5 51t-17 39.5q-17 26 -46.5 42.5t-82.5 16.5t-80.5 -15t-47.5 -44q-9 -12 -15.5 -35.5t-11 -52t-7 -60t-2.5 -61.5t2.5 -62.5t8 -62t14 -54t19.5 -38.5q19 -23 46 -36.5
t75 -13.5zM375 988h159l-104 -153h-140z" />
    <glyph glyph-name="Ocircumflex" unicode="&#xd4;" horiz-adv-x="722" 
d="M361 802q110 0 177.5 -33.5t103.5 -95.5q26 -43 38.5 -115t12.5 -157q0 -89 -13 -156t-43 -127q-32 -60 -99.5 -94.5t-176.5 -34.5q-98 0 -169 30.5t-107 96.5q-29 51 -42.5 124.5t-13.5 158.5q0 81 12.5 151.5t41.5 118.5q18 29 42.5 53.5t58.5 42t78 27.5t99 10z
M362 128q50 0 78 15.5t46 37.5q11 14 18.5 38t12.5 53.5t7.5 62t2.5 62.5q0 29 -2 59t-6.5 57.5t-11.5 51t-17 39.5q-17 26 -46.5 42.5t-82.5 16.5t-80.5 -15t-47.5 -44q-9 -12 -15.5 -35.5t-11 -52t-7 -60t-2.5 -61.5t2.5 -62.5t8 -62t14 -54t19.5 -38.5q19 -23 46 -36.5
t75 -13.5zM420 837l-56 73l-56 -73h-120l100 152h154l100 -152h-122z" />
    <glyph glyph-name="apple" unicode="&#xf8ff;" horiz-adv-x="435" 
d="M134 321q-6 -7 -11 -14t-9 -12q-7 -10 -15 -8t-12.5 9.5t-3.5 15.5t11 10q13 2 32 8q-12 15 -19 33.5t-7 39.5q0 20 7 38.5t19 33.5q-8 2 -15.5 4t-12.5 3q-10 2 -11 10t3.5 15.5t12.5 9.5t15 -8q3 -5 8 -11l10 -12q28 26 65 32v163h-196v114h425v-114h-197v-163
q37 -6 63 -31q5 7 10.5 13.5t8.5 11.5q7 10 15 8t12.5 -9.5t4 -15.5t-11.5 -10q-5 -1 -13.5 -3t-16.5 -4q28 -31 28 -75q0 -39 -24 -71q14 -4 27 -6q11 -2 11.5 -10t-4 -15.5t-12.5 -9.5t-15 8q-7 11 -17 22q-27 -28 -67 -33v-157h198v-126h-424v126h194v157q-37 6 -66 33z
M232 441l-16 -34l-14 34v47q-30 -6 -50.5 -29.5t-20.5 -55.5t20 -55t50 -29v47l15 33l15 -33v-47q30 5 51 28.5t21 55.5t-20.5 55.5t-50.5 29.5v-47z" />
    <glyph glyph-name="Ograve" unicode="&#xd2;" horiz-adv-x="722" 
d="M361 802q110 0 177.5 -33.5t103.5 -95.5q26 -43 38.5 -115t12.5 -157q0 -89 -13 -156t-43 -127q-32 -60 -99.5 -94.5t-176.5 -34.5q-98 0 -169 30.5t-107 96.5q-29 51 -42.5 124.5t-13.5 158.5q0 81 12.5 151.5t41.5 118.5q18 29 42.5 53.5t58.5 42t78 27.5t99 10z
M362 128q50 0 78 15.5t46 37.5q11 14 18.5 38t12.5 53.5t7.5 62t2.5 62.5q0 29 -2 59t-6.5 57.5t-11.5 51t-17 39.5q-17 26 -46.5 42.5t-82.5 16.5t-80.5 -15t-47.5 -44q-9 -12 -15.5 -35.5t-11 -52t-7 -60t-2.5 -61.5t2.5 -62.5t8 -62t14 -54t19.5 -38.5q19 -23 46 -36.5
t75 -13.5zM310 834l-104 153h160l86 -153h-142z" />
    <glyph glyph-name="Uacute" unicode="&#xda;" horiz-adv-x="705" 
d="M652 223q0 -58 -21.5 -101.5t-61 -72.5t-94.5 -44t-123 -15q-66 0 -121 14t-95 43.5t-62 74.5t-22 108v562h164v-548q0 -55 34.5 -85.5t103.5 -30.5q62 0 98 30t36 85v549h164v-569v0zM359 988h159l-104 -153h-140z" />
    <glyph glyph-name="Ucircumflex" unicode="&#xdb;" horiz-adv-x="705" 
d="M652 223q0 -58 -21.5 -101.5t-61 -72.5t-94.5 -44t-123 -15q-66 0 -121 14t-95 43.5t-62 74.5t-22 108v562h164v-548q0 -55 34.5 -85.5t103.5 -30.5q62 0 98 30t36 85v549h164v-569v0zM413 836l-56 73l-56 -73h-120l100 152h154l100 -152h-122z" />
    <glyph glyph-name="Ugrave" unicode="&#xd9;" horiz-adv-x="705" 
d="M652 223q0 -58 -21.5 -101.5t-61 -72.5t-94.5 -44t-123 -15q-66 0 -121 14t-95 43.5t-62 74.5t-22 108v562h164v-548q0 -55 34.5 -85.5t103.5 -30.5q62 0 98 30t36 85v549h164v-569v0zM301 834l-104 153h160l86 -153h-142z" />
    <glyph glyph-name="dotlessi" unicode="&#x131;" horiz-adv-x="255" 
d="M57 0q-4 2 -5 11t-1 41v498h154v-496q0 -31 0.5 -41.5t3.5 -12.5h-152z" />
    <glyph glyph-name="circumflex" unicode="&#x2c6;" 
d="M275 594l-56 73l-56 -73h-120l100 152h154l100 -152h-122z" />
    <glyph glyph-name="tilde" unicode="&#x2dc;" 
d="M221 616q-16 13 -28.5 20.5t-28.5 5.5q-12 -2 -20 -10.5t-9 -35.5h-98q1 69 28 107.5t78 38.5q20 0 37 -4.5t38 -23.5q15 -13 27.5 -19.5t26.5 -4.5q13 2 21 10.5t9 35.5h97q-1 -71 -28 -108.5t-77 -37.5q-20 0 -36.5 4t-36.5 22z" />
    <glyph glyph-name="macron" unicode="&#xaf;" 
d="M60 609v90h319v-90h-319z" />
    <glyph glyph-name="breve" unicode="&#x2d8;" 
d="M391 734q0 -29 -11 -55.5t-32.5 -46.5t-53 -32t-73.5 -12q-41 0 -73 11.5t-54.5 31.5t-34 46.5t-11.5 56.5h113q0 -27 15 -44t44 -17t44 16.5t15 44.5h112v0z" />
    <glyph glyph-name="dotaccent" unicode="&#x2d9;" 
d="M159 594v131h123v-131h-123z" />
    <glyph glyph-name="ring" unicode="&#x2da;" 
d="M220 797q24 0 45.5 -9t37.5 -24.5t25 -36.5t9 -44q0 -24 -9 -45.5t-25 -37.5t-37.5 -25t-45.5 -9t-45.5 9t-37.5 25t-25.5 37.5t-9.5 45.5q0 23 9.5 44t25.5 36.5t37.5 24.5t45.5 9zM220 721q-16 0 -26.5 -11.5t-10.5 -26.5q0 -16 10.5 -28.5t26.5 -12.5q15 0 26 12.5
t11 28.5q0 15 -11 26.5t-26 11.5z" />
    <glyph glyph-name="cedilla" unicode="&#xb8;" 
d="M239 -99q0 25 -20 32.5t-49 7.5v59h88v-27q17 0 34 -4t31 -13t22.5 -24.5t8.5 -38.5q0 -30 -15.5 -51.5t-44.5 -32t-70.5 -9.5t-92.5 17v65q46 -17 77 -12t31 31z" />
    <glyph glyph-name="hungarumlaut" unicode="&#x2dd;" 
d="M307 745h124l-90 -153h-105zM148 745h125l-91 -153h-105z" />
    <glyph glyph-name="ogonek" unicode="&#x2db;" horiz-adv-x="466" 
d="M221 -92q0 -15 18.5 -26t50.5 -14v-57q-89 6 -128.5 31.5t-39.5 65.5q0 37 32.5 62.5t111.5 29.5l7 -47q-52 -9 -52 -45z" />
    <glyph glyph-name="caron" unicode="&#x2c7;" 
d="M163 748l57 -73l56 73h120l-100 -151h-154l-100 151h121z" />
    <glyph glyph-name="Euro" unicode="&#x20ac;" horiz-adv-x="680" 
d="M245 396v-14h187v-87h-184q2 -24 3 -44t3 -33q6 -48 35 -70.5t79 -22.5q51 0 78.5 24t34.5 69q2 9 2.5 25t1.5 36h166q-2 -26 -4.5 -49.5t-6.5 -40.5q-45 -199 -273 -199q-118 0 -183.5 47.5t-89.5 153.5q-5 21 -7.5 48t-4.5 56h-71v87h68v15v14h-68v87h69q1 27 3.5 53
t7.5 53q9 44 29.5 80.5t54 62.5t81.5 40t112 14q62 0 109.5 -15t81.5 -41.5t55 -62.5t29 -77q5 -23 7 -48.5t4 -52.5h-168q-2 17 -2.5 33t-2.5 32q-5 44 -33 69t-80 25q-54 0 -82.5 -25t-33.5 -70q-2 -14 -3 -32t-2 -38h185v-87h-187v-15z" />
    <glyph glyph-name="f_f" horiz-adv-x="681" 
d="M240 0h-153v420h-76v130h76v96q0 33 9 61.5t28.5 50t50.5 33.5t76 12q14 0 30 -0.5t32 -1.5t28.5 -2t18.5 -2v-123q-3 1 -10.5 1.5t-16.5 1t-17.5 1t-13.5 0.5q-36 0 -49.5 -16.5t-13.5 -40.5v-73h168v83q0 33 9 64t28.5 55t50.5 38.5t76 14.5q13 0 29 -0.5t31.5 -1.5
t28 -2t18.5 -2v-123q-8 2 -26.5 3t-32.5 1q-35 0 -48 -15t-13 -38v-77h120v-128h-118v-420h-153v420h-167v-420z" />
    <glyph glyph-name="f_f_i" horiz-adv-x="937" 
d="M560 422v-422h-153v422h-167v-422h-153v420h-76v130h76v96q0 33 9 61.5t28.5 50t50.5 33.5t76 12q14 0 30 -0.5t32 -1.5t28.5 -2t18.5 -2v-123q-3 1 -10.5 1.5t-16.5 1t-17.5 1t-13.5 0.5q-36 0 -49.5 -16.5t-13.5 -40.5v-72h168v82q0 33 9 64t28.5 55t50.5 38.5t76 14.5
q13 0 29 -0.5t31.5 -1.5t28 -2t18.5 -2v-123q-8 2 -26.5 3t-32.5 1q-35 0 -48 -15t-13 -38v-77h324v-494q0 -49 9 -54h-154q-9 3 -9 52v370h-168z" />
    <glyph glyph-name="f_f_l" horiz-adv-x="932" 
d="M240 0h-153v420h-76v130h76v96q0 33 9 61.5t28.5 50t50.5 33.5t76 12q14 0 30 -0.5t32 -1.5t28.5 -2t18.5 -2v-123q-3 1 -10.5 1.5t-16.5 1t-17.5 1t-13.5 0.5q-36 0 -49.5 -16.5t-13.5 -40.5v-73h168v83q0 33 9 64t28.5 55t50.5 38.5t76 14.5q13 0 30 -0.5t33.5 -1.5
t30 -2t18.5 -2v-123q-3 1 -11 1.5t-17.5 1l-19 1t-16.5 0.5q-35 0 -48 -15t-13 -38v-77h123v-128h-121v-420h-153v420h-167v-420zM738 0q-5 2 -7 14t-2 29v696q0 19 -0.5 35t-2.5 22h152q2 -5 2.5 -17t0.5 -29v-702q0 -19 2 -32t7 -16h-152z" />
    <glyph glyph-name=".null" horiz-adv-x="0" 
 />
    <glyph glyph-name=".null" horiz-adv-x="0" 
 />
    <glyph glyph-name="Eth" unicode="&#xd0;" horiz-adv-x="698" 
d="M18 320v146h44v326h327q85 0 139 -21t85 -64q33 -42 43.5 -114.5t10.5 -182.5q0 -63 -2 -112.5t-8 -87.5t-16 -66.5t-25 -50.5q-30 -44 -80 -68.5t-134 -24.5h-340v320h-44zM357 466v-146h-132v-182h146q42 0 68 10.5t43 34.5q8 12 13.5 38t8.5 58.5t4 67t1 63.5
q0 27 -1.5 57.5t-5 57.5t-9 48.5t-13.5 31.5q-20 26 -44 36t-66 10h-145v-185h132z" />
    </font>
</defs>
</svg>
