<?xml version="1.0" standalone="no"?>
<!DOCTYPE svg PUBLIC "-//W3C//DTD SVG 1.1//EN" "http://www.w3.org/Graphics/SVG/1.1/DTD/svg11.dtd" >
<svg xmlns="http://www.w3.org/2000/svg" xmlns:xlink="http://www.w3.org/1999/xlink" version="1.1">
<metadata>
Created by FontForge 20161003 at Wed Jul 12 18:53:25 2017
 By www-data
[c] Copyright 2003-2004, The Font Bureau, Inc. Designed by David Berlow. All rights reserved.
</metadata>
<defs>
<font id="TitlingGothicFB-StandardCom" horiz-adv-x="662" >
  <font-face 
    font-family="TitlingGothicFB StandComp"
    font-weight="400"
    font-stretch="normal"
    units-per-em="2048"
    panose-1="2 0 5 5 3 0 0 2 0 4"
    ascent="1638"
    descent="-410"
    x-height="1126"
    cap-height="1634"
    bbox="-174 -432 1642 1976"
    underline-thickness="20"
    underline-position="-133"
    unicode-range="U+0020-FB04"
  />
<missing-glyph horiz-adv-x="303" 
 />
    <glyph glyph-name="f_f" unicode="ff" horiz-adv-x="831" 
d="M301 946v-946h-197v946h-94v180h94v281q0 52 12 95.5t38.5 74.5t68.5 48t103 17q46 0 70 -1.5t44 -4.5v-172q-5 0 -13.5 0.5t-18.5 1.5t-19.5 1.5t-15.5 0.5q-41 -2 -56.5 -27t-15.5 -59v-256h201v265q0 51 11.5 97t38 80t68 54t101.5 20q44 0 68.5 -1.5t44.5 -4.5v-172
q-14 0 -32 2t-38 2q-37 -2 -52.5 -22.5t-15.5 -54.5v-265h129v-180h-129v-946h-194v946h-201z" />
    <glyph glyph-name="f_f_i" unicode="ffi" horiz-adv-x="1184" 
d="M905 950h-209v-950h-194v950h-201v-950h-197v946h-94v180h94v281q0 52 12 95.5t38.5 74.5t68.5 48t103 17q46 0 70 -1.5t44 -4.5v-172q-5 0 -13.5 0.5t-18.5 1.5t-19.5 1.5t-15.5 0.5q-41 -2 -56.5 -27t-15.5 -59v-256h201v265q0 51 11.5 97t38 80t68 54t101.5 20
q44 0 68.5 -1.5t44.5 -4.5v-172q-14 0 -32 2t-38 2q-37 -2 -52.5 -22.5t-15.5 -54.5v-265h410v-1036q0 -15 1.5 -31t3.5 -28.5t4 -21t3 -9.5h-196q-7 2 -12 26.5t-5 55.5v868z" />
    <glyph glyph-name="f_f_l" unicode="ffl" horiz-adv-x="1186" 
d="M301 946v-946h-197v946h-94v180h94v281q0 52 12 95.5t38.5 74.5t68.5 48t103 17q46 0 70 -1.5t44 -4.5v-172q-5 0 -13.5 0.5t-18.5 1.5t-19.5 1.5t-15.5 0.5q-41 -2 -56.5 -27t-15.5 -59v-256h201v265q0 51 11.5 97t38 80t68 54t101.5 20q44 0 68.5 -1.5t44.5 -4.5v-172
q-11 2 -30.5 3t-39.5 1q-37 -2 -52.5 -22.5t-15.5 -54.5v-265h127v-180h-127v-946h-194v946h-201zM1116 0q-55 -1 -98 -1h-36h-31.5t-22 0.5l-8.5 0.5q-5 5 -8 26t-3 46v1468q0 13 -0.5 28t-1 28.5t-1 24t-1.5 15.5h197q0 -3 2 -22.5t2 -44.5v-1483q0 -79 10 -86z" />
    <glyph glyph-name="fi" unicode="fi" horiz-adv-x="795" 
d="M516 948h-209v-948h-196v946h-101v180h101v281q0 52 13 95.5t41.5 74.5t73 48t107.5 17q45 0 68 -1.5t43 -4.5v-172q-13 0 -32 2t-36 2q-42 0 -63 -26t-21 -68v-248h412v-1036q0 -15 1.5 -31t3 -28.5t3 -21t2.5 -9.5h-197q-5 3 -9.5 27t-4.5 55v866z" />
    <glyph glyph-name="fl" unicode="fl" horiz-adv-x="795" 
d="M10 946v180h94v281q0 52 12 95.5t39 74.5t69.5 48t103.5 17q45 0 69.5 -1.5t42.5 -4.5v-172q-12 2 -31 3t-36 1q-38 0 -55 -21.5t-17 -55.5v-265h129v-180h-127v-946h-199v946h-94zM721 0q-55 -1 -97 -1h-35.5h-31t-21.5 0.5l-8 0.5q-8 5 -10 26t-2 46v1468q0 13 -0.5 28
t-1 28.5t-1 24t-1.5 15.5h197q0 -3 1 -22.5t1 -44.5v-1483q0 -76 10 -86z" />
    <glyph glyph-name=".notdef" horiz-adv-x="303" 
 />
    <glyph glyph-name="NUL" horiz-adv-x="0" 
 />
    <glyph glyph-name="nonmarkingreturn" horiz-adv-x="303" 
 />
    <glyph glyph-name="space" unicode=" " horiz-adv-x="303" 
 />
    <glyph glyph-name="lslash" unicode="&#x142;" horiz-adv-x="334" 
d="M264 612v-526q0 -40 2.5 -60.5t5.5 -25.5q-55 -1 -97 -1h-35.5h-31t-22 0.5l-8.5 0.5q-5 5 -6.5 24.5t-1.5 47.5v467l-60 -25v131l60 27v868q0 13 -0.5 28t-1 28.5t-2 24t-3.5 15.5h199q0 -3 1 -22.5t1 -44.5v-824l60 25v-131q-17 -8 -30 -13q-11 -5 -20.5 -9t-9.5 -5z
" />
    <glyph glyph-name="Scaron" unicode="&#x160;" horiz-adv-x="766" 
d="M737 367q0 -187 -92 -285t-262 -98q-162 0 -249.5 67t-98.5 189q-2 4 -3 30.5t-1.5 60.5t-1 67.5t-0.5 50.5h207q0 -14 0.5 -39.5l1 -51t1 -45.5t1.5 -22q9 -63 45 -89t96 -26q71 0 104 43.5t33 136.5q0 49 -7 90t-25.5 81t-50.5 82.5t-81 95.5q-11 11 -25.5 27t-31.5 34
t-34.5 37t-33.5 37q-49 54 -87.5 104.5t-64.5 103.5t-40 112.5t-14 133.5q0 84 24 149.5t70 111t111.5 69t148.5 23.5t143.5 -23t101.5 -64t63.5 -96.5t29.5 -120.5q2 -24 3.5 -50t2.5 -49.5t1.5 -42.5t0.5 -30h-209q0 14 -0.5 37t-1.5 46q-1 26 -2 55q-2 66 -35.5 101.5
t-99.5 35.5q-77 0 -106 -37.5t-29 -120.5q0 -47 13.5 -87.5t37 -77t54 -71.5t63.5 -71q26 -28 59 -65t68 -74q51 -56 88.5 -106.5t63 -105.5t38 -118.5t12.5 -144.5zM133 1976h166l82 -149l82 149h164l-138 -268h-215z" />
    <glyph glyph-name="scaron" unicode="&#x161;" horiz-adv-x="637" 
d="M612 295q0 -154 -77.5 -230.5t-212.5 -76.5q-267 0 -291 205q-2 16 -3.5 37.5t-2.5 42.5t-1.5 40t-0.5 31h186v-14.5v-25.5t0.5 -32t1.5 -34q2 -36 27 -58t79 -22q48 0 76.5 33.5t28.5 95.5q0 31 -5 55t-17.5 44t-33 38t-51.5 39q-15 10 -28 19t-28 19t-32.5 22t-40.5 28
q-41 28 -70 58t-48 67t-28 84t-9 110q0 60 18.5 110t54.5 86.5t88 56.5t119 20q60 0 108 -15.5t83 -43t55.5 -65t26.5 -81.5q1 -7 2 -30t2.5 -50t2.5 -51t1 -33h-184v19v33t-0.5 34t-1.5 21q-5 35 -24.5 58.5t-68.5 23.5t-71.5 -27.5t-22.5 -83.5q0 -30 6.5 -53t19.5 -42
t31 -35t41 -32q31 -21 57.5 -39t63.5 -41q42 -26 74 -56t54.5 -67.5t34 -84.5t11.5 -107zM68 1475h165l82 -150l82 150h164l-137 -269h-215z" />
    <glyph glyph-name="Yacute" unicode="&#xdd;" horiz-adv-x="838" 
d="M838 1634l-318 -1032v-602h-219v596l-301 1038h225q53 -198 95 -360q18 -69 35 -137.5t30.5 -125.5t22 -97.5t8.5 -53.5q0 14 9 54.5t23.5 97.5t33 125.5t38.5 137.5q45 162 103 359h215zM293 1702l131 264h213l-158 -264h-186z" />
    <glyph glyph-name="yacute" unicode="&#xfd;" horiz-adv-x="690" 
d="M686 1126l-330 -1460h-198l90 375l-246 1085h201q37 -169 68 -317q13 -63 26 -128t24 -123.5t18.5 -106.5t10.5 -78q2 29 9 77t17 106.5t22 123.5t25 128q29 149 66 318h197zM219 1200l131 264h213l-157 -264h-187z" />
    <glyph glyph-name="Thorn" unicode="&#xde;" horiz-adv-x="801" 
d="M295 1634v-299h162q106 0 175.5 -49.5t92.5 -161.5q12 -24 20.5 -58t14 -72.5t8 -78.5t2.5 -75q0 -36 -2.5 -77t-8 -80t-14 -73.5t-20.5 -58.5q-28 -102 -95 -152t-169 -53h-170v-346h-219v1634h223zM549 831v26.5t-0.5 33.5t-1.5 33t-2 26q-3 55 -12 91t-25 57t-38 29
t-50 8h-129v-605h125q63 0 92 44.5t37 121.5q1 9 1.5 26.5t1 37.5t1 39t0.5 32z" />
    <glyph glyph-name="thorn" unicode="&#xfe;" horiz-adv-x="711" 
d="M678 584q0 -65 -2.5 -128t-7 -118.5t-11 -100t-14.5 -71.5q-22 -81 -76.5 -125.5t-138.5 -44.5q-66 0 -109.5 18t-66.5 47v-395h-195v1970h191v-598q20 50 69.5 76.5t118.5 26.5q79 0 128.5 -35t74.5 -117q20 -65 29.5 -171.5t9.5 -233.5zM479 575q0 42 -1 89t-3 91
t-6 81t-10 61q-8 32 -30 51t-62 19q-44 0 -66.5 -24t-30.5 -64q-12 -73 -16 -145t-4 -159q0 -80 1 -135.5t3 -94.5t5.5 -66.5t8.5 -51.5q6 -29 29.5 -48t67.5 -19q42 0 67 19.5t33 64.5q4 23 7 61t4.5 83.5t2 94t0.5 92.5z" />
    <glyph glyph-name="Zcaron" unicode="&#x17d;" horiz-adv-x="713" 
d="M700 0h-686v176l445 1254h-416v204h645v-168l-446 -1261h458v-205zM106 1976h166l82 -149l82 149h164l-137 -268h-215z" />
    <glyph glyph-name="zcaron" unicode="&#x17e;" horiz-adv-x="592" 
d="M573 0h-553v166l338 780h-327v180h536v-174l-342 -778h348v-174zM45 1475h166l82 -150l82 150h164l-138 -269h-215z" />
    <glyph glyph-name="onehalf" unicode="&#xbd;" horiz-adv-x="1036" 
d="M326 795h-146v645l-170 -13v101q42 1 77 11t61.5 25t44.5 33.5t26 36.5h107v-839zM719 1634q-44 -147 -86 -295q-18 -63 -38 -132.5t-40 -140t-39.5 -139.5t-36.5 -130q-16 -58 -34 -123t-36.5 -131.5l-37 -133t-34.5 -126.5q-39 -142 -77 -283h-92q43 151 87 304
q19 65 39.5 136.5t41 144.5t40.5 144t38 135q16 56 33.5 119t35.5 127.5t36 128.5t34 122q38 136 76 273h90zM991 0h-459v102q17 48 47 90.5t65 82t70.5 77t64 76.5t47 79.5t18.5 86.5v51q0 53 -21.5 72.5t-64.5 19.5q-35 0 -53 -18t-23 -66q-2 -14 -2 -44.5v-55.5h-143
q0 11 0.5 25t1 29t1 28.5t1.5 23.5q3 42 18.5 76t44 59t71 38.5t99.5 13.5q59 0 100 -14t66.5 -38.5t38 -58t14.5 -73.5v-17.5v-24t-0.5 -24.5t-1.5 -18q-1 -45 -16.5 -84.5t-39.5 -76.5t-54 -72.5t-59.5 -72t-57 -75.5t-45.5 -82h272v-115z" />
    <glyph glyph-name="onequarter" unicode="&#xbc;" horiz-adv-x="1042" 
d="M326 795h-144v645l-170 -13v101q42 1 77 11t61.5 25t44.5 33.5t26 36.5h105v-839zM752 1634q-43 -147 -85 -295q-18 -63 -37.5 -132.5t-39.5 -140t-39.5 -139.5t-36.5 -130q-16 -58 -34 -123t-37 -131.5t-37.5 -133t-34.5 -126.5q-40 -142 -78 -283h-90q42 151 85 304
q18 65 38.5 136.5t41 144.5t40.5 144t38 135q16 56 33.5 119t35.5 127.5t35.5 128.5t34.5 122q38 136 77 273h90zM1008 221h-90v-221h-140v223h-291v113l273 502h158v-506h90v-111zM778 332v313l-160 -313h160z" />
    <glyph glyph-name="onesuperior" unicode="&#xb9;" horiz-adv-x="522" 
d="M360 795h-143v645l-170 -13v101q42 1 77.5 11t62 25t44 33.5t25.5 36.5h104v-839z" />
    <glyph glyph-name="threequarters" unicode="&#xbe;" horiz-adv-x="1141" 
d="M303 1217q62 -2 100.5 -15.5t60.5 -34t30 -44.5t10 -46q2 -25 1 -52t-3 -56q-4 -51 -22 -86.5t-49 -58.5t-74 -33.5t-97 -10.5q-105 0 -169 40t-66 120q-1 19 -1.5 38t-0.5 34.5v25.5v11h145v-107q0 -35 23.5 -47t68.5 -12q53 0 70.5 20.5t19.5 59.5v94q-1 21 -5.5 37.5
t-17.5 27.5t-37 18t-63 9h-16t-30 1q-19 0 -42 1v111q24 1 43 2q17 1 31 1.5t16 0.5q31 4 52 10.5t34 18.5t18 32.5t5 52.5v88q-3 66 -78 66q-77 0 -80 -66v-92h-141q0 1 0.5 12.5t1.5 28t2 35t2 33.5q5 69 59.5 112t159.5 43q61 0 102.5 -12.5t67 -34.5t37 -52t12.5 -64
v-80q-1 -39 -8.5 -70.5t-27.5 -54t-54.5 -36.5t-89.5 -19zM860 1634q-42 -147 -84 -295q-18 -63 -37.5 -132.5t-39.5 -140t-39.5 -139.5t-36.5 -130q-16 -58 -34 -123t-36.5 -131.5l-37 -133t-35.5 -126.5q-40 -142 -79 -283h-90q44 151 87 304q18 65 38.5 136.5t41 144.5
t40 144t37.5 135q16 56 33.5 119t35.5 127.5t36 128.5t35 122q39 136 77 273h88zM1112 221h-88v-221h-141v223h-293v113l274 502h160v-506h88v-111zM883 332v315l-158 -315h158z" />
    <glyph glyph-name="threesuperior" unicode="&#xb3;" horiz-adv-x="598" 
d="M346 1217q62 -2 100.5 -15.5t60 -34t29 -44.5t9.5 -46q3 -50 0 -108q-6 -101 -70.5 -145t-173.5 -44q-51 0 -94 10t-73.5 30t-48.5 50t-19 70q-1 19 -1.5 38t-1 34.5t-0.5 25.5v11h146v-107q0 -35 24.5 -47t69.5 -12q51 0 69.5 20.5t20.5 59.5v94q-1 21 -5.5 37.5
t-17.5 27.5t-37 18t-63 9h-16t-30 1q-19 0 -42 1v111q23 1 42 2q16 1 30 1.5t16 0.5q31 4 52 10.5t34 18.5t18 32.5t5 52.5v88q-3 66 -76 66q-79 0 -82 -66q0 -14 0.5 -29.5t0.5 -29t0.5 -23t0.5 -10.5h-141q0 1 0.5 12.5t1.5 28t2 35t2 33.5q5 69 58.5 112t158.5 43
q61 0 103 -12.5t67.5 -34.5t36.5 -52t12 -64v-80q-1 -39 -8.5 -70.5t-27.5 -54t-54 -36.5t-88 -19z" />
    <glyph glyph-name="twosuperior" unicode="&#xb2;" horiz-adv-x="592" 
d="M526 795h-463v102q17 47 47.5 89.5t65 82t70.5 77t65 76.5t47.5 80t18.5 87v51q0 52 -21.5 72t-64.5 20q-37 0 -55 -18t-23 -66q-1 -7 -1.5 -19t-0.5 -26v-28.5v-26.5h-141v24.5v29t0.5 28.5t1.5 24q4 42 19 76t43.5 58.5t71 38t99.5 13.5q60 0 101.5 -13.5t67.5 -38
t38 -58.5t14 -74q0 -5 -0.5 -16.5t-0.5 -24.5t-0.5 -25t-0.5 -18q-1 -67 -33 -123t-76 -109.5t-89.5 -109t-73.5 -121.5h274v-114z" />
    <glyph glyph-name="brokenbar" unicode="&#xa6;" horiz-adv-x="416" 
d="M289 733h-162v905h162v-905zM289 -410h-162v865h162v-865z" />
    <glyph glyph-name="minus" unicode="&#x2212;" horiz-adv-x="666" 
d="M639 719h-614v174h614v-174z" />
    <glyph glyph-name="multiply" unicode="&#xd7;" horiz-adv-x="627" 
d="M561 928l-143 -144l143 -143l-104 -109l-144 146l-141 -146l-104 109l143 143l-143 144l104 108l141 -143l144 143z" />
    <glyph glyph-name="Lslash" unicode="&#x141;" horiz-adv-x="696" 
d="M291 627v-430h391v-197h-608v553l-54 -25v129l54 25v952h217v-878l209 86v-131z" />
    <glyph glyph-name="exclam" unicode="!" horiz-adv-x="377" 
d="M299 1632l-25 -1233h-174l-20 1233h219zM293 0h-207v297h207v-297z" />
    <glyph glyph-name="quotedbl" unicode="&#x22;" horiz-adv-x="561" 
d="M524 1634l-8 -608h-182l-8 608h198zM229 1634l-8 -608h-178l-8 608h194z" />
    <glyph glyph-name="numbersign" unicode="#" horiz-adv-x="741" 
d="M725 1028l-14 -154h-144q-1 -5 -4 -31.5t-6 -56.5q-4 -35 -8 -79h149l-12 -154h-154l-53 -569h-129l56 569h-123l-56 -569h-127l54 569h-142l17 154h139q4 44 8 79q3 30 6 56.5t4 31.5h-147l14 154h150q1 3 3.5 27t6 60.5t8 82.5t9.5 94q11 112 24 252h129l-51 -516h125
q1 3 3.5 27t6 60.5t7.5 82.5t8 94q10 112 22 252h131q-14 -140 -25 -252q-5 -48 -9.5 -94t-8 -82.5t-6 -60.5t-2.5 -27h141zM440 874h-123l-18 -167h123q3 44 7 79q3 30 6 56.5t5 31.5z" />
    <glyph glyph-name="dollar" unicode="$" horiz-adv-x="735" 
d="M430 1614q70 -9 118 -34t78.5 -64t46.5 -90t21 -111q3 -32 4.5 -77t1.5 -85h-200q0 45 -1 86t-3 61q-3 48 -19.5 82t-56.5 48v-490q11 -11 23 -21.5t24 -21.5q45 -43 81 -80t63 -73t45.5 -74t30 -82.5t17 -99t5.5 -123.5q0 -155 -73 -244.5t-206 -106.5v-112h-119v110
q-134 13 -202.5 83.5t-77.5 189.5q-1 10 -1.5 30t-1 43.5t-1 47.5t-0.5 43h198q0 -12 0.5 -32t1 -40.5t1 -39.5t1.5 -30q11 -98 93 -121v547q-13 13 -26.5 25t-29.5 24q-71 75 -117 131t-72 111t-36 116.5t-10 145.5q0 70 17 128t51.5 100.5t87.5 69t124 32.5v39h119v-41z
M322 1436q-50 -10 -70.5 -45t-20.5 -101q0 -37 4 -68t14.5 -60.5t28 -58.5t44.5 -61v394zM420 193q37 14 59.5 50.5t22.5 108.5q0 51 -2.5 89.5t-11 71.5t-24.5 62.5t-44 61.5v-444z" />
    <glyph glyph-name="percent" unicode="%" horiz-adv-x="1133" 
d="M537 1104q0 -134 -63.5 -210.5t-188.5 -76.5q-64 0 -110 20.5t-76 58.5t-44 90.5t-14 117.5v264q0 61 14.5 113t44.5 90t77 60t112 22q69 0 116.5 -23.5t76.5 -63t42 -91t13 -107.5v-264zM920 1579l-613 -1579h-117l615 1579h115zM1092 270q0 -134 -62 -209t-192 -75
q-63 0 -109 20t-76 57.5t-44.5 89.5t-14.5 117v265q0 59 15 111t45.5 91t77.5 61.5t112 22.5q68 0 115.5 -24t77 -64t42.5 -91.5t13 -106.5v-265zM385 1108v270q0 56 -25.5 88.5t-70.5 32.5q-47 0 -73 -31t-26 -90v-268q0 -72 26 -106.5t73 -34.5q96 0 96 139zM940 276v271
q0 54 -25 87.5t-71 33.5q-51 0 -75 -32.5t-24 -88.5v-271q0 -69 24.5 -105t74.5 -36q51 0 73.5 34.5t22.5 106.5z" />
    <glyph glyph-name="ampersand" unicode="&#x26;" horiz-adv-x="932" 
d="M432 829q37 -80 83.5 -173t100.5 -193q19 59 29 132t10 161h185q-2 -161 -24 -281.5t-62 -208.5q40 -65 82.5 -131t87.5 -135h-238q-14 28 -28.5 55.5t-28.5 53.5q-29 -36 -60.5 -59.5t-64.5 -37t-68 -19t-69 -5.5q-75 0 -137 17t-107 55t-71 99t-29 148q-1 12 -1 33.5
v45.5t0.5 46.5t0.5 34.5q1 56 16.5 107.5t40.5 99.5t57.5 93.5t67.5 88.5q-101 229 -101 385v129q2 58 19.5 108t52 86.5t86 57t121.5 20.5q61 0 108 -20.5t78.5 -56t48.5 -83t19 -102.5v-102q-2 -65 -20.5 -123.5t-47 -113t-64.5 -107.5t-73 -105zM342 1001
q48 69 80.5 137.5t34.5 139.5v78q-2 46 -22.5 72t-55.5 26q-40 0 -64 -26t-26 -78v-109q0 -96 53 -240zM305 684q-38 -63 -65 -135.5t-27 -159.5q0 -66 10 -109t29.5 -68t48.5 -35t66 -11q18 -1 37 2t38 13.5t36.5 31t31.5 55.5q-29 54 -57 109.5t-54 109t-50 103.5t-44 94z
" />
    <glyph glyph-name="quotesingle" unicode="'" horiz-adv-x="334" 
d="M268 1634l-10 -633h-184l-8 633h202z" />
    <glyph glyph-name="parenleft" unicode="(" horiz-adv-x="420" 
d="M412 -143h-211q-29 69 -59 166.5t-54 214t-39.5 246.5t-15.5 264q0 133 17 264.5t42.5 248.5t54.5 213.5t54 159.5h211q-26 -70 -55.5 -171t-54 -219.5t-40.5 -247.5t-16 -253q0 -125 14.5 -251t38.5 -242.5t53.5 -217.5t59.5 -175z" />
    <glyph glyph-name="parenright" unicode=")" horiz-adv-x="420" 
d="M395 748q0 -134 -15.5 -264t-39.5 -246.5t-54 -214t-59 -166.5h-211q30 74 59.5 175t53.5 217.5t38.5 242.5t14.5 251q0 124 -16 253t-40.5 247.5t-54 219.5t-55.5 171h211q17 -42 36 -99t37.5 -126t36 -147.5t30.5 -163t20.5 -173t7.5 -177.5z" />
    <glyph glyph-name="asterisk" unicode="*" horiz-adv-x="764" 
d="M446 1403l199 92l49 -133l-215 -88l160 -178l-111 -88l-149 182l-148 -182l-108 90l156 174l-213 90l47 133l204 -92l-4 242h136z" />
    <glyph glyph-name="plus" unicode="+" horiz-adv-x="666" 
d="M639 717h-219v-244h-174v244h-221v178h221v242h176v-242h217v-178z" />
    <glyph glyph-name="comma" unicode="," horiz-adv-x="399" 
d="M311 -6l-135 -197l-108 41l75 156l-4 6h-55v307h227v-313z" />
    <glyph glyph-name="hyphen" unicode="-" horiz-adv-x="549" 
d="M530 702h-512v211h512v-211z" />
    <glyph glyph-name="hyphen" unicode="&#xad;" horiz-adv-x="549" 
d="M530 702h-512v211h512v-211z" />
    <glyph glyph-name="period" unicode="." horiz-adv-x="399" 
d="M317 0h-235v307h235v-307z" />
    <glyph glyph-name="slash" unicode="/" horiz-adv-x="371" 
d="M379 1636l-297 -1966h-125l295 1966h127z" />
    <glyph glyph-name="zero" unicode="0" horiz-adv-x="758" 
d="M379 1647q79 0 136.5 -23t96 -63t59 -93t25.5 -114q13 -141 16 -271t3 -264q0 -48 -1 -116t-3 -140.5t-5.5 -141.5t-9.5 -118q-18 -162 -95 -239.5t-222 -77.5q-149 0 -223.5 78t-94.5 239q-3 25 -5.5 63t-5 83.5t-4 96t-3 99.5t-2 94t-0.5 80q0 64 0.5 137t2 145t5 138
t8.5 115q7 61 27.5 114t58.5 93t96 63t140 23zM506 825q0 137 -1.5 254.5t-6.5 229.5q-3 65 -32.5 102t-88.5 37q-60 0 -88 -39.5t-31 -101.5q-2 -56 -3.5 -122.5t-2.5 -132.5t-1.5 -127t-0.5 -106q0 -51 1 -117.5t2.5 -136t4 -136.5t4.5 -120q3 -62 33 -98.5t84 -36.5
q59 0 85.5 36.5t33.5 98.5q1 18 2.5 53.5t2.5 81t1.5 97t1 102.5t0.5 98.5v83.5z" />
    <glyph glyph-name="one" unicode="1" horiz-adv-x="526" 
d="M446 0h-204v1346l-219 -11v162q67 7 114 21.5t78.5 33t50 40.5t29.5 44h151v-1636z" />
    <glyph glyph-name="two" unicode="2" horiz-adv-x="729" 
d="M694 0h-661v182q28 73 71 148t91.5 152.5t97 159t88 167t65.5 175.5t29 185v138q0 43 -8.5 69.5t-23.5 41.5t-36.5 20.5t-46.5 5.5q-49 0 -81.5 -28t-34.5 -97v-193h-207v26t0.5 41t0.5 48t0.5 47.5t0.5 40v25.5q2 57 24 110t63.5 93.5t103.5 65t145 24.5q86 0 144.5 -23
t95.5 -61.5t54.5 -90t22.5 -108.5q1 -10 1 -40t-0.5 -64.5t-1 -65.5t-1.5 -43q-4 -95 -30.5 -187t-65.5 -179t-87 -169t-95 -157t-88.5 -142.5t-67.5 -126.5h438v-190z" />
    <glyph glyph-name="three" unicode="3" horiz-adv-x="727" 
d="M434 877q126 -4 187.5 -67t70.5 -169q3 -36 4.5 -86.5t1.5 -103t-1.5 -101.5t-4.5 -82q-11 -134 -99 -208t-241 -74q-74 0 -131.5 17.5t-97.5 50t-63 77.5t-27 100q-6 76 -8 141t-2 124h204v-42.5t1 -58.5t3.5 -68.5t6.5 -72.5q5 -42 33 -63t77 -21q121 0 127 119
q2 48 3 95t1 89t-1 77t-3 58q-3 39 -13 67t-29.5 46t-48.5 27.5t-71 13.5q-11 1 -32.5 1.5t-42.5 1.5q-25 1 -52 1v184q26 -1 50 0q20 0 42 1t37 3q72 8 105 44.5t39 105.5q1 18 2 53.5t1 74t-1 72t-2 46.5q-5 55 -30.5 76.5t-72.5 21.5q-52 0 -78.5 -29t-29.5 -80
q-1 -18 -1.5 -45l-1 -54t-1 -49.5t-0.5 -31.5h-195q0 18 0.5 49.5t1 66t1.5 66.5t3 50q6 54 27.5 101t60 81.5t92.5 54t125 19.5q75 0 130.5 -19t92 -53t56.5 -82.5t25 -106.5q1 -21 2 -54t1 -69t-1 -70.5t-4 -57.5q-7 -53 -21.5 -98.5t-41 -80t-67 -55t-98.5 -24.5z" />
    <glyph glyph-name="four" unicode="4" horiz-adv-x="764" 
d="M756 369h-127v-369h-201v369h-412v217l359 1050h254v-1073h127v-194zM428 563v672l-227 -672h227z" />
    <glyph glyph-name="five" unicode="5" horiz-adv-x="729" 
d="M688 256q-5 -57 -24.5 -106.5t-58 -85.5t-97.5 -57t-141 -21q-160 0 -242 74.5t-88 203.5q-2 31 -2.5 56t-0.5 46.5t0.5 43t0.5 47.5h205q0 -7 0.5 -23t1 -37t1 -44.5t1.5 -45.5q3 -66 30 -98.5t84 -32.5q60 0 88 37t31 96q1 32 2 71.5t1.5 82.5t0.5 87t-0.5 85t-2 76
t-3.5 61q-5 62 -31.5 88.5t-74.5 26.5q-23 0 -42.5 -6t-35 -21t-26 -40.5t-15.5 -63.5h-199v878h606v-194h-415l-2 -455q23 50 75 74t121 24q117 0 179 -65t71 -174q2 -32 4 -78.5t3 -100t1.5 -111.5t0 -113t-2.5 -103t-4 -82z" />
    <glyph glyph-name="six" unicode="6" horiz-adv-x="756" 
d="M688 215q-12 -52 -34 -94.5t-58.5 -72.5t-88.5 -46t-122 -16q-127 0 -204 58.5t-105 182.5q-8 33 -13.5 79t-9.5 99t-6.5 110t-3.5 111.5t-1.5 104.5t-0.5 88q0 37 0.5 83.5t2 95.5t3 98.5t3.5 93.5t4 80t5 59q8 72 30 130.5t60.5 100t95 64.5t132.5 23q77 0 131.5 -18.5
t91 -51.5t56 -78.5t26.5 -99.5q3 -26 4.5 -53.5t2.5 -53t1 -46.5v-34h-196v24.5v27t-0.5 25.5t-1.5 18q-3 34 -9.5 60t-19.5 44t-34.5 27.5t-53.5 9.5q-60 0 -89 -41.5t-32 -126.5q-1 -18 -2 -49t-2 -69t-1.5 -78.5t-1 -76t-1 -62.5t-0.5 -38q28 49 86.5 73t126.5 24
q98 0 151 -47t70 -126q7 -34 12 -85.5t8 -112t3.5 -124t-1 -120.5t-5 -103t-9.5 -71zM494 287q1 14 2.5 43.5t2 68.5t0 83t-0.5 86t-1.5 78.5t-2.5 60.5q-4 52 -29.5 82t-79.5 30q-56 0 -93.5 -30.5t-45.5 -79.5q0 -22 0.5 -57.5t1.5 -77.5t2.5 -86t2.5 -82t2.5 -67.5
t2.5 -41.5q8 -72 40.5 -99.5t82.5 -27.5q48 0 77 25.5t36 91.5z" />
    <glyph glyph-name="seven" unicode="7" horiz-adv-x="639" 
d="M631 1460l-322 -1460h-219l330 1440h-414v194h625v-174z" />
    <glyph glyph-name="eight" unicode="8" horiz-adv-x="750" 
d="M709 260q-17 -132 -99 -203t-237 -71q-85 0 -145 19.5t-99.5 55.5t-61.5 86.5t-30 112.5q-2 17 -3.5 47t-2 67.5t-1 80t0.5 84t3 79t5 66.5q4 47 21 83t39.5 61.5t48 40.5t47.5 20q-21 8 -42 23.5t-38.5 40t-30 58.5t-16.5 79q-3 28 -4.5 68t-2.5 84t0.5 88t4.5 79
q4 45 22.5 88t55.5 76.5t93.5 53.5t135.5 20q78 0 134 -19t93 -51t56 -74t24 -88q6 -62 6 -144.5t-8 -176.5q-6 -84 -44.5 -135t-90.5 -68q29 -5 56.5 -21t50 -40.5t38 -58t21.5 -73.5q2 -22 4 -58.5t2.5 -79.5t0.5 -88.5t-1 -87t-2.5 -74.5t-3.5 -50zM475 1055q2 15 3 54.5
t1 87t-1 93.5t-3 74q-3 43 -29.5 67.5t-74.5 24.5q-42 0 -70 -24t-33 -66q-6 -66 -7 -142t7 -167q3 -40 33.5 -62t71.5 -22q38 0 67 17.5t35 64.5zM494 274q7 48 10 110t2.5 123t-3.5 111t-7 74q-8 53 -40 77t-83 24t-85 -24.5t-42 -78.5q-3 -16 -4.5 -46.5t-2.5 -68.5
t-1 -81t1 -83.5t3 -75t6 -56.5q18 -109 123 -109q52 0 83.5 27.5t39.5 76.5z" />
    <glyph glyph-name="nine" unicode="9" horiz-adv-x="743" 
d="M680 281q-9 -70 -32.5 -125t-63 -92.5t-95 -57.5t-129.5 -20q-131 0 -209 61t-94 178q-2 18 -3.5 45.5t-2 55t-0.5 52v36.5h197v-24.5v-34.5t0.5 -35t1.5 -25q5 -72 36 -97.5t81 -25.5q52 0 83.5 33.5t34.5 99.5q1 19 1.5 54t1 77.5t1 87.5t0.5 84.5v69v39.5
q-30 -51 -83.5 -72.5t-116.5 -21.5q-92 0 -151.5 40t-82.5 132q-6 23 -9.5 70t-5.5 106.5t-2 125.5t1.5 128t5.5 114t10 82q11 51 36 92.5t64.5 71t92.5 46t119 16.5q134 0 210 -58.5t99 -183.5q9 -48 13.5 -119.5t6.5 -149t2 -153v-133.5q0 -38 -0.5 -88.5t-1.5 -106.5
t-2.5 -113t-3.5 -107.5t-4.5 -91t-5.5 -62.5zM489 889q-1 22 -1 56.5t-0.5 75t-1 84t-1 86t-1 79.5t-1.5 65q-2 50 -32 84.5t-89 34.5q-48 0 -77.5 -28.5t-34.5 -82.5q-2 -14 -3 -48.5t-1.5 -79.5t-0.5 -95.5t0.5 -95.5t1 -79.5t1.5 -47.5q2 -31 10 -51t21.5 -32t33 -16.5
t45.5 -4.5q28 0 50 9t38.5 23t27 31t15.5 33z" />
    <glyph glyph-name="colon" unicode=":" horiz-adv-x="381" 
d="M305 772h-217v291h217v-291zM305 0h-217v291h217v-291z" />
    <glyph glyph-name="semicolon" unicode=";" horiz-adv-x="381" 
d="M305 772h-213v291h213v-291zM305 -4l-133 -199l-98 51l71 146l-6 6h-47v291h213v-295z" />
    <glyph glyph-name="less" unicode="&#x3c;" horiz-adv-x="754" 
d="M705 606v-184l-668 258v197l668 258v-189l-486 -168z" />
    <glyph glyph-name="equal" unicode="=" horiz-adv-x="657" 
d="M633 866h-604v170h604v-170zM633 565h-604v170h604v-170z" />
    <glyph glyph-name="greater" unicode="&#x3e;" horiz-adv-x="754" 
d="M41 422v184l485 172l-485 168v187l670 -256v-199z" />
    <glyph glyph-name="question" unicode="?" horiz-adv-x="690" 
d="M651 1202q-3 -68 -23.5 -124t-50.5 -109.5t-63.5 -109t-61.5 -122.5t-45 -150t-14 -190h-172q-5 124 9.5 215t38.5 160.5t53.5 123.5t55.5 104.5t44 102.5t20 118q0 16 0.5 34t0.5 36v34.5t-1 28.5q-2 59 -26.5 90t-83.5 31q-51 0 -78.5 -30t-30.5 -81q-1 -9 -1.5 -31
t-1 -47t-1 -46.5t-0.5 -29.5h-190q0 24 0.5 53.5t1.5 57.5t2 51t2 35q11 112 90.5 176t222.5 64q76 0 132 -18.5t93.5 -52t57 -80t22.5 -101.5q1 -21 1 -46.5t-0.5 -52t-1 -51t-1.5 -43.5zM414 0h-209v297h209v-297z" />
    <glyph glyph-name="at" unicode="@" horiz-adv-x="1391" 
d="M1346 850q-9 -110 -34 -198t-66.5 -150t-98.5 -95.5t-129 -33.5q-75 0 -121.5 41.5t-52.5 113.5q-38 -75 -108 -114t-161 -39q-63 0 -111.5 22.5t-80.5 67t-45.5 111.5t-5.5 157q9 99 37.5 183.5t76 146t112.5 96.5t147 35q71 0 119.5 -36t68.5 -93l22 102h144
q-3 -20 -9.5 -56.5t-15 -81.5t-18.5 -94.5t-19 -96t-17 -85.5t-13 -63q-7 -34 -7.5 -65.5t8.5 -56t28 -39.5t51 -15q43 0 75.5 25t55 70.5t36 108.5t19.5 138q11 143 -12 258.5t-80 197t-148 125.5t-215 44q-126 0 -236 -48.5t-194 -138.5t-136.5 -217.5t-64.5 -285.5
q-14 -198 19.5 -336.5t101.5 -225.5t165.5 -126.5t211.5 -39.5q66 0 123 11t106.5 30t91.5 44.5t78 54.5l48 -78q-39 -31 -82.5 -58.5t-97.5 -48.5t-120 -33t-149 -12q-138 0 -253.5 46.5t-195.5 145.5t-119.5 253t-27.5 368q11 179 71.5 323t158.5 245.5t228.5 156
t280.5 54.5q157 0 268 -56.5t180 -154t96 -227.5t16 -277zM844 897q2 21 -4 47.5t-21 50t-40 40t-60 16.5q-40 0 -76.5 -18.5t-66 -55t-50.5 -92t-30 -129.5q-14 -116 11 -176t105 -60q43 0 75.5 14.5t56 40.5t39 62t24.5 78q3 15 8.5 38.5t11 49.5t10.5 51t7 43z" />
    <glyph glyph-name="A" unicode="A" horiz-adv-x="797" 
d="M266 393l-53 -393h-213l268 1634h291l236 -1634h-215l-48 393h-266zM506 582q-21 150 -38 271q-7 52 -14 102t-12.5 91.5t-9 69.5t-4.5 35q-2 19 -5.5 61t-7.5 85q-4 50 -9 108q-4 -58 -8 -108q-4 -43 -7.5 -85t-5.5 -61q-1 -7 -5.5 -35t-11 -69.5t-15 -91.5t-16.5 -102
q-20 -121 -44 -271h213z" />
    <glyph glyph-name="B" unicode="B" horiz-adv-x="846" 
d="M758 135q-15 -27 -35.5 -51.5t-51.5 -43t-74 -29.5t-103 -11h-420v1634h422q88 0 148 -31.5t89 -91.5q10 -21 17.5 -53.5t13 -69.5t8 -76.5t2.5 -74.5q0 -72 -6 -146.5t-29 -136.5q-17 -46 -53.5 -76t-83.5 -36q56 -6 96 -35t62 -74q10 -21 17.5 -55t12.5 -73.5t8 -81
t3 -77.5q0 -41 -2 -86.5t-7 -88t-13.5 -78.5t-20.5 -58zM553 1190q0 28 -2 55t-5 51t-7 43t-7 31q-9 37 -39 57.5t-67 20.5h-145v-533h172q20 0 43 15t34 49q14 42 18.5 93.5t4.5 117.5zM561 250q4 12 6.5 39t4 59t2.5 64t1 53q0 23 -1.5 51.5t-4.5 57t-7 54t-9 42.5
q-12 37 -37 50t-53 13h-182v-547h174q46 0 70.5 16.5t35.5 47.5z" />
    <glyph glyph-name="C" unicode="C" horiz-adv-x="819" 
d="M788 563q0 -21 -0.5 -55.5t-2 -75t-4.5 -84.5t-9 -86q-9 -62 -36.5 -113.5t-71.5 -88t-104 -56.5t-134 -20q-71 0 -127.5 17t-98 48t-69 74.5t-41.5 95.5q-15 54 -23.5 129.5t-13.5 158.5t-6.5 166t-1.5 152q0 68 0.5 135t3.5 135.5t10 138t21 142.5q26 138 116.5 203.5
t241.5 65.5t233.5 -81t100.5 -227q11 -78 12.5 -142t1.5 -130h-211q0 68 -3 133.5t-17 142.5q-9 50 -42 72.5t-83 22.5q-59 0 -93.5 -28.5t-43.5 -76.5q-10 -50 -15 -116t-7.5 -135t-2.5 -135.5v-117.5q0 -63 1 -136.5t3.5 -144.5t7 -133t11.5 -102q6 -37 19.5 -61.5
t32.5 -39.5t41 -21.5t46 -6.5t46.5 6.5t41.5 22t31.5 41.5t17.5 65q4 35 6.5 72t4 70.5t2 61t0.5 42.5h208z" />
    <glyph glyph-name="D" unicode="D" horiz-adv-x="817" 
d="M717 143q-16 -30 -39 -56t-57 -45.5t-81.5 -30.5t-113.5 -11h-352v1634h348q120 0 191.5 -40t109.5 -121q11 -22 19 -62t14 -91t10 -111t6 -121.5t3 -122t1 -113.5q0 -125 -1.5 -236.5t-7.5 -204t-17.5 -161t-32.5 -107.5zM543 270q18 78 18 222.5v359.5q0 22 -0.5 62
t-2 88.5t-3 100t-4 97t-5 80t-5.5 49.5q-13 59 -45.5 86t-81.5 27h-129v-1262h131q49 0 82.5 22t44.5 68z" />
    <glyph glyph-name="E" unicode="E" horiz-adv-x="709" 
d="M686 0h-612v1634h608v-204h-397v-506h366v-203h-366v-516h401v-205z" />
    <glyph glyph-name="F" unicode="F" horiz-adv-x="696" 
d="M684 1430h-399v-506h368v-203h-368v-721h-211v1634h610v-204z" />
    <glyph glyph-name="G" unicode="G" horiz-adv-x="809" 
d="M772 0h-158l-12 84q-26 -42 -81 -70t-134 -28q-122 0 -201.5 61t-105.5 178q-12 52 -18.5 120t-10.5 145t-5 160t-1 165q0 64 1.5 143t5.5 158.5t12 152.5t20 126q12 50 36 95.5t63.5 80.5t96.5 55.5t134 20.5q81 0 138.5 -19.5t96 -51.5t60.5 -74.5t32 -88.5
q7 -34 11 -83.5t6.5 -97.5t3 -85t0.5 -45h-211q0 5 -0.5 28t-2 56.5t-4.5 73t-9 77.5q-8 51 -38.5 78t-78.5 27t-82.5 -29.5t-42.5 -85.5q-9 -60 -14 -129t-7.5 -137.5t-3 -132.5t-0.5 -115q0 -64 1.5 -139.5t4.5 -147.5t7 -133t10 -96q9 -59 42 -90t89 -31q63 0 100 35.5
t43 101.5v394h-180v186h383v-512q0 -71 0.5 -139t1.5 -121.5t1.5 -86.5t0.5 -34z" />
    <glyph glyph-name="H" unicode="H" horiz-adv-x="844" 
d="M770 0h-213v721h-272v-721h-211v1634h211v-710h272v710h213v-1634z" />
    <glyph glyph-name="I" unicode="I" horiz-adv-x="367" 
d="M295 0h-221v1634h221v-1634z" />
    <glyph glyph-name="J" unicode="J" horiz-adv-x="547" 
d="M479 301q0 -161 -76 -233t-231 -72q-28 0 -49.5 0.5t-40 2t-35 4t-33.5 5.5v193q28 -2 58.5 -4t68.5 -2q36 1 60 11.5t39 29t21.5 43.5t6.5 55v1300h211v-1333z" />
    <glyph glyph-name="K" unicode="K" horiz-adv-x="823" 
d="M819 0h-217l-254 709l-63 -119v-590h-211v1634h211v-696l319 696h217l-329 -704z" />
    <glyph glyph-name="L" unicode="L" horiz-adv-x="696" 
d="M682 0h-608v1634h217v-1429h391v-205z" />
    <glyph glyph-name="M" unicode="M" horiz-adv-x="1110" 
d="M1038 0h-196l2 1130l-195 -1130h-190l-191 1128l2 -1128h-196v1634h282l199 -1183l211 1183h272v-1634z" />
    <glyph glyph-name="N" unicode="N" horiz-adv-x="834" 
d="M762 0h-209l-283 958v-958h-196v1634h211l278 -1011v1011h199v-1634z" />
    <glyph glyph-name="O" unicode="O" horiz-adv-x="842" 
d="M420 1645q114 0 185.5 -39.5t113.5 -116.5q27 -51 42.5 -117.5t23.5 -149t10 -181.5t2 -214q0 -120 -3 -222.5t-11 -187t-23.5 -152.5t-40.5 -120q-40 -81 -111 -121t-188 -40t-187 39.5t-110 119.5q-26 51 -41 118.5t-23.5 152t-11 186t-2.5 221.5q0 115 2 215t10 184
t24 152t44 119q40 75 109.5 114.5t185.5 39.5zM422 180q43 0 71.5 15.5t45.5 52.5q13 31 21.5 79t12.5 117t5.5 162t1.5 213v208.5t-3.5 161t-12 118.5t-25.5 79q-17 31 -47 44.5t-70 13.5q-77 0 -111 -60q-18 -32 -27.5 -81t-14 -118.5t-5 -162t-0.5 -209.5
q0 -120 1.5 -212t6.5 -160.5t13.5 -115.5t23.5 -77q19 -37 46 -52.5t67 -15.5z" />
    <glyph glyph-name="P" unicode="P" horiz-adv-x="801" 
d="M768 1139q0 -147 -15.5 -240.5t-54.5 -144.5q-38 -53 -98 -77t-137 -32q-25 -2 -55.5 -2.5t-56.5 -0.5q-31 0 -62 1v-643h-215v1634h393q166 0 231 -108q19 -33 32.5 -70.5t22 -83.5t12 -103t3.5 -130zM549 1130q0 94 -7 155.5t-18 84.5q-12 29 -39.5 46.5t-64.5 17.5
h-131v-590h123q52 0 79.5 16.5t38.5 54.5q7 23 13 73t6 142z" />
    <glyph glyph-name="Q" unicode="Q" horiz-adv-x="842" 
d="M608 31q19 -8 34 -19t32 -26q20 -16 43.5 -30.5t36.5 -21.5l-119 -155q-19 11 -57 39.5t-80 62.5q-18 16 -37 34t-34.5 34t-27.5 28.5t-16 18.5q-22 0 -42 1.5t-46 6.5q-35 7 -69.5 25t-64 49.5t-52.5 77.5t-35 110q-3 15 -6 49.5t-6.5 81.5t-6.5 102.5t-5 112t-3.5 111
t-1.5 98.5q0 43 1 95.5t3 107t5 108t6 98.5t6.5 77.5t7.5 46.5q10 64 35 118t67 93t102.5 60.5t141.5 21.5q77 0 135 -18t100 -53t69 -87.5t42 -122.5q7 -34 12.5 -97t9.5 -138.5t6.5 -155.5t2.5 -148q0 -73 -3.5 -154.5t-8.5 -158t-11.5 -140.5t-13.5 -102
q-9 -46 -24.5 -85.5t-35.5 -71t-43.5 -53t-48.5 -31.5zM424 172q57 0 87.5 27t45.5 84q5 19 9 55t7 82.5t4.5 100t2.5 106t1.5 101.5t0.5 87q0 30 -0.5 75t-2 96t-3.5 104.5t-4.5 101t-6.5 85.5t-8 58q-12 56 -42 85.5t-93 29.5q-32 0 -54 -9t-36 -25t-23 -38t-16 -47
q-6 -20 -10.5 -57.5t-7.5 -85.5t-5 -102t-3.5 -105.5t-2 -97.5t-0.5 -78q0 -35 0.5 -82t1.5 -98.5t3 -104.5t5 -99.5t6.5 -82.5t8.5 -55q15 -59 48.5 -85t86.5 -26z" />
    <glyph glyph-name="R" unicode="R" horiz-adv-x="817" 
d="M756 1178q0 -99 -8 -164.5t-25 -110.5q-9 -23 -22 -43t-28 -36.5t-31.5 -27.5t-31.5 -16l193 -780h-221l-166 721h-135v-721h-207v1634h393q96 0 158.5 -43t91.5 -125q17 -48 28 -118t11 -170zM541 1153q0 27 -1 56.5t-2.5 55t-3.5 45t-4 27.5q-6 42 -31.5 68.5
t-68.5 26.5h-147v-521h24h51t52.5 0.5t29.5 1.5q32 4 51 20t27 38q5 13 9.5 35.5t7.5 48t4.5 51.5t1.5 47z" />
    <glyph glyph-name="S" unicode="S" horiz-adv-x="766" 
d="M737 367q0 -187 -92 -285t-262 -98q-162 0 -249.5 67t-98.5 189q-2 4 -3 30.5t-1.5 60.5t-1 67.5t-0.5 50.5h207q0 -14 0.5 -39.5l1 -51t1 -45.5t1.5 -22q9 -63 45 -89t96 -26q71 0 104 43.5t33 136.5q0 49 -7 90t-25.5 81t-50.5 82.5t-81 95.5q-11 11 -25.5 27t-31.5 34
t-34.5 37t-33.5 37q-49 54 -87.5 104.5t-64.5 103.5t-40 112.5t-14 133.5q0 84 24 149.5t70 111t111.5 69t148.5 23.5t143.5 -23t101.5 -64t63.5 -96.5t29.5 -120.5q2 -24 3.5 -50t2.5 -49.5t1.5 -42.5t0.5 -30h-209q0 14 -0.5 37t-1.5 46q-1 26 -2 55q-2 66 -35.5 101.5
t-99.5 35.5q-77 0 -106 -37.5t-29 -120.5q0 -47 13.5 -87.5t37 -77t54 -71.5t63.5 -71q26 -28 59 -65t68 -74q51 -56 88.5 -106.5t63 -105.5t38 -118.5t12.5 -144.5z" />
    <glyph glyph-name="T" unicode="T" horiz-adv-x="698" 
d="M690 1430h-231v-1430h-217v1430h-236v204h684v-204z" />
    <glyph glyph-name="U" unicode="U" horiz-adv-x="827" 
d="M762 309q0 -77 -24 -137t-68.5 -101.5t-108.5 -63t-145 -21.5q-78 0 -143.5 20t-112.5 60.5t-73 101.5t-26 143v1323h213v-1294q0 -81 35.5 -118.5t104.5 -37.5q65 0 99 39.5t34 114.5v1296h215v-1325z" />
    <glyph glyph-name="V" unicode="V" horiz-adv-x="805" 
d="M801 1634l-281 -1634h-248l-270 1634h215l184 -1233l187 1233h213z" />
    <glyph glyph-name="W" unicode="W" horiz-adv-x="1214" 
d="M1212 1634l-217 -1634h-243q-40 291 -72 537q-14 105 -26.5 210t-23 195.5t-17 159t-7.5 100.5q0 -32 -6.5 -100.5t-17 -159t-24 -195.5t-26.5 -210q-33 -246 -73 -537h-238l-221 1634h219q37 -316 67 -580q13 -113 25 -225t21.5 -208t15.5 -167.5t6 -101.5q0 30 6 101.5
t16.5 167.5t23 208t26.5 225q32 264 72 580h221q40 -317 73 -581q14 -113 27 -225.5t23.5 -208t17 -166.5t6.5 -101q0 30 5.5 101t15 166.5t21.5 208t25 225.5q30 264 68 581h211z" />
    <glyph glyph-name="X" unicode="X" horiz-adv-x="811" 
d="M520 836l287 -836h-221l-178 545l-187 -545h-217l297 831l-272 803h221l164 -485l166 485h217z" />
    <glyph glyph-name="Y" unicode="Y" horiz-adv-x="838" 
d="M838 1634l-318 -1032v-602h-219v596l-301 1038h225q53 -198 95 -360q18 -69 35 -137.5t30.5 -125.5t22 -97.5t8.5 -53.5q0 14 9 54.5t23.5 97.5t33 125.5t38.5 137.5q45 162 103 359h215z" />
    <glyph glyph-name="Z" unicode="Z" horiz-adv-x="713" 
d="M700 0h-686v176l445 1254h-416v204h645v-168l-446 -1261h458v-205z" />
    <glyph glyph-name="bracketleft" unicode="[" horiz-adv-x="414" 
d="M389 -336h-334v1970h334v-168h-141v-1642h141v-160z" />
    <glyph glyph-name="backslash" unicode="\" horiz-adv-x="371" 
d="M-6 1636h127l297 -1966h-125z" />
    <glyph glyph-name="bracketright" unicode="]" horiz-adv-x="416" 
d="M27 -336v160h141v1644h-141v166h333v-1970h-333z" />
    <glyph glyph-name="asciicircum" unicode="^" horiz-adv-x="831" 
d="M412 1479l-262 -324l-123 117l297 364h184l297 -364l-125 -117z" />
    <glyph glyph-name="underscore" unicode="_" horiz-adv-x="602" 
d="M602 -279h-602v179h602v-179z" />
    <glyph glyph-name="grave" unicode="`" 
d="M483 1200h-190l-158 264h215z" />
    <glyph glyph-name="a" unicode="a" horiz-adv-x="684" 
d="M645 0h-184q-1 0 -2 7t-2.5 18t-2.5 23.5t-1 23.5q-34 -42 -83.5 -61t-123.5 -19q-41 0 -79 9t-67.5 30t-48 56.5t-20.5 88.5q-1 16 -1.5 42.5t-0.5 55.5t0.5 57t1.5 48q2 56 17 100.5t47.5 79.5t83.5 61t126 44q37 9 72 15t69 11q0 14 0.5 38t0.5 50.5v51.5t-1 40
q-3 93 -94 93q-35 0 -61.5 -17.5t-34.5 -60.5q-6 -34 -7 -73t-1 -81h-185q0 24 1 52.5t3 58t5 58t8 52.5q18 87 88 139t188 52q74 0 126 -16.5t85.5 -46.5t49.5 -72.5t18 -94.5q1 -40 1.5 -94.5t0 -112t-1.5 -111.5t-2 -93q0 -39 -0.5 -85.5t-0.5 -92.5v-87t1 -69
q1 -26 2 -53t2.5 -50.5t3.5 -41t4 -23.5zM446 537q-18 -4 -37.5 -7.5t-37.5 -9.5q-26 -8 -54 -17t-53 -34q-23 -23 -30 -44.5t-11 -55.5q-2 -12 -2 -32v-40.5t1 -39.5t3 -30q5 -35 32.5 -54t66.5 -19q38 0 68 20.5t44 61.5q10 42 8.5 90t1.5 104v107z" />
    <glyph glyph-name="b" unicode="b" horiz-adv-x="717" 
d="M446 1141q81 0 134 -40t73 -128q19 -79 23 -173.5t4 -215.5q0 -61 -2.5 -122.5t-6 -115.5t-8.5 -97t-10 -65q-20 -94 -77.5 -141t-135.5 -47q-72 0 -121.5 21t-72.5 61l-25 -78h-164v1636h193v-616q7 27 25 49.5t44 38t58.5 24.5t68.5 9zM371 952q-54 0 -80.5 -26.5
t-34.5 -77.5q-8 -50 -8 -122.5v-154.5q0 -78 0.5 -129.5t2 -86t3.5 -57.5l4 -46q9 -35 33.5 -60.5t75.5 -25.5q85 0 100 92q4 23 6.5 59t4 78.5t2.5 88.5t1 89v84t-1 82t-3.5 75t-7.5 63q-6 32 -31 53.5t-67 21.5z" />
    <glyph glyph-name="c" unicode="c" horiz-adv-x="668" 
d="M637 702h-186v29.5t-1 37t-2 40t-4 39.5q-6 49 -28 78.5t-70 29.5q-43 0 -66.5 -24.5t-31.5 -77.5q-11 -69 -13 -147t-2 -146q0 -29 0.5 -71t2.5 -85.5t5.5 -84t8.5 -66.5q9 -51 32 -71.5t66 -20.5q44 0 67.5 25.5t28.5 68.5q7 54 8 96t1 64h182q0 -42 -0.5 -74.5t-3 -61
t-6.5 -54.5t-11 -54q-13 -51 -39 -86t-61 -56.5t-78 -31.5t-90 -10q-102 0 -168.5 41.5t-95.5 115.5q-13 35 -21.5 81.5t-14 101t-7.5 114t-2 121.5q0 51 2.5 104.5t7.5 104.5t13 98t20 86q26 88 92.5 136.5t171.5 48.5q65 0 112 -14.5t80 -40.5t53 -61t32 -77
q7 -26 10.5 -61t5 -70t1 -66t-0.5 -49z" />
    <glyph glyph-name="d" unicode="d" horiz-adv-x="709" 
d="M295 1135q59 0 101.5 -23t64.5 -70v594h196q-1 -365 -1 -672q0 -87 -0.5 -175t-0.5 -171.5v-159.5v-139v-110.5v-73.5q0 -22 1 -45.5t3 -43.5q2 -24 5 -46h-164l-21 90q-34 -54 -80.5 -76t-103.5 -22q-35 0 -67.5 8t-60 25t-49.5 44.5t-34 65.5q-23 68 -35 177.5
t-12 240.5q0 65 1.5 126.5t6 116t12 100t19.5 79.5q26 77 85 118.5t134 41.5zM350 954q-42 0 -67 -19t-33 -61q-5 -26 -9 -63t-6 -80t-3 -89t-1 -89q0 -85 4 -167.5t15 -145.5q6 -34 29.5 -58t66.5 -24q47 0 72.5 26t30.5 72q2 22 4.5 55t4.5 72t3.5 82.5t1.5 85.5
q0 78 -0.5 129.5t-2 87.5t-3.5 62t-6 55q-5 35 -32 52t-69 17z" />
    <glyph glyph-name="e" unicode="e" horiz-adv-x="674" 
d="M641 348q0 -21 -0.5 -47t-4 -54t-11 -57.5t-21.5 -58.5q-32 -69 -93 -107t-165 -38q-45 0 -87 9t-76.5 28t-60.5 49t-40 73q-11 34 -19.5 68t-14 79t-8.5 108t-3 155q0 83 2 147.5t6.5 114t12 85t18.5 61.5q18 42 42 75t57.5 56t77 35t99.5 12q55 0 97.5 -12.5t73.5 -34
t52 -51.5t33 -64q13 -38 21 -81.5t11.5 -101.5t4.5 -134.5t0 -178.5h-418q0 -24 1 -56t3.5 -65.5t6.5 -67t10 -61.5q9 -43 36 -58t62 -15q32 0 59.5 14.5t36.5 46.5q6 18 9 38t5 37.5t2.5 31t0.5 20.5h182zM457 651q0 41 -1 79t-3 69.5t-5 55.5t-6 36q-9 35 -34.5 53.5
t-63.5 18.5q-35 0 -60.5 -15t-39.5 -55q-13 -35 -15 -99t-2 -143h230z" />
    <glyph glyph-name="f" unicode="f" horiz-adv-x="455" 
d="M449 946h-142v-946h-196v946h-101v180h101v281q0 52 12 96t38.5 75.5t68.5 49t102 17.5q45 0 79 -2t54 -5v-174q-5 0 -14.5 0.5t-21.5 0.5t-23.5 0.5t-20.5 0.5q-40 0 -60 -26t-20 -58v-256h144v-180z" />
    <glyph glyph-name="g" unicode="g" horiz-adv-x="715" 
d="M348 1145q46 0 80.5 -6.5t60 -17.5t42.5 -24.5t28 -27.5q28 37 75.5 50t96.5 11v-124q-2 0 -20.5 -0.5t-40 -1.5t-40 -2.5t-20.5 -4.5q6 -11 12 -28t10 -38t6.5 -43.5t2.5 -43.5v-44v-62t-1 -65.5t-3 -54.5q-12 -112 -84.5 -172.5t-196.5 -60.5q-48 0 -85 10.5t-56 24.5
q-11 -3 -23 -12t-12 -29q0 -31 49 -47.5t148 -28.5q79 -10 143 -26.5t109 -47.5t69.5 -80.5t24.5 -125.5q0 -147 -95 -225.5t-278 -78.5q-78 0 -141.5 13.5t-108.5 42.5t-69.5 74t-24.5 108q0 49 10 84.5t30.5 60.5t50.5 41t69 27q-45 10 -74 26t-46 36.5t-23.5 45
t-6.5 50.5q0 55 27 91.5t72 53.5q-23 17 -39 59t-19 101q-1 20 -1 58v78.5t0.5 76.5t0.5 51q1 48 19 92.5t53.5 79t90 55.5t128.5 21zM354 975q-51 0 -77 -27.5t-29 -77.5q-2 -30 -2 -63.5t0.5 -65t1 -57t0.5 -39.5q0 -48 25 -77t77 -29q57 0 81 29t26 77q1 12 1 42v65v68.5
t-1 51.5q-3 47 -28 75t-75 28zM354 -133q102 0 146.5 34t44.5 105q0 33 -14 53.5t-39 33t-59.5 20t-76.5 14.5l-25 5l-17.5 3.5t-14 2.5t-16.5 3q-62 -17 -85.5 -55.5t-23.5 -89.5q0 -57 43 -93t137 -36z" />
    <glyph glyph-name="h" unicode="h" horiz-adv-x="696" 
d="M645 0h-196q-1 0 -1.5 5.5t-0.5 31t-0.5 78.5t-0.5 148.5v241v355.5q0 41 -18.5 66.5t-67.5 25.5q-46 0 -76 -33t-30 -104v-815h-197v1636h195v-616q15 57 63.5 89t122.5 32q44 0 81 -11t64 -38t42.5 -71.5t15.5 -111.5v-381v-256t0.5 -156t1 -81t1 -30.5t1.5 -4.5z" />
    <glyph glyph-name="i" unicode="i" horiz-adv-x="324" 
d="M268 1269h-213v225h213v-225zM268 0h-196q-5 2 -8 15.5t-3 45.5v1065h201v-1056q0 -34 3 -51t3 -19z" />
    <glyph glyph-name="j" unicode="j" horiz-adv-x="328" 
d="M274 1269h-211v225h211v-225zM270 -121q0 -128 -53.5 -191t-169.5 -63q-15 0 -32.5 0.5t-34.5 1.5t-31.5 2.5t-22.5 3.5v168q14 -2 25.5 -2h28.5q45 0 67.5 19t22.5 65v1243h200v-1247z" />
    <glyph glyph-name="k" unicode="k" horiz-adv-x="680" 
d="M684 0h-205l-160 512l-65 -123v-389h-197v1636h197v-944l227 434h193l-217 -415z" />
    <glyph glyph-name="l" unicode="l" horiz-adv-x="322" 
d="M268 0q-55 -1 -98 -1h-36h-31.5t-22 0.5l-8.5 0.5q-5 5 -7 24.5t-2 47.5v1468q0 13 -0.5 28t-1 28.5t-1 24t-1.5 15.5h197q2 -3 3 -22.5t1 -44.5v-1483q0 -40 2.5 -60.5t5.5 -25.5z" />
    <glyph glyph-name="m" unicode="m" horiz-adv-x="1040" 
d="M799 0q-1 0 -1 4.5t-0.5 29.5t-1 77.5t-1 148.5t-0.5 242.5v359.5q0 18 -3.5 35.5t-12.5 31t-24.5 21.5t-39.5 8q-23 0 -40.5 -10t-29.5 -26.5t-18 -36.5t-6 -41v-844h-191v870q0 39 -19 63.5t-61 24.5q-22 0 -40 -10.5t-30.5 -28t-19 -39.5t-6.5 -46v-834h-197v1126h193
v-106q15 54 63.5 87.5t122.5 33.5q60 0 105 -33t65 -90q20 62 69.5 92.5t119.5 30.5q43 0 77.5 -15.5t59 -43.5t38 -67t13.5 -85v-305v-230v-165.5t0.5 -111t0.5 -67.5t0.5 -35.5t1 -13.5t1.5 -2h-188z" />
    <glyph glyph-name="n" unicode="n" horiz-adv-x="696" 
d="M647 0h-194q-2 0 -3 6t-2 32t-1.5 79t-0.5 147.5v238.5v351q0 53 -20.5 75.5t-65.5 22.5q-22 0 -41.5 -8t-33.5 -26t-22.5 -46.5t-8.5 -68.5v-803h-197v1126h191v-110q9 33 28 56.5t44.5 39t56.5 22.5t63 7q105 0 153 -60t48 -166v-383t0.5 -257.5t1 -157t1 -81.5
t1.5 -31t2 -5z" />
    <glyph glyph-name="o" unicode="o" horiz-adv-x="700" 
d="M664 563q0 -47 -2.5 -99.5t-7 -102.5t-11 -95t-14.5 -76q-25 -96 -94 -149t-185 -53q-62 0 -109.5 14.5t-81.5 40.5t-55.5 62.5t-31.5 80.5q-7 29 -13.5 72.5t-11 94.5t-7.5 105t-3 105t1.5 103.5t6 102t11.5 93.5t18 78q15 47 37.5 84t55.5 63t78 40t107 14
q61 0 109 -14.5t82.5 -41t56.5 -63.5t33 -82q7 -28 12.5 -72.5t9.5 -96.5t6.5 -106.5t2.5 -101.5zM469 561q0 37 -1 82t-2.5 88.5t-4 80.5t-6.5 58q-10 48 -35 68t-70 20q-84 0 -102 -92q-5 -22 -8 -59t-5 -79.5t-3 -86.5t-1 -80q0 -38 1 -82.5t3 -87.5t5 -80.5t8 -60.5
q8 -45 35 -65.5t67 -20.5q42 0 68.5 21.5t34.5 66.5q4 23 7.5 60t5 80t2.5 87t1 82z" />
    <glyph glyph-name="p" unicode="p" horiz-adv-x="715" 
d="M678 584q0 -125 -6.5 -231t-28.5 -187t-80.5 -125.5t-132.5 -44.5q-68 0 -115.5 22.5t-62.5 57.5v-410h-195v1460h189l2 -96q21 57 69 84t113 27q72 0 128 -35t81 -117q20 -65 29.5 -171.5t9.5 -233.5zM479 575v85.5t-1.5 85t-5.5 79t-11 68.5q-8 31 -31 50.5t-63 19.5
q-42 0 -65.5 -22.5t-31.5 -66.5t-12 -79.5t-5.5 -70t-2 -70.5t-0.5 -79q0 -80 0.5 -131t2.5 -86.5t5.5 -63.5t9.5 -61q2 -14 9.5 -28.5t20 -25.5t29.5 -18t38 -7q42 0 67 26.5t33 69.5q4 24 7 61t4.5 81.5t2 91.5t0.5 91z" />
    <glyph glyph-name="q" unicode="q" horiz-adv-x="713" 
d="M659 -334h-190l-6 8v404q-20 -37 -60 -61.5t-102 -24.5q-38 0 -73 10.5t-64.5 31t-51.5 51t-34 71.5q-10 35 -17.5 75.5t-12.5 89t-7.5 106t-1.5 128.5q1 80 2.5 140.5t5.5 108t11.5 86.5t19.5 75q28 81 88 126.5t135 45.5q62 0 101 -20.5t67 -69.5v81h186v-1300v-83.5
t0.5 -48.5t1 -23t2.5 -7zM465 573q0 49 -1 96t-2.5 86.5t-4 69.5t-6.5 47q-10 41 -36 63.5t-71 22.5q-42 0 -62.5 -25t-29.5 -79q-5 -34 -9 -72.5t-6 -77t-3 -73.5t-1 -62q0 -29 1 -73t3.5 -90.5t5 -90.5t5.5 -73q5 -42 30 -65t70 -23q44 0 67.5 27t33.5 69q12 57 14 139
t2 184z" />
    <glyph glyph-name="r" unicode="r" horiz-adv-x="522" 
d="M522 1133v-207q-20 6 -51.5 9t-69.5 3q-34 0 -61 -11.5t-45.5 -37t-28.5 -67t-10 -101.5v-721h-199v1126h195v-125q5 31 22 56.5t42 44t55.5 29t62.5 10.5q29 0 51.5 -1.5t36.5 -6.5z" />
    <glyph glyph-name="s" unicode="s" horiz-adv-x="637" 
d="M612 295q0 -154 -77.5 -230.5t-212.5 -76.5q-267 0 -291 205q-2 16 -3.5 37.5t-2.5 42.5t-1.5 40t-0.5 31h186v-14.5v-25.5t0.5 -32t1.5 -34q2 -36 27 -58t79 -22q48 0 76.5 33.5t28.5 95.5q0 31 -5 55t-17.5 44t-33 38t-51.5 39q-15 10 -28 19t-28 19t-32.5 22t-40.5 28
q-41 28 -70 58t-48 67t-28 84t-9 110q0 60 18.5 110t54.5 86.5t88 56.5t119 20q60 0 108 -15.5t83 -43t55.5 -65t26.5 -81.5q1 -7 2 -30t2.5 -50t2.5 -51t1 -33h-184v19v33t-0.5 34t-1.5 21q-5 35 -24.5 58.5t-68.5 23.5t-71.5 -27.5t-22.5 -83.5q0 -30 6.5 -53t19.5 -42
t31 -35t41 -32q31 -21 57.5 -39t63.5 -41q42 -26 74 -56t54.5 -67.5t34 -84.5t11.5 -107z" />
    <glyph glyph-name="t" unicode="t" horiz-adv-x="461" 
d="M446 946h-151v-18.5t-0.5 -39.5t-0.5 -74t-0.5 -122t-0.5 -182.5v-255.5q0 -27 5.5 -43t15.5 -25t25 -11.5t34 -2.5q17 0 34.5 2.5t32.5 5.5v-174q-8 -4 -23.5 -6.5t-36 -4t-43.5 -2.5t-44 -1q-37 0 -72.5 10t-63.5 34.5t-45.5 65t-17.5 101.5v743h-90v180h88
q0 1 0.5 9.5t1.5 22t1.5 30.5t0.5 35l2 94l193 6v-197h155v-180z" />
    <glyph glyph-name="u" unicode="u" horiz-adv-x="694" 
d="M643 0h-186l-8 84q-25 -50 -71 -71t-112 -21q-48 0 -86.5 12.5t-66.5 38.5t-43 67t-15 97v213t-0.5 211t-0.5 191.5t-0.5 157t-0.5 106.5v40h195l0.5 -31t0.5 -83t0.5 -120t0.5 -142v-148.5v-140v-117v-78.5q0 -54 23 -77t65 -23q56 0 80 33t24 104v823h197v-989
q0 -23 0.5 -45t1 -40.5t1 -32t1.5 -19.5z" />
    <glyph glyph-name="v" unicode="v" horiz-adv-x="690" 
d="M688 1126l-217 -1126h-248l-221 1126h201l145 -868l146 868h194z" />
    <glyph glyph-name="w" unicode="w" horiz-adv-x="1069" 
d="M1065 1126l-197 -1126h-221q-21 116 -39 220q-8 44 -16 90t-15.5 88.5t-13.5 78.5l-10 60q-3 19 -6.5 55.5t-5.5 72.5q-4 42 -6 89q-3 -48 -6 -90l-6 -72t-5 -53q-3 -25 -9 -61t-13.5 -79t-15.5 -89t-16 -90q-18 -104 -40 -220h-221l-201 1126h203l117 -833l110 833h209
l121 -833l106 833h197z" />
    <glyph glyph-name="x" unicode="x" horiz-adv-x="655" 
d="M332 780l117 346h194l-205 -540l213 -586h-202l-130 377l-124 -377h-193l211 582l-199 544h203z" />
    <glyph glyph-name="y" unicode="y" horiz-adv-x="690" 
d="M686 1126l-330 -1460h-198l90 375l-246 1085h201q37 -169 68 -317q13 -63 26 -128t24 -123.5t18.5 -106.5t10.5 -78q2 29 9 77t17 106.5t22 123.5t25 128q29 149 66 318h197z" />
    <glyph glyph-name="z" unicode="z" horiz-adv-x="592" 
d="M573 0h-553v166l338 780h-327v180h536v-174l-342 -778h348v-174z" />
    <glyph glyph-name="braceleft" unicode="{" horiz-adv-x="563" 
d="M528 -334h-131q-66 0 -111.5 21t-73 57t-40 83.5t-12.5 100.5q0 61 6.5 126t14 131t14 131t6.5 126q0 44 -7.5 83t-26.5 68.5t-51 46.5t-81 17v172q51 1 84 17.5t51.5 44t25.5 63.5t7 76q0 45 -6.5 86.5t-15 84.5t-15 90.5t-6.5 103.5q0 47 13.5 90t42 76t72 53t103.5 20
h137v-166q-53 2 -89 -4t-58 -24t-31.5 -48.5t-7.5 -78.5q1 -26 7.5 -65.5t14 -84t13.5 -90t6 -82.5q0 -43 -8 -85t-26.5 -76.5t-50 -57.5t-79.5 -29q50 -5 82 -31.5t50 -64t25 -82t7 -86.5q0 -58 -6 -118.5t-13 -123.5t-14 -128t-8 -132q-1 -44 8 -72t30.5 -44t57.5 -22
t90 -5v-168z" />
    <glyph glyph-name="bar" unicode="|" horiz-adv-x="416" 
d="M289 -410h-162v2048h162v-2048z" />
    <glyph glyph-name="braceright" unicode="}" horiz-adv-x="563" 
d="M29 -334v168q54 -1 90 5t57.5 22t30.5 44t8 72q-2 67 -8 132t-13 128t-12.5 123.5t-5.5 118.5q0 42 6.5 86.5t24.5 82t50 64t83 31.5q-48 6 -79.5 29t-50 57.5t-26.5 76.5t-8 85q0 37 6 82.5t13 90t13 84t7 65.5q1 48 -7.5 78.5t-30.5 48.5t-58 24t-90 4v166h137
q60 0 104 -20t72.5 -53t42.5 -76t14 -90q0 -56 -6.5 -103.5t-15 -90.5t-15 -84.5t-6.5 -86.5q0 -40 6.5 -76t25 -63.5t51 -44t83.5 -17.5v-172q-49 0 -81 -17t-50.5 -46.5t-25.5 -68.5t-7 -83q0 -61 6 -126t13.5 -131t13.5 -131t6 -126q0 -53 -12 -100.5t-40 -83.5t-73 -57
t-112 -21h-131z" />
    <glyph glyph-name="asciitilde" unicode="~" horiz-adv-x="754" 
d="M354 709q-16 18 -29.5 33.5t-27.5 27t-29.5 18.5t-34.5 7q-21 0 -36.5 -12t-26.5 -31t-17.5 -42.5t-9.5 -45.5l-139 49q23 126 84 188t145 62q54 0 95.5 -23.5t85.5 -73.5q26 -31 52 -55.5t64 -24.5q39 0 62 35.5t31 87.5l127 -59q-22 -106 -77 -166.5t-143 -60.5
q-25 0 -46.5 4t-42.5 14t-42 26.5t-45 41.5z" />
    <glyph glyph-name="Adieresis" unicode="&#xc4;" horiz-adv-x="797" 
d="M266 393l-53 -393h-213l268 1634h291l236 -1634h-215l-48 393h-266zM506 582q-21 150 -38 271q-7 52 -14 102t-12.5 91.5t-9 69.5t-4.5 35q-2 19 -5.5 61t-7.5 85q-4 50 -9 108q-4 -58 -8 -108q-4 -43 -7.5 -85t-5.5 -61q-1 -7 -5.5 -35t-11 -69.5t-15 -91.5t-16.5 -102
q-20 -121 -44 -271h213zM629 1700h-168v219h168v-219zM348 1700h-166v219h166v-219z" />
    <glyph glyph-name="Aring" unicode="&#xc5;" horiz-adv-x="797" 
d="M264 1614q-17 23 -26 51t-9 59q0 40 14 74.5t39 59.5t58 39t72 14t72.5 -14t58.5 -39t39 -59.5t14 -74.5q0 -61 -35 -108l234 -1616h-215l-48 393h-266l-53 -393h-213zM412 1796q-26 0 -45 -21.5t-19 -50.5q0 -13 5 -25t14 -21.5t20.5 -15t24.5 -5.5q28 0 47.5 20.5
t19.5 46.5q0 29 -19.5 50.5t-47.5 21.5zM506 582q-21 154 -38 278q-7 53 -14 104.5t-12.5 93.5t-9 71t-4.5 36q-1 10 -2.5 29.5t-3 45t-3.5 55t-4 58.5q-4 69 -9 150q-4 -81 -8 -150q-2 -29 -4 -58.5t-3.5 -55t-3 -45t-2.5 -29.5q-1 -7 -5.5 -36t-11 -71t-15 -93.5
t-16.5 -104.5q-20 -124 -44 -278h213z" />
    <glyph glyph-name="Ccedilla" unicode="&#xc7;" horiz-adv-x="819" 
d="M358 -12q-112 15 -177.5 77.5t-90.5 153.5q-15 54 -23.5 129.5t-13.5 158.5t-6.5 166t-1.5 152q0 68 0.5 135t3.5 135.5t10 138t21 142.5q26 138 116.5 203.5t241.5 65.5t233.5 -81t100.5 -227q11 -78 12.5 -142t1.5 -130h-211q0 68 -3 133.5t-17 142.5q-9 50 -42 72.5
t-83 22.5q-59 0 -93.5 -28.5t-43.5 -76.5q-10 -50 -15 -116t-7.5 -135t-2.5 -135.5v-117.5q0 -63 1 -136.5t3.5 -144.5t7 -133t11.5 -102q6 -37 19.5 -61.5t32.5 -39.5t41 -21.5t46 -6.5t46.5 6.5t41.5 22t31.5 41.5t17.5 65q4 35 6.5 72t4 70.5t2 61t0.5 42.5h208
q0 -21 -0.5 -55.5t-2 -75t-4.5 -84.5t-9 -86q-17 -111 -89.5 -184t-193.5 -90q0 -13 5 -25t20 -29q14 -12 36 -23.5t43 -28.5t36.5 -42t15.5 -65q0 -42 -22 -76.5t-66 -55t-109 -25.5t-151 11v107q87 -14 134.5 2.5t47.5 64.5q0 19 -10 34t-24.5 27.5t-29.5 24t-24 23.5
q-17 23 -25 41t-8 35z" />
    <glyph glyph-name="Eacute" unicode="&#xc9;" horiz-adv-x="709" 
d="M686 0h-612v1634h608v-204h-397v-506h366v-203h-366v-516h401v-205zM260 1702l131 264h213l-158 -264h-186z" />
    <glyph glyph-name="Ntilde" unicode="&#xd1;" horiz-adv-x="834" 
d="M762 0h-209l-283 958v-958h-196v1634h211l278 -1011v1011h199v-1634zM430 1745q-23 23 -38 33t-38 10q-21 0 -36.5 -17t-18.5 -63l-129 8q3 51 15 92t32.5 70t48 45t62.5 16q38 0 67 -11.5t60 -43.5q9 -10 16.5 -18t14.5 -14t14.5 -9t17.5 -2q25 2 38.5 23t18.5 69
l125 -8q-5 -109 -45.5 -167t-111.5 -58q-15 0 -28.5 1t-26.5 5.5t-27 13.5t-31 25z" />
    <glyph glyph-name="Odieresis" unicode="&#xd6;" horiz-adv-x="842" 
d="M420 1645q114 0 185.5 -39.5t113.5 -116.5q27 -51 42.5 -117.5t23.5 -149t10 -181.5t2 -214q0 -120 -3 -222.5t-11 -187t-23.5 -152.5t-40.5 -120q-40 -81 -111 -121t-188 -40t-187 39.5t-110 119.5q-26 51 -41 118.5t-23.5 152t-11 186t-2.5 221.5q0 115 2 215t10 184
t24 152t44 119q40 75 109.5 114.5t185.5 39.5zM422 180q43 0 71.5 15.5t45.5 52.5q13 31 21.5 79t12.5 117t5.5 162t1.5 213v208.5t-3.5 161t-12 118.5t-25.5 79q-17 31 -47 44.5t-70 13.5q-77 0 -111 -60q-18 -32 -27.5 -81t-14 -118.5t-5 -162t-0.5 -209.5
q0 -120 1.5 -212t6.5 -160.5t13.5 -115.5t23.5 -77q19 -37 46 -52.5t67 -15.5zM643 1700h-168v219h168v-219zM362 1700h-165v219h165v-219z" />
    <glyph glyph-name="Udieresis" unicode="&#xdc;" horiz-adv-x="827" 
d="M762 309q0 -77 -24 -137t-68.5 -101.5t-108.5 -63t-145 -21.5q-78 0 -143.5 20t-112.5 60.5t-73 101.5t-26 143v1323h213v-1294q0 -81 35.5 -118.5t104.5 -37.5q65 0 99 39.5t34 114.5v1296h215v-1325zM639 1700h-168v219h168v-219zM358 1700h-165v219h165v-219z" />
    <glyph glyph-name="aacute" unicode="&#xe1;" horiz-adv-x="684" 
d="M645 0h-184q-1 0 -2 7t-2.5 18t-2.5 23.5t-1 23.5q-34 -42 -83.5 -61t-123.5 -19q-41 0 -79 9t-67.5 30t-48 56.5t-20.5 88.5q-1 16 -1.5 42.5t-0.5 55.5t0.5 57t1.5 48q2 56 17 100.5t47.5 79.5t83.5 61t126 44q37 9 72 15t69 11q0 14 0.5 38t0.5 50.5v51.5t-1 40
q-3 93 -94 93q-35 0 -61.5 -17.5t-34.5 -60.5q-6 -34 -7 -73t-1 -81h-185q0 24 1 52.5t3 58t5 58t8 52.5q18 87 88 139t188 52q74 0 126 -16.5t85.5 -46.5t49.5 -72.5t18 -94.5q1 -40 1.5 -94.5t0 -112t-1.5 -111.5t-2 -93q0 -39 -0.5 -85.5t-0.5 -92.5v-87t1 -69
q1 -26 2 -53t2.5 -50.5t3.5 -41t4 -23.5zM446 537q-18 -4 -37.5 -7.5t-37.5 -9.5q-26 -8 -54 -17t-53 -34q-23 -23 -30 -44.5t-11 -55.5q-2 -12 -2 -32v-40.5t1 -39.5t3 -30q5 -35 32.5 -54t66.5 -19q38 0 68 20.5t44 61.5q10 42 8.5 90t1.5 104v107zM242 1200l131 264h213
l-158 -264h-186z" />
    <glyph glyph-name="agrave" unicode="&#xe0;" horiz-adv-x="684" 
d="M645 0h-184q-1 0 -2 7t-2.5 18t-2.5 23.5t-1 23.5q-34 -42 -83.5 -61t-123.5 -19q-41 0 -79 9t-67.5 30t-48 56.5t-20.5 88.5q-1 16 -1.5 42.5t-0.5 55.5t0.5 57t1.5 48q2 56 17 100.5t47.5 79.5t83.5 61t126 44q37 9 72 15t69 11q0 14 0.5 38t0.5 50.5v51.5t-1 40
q-3 93 -94 93q-35 0 -61.5 -17.5t-34.5 -60.5q-6 -34 -7 -73t-1 -81h-185q0 24 1 52.5t3 58t5 58t8 52.5q18 87 88 139t188 52q74 0 126 -16.5t85.5 -46.5t49.5 -72.5t18 -94.5q1 -40 1.5 -94.5t0 -112t-1.5 -111.5t-2 -93q0 -39 -0.5 -85.5t-0.5 -92.5v-87t1 -69
q1 -26 2 -53t2.5 -50.5t3.5 -41t4 -23.5zM446 537q-18 -4 -37.5 -7.5t-37.5 -9.5q-26 -8 -54 -17t-53 -34q-23 -23 -30 -44.5t-11 -55.5q-2 -12 -2 -32v-40.5t1 -39.5t3 -30q5 -35 32.5 -54t66.5 -19q38 0 68 20.5t44 61.5q10 42 8.5 90t1.5 104v107zM471 1200h-190
l-158 264h215z" />
    <glyph glyph-name="acircumflex" unicode="&#xe2;" horiz-adv-x="684" 
d="M645 0h-184q-1 0 -2 7t-2.5 18t-2.5 23.5t-1 23.5q-34 -42 -83.5 -61t-123.5 -19q-41 0 -79 9t-67.5 30t-48 56.5t-20.5 88.5q-1 16 -1.5 42.5t-0.5 55.5t0.5 57t1.5 48q2 56 17 100.5t47.5 79.5t83.5 61t126 44q37 9 72 15t69 11q0 14 0.5 38t0.5 50.5v51.5t-1 40
q-3 93 -94 93q-35 0 -61.5 -17.5t-34.5 -60.5q-6 -34 -7 -73t-1 -81h-185q0 24 1 52.5t3 58t5 58t8 52.5q18 87 88 139t188 52q74 0 126 -16.5t85.5 -46.5t49.5 -72.5t18 -94.5q1 -40 1.5 -94.5t0 -112t-1.5 -111.5t-2 -93q0 -39 -0.5 -85.5t-0.5 -92.5v-87t1 -69
q1 -26 2 -53t2.5 -50.5t3.5 -41t4 -23.5zM446 537q-18 -4 -37.5 -7.5t-37.5 -9.5q-26 -8 -54 -17t-53 -34q-23 -23 -30 -44.5t-11 -55.5q-2 -12 -2 -32v-40.5t1 -39.5t3 -30q5 -35 32.5 -54t66.5 -19q38 0 68 20.5t44 61.5q10 42 8.5 90t1.5 104v107zM602 1200h-166l-82 148
l-82 -148h-163l141 268h213z" />
    <glyph glyph-name="adieresis" unicode="&#xe4;" horiz-adv-x="684" 
d="M645 0h-184q-1 0 -2 7t-2.5 18t-2.5 23.5t-1 23.5q-34 -42 -83.5 -61t-123.5 -19q-41 0 -79 9t-67.5 30t-48 56.5t-20.5 88.5q-1 16 -1.5 42.5t-0.5 55.5t0.5 57t1.5 48q2 56 17 100.5t47.5 79.5t83.5 61t126 44q37 9 72 15t69 11q0 14 0.5 38t0.5 50.5v51.5t-1 40
q-3 93 -94 93q-35 0 -61.5 -17.5t-34.5 -60.5q-6 -34 -7 -73t-1 -81h-185q0 24 1 52.5t3 58t5 58t8 52.5q18 87 88 139t188 52q74 0 126 -16.5t85.5 -46.5t49.5 -72.5t18 -94.5q1 -40 1.5 -94.5t0 -112t-1.5 -111.5t-2 -93q0 -39 -0.5 -85.5t-0.5 -92.5v-87t1 -69
q1 -26 2 -53t2.5 -50.5t3.5 -41t4 -23.5zM446 537q-18 -4 -37.5 -7.5t-37.5 -9.5q-26 -8 -54 -17t-53 -34q-23 -23 -30 -44.5t-11 -55.5q-2 -12 -2 -32v-40.5t1 -39.5t3 -30q5 -35 32.5 -54t66.5 -19q38 0 68 20.5t44 61.5q10 42 8.5 90t1.5 104v107zM580 1198h-168v219h168
v-219zM299 1198h-166v219h166v-219z" />
    <glyph glyph-name="atilde" unicode="&#xe3;" horiz-adv-x="684" 
d="M645 0h-184q-1 0 -2 7t-2.5 18t-2.5 23.5t-1 23.5q-34 -42 -83.5 -61t-123.5 -19q-41 0 -79 9t-67.5 30t-48 56.5t-20.5 88.5q-1 16 -1.5 42.5t-0.5 55.5t0.5 57t1.5 48q2 56 17 100.5t47.5 79.5t83.5 61t126 44q37 9 72 15t69 11q0 14 0.5 38t0.5 50.5v51.5t-1 40
q-3 93 -94 93q-35 0 -61.5 -17.5t-34.5 -60.5q-6 -34 -7 -73t-1 -81h-185q0 24 1 52.5t3 58t5 58t8 52.5q18 87 88 139t188 52q74 0 126 -16.5t85.5 -46.5t49.5 -72.5t18 -94.5q1 -40 1.5 -94.5t0 -112t-1.5 -111.5t-2 -93q0 -39 -0.5 -85.5t-0.5 -92.5v-87t1 -69
q1 -26 2 -53t2.5 -50.5t3.5 -41t4 -23.5zM446 537q-18 -4 -37.5 -7.5t-37.5 -9.5q-26 -8 -54 -17t-53 -34q-23 -23 -30 -44.5t-11 -55.5q-2 -12 -2 -32v-40.5t1 -39.5t3 -30q5 -35 32.5 -54t66.5 -19q38 0 68 20.5t44 61.5q10 42 8.5 90t1.5 104v107zM354 1243
q-23 23 -37.5 33t-37.5 10q-22 0 -37.5 -16.5t-18.5 -63.5l-129 8q6 102 47.5 163t110.5 61q38 0 67 -12t60 -44q9 -10 16.5 -18t14.5 -14t14.5 -9t17.5 -2q25 2 39 23.5t19 69.5l125 -9q-5 -109 -46 -167t-112 -58q-15 0 -28.5 1t-26.5 5.5t-27 13.5t-31 25z" />
    <glyph glyph-name="aring" unicode="&#xe5;" horiz-adv-x="684" 
d="M645 0h-184q-1 0 -2 7t-2.5 18t-2.5 23.5t-1 23.5q-34 -42 -83.5 -61t-123.5 -19q-41 0 -79 9t-67.5 30t-48 56.5t-20.5 88.5q-1 16 -1.5 42.5t-0.5 55.5t0.5 57t1.5 48q2 56 17 100.5t47.5 79.5t83.5 61t126 44q37 9 72 15t69 11q0 14 0.5 38t0.5 50.5v51.5t-1 40
q-3 93 -94 93q-35 0 -61.5 -17.5t-34.5 -60.5q-6 -34 -7 -73t-1 -81h-185q0 24 1 52.5t3 58t5 58t8 52.5q18 87 88 139t188 52q74 0 126 -16.5t85.5 -46.5t49.5 -72.5t18 -94.5q1 -40 1.5 -94.5t0 -112t-1.5 -111.5t-2 -93q0 -39 -0.5 -85.5t-0.5 -92.5v-87t1 -69
q1 -26 2 -53t2.5 -50.5t3.5 -41t4 -23.5zM446 537q-18 -4 -37.5 -7.5t-37.5 -9.5q-26 -8 -54 -17t-53 -34q-23 -23 -30 -44.5t-11 -55.5q-2 -12 -2 -32v-40.5t1 -39.5t3 -30q5 -35 32.5 -54t66.5 -19q38 0 68 20.5t44 61.5q10 42 8.5 90t1.5 104v107zM360 1530
q36 0 66.5 -13t53 -36t35.5 -54t13 -67q0 -35 -13 -65.5t-35.5 -53t-53 -36t-66.5 -13.5q-35 0 -65 13.5t-52 36t-35 53t-13 65.5q0 36 13 67t35 54t52 36t65 13zM360 1432q-26 0 -44.5 -21.5t-18.5 -50.5q0 -13 5 -25.5t13.5 -22t20 -15t24.5 -5.5q14 0 26.5 5.5t21.5 15
t14.5 22t5.5 25.5q0 29 -20 50.5t-48 21.5z" />
    <glyph glyph-name="ccedilla" unicode="&#xe7;" horiz-adv-x="668" 
d="M268 -4q-69 14 -116 52.5t-70 96.5q-13 35 -21.5 81.5t-14 101t-7.5 114t-2 121.5q0 51 2.5 104.5t7.5 104.5t13 98t20 86q26 88 92.5 136.5t171.5 48.5q65 0 112 -14.5t80 -40.5t53 -61t32 -77q7 -26 10.5 -61t5 -70t1 -66t-0.5 -49h-186v29.5t-1 37t-2 40t-4 39.5
q-6 49 -28 78.5t-70 29.5q-43 0 -66.5 -24.5t-31.5 -77.5q-11 -69 -13 -147t-2 -146q0 -29 0.5 -71t2.5 -85.5t5.5 -84t8.5 -66.5q9 -51 32 -71.5t66 -20.5q44 0 67.5 25.5t28.5 68.5q7 54 8 96t1 64h182q0 -42 -0.5 -74.5t-3 -61t-6.5 -54.5t-11 -54q-11 -43 -31 -75
t-48 -53.5t-62.5 -34.5t-73.5 -17q2 -11 6.5 -22.5t18.5 -26.5q14 -12 36 -24t43 -29t36.5 -42t15.5 -65q0 -42 -22 -76.5t-66 -55t-109 -25.5t-151 12v106q87 -14 134.5 3t47.5 65q0 19 -10 33.5t-24.5 27t-29.5 24t-24 23.5q-17 23 -25 41t-8 35z" />
    <glyph glyph-name="eacute" unicode="&#xe9;" horiz-adv-x="674" 
d="M641 348q0 -21 -0.5 -47t-4 -54t-11 -57.5t-21.5 -58.5q-32 -69 -93 -107t-165 -38q-45 0 -87 9t-76.5 28t-60.5 49t-40 73q-11 34 -19.5 68t-14 79t-8.5 108t-3 155q0 83 2 147.5t6.5 114t12 85t18.5 61.5q18 42 42 75t57.5 56t77 35t99.5 12q55 0 97.5 -12.5t73.5 -34
t52 -51.5t33 -64q13 -38 21 -81.5t11.5 -101.5t4.5 -134.5t0 -178.5h-418q0 -24 1 -56t3.5 -65.5t6.5 -67t10 -61.5q9 -43 36 -58t62 -15q32 0 59.5 14.5t36.5 46.5q6 18 9 38t5 37.5t2.5 31t0.5 20.5h182zM457 651q0 41 -1 79t-3 69.5t-5 55.5t-6 36q-9 35 -34.5 53.5
t-63.5 18.5q-35 0 -60.5 -15t-39.5 -55q-13 -35 -15 -99t-2 -143h230zM238 1200l131 264h213l-158 -264h-186z" />
    <glyph glyph-name="egrave" unicode="&#xe8;" horiz-adv-x="674" 
d="M641 348q0 -21 -0.5 -47t-4 -54t-11 -57.5t-21.5 -58.5q-32 -69 -93 -107t-165 -38q-45 0 -87 9t-76.5 28t-60.5 49t-40 73q-11 34 -19.5 68t-14 79t-8.5 108t-3 155q0 83 2 147.5t6.5 114t12 85t18.5 61.5q18 42 42 75t57.5 56t77 35t99.5 12q55 0 97.5 -12.5t73.5 -34
t52 -51.5t33 -64q13 -38 21 -81.5t11.5 -101.5t4.5 -134.5t0 -178.5h-418q0 -24 1 -56t3.5 -65.5t6.5 -67t10 -61.5q9 -43 36 -58t62 -15q32 0 59.5 14.5t36.5 46.5q6 18 9 38t5 37.5t2.5 31t0.5 20.5h182zM457 651q0 41 -1 79t-3 69.5t-5 55.5t-6 36q-9 35 -34.5 53.5
t-63.5 18.5q-35 0 -60.5 -15t-39.5 -55q-13 -35 -15 -99t-2 -143h230zM451 1200h-191l-158 264h215z" />
    <glyph glyph-name="ecircumflex" unicode="&#xea;" horiz-adv-x="674" 
d="M641 348q0 -21 -0.5 -47t-4 -54t-11 -57.5t-21.5 -58.5q-32 -69 -93 -107t-165 -38q-45 0 -87 9t-76.5 28t-60.5 49t-40 73q-11 34 -19.5 68t-14 79t-8.5 108t-3 155q0 83 2 147.5t6.5 114t12 85t18.5 61.5q18 42 42 75t57.5 56t77 35t99.5 12q55 0 97.5 -12.5t73.5 -34
t52 -51.5t33 -64q13 -38 21 -81.5t11.5 -101.5t4.5 -134.5t0 -178.5h-418q0 -24 1 -56t3.5 -65.5t6.5 -67t10 -61.5q9 -43 36 -58t62 -15q32 0 59.5 14.5t36.5 46.5q6 18 9 38t5 37.5t2.5 31t0.5 20.5h182zM457 651q0 41 -1 79t-3 69.5t-5 55.5t-6 36q-9 35 -34.5 53.5
t-63.5 18.5q-35 0 -60.5 -15t-39.5 -55q-13 -35 -15 -99t-2 -143h230zM594 1200h-166l-82 148l-82 -148h-164l142 268h213z" />
    <glyph glyph-name="edieresis" unicode="&#xeb;" horiz-adv-x="674" 
d="M641 348q0 -21 -0.5 -47t-4 -54t-11 -57.5t-21.5 -58.5q-32 -69 -93 -107t-165 -38q-45 0 -87 9t-76.5 28t-60.5 49t-40 73q-11 34 -19.5 68t-14 79t-8.5 108t-3 155q0 83 2 147.5t6.5 114t12 85t18.5 61.5q18 42 42 75t57.5 56t77 35t99.5 12q55 0 97.5 -12.5t73.5 -34
t52 -51.5t33 -64q13 -38 21 -81.5t11.5 -101.5t4.5 -134.5t0 -178.5h-418q0 -24 1 -56t3.5 -65.5t6.5 -67t10 -61.5q9 -43 36 -58t62 -15q32 0 59.5 14.5t36.5 46.5q6 18 9 38t5 37.5t2.5 31t0.5 20.5h182zM457 651q0 41 -1 79t-3 69.5t-5 55.5t-6 36q-9 35 -34.5 53.5
t-63.5 18.5q-35 0 -60.5 -15t-39.5 -55q-13 -35 -15 -99t-2 -143h230zM567 1198h-168v219h168v-219zM287 1198h-166v219h166v-219z" />
    <glyph glyph-name="iacute" unicode="&#xed;" horiz-adv-x="324" 
d="M268 0h-196q-5 2 -8 26t-3 56v1044h201v-1036q0 -34 3 -61t3 -29zM51 1200l131 264h213l-157 -264h-187z" />
    <glyph glyph-name="igrave" unicode="&#xec;" horiz-adv-x="324" 
d="M268 0h-196q-5 2 -8 26t-3 56v1044h201v-1036q0 -34 3 -61t3 -29zM279 1200h-191l-158 264h215z" />
    <glyph glyph-name="icircumflex" unicode="&#xee;" horiz-adv-x="324" 
d="M268 0h-196q-5 2 -8 26t-3 56v1044h201v-1036q0 -34 3 -61t3 -29zM410 1200h-166l-82 148l-82 -148h-164l141 268h213z" />
    <glyph glyph-name="idieresis" unicode="&#xef;" horiz-adv-x="324" 
d="M268 0h-196q-5 2 -8 26t-3 56v1044h201v-1036q0 -34 3 -61t3 -29zM389 1198h-168v219h168v-219zM109 1198h-166v219h166v-219z" />
    <glyph glyph-name="ntilde" unicode="&#xf1;" horiz-adv-x="696" 
d="M647 0h-194q-2 0 -3 6t-2 32t-1.5 79t-0.5 147.5v238.5v351q0 53 -20.5 75.5t-65.5 22.5q-22 0 -41.5 -8t-33.5 -26t-22.5 -46.5t-8.5 -68.5v-803h-197v1126h191v-110q9 33 28 56.5t44.5 39t56.5 22.5t63 7q105 0 153 -60t48 -166v-383t0.5 -257.5t1 -157t1 -81.5
t1.5 -31t2 -5zM350 1243q-23 23 -38 33t-38 10q-21 0 -36.5 -16.5t-18.5 -63.5l-129 8q6 102 47.5 163t110.5 61q38 0 67 -12t60 -44q9 -10 16.5 -18t14.5 -14t14.5 -9t17.5 -2q25 2 39 23.5t19 69.5l125 -9q-5 -109 -46 -167t-112 -58q-15 0 -28.5 1t-26.5 5.5t-27 13.5
t-31 25z" />
    <glyph glyph-name="oacute" unicode="&#xf3;" horiz-adv-x="700" 
d="M664 563q0 -47 -2.5 -99.5t-7 -102.5t-11 -95t-14.5 -76q-25 -96 -94 -149t-185 -53q-62 0 -109.5 14.5t-81.5 40.5t-55.5 62.5t-31.5 80.5q-7 29 -13.5 72.5t-11 94.5t-7.5 105t-3 105t1.5 103.5t6 102t11.5 93.5t18 78q15 47 37.5 84t55.5 63t78 40t107 14
q61 0 109 -14.5t82.5 -41t56.5 -63.5t33 -82q7 -28 12.5 -72.5t9.5 -96.5t6.5 -106.5t2.5 -101.5zM469 561q0 37 -1 82t-2.5 88.5t-4 80.5t-6.5 58q-10 48 -35 68t-70 20q-84 0 -102 -92q-5 -22 -8 -59t-5 -79.5t-3 -86.5t-1 -80q0 -38 1 -82.5t3 -87.5t5 -80.5t8 -60.5
q8 -45 35 -65.5t67 -20.5q42 0 68.5 21.5t34.5 66.5q4 23 7.5 60t5 80t2.5 87t1 82zM258 1200l131 264h213l-158 -264h-186z" />
    <glyph glyph-name="ograve" unicode="&#xf2;" horiz-adv-x="700" 
d="M664 563q0 -47 -2.5 -99.5t-7 -102.5t-11 -95t-14.5 -76q-25 -96 -94 -149t-185 -53q-62 0 -109.5 14.5t-81.5 40.5t-55.5 62.5t-31.5 80.5q-7 29 -13.5 72.5t-11 94.5t-7.5 105t-3 105t1.5 103.5t6 102t11.5 93.5t18 78q15 47 37.5 84t55.5 63t78 40t107 14
q61 0 109 -14.5t82.5 -41t56.5 -63.5t33 -82q7 -28 12.5 -72.5t9.5 -96.5t6.5 -106.5t2.5 -101.5zM469 561q0 37 -1 82t-2.5 88.5t-4 80.5t-6.5 58q-10 48 -35 68t-70 20q-84 0 -102 -92q-5 -22 -8 -59t-5 -79.5t-3 -86.5t-1 -80q0 -38 1 -82.5t3 -87.5t5 -80.5t8 -60.5
q8 -45 35 -65.5t67 -20.5q42 0 68.5 21.5t34.5 66.5q4 23 7.5 60t5 80t2.5 87t1 82zM467 1200h-191l-157 264h215z" />
    <glyph glyph-name="ocircumflex" unicode="&#xf4;" horiz-adv-x="700" 
d="M664 563q0 -47 -2.5 -99.5t-7 -102.5t-11 -95t-14.5 -76q-25 -96 -94 -149t-185 -53q-62 0 -109.5 14.5t-81.5 40.5t-55.5 62.5t-31.5 80.5q-7 29 -13.5 72.5t-11 94.5t-7.5 105t-3 105t1.5 103.5t6 102t11.5 93.5t18 78q15 47 37.5 84t55.5 63t78 40t107 14
q61 0 109 -14.5t82.5 -41t56.5 -63.5t33 -82q7 -28 12.5 -72.5t9.5 -96.5t6.5 -106.5t2.5 -101.5zM469 561q0 37 -1 82t-2.5 88.5t-4 80.5t-6.5 58q-10 48 -35 68t-70 20q-84 0 -102 -92q-5 -22 -8 -59t-5 -79.5t-3 -86.5t-1 -80q0 -38 1 -82.5t3 -87.5t5 -80.5t8 -60.5
q8 -45 35 -65.5t67 -20.5q42 0 68.5 21.5t34.5 66.5q4 23 7.5 60t5 80t2.5 87t1 82zM598 1200h-166l-82 148l-82 -148h-164l142 268h213z" />
    <glyph glyph-name="odieresis" unicode="&#xf6;" horiz-adv-x="700" 
d="M664 563q0 -47 -2.5 -99.5t-7 -102.5t-11 -95t-14.5 -76q-25 -96 -94 -149t-185 -53q-62 0 -109.5 14.5t-81.5 40.5t-55.5 62.5t-31.5 80.5q-7 29 -13.5 72.5t-11 94.5t-7.5 105t-3 105t1.5 103.5t6 102t11.5 93.5t18 78q15 47 37.5 84t55.5 63t78 40t107 14
q61 0 109 -14.5t82.5 -41t56.5 -63.5t33 -82q7 -28 12.5 -72.5t9.5 -96.5t6.5 -106.5t2.5 -101.5zM469 561q0 37 -1 82t-2.5 88.5t-4 80.5t-6.5 58q-10 48 -35 68t-70 20q-84 0 -102 -92q-5 -22 -8 -59t-5 -79.5t-3 -86.5t-1 -80q0 -38 1 -82.5t3 -87.5t5 -80.5t8 -60.5
q8 -45 35 -65.5t67 -20.5q42 0 68.5 21.5t34.5 66.5q4 23 7.5 60t5 80t2.5 87t1 82zM575 1198h-167v219h167v-219zM295 1198h-166v219h166v-219z" />
    <glyph glyph-name="otilde" unicode="&#xf5;" horiz-adv-x="700" 
d="M664 563q0 -47 -2.5 -99.5t-7 -102.5t-11 -95t-14.5 -76q-25 -96 -94 -149t-185 -53q-62 0 -109.5 14.5t-81.5 40.5t-55.5 62.5t-31.5 80.5q-7 29 -13.5 72.5t-11 94.5t-7.5 105t-3 105t1.5 103.5t6 102t11.5 93.5t18 78q15 47 37.5 84t55.5 63t78 40t107 14
q61 0 109 -14.5t82.5 -41t56.5 -63.5t33 -82q7 -28 12.5 -72.5t9.5 -96.5t6.5 -106.5t2.5 -101.5zM469 561q0 37 -1 82t-2.5 88.5t-4 80.5t-6.5 58q-10 48 -35 68t-70 20q-84 0 -102 -92q-5 -22 -8 -59t-5 -79.5t-3 -86.5t-1 -80q0 -38 1 -82.5t3 -87.5t5 -80.5t8 -60.5
q8 -45 35 -65.5t67 -20.5q42 0 68.5 21.5t34.5 66.5q4 23 7.5 60t5 80t2.5 87t1 82zM356 1243q-23 23 -37.5 33t-37.5 10q-22 0 -37.5 -16.5t-18.5 -63.5l-129 8q6 102 47.5 163t110.5 61q38 0 67 -12t60 -44q9 -10 16.5 -18t14.5 -14t14.5 -9t17.5 -2q25 2 39 23.5t19 69.5
l125 -9q-5 -109 -46 -167t-112 -58q-15 0 -28.5 1t-26.5 5.5t-27 13.5t-31 25z" />
    <glyph glyph-name="uacute" unicode="&#xfa;" horiz-adv-x="694" 
d="M643 0h-186l-8 84q-25 -50 -71 -71t-112 -21q-48 0 -86.5 12.5t-66.5 38.5t-43 67t-15 97v213t-0.5 211t-0.5 191.5t-0.5 157t-0.5 106.5v40h195l0.5 -31t0.5 -83t0.5 -120t0.5 -142v-148.5v-140v-117v-78.5q0 -54 23 -77t65 -23q56 0 80 33t24 104v823h197v-989
q0 -23 0.5 -45t1 -40.5t1 -32t1.5 -19.5zM246 1200l131 264h213l-158 -264h-186z" />
    <glyph glyph-name="ugrave" unicode="&#xf9;" horiz-adv-x="694" 
d="M643 0h-186l-8 84q-25 -50 -71 -71t-112 -21q-48 0 -86.5 12.5t-66.5 38.5t-43 67t-15 97v213t-0.5 211t-0.5 191.5t-0.5 157t-0.5 106.5v40h195l0.5 -31t0.5 -83t0.5 -120t0.5 -142v-148.5v-140v-117v-78.5q0 -54 23 -77t65 -23q56 0 80 33t24 104v823h197v-989
q0 -23 0.5 -45t1 -40.5t1 -32t1.5 -19.5zM479 1200h-190l-158 264h215z" />
    <glyph glyph-name="ucircumflex" unicode="&#xfb;" horiz-adv-x="694" 
d="M643 0h-186l-8 84q-25 -50 -71 -71t-112 -21q-48 0 -86.5 12.5t-66.5 38.5t-43 67t-15 97v213t-0.5 211t-0.5 191.5t-0.5 157t-0.5 106.5v40h195l0.5 -31t0.5 -83t0.5 -120t0.5 -142v-148.5v-140v-117v-78.5q0 -54 23 -77t65 -23q56 0 80 33t24 104v823h197v-989
q0 -23 0.5 -45t1 -40.5t1 -32t1.5 -19.5zM592 1200h-166l-82 148l-82 -148h-164l142 268h213z" />
    <glyph glyph-name="udieresis" unicode="&#xfc;" horiz-adv-x="694" 
d="M643 0h-186l-8 84q-25 -50 -71 -71t-112 -21q-48 0 -86.5 12.5t-66.5 38.5t-43 67t-15 97v213t-0.5 211t-0.5 191.5t-0.5 157t-0.5 106.5v40h195l0.5 -31t0.5 -83t0.5 -120t0.5 -142v-148.5v-140v-117v-78.5q0 -54 23 -77t65 -23q56 0 80 33t24 104v823h197v-989
q0 -23 0.5 -45t1 -40.5t1 -32t1.5 -19.5zM573 1198h-167v219h167v-219zM293 1198h-166v219h166v-219z" />
    <glyph glyph-name="dagger" unicode="&#x2020;" horiz-adv-x="481" 
d="M457 891h-119v-905l-98 -191l-97 191v905h-120v188h120q-1 21 -1.5 56t-1 77.5t-0.5 89.5v93q0 107 1 229h199q1 -122 2 -229v-93t-0.5 -89.5t-1.5 -77.5t-2 -56h119v-188z" />
    <glyph glyph-name="degree" unicode="&#xb0;" horiz-adv-x="465" 
d="M233 1544q44 0 82 -16.5t66.5 -45.5t44.5 -68.5t16 -84.5q0 -44 -16 -82.5t-44.5 -67.5t-66.5 -46t-82 -17q-43 0 -80.5 17t-66 46t-45 67.5t-16.5 82.5q0 45 16.5 84.5t45 68.5t66 45.5t80.5 16.5zM233 1423q-19 0 -36 -7t-30 -20t-20.5 -30t-7.5 -37q0 -18 7.5 -34.5
t20.5 -29t30 -19.5t36 -7q39 0 65 26.5t26 63.5q0 40 -26 67t-65 27z" />
    <glyph glyph-name="cent" unicode="&#xa2;" horiz-adv-x="694" 
d="M403 408q55 18 70 106q1 9 2.5 28t3 40.5t2 41.5t0.5 31h187q-1 -15 -2 -46.5t-4 -67.5t-7.5 -70.5t-11.5 -56.5q-25 -75 -78 -119t-141 -55v-156h-129v156q-85 12 -137.5 53.5t-75.5 120.5q-9 30 -15.5 73t-11 94.5t-6.5 108t-2 113.5q0 50 1.5 96t5.5 90.5t11 89
t19 92.5q19 81 71.5 130t139.5 63v141h129v-139q51 -6 88.5 -22t64.5 -40t44 -55.5t26 -68.5q4 -19 8 -53t6.5 -70.5t4 -69t2.5 -47.5h-187q0 26 -1 63.5t-3 69.5q-3 57 -22.5 87t-51.5 38v-790zM315 1186q-17 -14 -28.5 -37.5t-16.5 -58.5q-4 -27 -7 -62.5t-5 -73.5
t-3 -77.5t-1 -73.5q0 -29 1 -67.5t2.5 -78t4 -76.5t4.5 -63q3 -42 16 -66t33 -36v770z" />
    <glyph glyph-name="sterling" unicode="&#xa3;" horiz-adv-x="723" 
d="M154 805q-19 40 -35.5 88t-29 99.5t-20 104t-8.5 103.5v176q2 58 19.5 108t54 86t94.5 56.5t140 20.5q92 0 151 -24.5t93 -64t47.5 -90.5t15.5 -104v-32t0.5 -60t0.5 -74t0.5 -74t0.5 -60v-32h-195v287q-3 74 -29.5 105.5t-80.5 31.5q-56 0 -80.5 -34t-26.5 -93v-145
q1 -54 9 -104t20.5 -96.5t28.5 -91t32 -87.5h281v-184h-231q9 -45 14.5 -75.5t3.5 -64.5q-2 -66 -15.5 -115t-33.5 -84t-45 -57.5t-51 -34.5h405v-190h-647v186q38 18 71.5 45.5t59 65t42 83t21.5 99.5q2 29 -1.5 62t-12.5 80h-158v184h95z" />
    <glyph glyph-name="section" unicode="&#xa7;" horiz-adv-x="616" 
d="M45 942q5 42 17.5 72t28 51.5t33.5 35t34 21.5q-45 34 -65.5 79.5t-20.5 111.5q-1 5 -1.5 21.5t-0.5 35.5t0.5 36.5t1.5 25.5q5 103 68.5 154.5t168.5 51.5q50 0 92.5 -10.5t74.5 -35.5t51.5 -67t23.5 -104v-127h-141v99q-2 49 -22.5 74.5t-65.5 25.5t-69.5 -20
t-27.5 -74v-78q1 -26 6 -45.5t16.5 -35.5t30 -29.5t46.5 -28.5q7 -5 20.5 -12.5t29.5 -16.5t32.5 -18t29.5 -17q62 -38 91 -86t38 -102q5 -16 6.5 -39t0.5 -48t-4.5 -48t-8.5 -39q-6 -40 -18.5 -69t-29 -49t-35.5 -32.5t-38 -19.5q68 -41 105.5 -97t42.5 -135q1 -8 1 -27
v-41t-0.5 -41.5t-0.5 -27.5q-12 -235 -262 -235q-56 0 -104 11.5t-84.5 38.5t-59.5 71.5t-29 111.5q-1 5 -1.5 24.5t-0.5 42v42v24.5h172v-106q2 -54 25.5 -81.5t79.5 -27.5q54 0 77 25.5t25 85.5v98q-2 28 -8.5 49.5t-19.5 39t-32.5 33t-46.5 30.5q-8 5 -26.5 16.5
t-41 25.5t-46.5 28.5t-43 25.5q-53 37 -81 85.5t-36 106.5q-2 16 -3 37.5t-1 44t1 43t5 35.5zM201 784q20 -32 61 -62t90 -56q26 2 46.5 36.5t23.5 85.5q1 10 1.5 26.5t-1 34t-4 33t-6.5 23.5q-17 40 -53.5 69.5t-90.5 57.5q-13 -1 -25.5 -10t-23 -22.5t-17.5 -30.5t-9 -33
q-2 -14 -3.5 -35.5t-1.5 -43.5t3 -42t10 -31z" />
    <glyph glyph-name="bullet" unicode="&#x2022;" horiz-adv-x="631" 
d="M315 532q-42 0 -79.5 17.5t-65.5 47t-44.5 68.5t-16.5 83t16.5 83t44.5 68t65.5 45.5t79.5 16.5q43 0 81 -16.5t66.5 -45.5t45 -68t16.5 -83t-16.5 -83t-45 -68.5t-66.5 -47t-81 -17.5z" />
    <glyph glyph-name="paragraph" unicode="&#xb6;" horiz-adv-x="694" 
d="M647 1634v-1845h-82v1694h-49v-1694h-88v741q-25 -35 -68.5 -55t-99.5 -20q-91 0 -147 46t-68 136q-11 71 -14.5 173t-3.5 232q0 94 1 157.5t3 109t6 80t10 69.5q14 84 70 133t141 49q56 0 105 -18.5t69 -58.5l25 71h190zM432 1063v291q-2 49 -26.5 71.5t-55.5 22.5
q-42 0 -61 -22.5t-27 -82.5q-5 -37 -8 -78.5t-4.5 -81t-2.5 -75t-1 -59.5q0 -27 0.5 -71t2 -91.5t3.5 -92.5t6 -73q5 -40 28.5 -59t57.5 -19q38 0 60.5 25t25.5 71q1 12 1.5 44t0.5 76v97v107z" />
    <glyph glyph-name="germandbls" unicode="&#xdf;" horiz-adv-x="1018" 
d="M414 1468q-59 0 -81 -37.5t-22 -101.5v-1329h-200v956h-101v170h101v234q0 141 84 213t233 72q61 0 114 -18t92 -52t61 -83.5t22 -113.5q0 -47 -11 -85t-27.5 -72t-35.5 -66t-35.5 -66.5t-27.5 -73t-11 -85.5q0 -48 8.5 -76t25 -47.5t40 -35.5t53.5 -38q35 -26 62 -45.5
t59 -44.5q45 -34 78 -70t54.5 -78t32.5 -92.5t11 -113.5q0 -69 -20.5 -125t-59.5 -95.5t-95 -61t-128 -21.5q-143 0 -219.5 55t-85.5 158q-5 48 -4.5 87.5t0.5 73.5h201v-18.5v-31t0.5 -38t1.5 -39.5q2 -45 30 -68.5t74 -23.5q56 0 81.5 29t25.5 100q0 41 -7 72.5
t-21.5 57.5t-35 48t-47.5 44q-16 13 -28.5 22.5t-24.5 18.5t-24.5 18.5t-28.5 21.5q-47 36 -85 66t-64.5 66.5t-41 85t-14.5 122.5q0 50 10 91t25.5 76.5t33 66.5t33 61.5t25.5 61.5t10 67q0 29 -4.5 53t-15.5 41.5t-29.5 27t-46.5 9.5z" />
    <glyph glyph-name="registered" unicode="&#xae;" horiz-adv-x="938" 
d="M903 948q-2 -111 -31 -194t-84 -138.5t-134.5 -83.5t-180.5 -28q-204 0 -318.5 111.5t-117.5 332.5q0 22 -0.5 53t-0.5 68v78t1 82q1 108 33 186.5t89 128.5t136 74t174 24q94 0 173 -23t136 -73t90 -128t35 -189q1 -29 1 -62.5v-70.5t-0.5 -74.5t-0.5 -73.5zM817 981
v254q-3 163 -93.5 241t-254.5 78q-81 0 -145.5 -19.5t-109.5 -58.5t-69.5 -98.5t-25.5 -140.5q-1 -33 -1 -71v-73.5t0.5 -65t0.5 -46.5q1 -105 26 -179.5t70 -122t109 -69.5t145 -22q88 0 153.5 22t108.5 69t64 122t22 180zM700 733h-137l-94 252h-78v-252h-139v641h246
q30 0 53 -3t42.5 -10t35.5 -18.5t33 -29.5q24 -28 32 -64t8 -61q0 -12 -1.5 -29.5t-5 -35.5t-9.5 -34.5t-14 -27.5q-35 -44 -80 -53zM559 1180q0 21 -9 37t-28 24q-21 11 -53.5 10.5t-77.5 -0.5v-159q44 0 80 0.5t57 11.5q19 9 25 28t6 48z" />
    <glyph glyph-name="copyright" unicode="&#xa9;" horiz-adv-x="938" 
d="M903 948q-2 -111 -31 -194t-84 -138.5t-134.5 -83.5t-180.5 -28q-204 0 -318.5 111.5t-117.5 332.5q0 22 -0.5 53t-0.5 68v78t1 82q1 108 33 186.5t89 128.5t136 74t174 24q94 0 173 -23t136 -73t90 -128t35 -189q1 -29 1 -62.5v-70.5t-0.5 -74.5t-0.5 -73.5zM817 981
v254q-3 163 -93.5 241t-254.5 78q-81 0 -145.5 -19.5t-109.5 -58.5t-69.5 -98.5t-25.5 -140.5q-1 -33 -1 -71v-73.5t0.5 -65t0.5 -46.5q1 -105 25.5 -180t69.5 -122t109.5 -69t145.5 -22q89 0 154.5 21.5t108 68.5t63.5 121.5t22 181.5zM678 997q-1 -9 -1.5 -27.5t-0.5 -39
t-0.5 -38.5t-1.5 -26q-3 -36 -19 -64.5t-43 -48t-63.5 -30t-79.5 -10.5q-94 0 -145.5 40t-57.5 111q-2 24 -3 45t-1.5 42.5t-1 44.5t-0.5 51q0 27 0.5 56t1.5 55.5t2 47.5t2 33q4 39 22 68.5t46 49.5t65 30t78 10q48 0 84 -12.5t60.5 -34.5t37.5 -52.5t15 -66.5
q2 -20 3 -50.5t1 -62.5h-125q0 25 0.5 51t-2.5 41q-5 31 -23 45.5t-55 14.5t-58 -19.5t-24 -54.5q-1 -9 -1.5 -27t-0.5 -39v-42.5v-38.5q0 -15 0.5 -35.5t1 -40.5t1 -36.5t1.5 -23.5q3 -46 22.5 -64t59.5 -18q35 0 55 15.5t23 60.5q2 25 2 52v38h123z" />
    <glyph glyph-name="trademark" unicode="&#x2122;" horiz-adv-x="1157" 
d="M977 1061v373q0 29 -11.5 49t-43.5 20q-16 0 -28 -8.5t-20 -22.5t-12 -31t-4 -34v-346h-145v377q0 32 -12.5 48.5t-41.5 16.5q-32 0 -50.5 -32t-18.5 -78v-332h-146v575h144v-90q11 50 47.5 75.5t87.5 25.5q28 0 48.5 -8t35 -21.5t23.5 -31.5t14 -38q15 54 55 76.5
t86 22.5q41 0 68 -14t42.5 -36.5t22 -50t6.5 -55.5v-430h-147zM401 1499h-137v-248q0 -34 16.5 -48.5t45.5 -14.5h28.5t24.5 2v-127q-19 -3 -49.5 -4.5t-59.5 -1.5q-32 0 -59.5 7.5t-47.5 23.5t-32 40.5t-12 59.5v311h-113v137h395v-137z" />
    <glyph glyph-name="acute" unicode="&#xb4;" 
d="M201 1200l131 264h213l-158 -264h-186z" />
    <glyph glyph-name="dieresis" unicode="&#xa8;" 
d="M555 1198h-168v219h168v-219zM274 1198h-165v219h165v-219z" />
    <glyph glyph-name="AE" unicode="&#xc6;" horiz-adv-x="1049" 
d="M1036 1634v-204h-366v-506h331v-203h-331v-516h366v-205h-573v375h-184l-68 -375h-213l328 1634h710zM461 1409q-8 -55 -15 -100l-6 -38t-5.5 -34t-4 -25.5t-2.5 -13.5l-119 -631h152v842z" />
    <glyph glyph-name="Oslash" unicode="&#xd8;" horiz-adv-x="842" 
d="M680 1556q35 -35 58 -82.5t32 -109.5q11 -70 16.5 -137t8 -133t2.5 -132v-135q0 -74 -2 -150.5t-5.5 -149.5t-10 -140t-15.5 -121q-23 -138 -106 -210t-238 -72q-107 0 -178 32l-27 -94h-94l43 150q-66 66 -90 188q-9 47 -15 115.5t-9 145.5t-4 155.5t-1 144.5
q0 64 0.5 133t3 137.5t8 135t15.5 127.5q10 63 35 116.5t68 92t103.5 60.5t141.5 22q54 0 100 -9.5t84 -27.5l14 51h91zM274 457l265 921q-16 34 -43.5 50t-73.5 16q-66 0 -94 -34t-37 -93t-14.5 -126t-7.5 -134.5t-2.5 -130.5t-0.5 -113q0 -32 0.5 -75t1.5 -90t2.5 -96.5
t3.5 -94.5zM571 1176l-264 -928q16 -32 42.5 -49t74.5 -17q29 0 50.5 8.5t37.5 23t26 34.5t17 43q5 18 9 53.5t7 82t5 99.5t3.5 105.5t2 101.5t0.5 86q0 31 -0.5 74t-2 91t-3.5 97.5t-5 94.5z" />
    <glyph glyph-name="yen" unicode="&#xa5;" horiz-adv-x="846" 
d="M307 399h-260v144h260v78l-307 1013h223q54 -191 97 -349q18 -67 36 -133.5t32 -123t22.5 -96.5t9.5 -55q0 16 9 56.5t23.5 97t33 123t38.5 133.5q45 158 103 347h221l-326 -1007v-84h271v-144h-271v-59h271v-145h-271v-195h-215v195h-260v145h260v59z" />
    <glyph glyph-name="copyrightsound" unicode="&#x2117;" horiz-adv-x="938" 
d="M903 948q-2 -111 -31 -194t-84 -138.5t-134.5 -83.5t-180.5 -28q-204 0 -318.5 111.5t-117.5 332.5q0 22 -0.5 53t-0.5 68v78t1 82q1 108 33 186.5t89 128.5t136 74t174 24q94 0 173 -23t136 -73t90 -128t35 -189q1 -29 1 -62.5v-70.5t-0.5 -74.5t-0.5 -73.5zM817 981
v254q-3 163 -93.5 241t-254.5 78q-81 0 -145.5 -19.5t-109.5 -58.5t-69.5 -98.5t-25.5 -140.5q-1 -33 -1 -71v-73.5t0.5 -65t0.5 -46.5q1 -105 26 -179.5t70 -122t109 -69.5t145 -22q88 0 153.5 22t108.5 69t64 122t22 180zM403 958v-225h-139v641h248q60 0 95 -13.5
t57 -33.5q16 -14 27 -35t17.5 -43t9.5 -43t3 -35q0 -17 -1.5 -38t-6 -42t-11.5 -40.5t-18 -34.5q-10 -14 -25 -24.5t-33 -18t-37.5 -11.5t-37.5 -4h-148zM567 1100q6 9 8.5 26.5t2.5 34.5q0 14 -4.5 31.5t-10.5 30.5q-11 15 -25.5 21.5t-41.5 6.5h-93v-176h103q28 0 39 5.5
t22 19.5z" />
    <glyph glyph-name="ordfeminine" unicode="&#xaa;" horiz-adv-x="670" 
d="M618 569h-186q-2 18 -4 35q-2 14 -3 28t-1 21q-28 -45 -73.5 -68.5t-117.5 -23.5q-30 0 -65 9t-65.5 31t-52 58t-23.5 89q-1 10 -1 28.5v41t0.5 48t2.5 49.5q7 105 70.5 171t185.5 104q31 11 70 17t67 10q0 13 -0.5 33t-0.5 42t-0.5 44t-0.5 38q-2 47 -20 68.5t-56 21.5
t-62 -17t-30 -61q-2 -16 -3.5 -27t-2.5 -23.5t-1.5 -28.5t-0.5 -43h-185q0 31 1 55t3 45t5 42t8 46q7 41 27 75.5t53 59.5t79 39t105 14q73 0 124 -16t83 -45.5t46.5 -71t16.5 -92.5q1 -40 1 -89.5t-0.5 -101.5t-1 -101.5t-1.5 -88.5v-297q0 -25 0.5 -52t1.5 -50t3 -41
t5 -25zM637 358h-606v154h606v-154zM422 1067q-19 -2 -36.5 -4.5t-31.5 -5.5q-32 -3 -54.5 -14.5t-39.5 -26.5q-22 -20 -28.5 -47t-8.5 -62q-2 -21 -1 -46.5t1 -47.5q0 -48 20 -67t62 -19q37 0 62 20.5t36 63.5q16 54 19 143v113z" />
    <glyph glyph-name="ordmasculine" unicode="&#xba;" horiz-adv-x="672" 
d="M631 1108q0 -47 -2.5 -94.5t-6.5 -92t-9.5 -84.5t-12.5 -71q-10 -46 -31.5 -84t-55 -65t-79 -41.5t-102.5 -14.5q-62 0 -108.5 16t-79 43t-52.5 63.5t-29 78.5q-6 28 -11 68t-9 86t-6 95t-2 97q0 45 2.5 92.5t7 91.5t10.5 82.5t13 67.5q10 41 30.5 77t52.5 63t77 42.5
t106 15.5t108 -14.5t80 -41.5t53.5 -64.5t30.5 -83.5q6 -28 10.5 -65.5t7.5 -81t5 -90t2 -91.5zM647 348h-616v164h616v-164zM438 1104q0 39 -1 78.5t-2.5 75.5t-4 66.5t-6.5 51.5q-8 45 -30 64.5t-62 19.5q-71 0 -92 -84q-4 -23 -7 -53.5t-4.5 -66t-2.5 -74.5t-1 -78
q0 -40 1.5 -81.5t4 -79.5t6.5 -71.5t9 -58.5q8 -40 30.5 -58t57.5 -18t57.5 20t28.5 58q4 24 7.5 57.5t6 71.5t3.5 79.5t1 80.5z" />
    <glyph glyph-name="ae" unicode="&#xe6;" horiz-adv-x="1077" 
d="M246 -8q-41 0 -78.5 11t-67 35t-48 62t-21.5 93q-1 16 -1.5 39.5t-0.5 49.5t0.5 51.5t1.5 45.5q2 56 17 100.5t47.5 79.5t83.5 61t126 44q37 9 72 15t69 11q0 14 0.5 38t0.5 50.5v51.5t-1 40q-3 93 -94 93q-35 0 -61.5 -17.5t-34.5 -60.5q-6 -34 -7 -73t-1 -81h-185
q0 24 1 52.5t3 58t5 58t8 52.5q18 87 88 139t188 52q45 0 77.5 -5.5t56.5 -14.5t42 -21.5t33 -26.5q12 13 30.5 25t43.5 21t54.5 14.5t62.5 5.5q55 0 97.5 -12.5t73.5 -34t52 -51.5t33 -64q13 -38 21 -81.5t11.5 -101.5t4.5 -134.5t0 -178.5h-418q0 -24 1 -56t3.5 -65.5
t6.5 -67t9 -61.5q10 -43 36.5 -58t62.5 -15q32 0 59.5 14.5t36.5 46.5q5 18 8.5 38t5 37.5t2 31t0.5 20.5h182q0 -43 -4.5 -100.5t-31.5 -116.5q-32 -69 -93 -107t-165 -38q-91 0 -151.5 34t-82.5 93q-21 -38 -52 -61.5t-67 -37t-75 -18t-76 -4.5zM860 651q0 41 -1 79
t-3 69.5t-4.5 55.5t-5.5 36q-9 35 -34.5 53.5t-63.5 18.5q-36 0 -61.5 -15t-39.5 -55q-12 -35 -14 -99t-2 -143h229zM446 537q-18 -4 -37.5 -7.5t-37.5 -9.5q-26 -8 -54 -17t-53 -34q-23 -23 -30 -44.5t-11 -55.5q-2 -12 -2 -32v-40.5t1 -39.5t3 -30q5 -35 32.5 -54
t66.5 -19q38 0 68 20.5t44 61.5q10 42 8.5 90t1.5 104v107z" />
    <glyph glyph-name="oslash" unicode="&#xf8;" horiz-adv-x="700" 
d="M152 49q-31 26 -50 60.5t-30 76.5q-7 29 -13.5 72.5t-11 94.5t-7.5 105t-3 105t1.5 103.5t6 102t11.5 93.5t18 78q15 47 37.5 84t55.5 63t78 40t107 14q78 0 133 -23l19 58h76q-5 -12 -9 -27q-5 -13 -10 -30.5t-12 -37.5q32 -28 52.5 -63t31.5 -78q7 -28 12.5 -72.5
t9.5 -96.5t6.5 -106.5t2.5 -101.5t-2.5 -99.5t-7 -102.5t-11 -95t-14.5 -76q-25 -96 -94 -149t-185 -53q-77 0 -135 22q-5 -14 -9 -25.5t-6 -19.5q-4 -10 -5 -18h-76zM238 328l190 608q-23 29 -78 29q-84 0 -102 -93q-5 -22 -8.5 -60t-6.5 -81.5t-4.5 -88.5t-1.5 -81
q0 -25 0.5 -54.5t2 -60t3.5 -61t5 -57.5zM463 803l-8.5 -26t-22 -68.5t-30.5 -97.5t-35.5 -112.5t-35.5 -112.5t-30.5 -98.5t-22 -70t-8.5 -27.5q28 -32 80 -32q42 0 68.5 21.5t34.5 66.5q4 23 8 61t6.5 82t4 89t1.5 83q0 26 -0.5 57t-2 63t-3.5 63.5t-4 58.5z" />
    <glyph glyph-name="questiondown" unicode="&#xbf;" horiz-adv-x="690" 
d="M279 1634h208v-299h-208v299zM41 432q3 67 24 123.5t51 110t63 109t61 122.5t45 149.5t14 190.5h172q5 -124 -9 -215t-38 -160.5t-53.5 -123.5t-56 -104.5t-45 -102.5t-19.5 -117q0 -32 -1 -63t1 -56q2 -59 26.5 -90t81.5 -31q54 0 81 30t30 81q1 8 1.5 28t0.5 42v41.5
v27.5h193q0 -25 -1 -54.5t-2 -57t-2 -50.5t-2 -35q-11 -112 -90 -175.5t-223 -63.5q-146 0 -220 62.5t-85 187.5q-2 21 -2 47t0.5 52t1.5 51t2 44z" />
    <glyph glyph-name="exclamdown" unicode="&#xa1;" horiz-adv-x="377" 
d="M86 1636h207v-299h-207v299zM80 0l22 1237h174l21 -1237h-217z" />
    <glyph glyph-name="radical" unicode="&#x221a;" horiz-adv-x="903" 
d="M885 1636l-361 -1661h-295l-204 684h196l144 -499l303 1476h217z" />
    <glyph glyph-name="florin" unicode="&#x192;" horiz-adv-x="594" 
d="M303 -74q-5 -52 -21 -95.5t-45.5 -74.5t-72.5 -48t-101 -17q-25 0 -42.5 0.5t-30.5 1.5t-23 2l-20 2v180q18 -2 38.5 -2h39.5q35 0 55.5 25t23.5 59l4 43t10 112.5t14 158.5t17 182q20 217 46 495h-95v180h113l25 283q4 51 20.5 94t46.5 74t75 48.5t107 17.5
q26 0 43.5 -1t30.5 -2.5t23 -3t22 -2.5l-2 -180q-17 2 -39 4t-41 2q-43 -2 -65 -27t-25 -57l-22 -250h131v-180h-152q-25 -287 -44 -511q-8 -96 -16 -188t-14 -164t-10 -116t-4 -45z" />
    <glyph glyph-name="guillemotleft" unicode="&#xab;" horiz-adv-x="729" 
d="M696 254l-327 383v145l327 385v-237l-170 -219l170 -217v-240zM362 254l-327 383v145l327 385v-237l-167 -219l167 -217v-240z" />
    <glyph glyph-name="guillemotright" unicode="&#xbb;" horiz-adv-x="729" 
d="M371 262v242l168 217l-168 217v238l327 -383v-146zM37 262v242l168 217l-168 217v238l328 -383v-146z" />
    <glyph glyph-name="ellipsis" unicode="&#x2026;" horiz-adv-x="1200" 
d="M1116 0h-235v307h235v-307zM717 0h-236v307h236v-307zM317 0h-235v307h235v-307z" />
    <glyph glyph-name="nonbreakingspace" unicode="&#xa0;" horiz-adv-x="152" 
 />
    <glyph glyph-name="Agrave" unicode="&#xc0;" horiz-adv-x="797" 
d="M266 393l-53 -393h-213l268 1634h291l236 -1634h-215l-48 393h-266zM506 582q-21 150 -38 271q-7 52 -14 102t-12.5 91.5t-9 69.5t-4.5 35q-2 19 -5.5 61t-7.5 85q-4 50 -9 108q-4 -58 -8 -108q-4 -43 -7.5 -85t-5.5 -61q-1 -7 -5.5 -35t-11 -69.5t-15 -91.5t-16.5 -102
q-20 -121 -44 -271h213zM526 1702h-190l-158 264h215z" />
    <glyph glyph-name="Atilde" unicode="&#xc3;" horiz-adv-x="797" 
d="M266 393l-53 -393h-213l268 1634h291l236 -1634h-215l-48 393h-266zM506 582q-21 150 -38 271q-7 52 -14 102t-12.5 91.5t-9 69.5t-4.5 35q-2 19 -5.5 61t-7.5 85q-4 50 -9 108q-4 -58 -8 -108q-4 -43 -7.5 -85t-5.5 -61q-1 -7 -5.5 -35t-11 -69.5t-15 -91.5t-16.5 -102
q-20 -121 -44 -271h213zM399 1745q-23 23 -37.5 33t-37.5 10q-22 0 -37.5 -17t-18.5 -63l-129 8q3 51 15 92t32.5 70t48 45t62.5 16q38 0 67 -11.5t60 -43.5q9 -10 16.5 -18t14.5 -14t14.5 -9t17.5 -2q25 2 39 23t19 69l125 -8q-5 -109 -46 -167t-112 -58q-15 0 -28.5 1
t-26.5 5.5t-27 13.5t-31 25z" />
    <glyph glyph-name="Otilde" unicode="&#xd5;" horiz-adv-x="842" 
d="M420 1645q114 0 185.5 -39.5t113.5 -116.5q27 -51 42.5 -117.5t23.5 -149t10 -181.5t2 -214q0 -120 -3 -222.5t-11 -187t-23.5 -152.5t-40.5 -120q-40 -81 -111 -121t-188 -40t-187 39.5t-110 119.5q-26 51 -41 118.5t-23.5 152t-11 186t-2.5 221.5q0 115 2 215t10 184
t24 152t44 119q40 75 109.5 114.5t185.5 39.5zM422 180q43 0 71.5 15.5t45.5 52.5q13 31 21.5 79t12.5 117t5.5 162t1.5 213v208.5t-3.5 161t-12 118.5t-25.5 79q-17 31 -47 44.5t-70 13.5q-77 0 -111 -60q-18 -32 -27.5 -81t-14 -118.5t-5 -162t-0.5 -209.5
q0 -120 1.5 -212t6.5 -160.5t13.5 -115.5t23.5 -77q19 -37 46 -52.5t67 -15.5zM420 1745q-23 23 -38 33t-38 10q-22 0 -37 -17t-18 -63l-129 8q3 51 15 92t32 70t47.5 45t62.5 16q39 0 67.5 -11.5t59.5 -43.5q19 -20 31.5 -32.5t32.5 -10.5q25 2 38.5 23t18.5 69l125 -8
q-5 -109 -45.5 -167t-112.5 -58q-15 0 -28 1t-26 5.5t-27 13.5t-31 25z" />
    <glyph glyph-name="OE" unicode="&#x152;" horiz-adv-x="1180" 
d="M633 1634h530v-204h-393v-506h360v-203h-360v-516h393v-205h-532q1 23 1 38v20.5t-1 -1.5q-25 -28 -82.5 -50.5t-134.5 -22.5q-293 0 -344 292q-3 16 -6 51t-5.5 82t-5 101.5t-4.5 109.5t-3 107t-1 94q0 41 0.5 92.5t1.5 105t2.5 106t3.5 97t4.5 78t5.5 48.5
q13 70 40 125t69.5 93t102 58.5t137.5 20.5q72 0 131 -18t90 -52v59zM424 174q61 0 91 30.5t38 74.5q1 14 2 49.5t1.5 84.5t1 105.5t1 112t0.5 105v83.5v75.5v97v105.5t-0.5 100.5t-1 81t-2.5 48.5q-8 63 -38 94t-93 31q-35 0 -58 -9.5t-39 -27t-25 -43t-15 -57.5
q-4 -17 -7 -52t-5 -80t-4 -96.5t-3 -101.5t-1.5 -95t-0.5 -77v-77.5t1 -96.5t2 -103.5t3.5 -98.5t5.5 -82t7 -54q14 -60 45 -93.5t94 -33.5z" />
    <glyph glyph-name="oe" unicode="&#x153;" horiz-adv-x="1100" 
d="M782 1141q55 0 97.5 -12.5t74 -34t52 -51.5t32.5 -64q13 -38 21 -81.5t11.5 -101.5t4.5 -134.5t0 -178.5h-418q0 -24 1.5 -55.5t4 -65t6.5 -66.5t9 -60q9 -44 36 -60t62 -16q32 0 59.5 14.5t36.5 46.5q6 18 9 38t5 37.5t2.5 31t0.5 20.5h182q0 -21 -0.5 -47t-4 -54
t-11 -57.5t-21.5 -58.5q-32 -69 -93 -107t-165 -38q-84 0 -137.5 31.5t-79.5 74.5q-12 -20 -30 -38.5t-43 -33t-58.5 -23.5t-77.5 -9q-62 0 -109.5 14.5t-81.5 40.5t-55.5 62.5t-31.5 80.5q-7 29 -13.5 72.5t-11 94.5t-7.5 105t-3 105t1.5 103.5t6 102t11.5 93.5t18 78
q15 47 37.5 84t55.5 63t78 40t107 14q48 0 82 -10.5t59 -27t42 -37t30 -40.5q8 18 26 38.5t45.5 37.5t64 28t81.5 11zM887 651q0 41 -1 79t-3 69.5t-5 55.5t-6 36q-9 35 -34.5 53.5t-63.5 18.5q-35 0 -60.5 -15t-39.5 -55q-13 -35 -15 -99t-2 -143h230zM469 561q0 37 -1 82
t-2.5 88.5t-4 80.5t-6.5 58q-10 48 -35 68t-70 20q-84 0 -102 -92q-5 -22 -8 -59t-5 -79.5t-3 -86.5t-1 -80q0 -38 1 -82.5t3 -87.5t5 -80.5t8 -60.5q8 -45 35 -65.5t67 -20.5q42 0 68.5 21.5t34.5 66.5q4 23 7.5 60t5 80t2.5 87t1 82z" />
    <glyph glyph-name="endash" unicode="&#x2013;" horiz-adv-x="580" 
d="M553 625h-526v192h526v-192z" />
    <glyph glyph-name="emdash" unicode="&#x2014;" horiz-adv-x="948" 
d="M848 625h-748v192h748v-192z" />
    <glyph glyph-name="quotedblleft" unicode="&#x201c;" horiz-adv-x="594" 
d="M547 1438v-283h-217v295l139 192l98 -57l-69 -139l2 -8h47zM270 1438v-283h-219v295l139 192l97 -57l-70 -139l2 -8h51z" />
    <glyph glyph-name="quotedblright" unicode="&#x201d;" horiz-adv-x="594" 
d="M332 1354v280h219v-295l-141 -192l-97 57l70 142l-4 8h-47zM51 1354v280h219v-295l-141 -192l-94 57l69 142l-4 8h-49z" />
    <glyph glyph-name="quoteleft" unicode="&#x2018;" horiz-adv-x="311" 
d="M270 1440v-285h-223v297l139 190l99 -57l-68 -135l2 -10h51z" />
    <glyph glyph-name="quoteright" unicode="&#x2019;" horiz-adv-x="311" 
d="M45 1350v284h225v-299l-141 -188l-98 57l69 137l-4 9h-51z" />
    <glyph glyph-name="ydieresis" unicode="&#xff;" horiz-adv-x="690" 
d="M686 1126l-330 -1460h-198l90 375l-246 1085h201q37 -169 68 -317q13 -63 26 -128t24 -123.5t18.5 -106.5t10.5 -78q2 29 9 77t17 106.5t22 123.5t25 128q29 149 66 318h197zM571 1198h-168v219h168v-219zM291 1198h-166v219h166v-219z" />
    <glyph glyph-name="Ydieresis" unicode="&#x178;" horiz-adv-x="838" 
d="M838 1634l-318 -1032v-602h-219v596l-301 1038h225q53 -198 95 -360q18 -69 35 -137.5t30.5 -125.5t22 -97.5t8.5 -53.5q0 14 9 54.5t23.5 97.5t33 125.5t38.5 137.5q45 162 103 359h215zM647 1700h-168v219h168v-219zM367 1700h-166v219h166v-219z" />
    <glyph glyph-name="fraction" unicode="&#x2044;" horiz-adv-x="231" 
d="M403 1632q-46 -167 -90 -323q-19 -66 -39 -136.5t-39 -137t-37 -126.5t-32 -106q-13 -43 -30 -100t-35 -121.5t-37 -133t-37 -132.5q-42 -151 -86 -316h-115q48 175 94 339q19 69 40 143t41 144t38 132.5t33 109.5q12 42 28 97t34 116.5t36 126.5t35 126q40 143 82 298
h116z" />
    <glyph glyph-name="fraction" unicode="&#x2215;" horiz-adv-x="231" 
d="M403 1632q-46 -167 -90 -323q-19 -66 -39 -136.5t-39 -137t-37 -126.5t-32 -106q-13 -43 -30 -100t-35 -121.5t-37 -133t-37 -132.5q-42 -151 -86 -316h-115q48 175 94 339q19 69 40 143t41 144t38 132.5t33 109.5q12 42 28 97t34 116.5t36 126.5t35 126q40 143 82 298
h116z" />
    <glyph glyph-name="Euro" unicode="&#x20ac;" horiz-adv-x="799" 
d="M301 844v-25v-35h223v-145h-221q1 -44 2 -89t2.5 -88t2.5 -82.5t3 -72.5q3 -62 33 -98.5t84 -36.5q59 0 86 36.5t33 98.5q2 25 3 77.5t3 117.5h203q-3 -57 -4 -109t-6 -90q-19 -161 -96 -239t-222 -78q-149 0 -222.5 78t-92.5 239q-3 25 -6 62.5t-5.5 82t-4.5 94t-3 97.5
h-78v145h76v35v25h-76v143h76q1 51 2 101.5t3 98t5 90t7 77.5q7 61 27 114t57.5 93t95 63t139.5 23q79 0 136.5 -23t96 -63t59 -93t26.5 -114q6 -65 7 -127.5t3 -122.5h-203q-3 108 -6 207q-3 65 -32.5 102t-88.5 37q-60 0 -88 -39.5t-31 -101.5q-3 -72 -4.5 -156.5
t-3.5 -165.5h223v-143h-223z" />
    <glyph glyph-name="guilsinglleft" unicode="&#x2039;" horiz-adv-x="375" 
d="M352 262l-327 385v146l327 383v-238l-178 -217l178 -217v-242z" />
    <glyph glyph-name="guilsinglright" unicode="&#x203a;" horiz-adv-x="375" 
d="M25 262v242l178 217l-178 217v238l327 -383v-146z" />
    <glyph glyph-name="daggerdbl" unicode="&#x2021;" horiz-adv-x="481" 
d="M340 727h109v-164h-109v-579l-98 -189l-99 189v579h-110v164h112v236h-112v167h110v494h199v-208v-84.5t-0.5 -81t-1 -70t-0.5 -50.5h109v-167h-109v-236z" />
    <glyph glyph-name="periodcentered" unicode="&#xb7;" horiz-adv-x="399" 
d="M319 651h-239v307h239v-307z" />
    <glyph glyph-name="periodcentered" unicode="&#x2219;" horiz-adv-x="399" 
d="M319 651h-239v307h239v-307z" />
    <glyph glyph-name="quotesinglbase" unicode="&#x201a;" horiz-adv-x="311" 
d="M45 0v285h225v-299l-141 -189l-98 58l69 137l-4 8h-51z" />
    <glyph glyph-name="quotedblbase" unicode="&#x201e;" horiz-adv-x="594" 
d="M332 0v281h219v-295l-141 -193l-97 57l70 142l-4 8h-47zM51 0v281h219v-295l-141 -193l-94 57l69 142l-4 8h-49z" />
    <glyph glyph-name="perthousand" unicode="&#x2030;" horiz-adv-x="1675" 
d="M537 1104q0 -134 -63.5 -210.5t-188.5 -76.5q-64 0 -110 20.5t-76 58.5t-44 90.5t-14 117.5v264q0 61 14.5 113t44.5 90t77 60t112 22q69 0 116.5 -23.5t76.5 -63t42 -91t13 -107.5v-264zM920 1579l-613 -1579h-117l615 1579h115zM1642 270q0 -134 -61.5 -209t-191.5 -75
q-64 0 -110 20t-76 57.5t-44 89.5t-14 117v265q0 59 14.5 111t45 91t78 61.5t112.5 22.5q68 0 115 -24t76.5 -64t42.5 -91.5t13 -106.5v-265zM1092 270q0 -134 -62 -209t-192 -75q-63 0 -109 20t-76 57.5t-44.5 89.5t-14.5 117v265q0 59 15 111t45.5 91t77.5 61.5t112 22.5
q68 0 115.5 -24t77 -64t42.5 -91.5t13 -106.5v-265zM385 1120v246q0 56 -25.5 88.5t-70.5 32.5q-47 0 -73 -31t-26 -90v-244q0 -72 26 -106.5t73 -34.5q96 0 96 139zM1491 289v243q0 54 -25 88.5t-71 34.5q-51 0 -75 -33.5t-24 -89.5v-243q0 -69 24.5 -105.5t74.5 -36.5
q51 0 73.5 35t22.5 107zM940 289v243q0 54 -25 88.5t-71 34.5q-51 0 -75 -33.5t-24 -89.5v-243q0 -69 24.5 -105.5t74.5 -36.5q51 0 73.5 35t22.5 107z" />
    <glyph glyph-name="Acircumflex" unicode="&#xc2;" horiz-adv-x="797" 
d="M266 393l-53 -393h-213l268 1634h291l236 -1634h-215l-48 393h-266zM506 582q-21 150 -38 271q-7 52 -14 102t-12.5 91.5t-9 69.5t-4.5 35q-2 19 -5.5 61t-7.5 85q-4 50 -9 108q-4 -58 -8 -108q-4 -43 -7.5 -85t-5.5 -61q-1 -7 -5.5 -35t-11 -69.5t-15 -91.5t-16.5 -102
q-20 -121 -44 -271h213zM659 1702h-165l-82 147l-82 -147h-164l141 268h213z" />
    <glyph glyph-name="Ecircumflex" unicode="&#xca;" horiz-adv-x="709" 
d="M686 0h-612v1634h608v-204h-397v-506h366v-203h-366v-516h401v-205zM631 1702h-166l-82 147l-82 -147h-164l142 268h213z" />
    <glyph glyph-name="Aacute" unicode="&#xc1;" horiz-adv-x="797" 
d="M266 393l-53 -393h-213l268 1634h291l236 -1634h-215l-48 393h-266zM506 582q-21 150 -38 271q-7 52 -14 102t-12.5 91.5t-9 69.5t-4.5 35q-2 19 -5.5 61t-7.5 85q-4 50 -9 108q-4 -58 -8 -108q-4 -43 -7.5 -85t-5.5 -61q-1 -7 -5.5 -35t-11 -69.5t-15 -91.5t-16.5 -102
q-20 -121 -44 -271h213zM309 1702l131 264h213l-157 -264h-187z" />
    <glyph glyph-name="Edieresis" unicode="&#xcb;" horiz-adv-x="709" 
d="M686 0h-612v1634h608v-204h-397v-506h366v-203h-366v-516h401v-205zM612 1700h-168v219h168v-219zM332 1700h-166v219h166v-219z" />
    <glyph glyph-name="Egrave" unicode="&#xc8;" horiz-adv-x="709" 
d="M686 0h-612v1634h608v-204h-397v-506h366v-203h-366v-516h401v-205zM526 1702h-190l-158 264h215z" />
    <glyph glyph-name="Iacute" unicode="&#xcd;" horiz-adv-x="367" 
d="M295 0h-221v1634h221v-1634zM84 1702l131 264h213l-158 -264h-186z" />
    <glyph glyph-name="Icircumflex" unicode="&#xce;" horiz-adv-x="367" 
d="M295 0h-221v1634h221v-1634zM430 1702h-166l-82 147l-82 -147h-163l141 268h213z" />
    <glyph glyph-name="Idieresis" unicode="&#xcf;" horiz-adv-x="367" 
d="M295 0h-221v1634h221v-1634zM408 1702h-168v219h168v-219zM127 1702h-166v219h166v-219z" />
    <glyph glyph-name="Igrave" unicode="&#xcc;" horiz-adv-x="367" 
d="M295 0h-221v1634h221v-1634zM295 1702h-191l-157 264h215z" />
    <glyph glyph-name="Oacute" unicode="&#xd3;" horiz-adv-x="842" 
d="M420 1645q114 0 185.5 -39.5t113.5 -116.5q27 -51 42.5 -117.5t23.5 -149t10 -181.5t2 -214q0 -120 -3 -222.5t-11 -187t-23.5 -152.5t-40.5 -120q-40 -81 -111 -121t-188 -40t-187 39.5t-110 119.5q-26 51 -41 118.5t-23.5 152t-11 186t-2.5 221.5q0 115 2 215t10 184
t24 152t44 119q40 75 109.5 114.5t185.5 39.5zM422 180q43 0 71.5 15.5t45.5 52.5q13 31 21.5 79t12.5 117t5.5 162t1.5 213v208.5t-3.5 161t-12 118.5t-25.5 79q-17 31 -47 44.5t-70 13.5q-77 0 -111 -60q-18 -32 -27.5 -81t-14 -118.5t-5 -162t-0.5 -209.5
q0 -120 1.5 -212t6.5 -160.5t13.5 -115.5t23.5 -77q19 -37 46 -52.5t67 -15.5zM324 1702l131 264h213l-158 -264h-186z" />
    <glyph glyph-name="Ocircumflex" unicode="&#xd4;" horiz-adv-x="842" 
d="M420 1645q114 0 185.5 -39.5t113.5 -116.5q27 -51 42.5 -117.5t23.5 -149t10 -181.5t2 -214q0 -120 -3 -222.5t-11 -187t-23.5 -152.5t-40.5 -120q-40 -81 -111 -121t-188 -40t-187 39.5t-110 119.5q-26 51 -41 118.5t-23.5 152t-11 186t-2.5 221.5q0 115 2 215t10 184
t24 152t44 119q40 75 109.5 114.5t185.5 39.5zM422 180q43 0 71.5 15.5t45.5 52.5q13 31 21.5 79t12.5 117t5.5 162t1.5 213v208.5t-3.5 161t-12 118.5t-25.5 79q-17 31 -47 44.5t-70 13.5q-77 0 -111 -60q-18 -32 -27.5 -81t-14 -118.5t-5 -162t-0.5 -209.5
q0 -120 1.5 -212t6.5 -160.5t13.5 -115.5t23.5 -77q19 -37 46 -52.5t67 -15.5zM672 1702h-166l-82 147l-82 -147h-164l141 268h213z" />
    <glyph glyph-name="apple" unicode="&#xf8ff;" horiz-adv-x="725" 
d="M197 664q-11 3 -19 13t-10 21q-37 55 -37 125q0 69 37 121q2 13 10 24.5t21 16.5q26 26 59.5 42.5t71.5 23.5v409h-320v168h705v-168h-324l2 -409q35 -5 67 -21t58 -41q14 -2 24.5 -15.5t12.5 -27.5q15 -28 25 -58.5t10 -64.5t-9 -66t-28 -57q-3 -11 -10 -20t-17 -14
q-26 -28 -60.5 -45.5t-74.5 -22.5l-2 -401h326v-187h-705v187h318v401q-79 12 -131 66zM207 737q18 5 43 12t45 13q-12 -16 -27 -34t-26 -34q17 -15 39 -26.5t47 -16.5v97l30 67l31 -67v-97q25 5 48.5 16.5t41.5 26.5q-12 16 -26.5 34t-26.5 34q20 -6 44 -13t44 -12
q11 20 17 41.5t6 44.5q0 25 -7.5 47.5t-19.5 42.5q-19 -5 -42 -10.5t-42 -11.5q12 15 25.5 31.5t25.5 31.5q-17 16 -39 27t-47 16v-96l-33 -70l-28 70v96q-51 -9 -88 -45q12 -15 26.5 -32.5t26.5 -32.5q-20 6 -44 12.5t-44 9.5q-11 -18 -17 -40.5t-6 -45.5t6 -44.5t17 -41.5
z" />
    <glyph glyph-name="Ograve" unicode="&#xd2;" horiz-adv-x="842" 
d="M420 1645q114 0 185.5 -39.5t113.5 -116.5q27 -51 42.5 -117.5t23.5 -149t10 -181.5t2 -214q0 -120 -3 -222.5t-11 -187t-23.5 -152.5t-40.5 -120q-40 -81 -111 -121t-188 -40t-187 39.5t-110 119.5q-26 51 -41 118.5t-23.5 152t-11 186t-2.5 221.5q0 115 2 215t10 184
t24 152t44 119q40 75 109.5 114.5t185.5 39.5zM422 180q43 0 71.5 15.5t45.5 52.5q13 31 21.5 79t12.5 117t5.5 162t1.5 213v208.5t-3.5 161t-12 118.5t-25.5 79q-17 31 -47 44.5t-70 13.5q-77 0 -111 -60q-18 -32 -27.5 -81t-14 -118.5t-5 -162t-0.5 -209.5
q0 -120 1.5 -212t6.5 -160.5t13.5 -115.5t23.5 -77q19 -37 46 -52.5t67 -15.5zM545 1702h-191l-157 264h215z" />
    <glyph glyph-name="Uacute" unicode="&#xda;" horiz-adv-x="827" 
d="M762 309q0 -77 -24 -137t-68.5 -101.5t-108.5 -63t-145 -21.5q-78 0 -143.5 20t-112.5 60.5t-73 101.5t-26 143v1323h213v-1294q0 -81 35.5 -118.5t104.5 -37.5q65 0 99 39.5t34 114.5v1296h215v-1325zM303 1702l131 264h213l-158 -264h-186z" />
    <glyph glyph-name="Ucircumflex" unicode="&#xdb;" horiz-adv-x="827" 
d="M762 309q0 -77 -24 -137t-68.5 -101.5t-108.5 -63t-145 -21.5q-78 0 -143.5 20t-112.5 60.5t-73 101.5t-26 143v1323h213v-1294q0 -81 35.5 -118.5t104.5 -37.5q65 0 99 39.5t34 114.5v1296h215v-1325zM653 1704h-166l-81 147l-82 -147h-164l141 268h213z" />
    <glyph glyph-name="Ugrave" unicode="&#xd9;" horiz-adv-x="827" 
d="M762 309q0 -77 -24 -137t-68.5 -101.5t-108.5 -63t-145 -21.5q-78 0 -143.5 20t-112.5 60.5t-73 101.5t-26 143v1323h213v-1294q0 -81 35.5 -118.5t104.5 -37.5q65 0 99 39.5t34 114.5v1296h215v-1325zM537 1704h-191l-158 264h215z" />
    <glyph glyph-name="dotlessi" unicode="&#x131;" horiz-adv-x="324" 
d="M268 0h-196q-5 2 -8 26t-3 56v1044h201v-1036q0 -34 3 -61t3 -29z" />
    <glyph glyph-name="circumflex" unicode="&#x2c6;" 
d="M578 1200h-166l-82 148l-82 -148h-164l141 268h213z" />
    <glyph glyph-name="tilde" unicode="&#x2dc;" 
d="M324 1243q-23 23 -38 33t-38 10q-22 0 -37 -16.5t-18 -63.5l-130 8q7 102 48 163t110 61q38 0 67 -12t60 -44q19 -20 31.5 -32.5t32.5 -10.5q24 2 38 23.5t19 69.5l125 -9q-5 -109 -46 -167t-112 -58q-15 0 -28.5 1t-26 5.5t-26.5 13.5t-31 25z" />
    <glyph glyph-name="macron" unicode="&#xaf;" 
d="M561 1225h-461v135h461v-135z" />
    <glyph glyph-name="macron" unicode="&#x304;" 
d="M561 1225h-461v135h461v-135z" />
    <glyph glyph-name="breve" unicode="&#x2d8;" 
d="M584 1423q0 -50 -16.5 -92t-48.5 -72.5t-79 -47.5t-108 -17q-60 0 -107 16.5t-80 46.5t-50 72.5t-17 93.5h160q0 -42 22 -70t70 -28q51 0 72.5 27.5t21.5 70.5h160z" />
    <glyph glyph-name="dotaccent" unicode="&#x2d9;" 
d="M418 1200h-172v221h172v-221z" />
    <glyph glyph-name="ring" unicode="&#x2da;" 
d="M330 1530q35 0 66 -13t53.5 -36t35.5 -54t13 -67q0 -35 -13 -65.5t-35.5 -53t-53.5 -36t-66 -13.5t-65 13.5t-52.5 36t-35.5 53t-13 65.5q0 36 13 67t35.5 54t52.5 36t65 13zM330 1432q-26 0 -45 -21.5t-19 -50.5q0 -26 19 -47t45 -21q28 0 47.5 21t19.5 47
q0 29 -19.5 50.5t-47.5 21.5z" />
    <glyph glyph-name="cedilla" unicode="&#xb8;" 
d="M381 -197q0 19 -10.5 34t-24.5 27.5t-29 24t-24 23.5q-22 28 -28.5 48t-4.5 40h131q0 -15 3 -29.5t22 -36.5q14 -12 36 -23.5t43 -28.5t36.5 -42t15.5 -65q0 -42 -22 -76.5t-66 -55t-109 -25.5t-151 11v107q86 -14 134 2.5t48 64.5z" />
    <glyph glyph-name="hungarumlaut" unicode="&#x2dd;" 
d="M348 1200l88 264h180l-116 -264h-152zM119 1200l90 264h180l-119 -264h-151z" />
    <glyph glyph-name="ogonek" unicode="&#x2db;" horiz-adv-x="711" 
d="M334 -174q0 -32 26 -60t80 -40v-97q-68 11 -116 30t-78 44.5t-44 56t-14 64.5q0 63 49 111t156 65l33 -61q-48 -19 -70 -49t-22 -64z" />
    <glyph glyph-name="caron" unicode="&#x2c7;" 
d="M82 1475h166l82 -150l82 150h163l-137 -269h-215z" />
    <glyph glyph-name="notequal" unicode="&#x2260;" horiz-adv-x="1536" 
d="M212 976v200h688l96 180h172l-96 -180h256v-200h-362l-198 -372h560v-200h-666l-114 -216h-176l115 216h-275v200h382l199 372h-581z" />
    <glyph glyph-name="infinity" unicode="&#x221e;" horiz-adv-x="1536" 
d="M1072 396q-148 0 -232 86q-41 42 -73 109q-33 -53 -79 -95q-108 -100 -248 -100q-156 0 -250 112t-94 300q0 176 112 292t260 116t238 -82q41 -38 75 -104q34 60 79 100q96 86 240 86q148 0 246 -104t98 -292q0 -180 -104 -302t-268 -122zM614 986q-58 62 -142 62
q-96 0 -156 -66t-60 -190t46 -182t146 -58q92 0 160 72q55 59 92 182q-36 126 -86 180zM920 608q64 -52 152 -52q84 0 146 70t62 190q0 100 -46 172t-154 72t-160 -92q-41 -73 -70 -165q13 -149 70 -195z" />
    <glyph glyph-name="plusminus" unicode="&#xb1;" horiz-adv-x="1536" 
d="M672 352v412h-472v172h472v416h192v-416h476v-172h-476v-412h-192zM204 24v192h1132v-192h-1132z" />
    <glyph glyph-name="lessequal" unicode="&#x2264;" horiz-adv-x="1536" 
d="M1348 236l-1140 472v164l1140 472v-216l-900 -336l900 -340v-216zM212 24v192h1136v-192h-1136z" />
    <glyph glyph-name="greaterequal" unicode="&#x2265;" horiz-adv-x="1536" 
d="M212 236v216l900 340l-900 336v216l1140 -472v-164zM212 24v192h1136v-192h-1136z" />
    <glyph glyph-name="mu" unicode="&#xb5;" horiz-adv-x="1408" 
d="M252 -424q-56 0 -84 32t-28 112t4 174t12 206q8 100 12 156t4 72q4 20 4 28v12v808h192v-856q0 -92 82 -144t178 -52q132 0 230 66t150 190v796h192v-868l20 -308h-164l-36 176q-68 -108 -184 -162t-264 -54q-52 0 -128 26t-120 74q0 -88 28 -172t28 -152
q0 -160 -128 -160z" />
    <glyph glyph-name="mu" unicode="&#x3bc;" horiz-adv-x="1408" 
d="M252 -424q-56 0 -84 32t-28 112t4 174t12 206q8 100 12 156t4 72q4 20 4 28v12v808h192v-856q0 -92 82 -144t178 -52q132 0 230 66t150 190v796h192v-868l20 -308h-164l-36 176q-68 -108 -184 -162t-264 -54q-52 0 -128 26t-120 74q0 -88 28 -172t28 -152
q0 -160 -128 -160z" />
    <glyph glyph-name="partialdiff" unicode="&#x2202;" horiz-adv-x="1280" 
d="M476 -32q-200 0 -310 112t-110 280q0 220 158 390t390 170q96 0 198 -34t162 -70q12 84 12 168q0 188 -68 294t-188 106q-128 0 -202 -28t-150 -76l-44 164q76 44 168 74t228 30q236 0 344 -154t108 -426q0 -416 -204 -708t-492 -292zM488 128q172 0 286 140t170 416
q-32 32 -120 64t-176 32q-192 0 -288 -126t-96 -282q0 -108 54 -176t170 -68z" />
    <glyph glyph-name="summation" unicode="&#x2211;" horiz-adv-x="1152" 
d="M1084 1524v-180h-752l464 -560l-492 -596h776v-188h-1040v172l520 616l-492 592v144h1016z" />
    <glyph glyph-name="product" unicode="&#x220f;" horiz-adv-x="1536" 
d="M332 0v1348h-252v176h1376v-176h-244v-1348h-208v1356h-464v-1356h-208z" />
    <glyph glyph-name="pi" unicode="&#x3c0;" horiz-adv-x="1408" 
d="M296 0v1028h-284v148h1304v-148h-320v-684q0 -116 46 -160t110 -44q48 0 80 2t64 14v-128q-48 -24 -90 -34t-118 -10q-128 0 -202 80t-74 272v692h-328v-1028h-188z" />
    <glyph glyph-name="integral" unicode="&#x222b;" horiz-adv-x="1152" 
d="M-8 -392l64 132q24 -8 48 -14t60 -6q48 0 78 34t46 134l228 1336q28 160 120 240t244 80q92 0 162 -22t110 -46l-64 -172q-44 28 -100 52t-120 24q-92 0 -138 -58t-58 -134l-224 -1412q-20 -108 -98 -158t-174 -50q-60 0 -110 12t-74 28z" />
    <glyph glyph-name="Omega" unicode="&#x3a9;" horiz-adv-x="1664" 
d="M832 1376q-188 0 -322 -142t-134 -398q0 -244 88 -404t260 -252v-180h-636v196h448q-120 44 -232 210t-112 442q0 264 166 482t474 218t474 -210t166 -490q0 -276 -112 -442t-232 -210h448v-196h-636v180q172 92 260 252t88 404q0 208 -126 374t-330 166z" />
    <glyph glyph-name="Omega" unicode="&#x2126;" horiz-adv-x="1664" 
d="M832 1376q-188 0 -322 -142t-134 -398q0 -244 88 -404t260 -252v-180h-636v196h448q-120 44 -232 210t-112 442q0 264 166 482t474 218t474 -210t166 -490q0 -276 -112 -442t-232 -210h448v-196h-636v180q172 92 260 252t88 404q0 208 -126 374t-330 166z" />
    <glyph glyph-name="logicalnot" unicode="&#xac;" horiz-adv-x="1536" 
d="M1116 352v376h-904v192h1084v-568h-180z" />
    <glyph glyph-name="approxequal" unicode="&#x2248;" horiz-adv-x="1536" 
d="M236 400q-8 44 -8 80q0 100 60 172t188 72q100 0 174 -28t138 -54t124 -44t108 -18q76 0 108 30t32 74q0 16 -4 32h144q8 -44 8 -80q0 -100 -60 -172t-188 -72q-100 0 -174 26t-138 52t-124 42t-108 16q-76 0 -108 -28t-32 -68q0 -16 4 -32h-144zM236 860q-8 44 -8 80
q0 100 60 172t188 72q100 0 174 -28t138 -54t124 -44t108 -18q76 0 108 30t32 74q0 16 -4 32h144q8 -44 8 -80q0 -100 -60 -172t-188 -72q-100 0 -174 26t-138 52t-124 42t-108 16q-76 0 -108 -28t-32 -68q0 -16 4 -32h-144z" />
    <glyph glyph-name="Delta" unicode="&#x394;" horiz-adv-x="1536" 
d="M76 0l576 1536h232l572 -1536h-1380zM352 148h812l-412 1108z" />
    <glyph glyph-name="Delta" unicode="&#x2206;" horiz-adv-x="1536" 
d="M76 0l576 1536h232l572 -1536h-1380zM352 148h812l-412 1108z" />
    <glyph glyph-name="divide" unicode="&#xf7;" horiz-adv-x="1536" 
d="M208 684v212h1120v-212h-1120zM768 228q-64 0 -112 48t-48 112t42 112t118 48q72 0 116 -48t44 -112t-48 -112t-112 -48zM768 1028q-64 0 -112 48t-48 112t42 112t118 48q72 0 116 -48t44 -112t-48 -112t-112 -48z" />
    <glyph glyph-name="lozenge" unicode="&#x25ca;" horiz-adv-x="1152" 
d="M472 -48l-404 804l404 804h184l428 -804l-428 -804h-184zM556 152l320 616l-304 588l-320 -616z" />
    <glyph glyph-name="currency" unicode="&#xa4;" horiz-adv-x="1152" 
d="M1056 392l-116 -108l-200 216q-72 -48 -168 -48q-92 0 -164 48l-200 -216l-116 108l208 216q-28 40 -38 78t-10 94q0 48 10 90t38 82l-208 216l116 108l200 -216q72 48 164 48q96 0 168 -48l204 216l116 -120l-208 -204q28 -40 38 -80t10 -92q0 -96 -52 -172zM748 780
q0 80 -50 130t-126 50t-124 -50t-48 -130t50 -128t122 -48q80 0 128 48t48 128z" />
    <glyph glyph-name="Eth" unicode="&#xd0;" horiz-adv-x="819" 
d="M76 715h-58v209h58v710h352q120 0 191.5 -41t103.5 -120q12 -22 20.5 -61.5t14.5 -91t10 -111t6 -121t3 -122.5t1 -114q0 -66 -0.5 -135.5t-2.5 -138t-5.5 -132t-9.5 -118t-14.5 -97t-20.5 -67.5q-15 -35 -36.5 -64.5t-53 -52t-75 -35t-103.5 -12.5h-381v715zM291 924
h131v-209h-131v-539h147q45 0 75.5 20t41.5 68q4 17 7 61.5t5 102t3 123t2 125t1 106.5v70q0 22 -0.5 62.5t-1.5 89t-3 100.5t-4.5 97.5t-5.5 80.5t-7 49q-11 60 -43.5 87.5t-83.5 27.5h-133v-522z" />
    <glyph glyph-name="eth" unicode="&#xf0;" horiz-adv-x="723" 
d="M475 1165q-30 -12 -57 -12q-51 0 -90 33.5t-56 99.5l78 31q8 -35 24 -54.5t44 -19.5q27 0 53 19q-2 31 -3 54t-3 34q-6 69 -31.5 105t-79.5 36q-51 0 -71 -19.5t-25 -64.5q-2 -9 -2 -23v-22h-195q0 5 1 15t2 22.5t2.5 25.5t3.5 25q6 38 25.5 73.5t54 63t85.5 44t119 16.5
t119 -18.5t86.5 -51.5t56.5 -78.5t29 -99.5q5 -16 6 -31.5t4 -34.5q17 10 29.5 12.5t28.5 2.5q57 0 92.5 -36t50.5 -93l-74 -39q-6 32 -22 54.5t-45 22.5q-17 0 -26.5 -5t-20.5 -13q2 -35 5 -77.5t5.5 -87t4 -88.5t1.5 -83q0 -37 -0.5 -91.5t-1.5 -118t-3 -131t-5.5 -130
t-9 -115.5t-13.5 -86q-13 -60 -35.5 -105.5t-57.5 -76.5t-84.5 -47t-117.5 -16q-126 0 -196 49.5t-99 157.5q-8 31 -13 85.5t-7.5 120t-2 137.5t3 139t7.5 123t12 91q11 35 31.5 65.5t50.5 53t69.5 35t88.5 12.5q64 0 104.5 -21t75.5 -65q0 10 -0.5 30.5t-1 47.5t-2 57.5
t-2.5 60.5zM250 266q9 -63 34 -87.5t74 -24.5q55 0 83.5 27t33.5 98q1 13 2 48t2 82t2 100.5t1.5 103t1 90.5t1.5 63q-5 21 -13 43.5t-22.5 41t-35.5 30.5t-52 12q-27 0 -46 -7t-31.5 -19t-20 -28t-10.5 -34q-3 -15 -5 -56.5t-3.5 -96t-2 -116t0 -116.5t2 -97t4.5 -57z" />
    </font>
</defs>
</svg>
