<?xml version="1.0" standalone="no"?>
<!DOCTYPE svg PUBLIC "-//W3C//DTD SVG 1.1//EN" "http://www.w3.org/Graphics/SVG/1.1/DTD/svg11.dtd" >
<svg xmlns="http://www.w3.org/2000/svg" xmlns:xlink="http://www.w3.org/1999/xlink" version="1.1">
<metadata>
Created by FontForge 20161003 at Wed Jul 12 18:53:05 2017
 By www-data
[c] Copyright 2003-2004, The Font Bureau, Inc. Designed by David Berlow. All rights reserved.
</metadata>
<defs>
<font id="TitlingGothicFB-LightNarrow" horiz-adv-x="758" >
  <font-face 
    font-family="TitlingGothicFB LightNarrow"
    font-weight="300"
    font-stretch="condensed"
    units-per-em="2048"
    panose-1="2 0 5 5 3 0 0 2 0 4"
    ascent="1638"
    descent="-410"
    x-height="1126"
    cap-height="1622"
    bbox="-207 -432 2413 1889"
    underline-thickness="20"
    underline-position="-133"
    unicode-range="U+0020-FB04"
  />
<missing-glyph horiz-adv-x="473" 
 />
    <glyph glyph-name="f_f" unicode="ff" horiz-adv-x="1231" 
d="M342 1001v-1001h-137v1001h-178v125h178v258q0 263 272 263q57 0 104.5 -7t73.5 -10v-125l-28 4q-65 9 -119 9q-168 -3 -168 -142v-252h428v248q0 134 70 204.5t202 70.5q57 0 104.5 -7t72.5 -10v-125l-29 4q-65 9 -117 9q-84 -2 -126 -34.5t-42 -105.5v-254h303v-123
h-301v-1001h-137v1001h-426z" />
    <glyph glyph-name="f_f_i" unicode="ffi" horiz-adv-x="1645" 
d="M1339 1001h-434v-1001h-137v1001h-426v-1001h-137v1001h-178v125h178v258q0 263 272 263q57 0 104.5 -7t73.5 -10v-125l-28 4q-65 9 -119 9q-168 -3 -168 -142v-252h428v248q0 134 70 204.5t202 70.5q57 0 104.5 -7t72.5 -10v-125l-29 4q-65 9 -117 9q-84 -2 -126 -34.5
t-42 -105.5v-254h574v-1028q0 -38 4.5 -64.5t9.5 -31.5h-137q-5 3 -10 28t-5 60v913z" />
    <glyph glyph-name="f_f_l" unicode="ffl" horiz-adv-x="1649" 
d="M342 1001v-1001h-137v1001h-178v125h178v258q0 263 272 263q57 0 104.5 -7t73.5 -10v-125l-28 4q-65 9 -119 9q-168 -3 -168 -142v-252h428v248q0 134 70 204.5t202 70.5q57 0 106.5 -7t74.5 -10v-125l-29 4q-67 9 -121 9q-84 -2 -126 -34.5t-42 -105.5v-254h303v-123
h-301v-1001h-137v1001h-426zM1487 0h-133q-11 7 -11 63v1465q0 84 -6 106h138q4 -12 4 -86v-1446q0 -92 8 -102z" />
    <glyph glyph-name="fi" unicode="fi" horiz-adv-x="1083" 
d="M778 1001h-434v-1001h-137v1001h-180v125h180v260q0 261 276 261q57 0 104.5 -7t71.5 -10v-123l-27 4q-63 9 -118 9q-170 0 -170 -146v-250h571v-1028q0 -83 13 -96h-137q-13 13 -13 88v913z" />
    <glyph glyph-name="fl" unicode="fl" horiz-adv-x="1087" 
d="M27 1001v125h178v258q0 263 272 263q57 0 106.5 -7t73.5 -10v-123l-28 4q-65 9 -119 9q-168 0 -168 -140v-256h303v-123h-303v-1001h-137v1001h-178zM926 0h-135q-11 7 -11 63v1465l-4 106h135q7 -14 7 -86v-1446q0 -92 8 -102z" />
    <glyph glyph-name=".notdef" horiz-adv-x="473" 
 />
    <glyph glyph-name="NUL" horiz-adv-x="0" 
 />
    <glyph glyph-name="nonmarkingreturn" horiz-adv-x="473" 
 />
    <glyph glyph-name="space" unicode=" " horiz-adv-x="473" 
 />
    <glyph glyph-name="lslash" unicode="&#x142;" horiz-adv-x="393" 
d="M264 584v-482q0 -90 6 -102h-135q-6 6 -6 63v465l-109 -45v123l109 43v879l-4 106h135q4 -12 4 -86v-843l109 45v-121z" />
    <glyph glyph-name="Thorn" unicode="&#xde;" horiz-adv-x="1190" 
d="M309 1622v-270h416q152 0 237 -57t113 -173q37 -91 37 -268q0 -195 -37 -279q-24 -76 -70.5 -125t-119 -72t-231.5 -23h-143l-204 1v-356h-147v1622h149zM965 852q0 129 -23.5 208.5t-77.5 115.5t-157 36h-400v-718h398q73 0 125 22.5t82.5 67t41.5 116.5t11 152z" />
    <glyph glyph-name="thorn" unicode="&#xfe;" horiz-adv-x="1077" 
d="M1018 575q0 -192 -44.5 -326t-139.5 -195.5t-230 -61.5q-134 0 -224 42.5t-122 123.5l2 -506h-135v1980h133v-674q26 87 121.5 138t224.5 51q221 0 317.5 -143t96.5 -429zM879 569q0 252 -70.5 348.5t-241.5 96.5q-111 0 -175.5 -41.5t-100 -133t-35.5 -270.5
q0 -198 33 -285t99 -127t179 -40q182 0 247 111t65 341z" />
    <glyph glyph-name="onehalf" unicode="&#xbd;" horiz-adv-x="1313" 
d="M414 795h-109v682l-289 -64v88q36 0 168 46t154 79h76v-831zM977 1622q-492 -1132 -694 -1622h-95l418 976l273 646h98zM1268 0h-598v88q73 72 222 184q134 101 172 140.5t58.5 81t20.5 88.5v39q0 69 -42.5 98t-137.5 29q-77 0 -111.5 -22.5t-54.5 -72.5q-13 -27 -13 -88
h-108q0 74 12 105q32 88 100.5 128t186.5 40q278 0 278 -203v-62q0 -71 -38.5 -129t-101 -113.5t-140.5 -112.5t-156 -124h451v-94z" />
    <glyph glyph-name="onequarter" unicode="&#xbc;" horiz-adv-x="1337" 
d="M424 795h-109v682l-288 -64v88q23 0 107.5 26t142 53.5t69.5 45.5h78v-831zM1028 1622q-196 -451 -336.5 -777t-357.5 -845h-94l419 976l273 646h96zM1294 227h-141v-227h-104v229h-441v97l424 503h121v-510h141v-92zM1049 319v398l-336 -398h336z" />
    <glyph glyph-name="onesuperior" unicode="&#xb9;" horiz-adv-x="655" 
d="M430 795h-106v682l-291 -64v88q35 0 166.5 46t154.5 79h76v-831z" />
    <glyph glyph-name="threequarters" unicode="&#xbe;" horiz-adv-x="1481" 
d="M451 1219q73 -4 123 -26t73 -60.5t23 -104.5q0 -132 -79.5 -189t-244.5 -57q-145 0 -226.5 46t-88.5 130l-4 89h108v-32l2 -54q2 -47 55 -72t152 -25q76 0 122.5 15t67.5 45.5t21 91.5q0 59 -16.5 88t-60 44t-118.5 15h-27l-132 2v86l76 1h28l45 1h8q59 5 95.5 21t54 47
t17.5 107q0 63 -42 91.5t-135 28.5q-88 0 -131 -22.5t-51 -69.5l-2 -51v-29h-109q0 109 31 158.5t97 73.5t169 24q147 0 215 -49t68 -153q0 -109 -39.5 -153t-144.5 -58zM1188 1622l-519 -1209l-173 -413h-95l525 1230l164 392h98zM1456 227h-141v-227h-103v229h-440v97
l424 503h119v-510h141v-92zM1212 319v400l-335 -400h335z" />
    <glyph glyph-name="threesuperior" unicode="&#xb3;" horiz-adv-x="778" 
d="M500 1219q209 -10 219 -156l2 -35q0 -132 -79 -189t-245 -57q-82 0 -142.5 14.5t-99.5 41t-58 65t-19 134.5v10h108v-32l2 -54q8 -97 209 -97q110 0 160 33t50 109q0 74 -18.5 102t-62.5 41.5t-114 13.5h-27l-133 2v86l160 2q60 5 96.5 22t54 48.5t17.5 95.5
q0 70 -44 99.5t-135 29.5q-89 0 -132.5 -22.5t-51.5 -69.5l-2 -51v-29h-106v10q0 107 31.5 153.5t96 69.5t166.5 23q269 0 279 -170l3 -42q0 -102 -39.5 -144.5t-145.5 -56.5z" />
    <glyph glyph-name="twosuperior" unicode="&#xb2;" horiz-adv-x="764" 
d="M690 795h-600v88q80 78 222 183q120 88 164 131.5t66.5 86.5t22.5 92v39q0 69 -42.5 98t-137.5 29q-71 0 -106 -19t-60 -75q-12 -29 -12 -88h-109q0 74 13 104q31 88 99.5 128t184.5 40q281 0 281 -202v-62q-1 -71 -39.5 -129t-100.5 -113.5t-140 -112.5t-158 -124h452
v-94z" />
    <glyph glyph-name="brokenbar" unicode="&#xa6;" horiz-adv-x="514" 
d="M313 735h-116v903h116v-903zM313 -410h-116v877h116v-877z" />
    <glyph glyph-name="minus" unicode="&#x2212;" horiz-adv-x="981" 
d="M909 715h-837v127h837v-127z" />
    <glyph glyph-name="multiply" unicode="&#xd7;" horiz-adv-x="958" 
d="M778 1004l-223 -226l223 -225l-76 -80l-223 225l-223 -225l-76 82l223 223l-223 226l78 79l221 -223l223 223z" />
    <glyph glyph-name="Lslash" unicode="&#x141;" horiz-adv-x="1030" 
d="M307 608v-469h688v-139h-835v551l-94 -43v117l94 41v956h147v-899l373 151v-114z" />
    <glyph glyph-name="exclam" unicode="!" horiz-adv-x="477" 
d="M319 1622l-16 -1245h-127l-18 1245h161zM319 0h-159v250h159v-250z" />
    <glyph glyph-name="quotedbl" unicode="&#x22;" horiz-adv-x="674" 
d="M578 1622l-7 -653h-131l-8 653h146zM242 1622l-11 -653h-127l-10 653h148z" />
    <glyph glyph-name="numbersign" unicode="#" horiz-adv-x="971" 
d="M932 1014l-10 -113h-205q-11 -45 -39 -233h219l-12 -113h-223l-76 -588h-92l75 588h-231l-76 -588h-94l76 588h-209l12 113h211q28 188 39 233h-225l10 113h229q17 86 70 528h96l-71 -528h231q2 12 14.5 100t55.5 428h94l-31 -243q-32 -249 -39 -285h201zM621 901h-232
l-37 -233h232q32 211 37 233z" />
    <glyph glyph-name="dollar" unicode="$" horiz-adv-x="1112" 
d="M510 12q-117 6 -201.5 33.5t-141.5 80t-83.5 126.5t-26.5 190h138q0 -118 30 -177t97 -92t188 -42v664l-18 7l-66 29q-147 70 -217.5 128t-102.5 127t-32 169q0 167 109 250.5t327 91.5v52h88v-54q182 -9 276 -80.5t125 -216.5q8 -30 13 -141h-138q0 101 -16.5 153
t-49.5 86t-85.5 52.5t-124.5 21.5v-571q89 -30 189.5 -84t153.5 -111t76 -131.5t23 -179.5q0 -168 -113 -267t-329 -114v-104h-88v104zM510 1475q-156 -6 -228.5 -58t-72.5 -162q0 -100 67 -171.5t234 -141.5v533zM598 131q152 9 226.5 75.5t74.5 178.5q0 102 -28.5 163.5
t-93 109t-179.5 92.5v-619z" />
    <glyph glyph-name="percent" unicode="%" horiz-adv-x="1702" 
d="M801 1151q0 -98 -44 -178t-127 -126t-190 -46q-108 0 -190 45.5t-127 127t-45 177.5v149q0 161 98.5 254t263.5 93q166 0 263.5 -94.5t97.5 -252.5v-149zM1307 1575l-850 -1575h-99l850 1575h99zM1620 332q0 -160 -94.5 -254t-268.5 -94q-162 0 -261 95.5t-99 252.5v153
q0 155 99 252t261 97q109 0 191 -45t127 -126.5t45 -177.5v-153zM684 1153v154q0 100 -68.5 162.5t-175.5 62.5q-117 0 -181 -57.5t-64 -167.5v-154q0 -107 69.5 -175.5t175.5 -68.5q112 0 178 65.5t66 178.5zM1503 332v160q0 98 -68 162.5t-178 64.5q-115 0 -179 -60.5
t-64 -164.5v-160q0 -102 67 -170t176 -68q117 0 181.5 62t64.5 174z" />
    <glyph glyph-name="ampersand" unicode="&#x26;" horiz-adv-x="1360" 
d="M553 803q160 -208 428 -453q113 139 125 387h135q-9 -291 -160 -491q51 -51 258 -246h-206l-156 137q-81 -71 -193.5 -112t-244.5 -41q-267 0 -383.5 91.5t-116.5 291.5q0 110 45 193t147 163l131 102q-72 104 -112.5 206t-42.5 208v84q2 138 99 225.5t257 87.5
q91 0 162.5 -39t114 -108.5t47.5 -155.5v-73q-2 -78 -35.5 -147t-95 -135.5t-203.5 -174.5zM483 901q150 116 206.5 196t58.5 160v60q-2 80 -54.5 132t-138.5 52q-97 0 -153 -52.5t-58 -143.5l-2 -33l2 -33q2 -83 36.5 -163.5t102.5 -174.5zM434 723q-147 -106 -200.5 -183
t-53.5 -163q0 -137 81 -198.5t271 -61.5q220 0 345 125q-275 256 -443 481z" />
    <glyph glyph-name="quotesingle" unicode="'" horiz-adv-x="512" 
d="M332 1622l-10 -661h-134l-10 661h154z" />
    <glyph glyph-name="parenleft" unicode="(" horiz-adv-x="547" 
d="M528 -141h-147q-148 186 -229.5 419t-81.5 461q0 164 43 331.5t115 314t153 237.5h147q-82 -94 -154 -243.5t-113.5 -317t-41.5 -322.5q0 -228 83 -465.5t226 -414.5z" />
    <glyph glyph-name="parenright" unicode=")" horiz-adv-x="547" 
d="M496 739q0 -153 -36 -307.5t-110.5 -307t-165.5 -265.5h-147q89 111 159.5 257t110 305.5t39.5 317.5q0 154 -41.5 321.5t-113.5 317.5t-154 244h147q85 -96 160.5 -254t113.5 -317t38 -312z" />
    <glyph glyph-name="asterisk" unicode="*" horiz-adv-x="1006" 
d="M545 1331l258 125l41 -110l-273 -111l211 -231l-88 -78l-196 250l-191 -248l-90 78l205 229l-277 111l39 110l265 -125l-9 307h111z" />
    <glyph glyph-name="plus" unicode="+" horiz-adv-x="981" 
d="M909 715h-354v-350h-129v350h-354v131h354v342h129v-342h354v-131z" />
    <glyph glyph-name="comma" unicode="," horiz-adv-x="539" 
d="M354 -8l-100 -178l-94 12l80 176l-17 -2h-49v264h180v-272z" />
    <glyph glyph-name="hyphen" unicode="-" horiz-adv-x="780" 
d="M756 705h-731v145h731v-145z" />
    <glyph glyph-name="hyphen" unicode="&#xad;" horiz-adv-x="780" 
d="M756 705h-731v145h731v-145z" />
    <glyph glyph-name="period" unicode="." horiz-adv-x="539" 
d="M362 0h-190v264h190v-264z" />
    <glyph glyph-name="slash" unicode="/" horiz-adv-x="518" 
d="M555 1632l-520 -1958h-92l518 1958h94z" />
    <glyph glyph-name="zero" unicode="0" horiz-adv-x="1128" 
d="M567 1638q139 0 233.5 -42.5t150 -128.5t81 -232.5t25.5 -423.5q0 -304 -49 -483t-154 -261.5t-289 -82.5q-194 0 -296.5 85t-148.5 268.5t-46 473.5q0 276 26.5 422t84 233.5t152 129.5t230.5 42zM907 815q0 278 -33.5 417.5t-107.5 206t-201 66.5q-130 0 -203.5 -64
t-106 -198.5t-32.5 -431.5q0 -263 32 -413t102 -215.5t210 -65.5q142 0 210 66t99 215t31 417z" />
    <glyph glyph-name="one" unicode="1" horiz-adv-x="776" 
d="M573 0h-141v1430l-352 -80v127q187 44 255.5 65t95 38t40.5 48h102v-1628z" />
    <glyph glyph-name="two" unicode="2" horiz-adv-x="1063" 
d="M1022 0h-963v137q277 219 407 343.5t207 231.5t117.5 215.5t43.5 223.5l2 88q0 123 -74.5 193.5t-231.5 70.5q-144 0 -223 -62.5t-90 -174.5l-2 -58v-65h-143l2 141q16 167 138 260.5t329 93.5q211 0 327 -97t121 -273l-2 -127q-3 -115 -45 -227.5t-122 -227.5
t-208 -242.5t-360 -310.5h770v-133z" />
    <glyph glyph-name="three" unicode="3" horiz-adv-x="1092" 
d="M725 870q78 -8 141 -41t102.5 -88.5t54.5 -140t15 -165.5q0 -157 -55.5 -253t-168 -147t-271.5 -51q-118 0 -203.5 25t-142 74t-94 132.5t-37.5 265.5h141q0 -155 35 -228t109.5 -107.5t193.5 -34.5q116 0 191.5 35t112.5 104.5t37 190.5q0 186 -71.5 264.5t-243.5 82.5
h-252v130h234q158 5 220 87t62 222q0 155 -72 216.5t-214 61.5q-253 0 -289 -182q-10 -57 -10 -162h-139q0 146 14 199q29 135 138.5 206.5t289.5 71.5q210 0 317.5 -95t107.5 -299v-23q-5 -142 -73.5 -238.5t-179.5 -112.5z" />
    <glyph glyph-name="four" unicode="4" horiz-adv-x="1081" 
d="M1071 406h-219v-406h-139v406h-678v153l659 1073h158v-1093h219v-133zM713 539v888l-545 -888h545z" />
    <glyph glyph-name="five" unicode="5" horiz-adv-x="1102" 
d="M557 -16q-118 0 -209 28.5t-152 84t-89.5 136t-28.5 232.5h143q0 -148 37.5 -214t112 -100t176.5 -34q290 0 330 243q8 48 8 139q0 203 -30 283t-103 122t-183 42q-109 0 -190.5 -46t-116.5 -130h-145v850h844v-137h-711v-574q40 85 136 130.5t222 45.5q106 0 188 -31.5
t137 -93t80 -150t25 -272.5q0 -189 -29.5 -278.5t-90.5 -150.5t-152 -93t-209 -32z" />
    <glyph glyph-name="six" unicode="6" horiz-adv-x="1108" 
d="M573 -16q-187 0 -294.5 74t-153 228.5t-45.5 526.5q0 321 18 432q60 393 461 393q150 0 249 -42t145 -125t46 -228h-137l-3 46q-4 64 -37.5 115t-98 76t-166.5 25q-123 0 -199 -53.5t-105.5 -159t-29.5 -430.5q49 76 158 119t248 43q134 0 227.5 -51t137.5 -149t44 -308
q0 -174 -26 -258q-87 -274 -439 -274zM894 510q0 174 -31.5 245.5t-98.5 105.5t-172 34q-96 0 -173 -24.5t-128 -66.5t-66 -91q0 -225 14.5 -318.5t53.5 -155.5t102 -92.5t178 -33.5q110 0 182 37.5t104.5 111.5t34.5 248z" />
    <glyph glyph-name="seven" unicode="7" horiz-adv-x="922" 
d="M909 1489l-585 -1489h-156l602 1485h-760v137h899v-133z" />
    <glyph glyph-name="eight" unicode="8" horiz-adv-x="1098" 
d="M547 -16q-237 0 -362.5 117t-125.5 367q0 120 30.5 207.5t108.5 148t171 71.5q-66 7 -122 50t-84.5 113t-29.5 184q0 150 48.5 231.5t144.5 124t221 42.5q127 0 223 -42.5t144.5 -123t48.5 -223.5q0 -110 -24.5 -178t-82 -119t-125.5 -59q91 -12 162 -66.5t108 -136.5
t38 -230q0 -233 -124 -355.5t-368 -122.5zM828 1236q0 113 -31 166.5t-97 81t-151 27.5q-94 0 -161 -29.5t-94.5 -83.5t-27.5 -163q1 -153 63.5 -216t217.5 -63q110 0 173.5 32t85.5 91.5t22 156.5zM900 471q0 131 -37 207t-114.5 114.5t-201.5 38.5q-118 0 -196 -37.5
t-117 -108.5t-39 -215q1 -145 42 -217t121.5 -106t188.5 -34q112 0 194.5 36t120.5 111.5t38 210.5z" />
    <glyph glyph-name="nine" unicode="9" horiz-adv-x="1104" 
d="M543 -16q-184 0 -292 65.5t-134 196.5q-4 20 -13 133h140q0 -82 19 -128t55.5 -75.5t92.5 -44t136 -14.5q97 0 165.5 35t109 104t50 193t9.5 303q-49 -72 -155.5 -116t-244.5 -44q-104 0 -183.5 31.5t-131 90.5t-74 146.5t-22.5 254.5q0 168 29.5 254t90 146.5
t149.5 91.5t202 31q172 0 280.5 -70.5t155.5 -218.5t47 -526q0 -315 -17.5 -441t-77 -216t-156.5 -136t-230 -46zM879 901q-7 274 -19 350q-25 133 -104 195.5t-213 62.5q-135 0 -216.5 -61t-101.5 -166q-8 -40 -9 -162q0 -118 5 -166q16 -115 91 -174t206 -59q93 0 168 25
t126 67t67 88z" />
    <glyph glyph-name="colon" unicode=":" horiz-adv-x="528" 
d="M358 834h-174v245h174v-245zM358 0h-174v248h174v-248z" />
    <glyph glyph-name="semicolon" unicode=";" horiz-adv-x="528" 
d="M358 834h-174v245h174v-245zM358 -8l-112 -182l-76 36l78 158l-19 -4h-47v252h176v-260z" />
    <glyph glyph-name="less" unicode="&#x3c;" horiz-adv-x="1092" 
d="M993 483v-145l-905 362v131l905 363v-150l-749 -278z" />
    <glyph glyph-name="equal" unicode="=" horiz-adv-x="985" 
d="M926 858h-863v135h863v-135zM926 555h-863v133h863v-133z" />
    <glyph glyph-name="greater" unicode="&#x3e;" horiz-adv-x="1092" 
d="M90 336v147l748 281l-748 280v148l907 -361v-133z" />
    <glyph glyph-name="question" unicode="?" horiz-adv-x="977" 
d="M512 387v-10h-127v23q0 114 28 212.5t79.5 170t148.5 160.5q76 71 109.5 134t33.5 165l-2 69q-16 107 -87.5 151.5t-217.5 44.5q-269 0 -291 -204q-10 -93 -10 -107h-137q0 84 18 174q52 268 439 268q203 0 310 -70t128 -229l3 -80q0 -133 -38 -211.5t-117 -151.5
q-100 -92 -141 -138.5t-69 -100t-44 -120.5t-16 -150zM530 0h-161v250h161v-250z" />
    <glyph glyph-name="at" unicode="@" horiz-adv-x="1737" 
d="M1266 283q-85 0 -135 54t-50 136q-47 -87 -136 -137.5t-200 -50.5q-140 0 -221.5 89t-81.5 244q0 148 57 284t163 209t243 73q88 0 155.5 -47.5t92.5 -116.5l35 131h115l-53 -233l-60 -265q-15 -67 -15 -119q0 -151 121 -151q125 0 200 141t75 361q0 303 -158.5 464.5
t-456.5 161.5q-231 0 -410.5 -106.5t-277.5 -302.5t-98 -456q0 -228 74.5 -391t219.5 -248t337 -85q177 0 323 51.5t248 147.5l47 -66q-129 -111 -280 -160t-338 -49q-221 0 -385 96t-250 277t-86 427q0 291 109 502.5t309.5 324t464.5 112.5q212 0 369 -80t243.5 -238
t86.5 -375q0 -180 -48.5 -321t-137.5 -214.5t-210 -73.5zM1115 890q0 47 -28 91t-73.5 70t-102.5 26q-98 0 -176.5 -56t-125 -159.5t-46.5 -228.5q0 -116 54.5 -179t154.5 -63q236 0 293 248q20 81 35 155.5t15 95.5z" />
    <glyph glyph-name="A" unicode="A" horiz-adv-x="1165" 
d="M285 420l-129 -420h-150l502 1622h180l471 -1622h-147l-127 420h-600zM852 549l-219 756l-39 161l-41 -159l-231 -758h530z" />
    <glyph glyph-name="B" unicode="B" horiz-adv-x="1262" 
d="M801 0h-641v1622h583q115 0 196 -46t121 -142t40 -213q0 -141 -50.5 -254.5t-138.5 -130.5q120 -17 192.5 -119.5t72.5 -284.5q0 -187 -88 -309.5t-287 -122.5zM948 1194q0 80 -23.5 150t-77.5 108.5t-132 38.5h-412v-606h457q56 0 95.5 27t66 102t26.5 180zM1022 440
q0 145 -58.5 229.5t-183.5 84.5h-477v-621h479q125 0 182.5 75t57.5 232z" />
    <glyph glyph-name="C" unicode="C" horiz-adv-x="1253" 
d="M1190 547q-9 -176 -75.5 -304.5t-180 -193.5t-272.5 -65q-206 0 -329 85.5t-185.5 272t-63.5 477.5q0 302 62.5 478.5t183 258.5t319.5 82q263 0 397 -148t142 -419h-152q-7 139 -48.5 233t-123 141.5t-219.5 47.5q-233 0 -321 -163t-88 -513q0 -231 47 -398t139 -232.5
t235 -65.5q184 0 277.5 111.5t105.5 314.5h150z" />
    <glyph glyph-name="D" unicode="D" horiz-adv-x="1245" 
d="M698 0h-538v1622h520q136 0 225 -33.5t145.5 -105t84.5 -223.5t28 -422q0 -534 -92 -672q-60 -88 -149 -127t-224 -39zM1020 836q0 227 -18 346.5t-53.5 181.5t-103 91.5t-171.5 29.5h-371v-1348h373q100 0 164.5 24.5t107.5 84.5q72 101 72 590z" />
    <glyph glyph-name="E" unicode="E" horiz-adv-x="1116" 
d="M1030 0h-870v1622h864v-139h-721v-592h688v-141h-688v-613h727v-137z" />
    <glyph glyph-name="F" unicode="F" horiz-adv-x="1083" 
d="M1026 1485h-721v-594h682v-141h-682v-750h-145v1622h866v-137z" />
    <glyph glyph-name="G" unicode="G" horiz-adv-x="1229" 
d="M1143 0h-117l-12 180q-44 -91 -149 -144.5t-242 -53.5q-136 0 -237.5 42t-167 135t-100 265t-34.5 387q0 445 127.5 637t419.5 192q162 0 272 -61t170 -189t64 -292h-146q-11 204 -98 302.5t-258 98.5q-120 0 -198.5 -40.5t-120 -121.5t-63.5 -222t-22 -308
q0 -229 40.5 -393.5t123.5 -232.5t242 -68q136 0 229 64t133 181q6 20 8 193l-1 143v29h-443v137h580v-860z" />
    <glyph glyph-name="H" unicode="H" horiz-adv-x="1288" 
d="M1128 0h-143v748h-680v-748h-145v1622h145v-733h680v733h143v-1622z" />
    <glyph glyph-name="I" unicode="I" horiz-adv-x="467" 
d="M309 0h-149v1622h149v-1622z" />
    <glyph glyph-name="J" unicode="J" horiz-adv-x="854" 
d="M709 373q0 -185 -102.5 -284t-297.5 -99q-161 0 -289 24v136q137 -25 256 -25q287 0 287 274v1223h146v-1249z" />
    <glyph glyph-name="K" unicode="K" horiz-adv-x="1155" 
d="M1141 0h-168l-527 809l-141 -166v-643h-145v1622h145v-778l649 778h170l-579 -700z" />
    <glyph glyph-name="L" unicode="L" horiz-adv-x="1030" 
d="M995 0h-835v1622h147v-1483h688v-139z" />
    <glyph glyph-name="M" unicode="M" horiz-adv-x="1561" 
d="M1405 0h-139v1350l-414 -1350h-156l-399 1350v-1350h-137v1622h205l411 -1423l428 1423h201v-1622z" />
    <glyph glyph-name="N" unicode="N" horiz-adv-x="1276" 
d="M1122 0h-168l-655 1380v-1380h-139v1622h178l647 -1380v1380h137v-1622z" />
    <glyph glyph-name="O" unicode="O" horiz-adv-x="1284" 
d="M643 1638q199 0 319.5 -83t181 -265t60.5 -473q0 -406 -125.5 -620.5t-437.5 -214.5q-146 0 -248 48t-168.5 143.5t-103.5 263t-37 378.5q0 230 35.5 388t102.5 249t173.5 138.5t247.5 47.5zM645 119q225 0 318.5 169t93.5 525q0 180 -28.5 327.5t-78.5 219.5t-121 105
t-186 34q-157 0 -242.5 -69.5t-126.5 -228t-41 -392.5q0 -247 50 -406t137.5 -221.5t224.5 -62.5z" />
    <glyph glyph-name="P" unicode="P" horiz-adv-x="1190" 
d="M1114 1124q0 -179 -32.5 -277t-119 -154t-235.5 -62l-78 -1h-144l-200 1v-631h-145v1622h575q141 0 222 -46.5t119 -148t38 -303.5zM965 1122q0 176 -33 256q-47 107 -227 107h-400v-717h395q84 0 139.5 23.5t90.5 82.5q35 64 35 248z" />
    <glyph glyph-name="Q" unicode="Q" horiz-adv-x="1284" 
d="M819 16q44 -39 127 -85t127 -54l-80 -115q-54 14 -125.5 53.5t-133 89.5t-87.5 81h-37q-120 0 -220 47t-166 139.5t-103 260.5t-37 382q0 292 57.5 472.5t182.5 265.5t319 85q196 0 316 -79.5t182.5 -255.5t62.5 -486q0 -240 -43.5 -412.5t-132.5 -268t-209 -120.5z
M645 117q227 0 319.5 168t92.5 530q0 228 -41.5 386t-130 229t-242.5 71q-120 0 -196 -42.5t-120.5 -124t-69 -212t-24.5 -313.5q0 -249 48.5 -407.5t137.5 -221.5t226 -63z" />
    <glyph glyph-name="R" unicode="R" horiz-adv-x="1233" 
d="M1092 1178q0 -119 -18 -195.5t-73 -136.5t-127 -74l314 -772h-166l-291 745h-428v-745h-143v1622h579q186 0 269.5 -108t83.5 -336zM942 1161q0 165 -26 216.5t-72.5 79.5t-128.5 28h-412v-608h447q72 0 118.5 36.5t60 104.5t13.5 143z" />
    <glyph glyph-name="S" unicode="S" horiz-adv-x="1206" 
d="M1116 401q0 -199 -126.5 -309t-364.5 -110q-272 0 -405.5 116t-133.5 357h145q0 -340 390 -340q348 0 348 276q0 138 -79 219t-298 166q-156 61 -219 92t-113 67.5t-86 82t-56 104.5t-20 133q0 183 126.5 283t361.5 100q243 0 376.5 -118t133.5 -340h-146q0 323 -370 323
q-164 0 -249 -62.5t-85 -178.5q0 -76 33.5 -130t89 -94t127.5 -70.5t149 -60.5q212 -84 301 -148.5t129.5 -148.5t40.5 -209z" />
    <glyph glyph-name="T" unicode="T" horiz-adv-x="1042" 
d="M1036 1485h-440v-1485h-147v1485h-441v137h1028v-137z" />
    <glyph glyph-name="U" unicode="U" horiz-adv-x="1262" 
d="M1120 381q0 -185 -129.5 -291t-355.5 -106q-237 0 -365.5 104t-128.5 299v1235h146v-1229q0 -274 350 -274q156 0 247 73.5t91 198.5v1231h145v-1241z" />
    <glyph glyph-name="V" unicode="V" horiz-adv-x="1178" 
d="M1174 1622l-496 -1622h-178l-498 1622h152l438 -1446l434 1446h148z" />
    <glyph glyph-name="W" unicode="W" horiz-adv-x="1712" 
d="M1710 1622l-385 -1622h-174q-18 85 -35.5 166t-34 158.5t-32 151t-30 143.5t-89 427t-72.5 377q0 -43 -301 -1423h-174l-381 1622h148q327 -1394 327 -1432q0 8 12.5 73t26.5 135t34.5 170t70.5 337t153 717h168q297 -1385 297 -1432q0 7 9.5 53.5t31.5 146t44.5 194
t79.5 341.5l165 697h141z" />
    <glyph glyph-name="X" unicode="X" horiz-adv-x="1110" 
d="M559 692l-401 -692h-156l481 831l-442 791h160l362 -647l377 647h154l-455 -786l469 -836h-160z" />
    <glyph glyph-name="Y" unicode="Y" horiz-adv-x="1196" 
d="M1192 1622l-528 -1059v-563h-152v561l-506 1061h156q428 -888 428 -907q0 24 452 907h150z" />
    <glyph glyph-name="Z" unicode="Z" horiz-adv-x="1051" 
d="M1014 0h-959v127l764 1358h-727v137h897v-119l-774 -1366h799v-137z" />
    <glyph glyph-name="bracketleft" unicode="[" horiz-adv-x="666" 
d="M590 -348h-445v1970h445v-119h-311v-1736h311v-115z" />
    <glyph glyph-name="backslash" unicode="\" horiz-adv-x="518" 
d="M-35 1632h96l519 -1958h-93z" />
    <glyph glyph-name="bracketright" unicode="]" horiz-adv-x="682" 
d="M90 -348v115h307v1738h-307v117h440v-1970h-440z" />
    <glyph glyph-name="asciicircum" unicode="^" horiz-adv-x="1051" 
d="M532 1522l-382 -379l-89 88l398 399h149l396 -399l-89 -88z" />
    <glyph glyph-name="underscore" unicode="_" horiz-adv-x="786" 
d="M784 -303h-784v129h784v-129z" />
    <glyph glyph-name="grave" unicode="`" 
d="M526 1217h-137l-201 260h154z" />
    <glyph glyph-name="a" unicode="a" horiz-adv-x="1024" 
d="M930 0h-129q-4 0 -10 51.5t-6 69.5l1 20q-41 -76 -133 -114.5t-223 -38.5q-161 0 -255.5 72.5t-98.5 199.5v88q5 101 62 172t167.5 111t285.5 40q105 0 191 -9v90l-2 102q-6 88 -66.5 131t-189.5 43q-102 0 -157 -26t-85 -84t-30 -152h-129q0 147 53 229t137.5 117
t214.5 35q121 0 203.5 -29t126.5 -87t51 -148t7 -273l-3 -411q0 -56 5.5 -117.5t11.5 -81.5zM784 555q-99 10 -167 10q-207 0 -307 -57t-100 -195q0 -61 25 -110t82 -75t140 -26q107 0 180 37.5t110 119.5t37 230v66z" />
    <glyph glyph-name="b" unicode="b" horiz-adv-x="1096" 
d="M600 1147q217 0 319.5 -138.5t102.5 -426.5q0 -285 -102 -437.5t-324 -152.5q-257 0 -338 145l-12 -137h-123v1632h135v-657q28 78 121.5 125t220.5 47zM569 1018q-124 0 -201 -56t-100 -159q-12 -116 -12 -252q0 -188 18 -260q29 -85 103.5 -130.5t181.5 -45.5
q180 0 252 108t74 348q0 247 -72 347t-244 100z" />
    <glyph glyph-name="c" unicode="c" horiz-adv-x="1030" 
d="M961 731h-134q0 94 -33.5 154t-98 96.5t-163.5 36.5q-116 0 -189 -51.5t-104.5 -144.5t-31.5 -259q0 -172 37 -270t104.5 -141t186.5 -43q101 0 165 34t94.5 98t34.5 140h132q-6 -198 -121 -297.5t-305 -99.5q-171 0 -267 59.5t-148 188t-52 333.5q0 301 116.5 441.5
t345.5 140.5q213 0 322 -109.5t109 -306.5z" />
    <glyph glyph-name="d" unicode="d" horiz-adv-x="1077" 
d="M514 1141q112 0 195 -40t116 -110v635h136v-1513q0 -53 6 -113h-125l-19 139q-38 -73 -123.5 -114t-207.5 -41q-218 0 -319 137t-101 434q0 586 442 586zM526 1010q-169 0 -244 -105t-75 -350q0 -244 72 -348.5t239 -104.5q158 0 233.5 96t75.5 353q0 152 -8 213.5
t-28 107.5t-59 76.5t-93 46t-113 15.5z" />
    <glyph glyph-name="e" unicode="e" horiz-adv-x="1016" 
d="M965 340q-41 -356 -435 -356q-151 0 -252.5 57t-154.5 184t-53 338q0 159 28 264t92 178t148.5 107.5t187.5 34.5q156 0 259 -64t145 -171.5t42 -325.5l-1 -80h-766q3 -163 44 -247t109.5 -119.5t176.5 -35.5q95 0 164.5 30.5t100 88.5t34.5 117h131zM834 623
q0 148 -25 228.5t-96.5 125.5t-186.5 45q-113 0 -185 -45t-104 -141.5t-32 -212.5h629z" />
    <glyph glyph-name="f" unicode="f" horiz-adv-x="657" 
d="M649 1004h-305v-1004h-137v1004h-180v122h180v242q0 129 71.5 204t200.5 75q81 0 183 -17v-125l-29 4q-62 11 -119 11q-87 0 -128.5 -43t-41.5 -117v-236h305v-120z" />
    <glyph glyph-name="g" unicode="g" horiz-adv-x="985" 
d="M481 1153q88 0 166.5 -22t130.5 -66q28 28 91 48t134 20h13v-119q-156 0 -178 -31q18 -20 34.5 -76.5t16.5 -107.5v-64l-2 -69q-5 -145 -113.5 -232.5t-288.5 -87.5q-68 0 -136 18t-97 42q-34 -7 -49 -24t-15 -48q0 -48 73.5 -68.5t252.5 -23.5q248 -5 362.5 -68.5
t114.5 -206.5q0 -146 -118.5 -215t-372.5 -69q-245 0 -358 62t-113 196q0 80 48 141t126 84q-59 7 -95 46t-36 97q0 48 30 87.5t78 52.5q-42 26 -69 92t-29 131v153q1 90 52 166.5t140 119t207 42.5zM483 1030q-128 0 -197 -55t-71 -160v-141q2 -101 72 -157t194 -56
q127 0 198.5 56.5t76.5 158.5v141q-2 100 -74.5 156.5t-198.5 56.5zM494 -209q189 0 277.5 43t88.5 129q0 68 -42.5 100.5t-141 47t-294.5 18.5l-73 4q-76 -20 -117.5 -64.5t-41.5 -103.5q0 -174 344 -174z" />
    <glyph glyph-name="h" unicode="h" horiz-adv-x="1034" 
d="M930 0h-137q-5 0 -5 244v563q0 103 -60.5 153t-184.5 50q-128 0 -205.5 -65t-77.5 -177v-768h-137v1632h135v-661q29 83 117 129.5t217 46.5q167 0 250.5 -84t83.5 -232v-578q0 -253 4 -253z" />
    <glyph glyph-name="i" unicode="i" horiz-adv-x="395" 
d="M272 1275h-149v210h149v-210zM276 0h-137q-10 10 -10 72v1054h139v-1048q0 -70 8 -78z" />
    <glyph glyph-name="j" unicode="j" horiz-adv-x="403" 
d="M283 1275h-150v210h150v-210zM276 -84q0 -138 -66 -209.5t-196 -71.5q-57 0 -102 13v119q63 -9 78 -9q149 0 149 166v1202h137v-1210z" />
    <glyph glyph-name="k" unicode="k" horiz-adv-x="954" 
d="M950 0h-149l-330 635l-211 -225v-410h-137v1632h137v-1046l498 540h160l-351 -385z" />
    <glyph glyph-name="l" unicode="l" horiz-adv-x="381" 
d="M266 0h-135q-8 5 -8 63v1465l-2 106h133q6 -12 6 -86v-1446q0 -95 6 -102z" />
    <glyph glyph-name="m" unicode="m" horiz-adv-x="1559" 
d="M1317 0q-6 0 -6 487v318q0 107 -52.5 157t-154.5 50q-116 0 -184 -58.5t-68 -158.5v-795h-131v821q0 191 -215 191q-106 0 -176 -65.5t-70 -160.5v-786h-137v1126h131v-151q26 80 106.5 125t190.5 45q108 0 179.5 -44.5t92.5 -125.5q29 82 112.5 126t197.5 44
q144 0 223.5 -77.5t79.5 -217.5v-119l1 -134q3 -458 4.5 -527t4.5 -70h-129z" />
    <glyph glyph-name="n" unicode="n" horiz-adv-x="1034" 
d="M930 0h-133q-4 0 -5.5 32t-2.5 155t-1 285v333q0 205 -243 205q-131 0 -208 -65.5t-77 -176.5v-768h-137v1126h131v-151q30 82 116 127t222 45q157 0 245.5 -85t88.5 -235v-267q0 -488 4 -560z" />
    <glyph glyph-name="o" unicode="o" horiz-adv-x="1071" 
d="M1004 565q0 -284 -117.5 -432.5t-347.5 -148.5q-244 0 -356.5 141t-112.5 440q0 281 118.5 431.5t350.5 150.5q233 0 349 -138.5t116 -443.5zM868 565q0 179 -33 268.5t-104.5 136t-193.5 46.5q-168 0 -250 -108t-82 -343q0 -238 80 -347t254 -109q166 0 247.5 110
t81.5 346z" />
    <glyph glyph-name="p" unicode="p" horiz-adv-x="1081" 
d="M1018 563q0 -196 -49.5 -325.5t-142.5 -188.5t-226 -59q-134 0 -221 40.5t-119 106.5v-485h-137v1474h133l2 -151q30 81 118 126.5t218 45.5q150 0 246.5 -68t137 -191t40.5 -325zM879 561q0 271 -78.5 362t-233.5 91q-109 0 -178.5 -47t-101 -140.5t-31.5 -267.5
q0 -176 36.5 -268t106 -135t172.5 -43q161 0 234.5 97.5t73.5 350.5z" />
    <glyph glyph-name="q" unicode="q" horiz-adv-x="1075" 
d="M963 -348h-129l-11 12v481q-35 -77 -118 -119t-205 -42q-145 0 -238.5 61t-141.5 183t-48 323t51.5 332.5t148 194.5t228.5 63q251 0 331 -156l-2 143h125v-1323q0 -126 9 -153zM827 567q0 185 -27 273.5t-99.5 129t-170.5 40.5q-119 0 -185 -47.5t-102 -153.5t-36 -246
q0 -150 32 -256.5t99 -153.5t184 -47q113 0 184 51t96 147t25 263z" />
    <glyph glyph-name="r" unicode="r" horiz-adv-x="760" 
d="M748 1126v-145q-81 25 -193 25q-131 0 -212 -89.5t-81 -230.5v-686h-139v1126h137v-180q18 85 107.5 143t207.5 58q114 0 173 -21z" />
    <glyph glyph-name="s" unicode="s" horiz-adv-x="993" 
d="M918 299q0 -161 -102 -238t-304 -77q-158 0 -252.5 35.5t-138 109t-43.5 201.5h135q0 -93 28 -140t91.5 -68.5t179.5 -21.5q145 0 209.5 47t64.5 144q0 61 -28.5 102t-81 68.5t-178.5 58.5q-47 12 -95.5 24.5t-93 30t-83.5 41.5t-68 59t-45.5 83t-16.5 112
q0 132 100.5 205.5t282.5 73.5q144 0 233.5 -37t131 -112t41.5 -205h-135q0 96 -26.5 141.5t-85 67.5t-155.5 22q-254 0 -254 -162q0 -57 27.5 -94.5t76.5 -63t195 -63.5q142 -33 207.5 -63.5t103.5 -68.5t58.5 -90.5t20.5 -121.5z" />
    <glyph glyph-name="t" unicode="t" horiz-adv-x="629" 
d="M598 1001h-297v-735q0 -83 32 -117t124 -34l70 3l63 5v-117q-58 -18 -180 -18q-127 0 -186.5 59t-59.5 178v776h-168v125h162q6 6 10 215l133 5v-220h297v-125z" />
    <glyph glyph-name="u" unicode="u" horiz-adv-x="1036" 
d="M924 0h-136l-4 137q-42 -75 -119 -113t-204 -38q-164 0 -254 81.5t-90 227.5v622q0 209 -6 209h139q4 -76 4 -489v-305q0 -228 254 -228q126 0 201 66.5t75 175.5v780h134v-946q0 -153 6 -180z" />
    <glyph glyph-name="v" unicode="v" horiz-adv-x="991" 
d="M979 1126l-397 -1126h-170l-396 1126h144l340 -985l340 985h139z" />
    <glyph glyph-name="w" unicode="w" horiz-adv-x="1573" 
d="M1571 1126l-348 -1126h-164l-256 926q-7 25 -10 67l-9 -50l-258 -943h-164l-346 1126h144l289 -985l268 985h155l275 -985l287 985h137z" />
    <glyph glyph-name="x" unicode="x" horiz-adv-x="938" 
d="M483 682l295 444h148l-369 -559l375 -567h-152l-311 471l-311 -471h-150l387 586l-362 540h151z" />
    <glyph glyph-name="y" unicode="y" horiz-adv-x="989" 
d="M975 1126l-539 -1474h-143l131 368l-408 1106h146q338 -910 338 -938q0 24 336 938h139z" />
    <glyph glyph-name="z" unicode="z" horiz-adv-x="862" 
d="M825 0h-776v119l600 882h-588v125h742v-129l-594 -874h616v-123z" />
    <glyph glyph-name="braceleft" unicode="{" horiz-adv-x="786" 
d="M713 -332h-148q-132 0 -203 72.5t-71 212.5q0 59 14 237q14 177 14 246q0 242 -227 242v121q227 0 227 233q0 47 -14 153t-14 171q0 121 72 193.5t200 72.5h150v-119l-60 2q-119 0 -175 -42t-56 -140q0 -36 14 -154q13 -108 13 -157q0 -122 -49 -192t-142 -81
q94 -9 142.5 -80.5t48.5 -195.5q0 -73 -13 -237q-16 -202 -16 -258q0 -95 54.5 -137.5t170.5 -42.5l68 3v-123z" />
    <glyph glyph-name="bar" unicode="|" horiz-adv-x="514" 
d="M315 -410h-116v2048h116v-2048z" />
    <glyph glyph-name="braceright" unicode="}" horiz-adv-x="786" 
d="M70 -332v123l68 -3q116 0 171.5 42.5t55.5 137.5q0 80 -15 258q-14 155 -14 237q0 125 49.5 196.5t140.5 79.5q-92 10 -141 82.5t-49 190.5q0 55 14 157q15 117 15 147q0 102 -56 145.5t-178 43.5l-61 -2v119h149q131 0 204 -71t73 -195q0 -64 -15 -171
q-16 -107 -16 -153q0 -118 57 -175.5t174 -57.5v-121q-231 0 -231 -242q0 -68 16 -246q15 -179 15 -237q0 -138 -72.5 -211.5t-206.5 -73.5h-147z" />
    <glyph glyph-name="asciitilde" unicode="~" horiz-adv-x="969" 
d="M266 885q-64 0 -100 -60t-43 -207l-111 11q10 387 250 387q67 0 122.5 -38t121.5 -138q47 -72 73.5 -100t54.5 -43t62 -15q66 0 106.5 62.5t43.5 181.5l106 -13q-4 -171 -68.5 -263.5t-181.5 -92.5q-71 0 -125 33t-116 121l-44 64q-38 56 -74 83t-77 27z" />
    <glyph glyph-name="Aring" unicode="&#xc5;" horiz-adv-x="1165" 
d="M483 1544q-61 54 -61 135q0 71 49 121.5t121 50.5t121 -50.5t49 -121.5q0 -72 -53 -127l450 -1552h-147l-127 420h-600l-129 -420h-150zM592 1761q-34 0 -54 -25.5t-20 -56.5q0 -35 22.5 -58.5t51.5 -23.5q31 0 52.5 24t21.5 58q0 31 -19.5 56.5t-54.5 25.5zM852 549
l-219 756l-39 174l-41 -172l-231 -758h530z" />
    <glyph glyph-name="Ccedilla" unicode="&#xc7;" horiz-adv-x="1253" 
d="M580 -12q-180 18 -284 110t-157.5 272t-54.5 449q0 302 62.5 478.5t183 258.5t319.5 82q263 0 397 -148t142 -419h-152q-7 139 -48.5 233t-123 141.5t-219.5 47.5q-233 0 -321 -163t-88 -513q0 -231 47 -398t139 -232.5t235 -65.5q184 0 277.5 111.5t105.5 314.5h150
q-9 -174 -74.5 -301.5t-177.5 -193.5t-270 -68v-45q101 -9 148.5 -50.5t47.5 -115.5q0 -70 -58 -113.5t-157 -43.5q-69 0 -155 30v98q92 -34 159 -34q92 0 92 63q0 38 -40.5 59t-124.5 21v135z" />
    <glyph glyph-name="ccedilla" unicode="&#xe7;" horiz-adv-x="1030" 
d="M469 -14q-147 13 -230 78t-127 187.5t-44 313.5q0 301 116.5 441.5t345.5 140.5q213 0 322 -109.5t109 -306.5h-134q0 94 -33.5 154t-98 96.5t-163.5 36.5q-116 0 -189 -51.5t-104.5 -144.5t-31.5 -259q0 -172 37 -270t104.5 -141t186.5 -43q101 0 165 34t94.5 98
t34.5 140h132q-6 -190 -112 -289.5t-292 -107.5v-39q100 -9 148.5 -49.5t48.5 -116.5q0 -69 -57.5 -113t-158.5 -44q-69 0 -155 30v98q92 -34 160 -34q92 0 92 63q0 38 -41 59t-125 21v127z" />
    <glyph glyph-name="dagger" unicode="&#x2020;" horiz-adv-x="610" 
d="M582 942h-207v-952l-72 -180l-65 180v952h-209v129h209l-3 198v98l1 257h141v-444l-2 -109h207v-129z" />
    <glyph glyph-name="degree" unicode="&#xb0;" horiz-adv-x="545" 
d="M274 1542q91 0 155.5 -66t64.5 -157q0 -93 -65.5 -158t-154.5 -65q-91 0 -155 65t-64 158q0 90 63 156.5t156 66.5zM274 1446q-54 0 -91.5 -37.5t-37.5 -89.5q0 -54 37 -91.5t92 -37.5q56 0 91.5 36.5t35.5 92.5q0 53 -36 90t-91 37z" />
    <glyph glyph-name="cent" unicode="&#xa2;" horiz-adv-x="1016" 
d="M489 1372v135h95v-135q283 -16 360 -219q10 -27 18 -63.5t17 -122.5h-131q-6 85 -23 129q-55 151 -241 164v-920q74 6 132 36.5t92 86.5t42 155h129q-13 -124 -51 -194q-100 -179 -344 -193v-155h-95v155q-217 18 -314 149t-97 421q0 201 46 319.5t133.5 180.5t231.5 71z
M489 1260q-93 -13 -154 -59.5t-90.5 -145.5t-29.5 -254q0 -132 20 -229.5t83.5 -158.5t170.5 -73v920z" />
    <glyph glyph-name="sterling" unicode="&#xa3;" horiz-adv-x="1102" 
d="M248 774q-113 295 -113 486q0 378 422 378q98 0 170 -16t123 -49t84 -85.5t47 -122t14 -284.5h-143q0 171 -8 223t-27 91.5t-52.5 65.5t-81.5 37t-122 11q-138 0 -205 -65.5t-67 -198.5q0 -174 108 -471h461v-121h-426q30 -104 31 -190q0 -131 -55 -216.5t-158 -123.5
h770v-123h-928v135q115 50 168.5 127.5t53.5 192.5q0 86 -29 198h-179v121h142z" />
    <glyph glyph-name="section" unicode="&#xa7;" horiz-adv-x="903" 
d="M193 1108q-57 37 -79 95.5t-22 162.5q0 122 89.5 195t248.5 73q186 0 272 -87t86 -277h-122q0 144 -51 203t-179 59q-122 0 -175.5 -38t-53.5 -132q0 -65 29.5 -108t80.5 -73t202 -74q143 -43 197 -77t84.5 -83.5t30.5 -121.5q0 -83 -42 -150t-107 -93q178 -72 178 -285
q0 -166 -95 -244t-288 -78q-163 0 -252 36.5t-127.5 116.5t-38.5 230h125q0 -124 26.5 -177t89 -75t179.5 -22q130 0 193 47.5t63 157.5q0 74 -32 123.5t-90 85.5t-209 84q-143 46 -204 85t-94.5 95t-33.5 139q0 62 33 120t88 87zM614 623q46 12 76.5 64.5t30.5 105.5
q0 55 -19 83.5t-65 55t-129 57t-234 76.5q-43 -25 -64.5 -63t-21.5 -99q0 -63 26.5 -98t97 -69t302.5 -113z" />
    <glyph glyph-name="bullet" unicode="&#x2022;" horiz-adv-x="637" 
d="M322 598q-61 0 -104.5 45.5t-43.5 104.5t42.5 104t105.5 45q60 0 102.5 -44t42.5 -105q0 -62 -43 -106t-102 -44z" />
    <glyph glyph-name="paragraph" unicode="&#xb6;" horiz-adv-x="854" 
d="M780 1632v-1847h-69v1737h-74v-1737h-74v766q-27 -37 -84.5 -60.5t-120.5 -23.5q-171 0 -244 120.5t-73 459.5q0 125 10 212t36.5 166t66 123t95 67t124.5 23q55 0 114 -21t78 -50l33 65h182zM563 1413q-2 42 -47.5 70t-95.5 28q-98 0 -144 -47.5t-69 -170.5t-23 -242
t13 -226t35 -146t69.5 -64t106.5 -25q58 0 103.5 30.5t49.5 77.5l2 138v577z" />
    <glyph glyph-name="germandbls" unicode="&#xdf;" horiz-adv-x="1386" 
d="M541 1518q-103 -2 -150 -51t-47 -148v-1319h-137v1001h-180v127h180v203q0 156 86 236t258 80q135 0 222 -75t87 -198q0 -74 -27 -135t-80 -117q-58 -61 -83 -107t-25 -97t19.5 -85t56.5 -58.5t149 -63.5l170 -56q151 -47 229.5 -127.5t78.5 -214.5q0 -164 -106.5 -246.5
t-311.5 -82.5q-193 0 -295.5 57.5t-124.5 173.5q-6 30 -8 107l-2 34h139v-47q0 -83 31.5 -126t96 -65t165.5 -22q144 0 212 48.5t68 158.5q0 94 -62 149.5t-181 90.5l-79 24q-168 49 -238.5 91t-105 101t-34.5 142q0 129 102 248q54 64 77.5 107t23.5 85q0 86 -45.5 131.5
t-128.5 45.5z" />
    <glyph glyph-name="registered" unicode="&#xae;" horiz-adv-x="1155" 
d="M580 537q-230 0 -371.5 128t-147.5 341l-1 76v48q0 164 64.5 277t182.5 172t273 59q227 0 366.5 -126t149.5 -341l2 -79l-2 -86q-8 -216 -148 -342.5t-368 -126.5zM1033 1060v75q0 209 -120.5 323.5t-332.5 114.5q-141 0 -244.5 -50t-158.5 -146.5t-55 -246.5v-41l1 -63
q4 -199 126 -314.5t331 -115.5q212 0 332.5 118t120.5 346zM840 743h-115l-129 279h-141v-279h-111v656h289q71 0 120 -24t71 -65t22 -93q0 -45 -17 -88t-52.5 -67t-74.5 -28zM735 1202q0 38 -23.5 64.5t-66.5 31.5q-20 9 -155 9h-35v-203l56 -1q109 0 144 9q80 10 80 90z
" />
    <glyph glyph-name="copyright" unicode="&#xa9;" horiz-adv-x="1155" 
d="M580 537q-230 0 -371.5 128t-147.5 341l-1 76v48q0 164 64.5 277t182.5 172t273 59q227 0 366.5 -126t149.5 -341l2 -79l-2 -86q-8 -216 -148 -342.5t-368 -126.5zM1033 1098v37q0 209 -120.5 323.5t-332.5 114.5q-141 0 -244.5 -50t-158.5 -146.5t-55 -246.5v-41l1 -63
q4 -203 127 -316.5t330 -113.5q208 0 327 112.5t125 317.5zM883 983l-15 -92q-49 -168 -288 -168q-108 0 -177.5 35.5t-102 104.5t-32.5 212q0 142 33 212t106.5 107.5t176.5 37.5q126 0 197 -51.5t91 -133.5q5 -18 11 -84h-111q0 24 -6 66q-34 102 -180 102
q-69 0 -116.5 -25.5t-70 -73.5t-22.5 -161q0 -54 6 -108q27 -146 203 -146q78 0 121 25.5t59 79.5l10 61h107z" />
    <glyph glyph-name="trademark" unicode="&#x2122;" horiz-adv-x="1391" 
d="M1219 1055v381q0 40 -23 68t-76 28q-46 0 -78 -32.5t-32 -84.5v-360h-115v395q0 37 -26.5 59.5t-69.5 22.5q-49 0 -83 -38t-34 -83v-356h-115v579h115v-88q16 46 61.5 72.5t102.5 26.5q62 0 98 -30t47 -73q13 47 61 75t109 28q81 0 126.5 -44t45.5 -124v-422h-114z
M510 1530h-205v-273q0 -45 24.5 -72.5t73.5 -27.5h84v-100l-129 -4q-74 0 -118.5 42.5t-44.5 116.5v318h-179v104h494v-104z" />
    <glyph glyph-name="acute" unicode="&#xb4;" 
d="M250 1217l182 260h154l-203 -260h-133z" />
    <glyph glyph-name="dieresis" unicode="&#xa8;" 
d="M596 1219h-137v202h137v-202zM301 1219h-139v202h139v-202z" />
    <glyph glyph-name="AE" unicode="&#xc6;" horiz-adv-x="1667" 
d="M1622 1622v-139h-698v-594h661v-137h-661v-615h702v-137h-846v408h-448l-185 -408h-153l733 1622h895zM780 1446l-69 -184l-326 -730h395v914z" />
    <glyph glyph-name="Oslash" unicode="&#xd8;" horiz-adv-x="1284" 
d="M1047 1485q73 -73 115 -239t42 -429q0 -406 -125.5 -620.5t-437.5 -214.5q-206 0 -332 96l-88 -162h-108l125 227q-59 71 -89 159.5t-47.5 221.5t-17.5 291q0 230 35.5 388t102.5 249t173.5 138.5t247.5 47.5q204 0 334 -90l57 103h103q-66 -110 -90 -166zM319 309
q55 99 588 1106q-48 44 -110.5 64t-153.5 20q-157 0 -242.5 -69.5t-126.5 -228t-41 -392.5q0 -328 86 -500zM969 1329l-588 -1114q63 -53 125 -74.5t139 -21.5q225 0 318.5 169t93.5 525q0 169 -23 308t-65 208z" />
    <glyph glyph-name="yen" unicode="&#xa5;" horiz-adv-x="1214" 
d="M524 397h-436v97h436v79l-518 1049h156q90 -177 165.5 -329t172 -352t96.5 -222q0 17 64 148t154 303t239 452h155l-540 -1044v-84h436v-97h-436v-94h436v-98h-436v-205h-144v205h-436v98h436v94z" />
    <glyph glyph-name="copyrightsound" unicode="&#x2117;" horiz-adv-x="1155" 
d="M580 537q-230 0 -371.5 128t-147.5 341l-1 76v48q0 164 64.5 277t182.5 172t273 59q227 0 366.5 -126t149.5 -341l2 -79l-2 -86q-8 -216 -148 -342.5t-368 -126.5zM1033 1060v75q0 209 -120.5 323.5t-332.5 114.5q-141 0 -244.5 -50t-158.5 -146.5t-55 -246.5v-41l1 -63
q4 -199 126 -314.5t331 -115.5q212 0 332.5 118t120.5 346zM459 1014v-271h-111v656h301q70 0 121.5 -25t72.5 -69t21 -99q0 -92 -47 -141t-149 -51h-209zM754 1202q0 40 -29 72.5t-78 32.5h-188v-209h190q41 0 61 12.5t32 36t12 55.5z" />
    <glyph glyph-name="ordfeminine" unicode="&#xaa;" horiz-adv-x="913" 
d="M846 569h-131q-3 0 -8 58.5t-5 75.5v10q-32 -73 -116.5 -113.5t-214.5 -40.5q-155 0 -243.5 67.5t-92.5 184.5v50q0 122 53.5 192.5t162 107.5t299.5 37l148 -4l1 36l-3 148q-6 86 -61.5 122t-179.5 36q-92 0 -142.5 -25t-79 -81t-28.5 -150h-125q0 130 41.5 208.5
t125.5 122.5t216 44q178 0 266 -61t96 -185q4 -54 4 -163v-173l-2 -309q0 -53 5.5 -113.5t13.5 -81.5zM866 385h-809v109h809v-109zM700 1094q-73 7 -152 7q-208 0 -293.5 -53.5t-90.5 -162.5l-1 -39q0 -60 27 -98t80 -58t127 -20q86 0 147 21.5t96 69.5t47.5 111.5
t12.5 221.5z" />
    <glyph glyph-name="ordmasculine" unicode="&#xba;" horiz-adv-x="985" 
d="M924 1104q0 -171 -52.5 -303t-146.5 -191t-233 -59q-229 0 -331 145t-102 408q0 258 105 403.5t330 145.5q151 0 245.5 -62.5t139.5 -178t45 -308.5zM924 385h-867v109h867v-109zM795 1104q0 236 -69.5 334t-233.5 98q-163 0 -233.5 -109t-70.5 -323q0 -148 31 -251
t92 -145t181 -42q105 0 167.5 38t99 146.5t36.5 253.5z" />
    <glyph glyph-name="ae" unicode="&#xe6;" horiz-adv-x="1722" 
d="M827 219q-43 -107 -146.5 -169t-246.5 -62q-165 0 -259.5 72.5t-98.5 199.5v88q5 102 62 173t168 111t291 40q93 0 185 -10v90l-2 102q-6 88 -67 129t-193 41q-97 0 -155.5 -27.5t-86.5 -86t-28 -165.5h-127q0 140 42 223.5t130.5 131t232.5 47.5q295 0 349 -184
q29 82 127.5 133t234.5 51q151 0 250.5 -60.5t145.5 -163.5t46 -321l-2 -90h-766q0 -118 14.5 -186t52 -120.5t104 -77t155.5 -24.5q285 0 303 236h131q-7 -97 -59 -184.5t-148.5 -129.5t-230.5 -42q-163 0 -268.5 60t-139.5 175zM1542 618q0 155 -24 235t-97 124.5
t-188 44.5q-79 0 -138 -21.5t-97.5 -65t-62.5 -131t-24 -186.5h631zM784 547q-38 10 -137 10q-66 0 -119.5 -1t-101.5 -15q-103 -29 -158 -88t-55 -136q0 -75 28 -115.5t78 -59.5t119 -19q103 0 191 55t121 158q15 25 24.5 91.5t9.5 119.5z" />
    <glyph glyph-name="oslash" unicode="&#xf8;" horiz-adv-x="1071" 
d="M201 100q-131 139 -131 465q0 196 56.5 326t160 193t252.5 63q159 0 264 -64l59 95h99l-93 -144q66 -66 101 -183t35 -286q0 -179 -54 -317t-157.5 -201t-255.5 -63q-172 0 -275 67l-67 -102h-93zM274 229l459 740q-72 47 -196 47q-118 0 -193 -54.5t-107 -158.5
t-32 -238q0 -236 69 -336zM795 909l-465 -745q72 -55 207 -55q118 0 188 46.5t106.5 156t36.5 253.5q0 230 -73 344z" />
    <glyph glyph-name="questiondown" unicode="&#xbf;" horiz-adv-x="977" 
d="M451 1622h161v-250h-161v250zM469 1234v11h129v-12q0 -116 -26 -212.5t-75.5 -169.5t-156.5 -171q-74 -67 -108.5 -132t-34.5 -171q0 -144 71 -203t236 -59q130 0 203 48t86 130q12 108 12 133h139q0 -73 -16.5 -165t-71.5 -153t-150 -92.5t-219 -31.5q-158 0 -257 41.5
t-142.5 124.5t-43.5 214l5 93q16 147 151 271q106 97 144 140.5t66 97t43.5 119t15.5 149.5z" />
    <glyph glyph-name="exclamdown" unicode="&#xa1;" horiz-adv-x="477" 
d="M158 1624h161v-250h-161v250zM158 -12l16 1259h129l16 -1259h-161z" />
    <glyph glyph-name="radical" unicode="&#x221a;" horiz-adv-x="1229" 
d="M1204 1624l-631 -1655h-186l-362 690h151l301 -569l580 1534h147z" />
    <glyph glyph-name="florin" unicode="&#x192;" horiz-adv-x="782" 
d="M41 -295q-74 0 -162 12v127q53 -8 133 -8q63 2 106.5 42t49.5 102l96 1026h-176l2 127h189l24 262q22 254 307 254q34 0 59 -2t44.5 -5.5t34.5 -7t30 -6.5v-121q-25 3 -66 9t-81 6q-89 -2 -136 -36t-53 -104l-24 -252h301v-124h-313l-97 -1041q-14 -119 -85 -189.5
t-183 -70.5z" />
    <glyph glyph-name="guillemotleft" unicode="&#xab;" horiz-adv-x="1008" 
d="M922 231l-445 424v99l445 426v-158l-326 -317l326 -312v-162zM551 231l-447 424v99l447 426v-158l-328 -317l328 -312v-162z" />
    <glyph glyph-name="guillemotright" unicode="&#xbb;" horiz-adv-x="1008" 
d="M459 248v162l323 313l-323 313v160l446 -428v-98zM86 248v162l324 313l-324 313v160l446 -428v-98z" />
    <glyph glyph-name="ellipsis" unicode="&#x2026;" horiz-adv-x="1614" 
d="M1438 0h-193v264h193v-264zM901 0h-194v264h194v-264zM362 0h-192v264h192v-264z" />
    <glyph glyph-name="nonbreakingspace" unicode="&#xa0;" horiz-adv-x="236" 
 />
    <glyph glyph-name="OE" unicode="&#x152;" horiz-adv-x="1860" 
d="M956 1622h840v-137h-715v-596h680v-137h-680v-615h721v-137h-850v82q-47 -47 -128 -73.5t-191 -26.5q-203 0 -321 90t-174 272.5t-56 470.5q0 304 55.5 480t175.5 259.5t318 83.5q102 0 187 -30.5t138 -83.5v98zM647 113q107 0 186.5 29t104.5 79l3 128l-1 246v426l1 117
q0 94 -1 155.5t-2 68.5q-78 141 -293 141q-220 0 -317 -161.5t-97 -532.5q0 -358 101.5 -527t314.5 -169z" />
    <glyph glyph-name="oe" unicode="&#x153;" horiz-adv-x="1825" 
d="M936 913q28 109 131 171.5t256 62.5t255 -61.5t146.5 -165t44.5 -319.5l-2 -91h-766q0 -115 14 -183t51.5 -120.5t103.5 -77.5t157 -25q285 0 303 236h131q-7 -97 -59 -184.5t-148.5 -129.5t-230.5 -42q-163 0 -267 59.5t-128 169.5q-39 -109 -142.5 -169t-248.5 -60
q-247 0 -357 144.5t-110 436.5q0 196 56.5 326t160 193t252.5 63q151 0 257.5 -61.5t139.5 -172.5zM1630 618q0 158 -25 237t-97 123t-187 44q-176 0 -248 -98t-74 -306h631zM868 565q0 239 -71 345t-260 106q-165 0 -248.5 -104t-83.5 -347q0 -159 33 -262t102 -148.5
t197 -45.5q118 0 188 46.5t106.5 156t36.5 253.5z" />
    <glyph glyph-name="endash" unicode="&#x2013;" horiz-adv-x="889" 
d="M846 629h-801v143h801v-143z" />
    <glyph glyph-name="emdash" unicode="&#x2014;" horiz-adv-x="1280" 
d="M1184 631h-1090v141h1090v-141z" />
    <glyph glyph-name="quotedblleft" unicode="&#x201c;" horiz-adv-x="621" 
d="M555 1448v-248h-184v260l118 180l78 -38l-67 -144l4 -8zM258 1450v-250h-184v260l121 180l75 -38l-67 -144l4 -8h51z" />
    <glyph glyph-name="quotedblright" unicode="&#x201d;" horiz-adv-x="621" 
d="M375 1382v250h184v-264l-119 -176l-78 35l68 145l-4 10h-51zM78 1382v250h184v-264l-119 -176l-75 35l65 145l-4 10h-51z" />
    <glyph glyph-name="quoteleft" unicode="&#x2018;" horiz-adv-x="326" 
d="M262 1454v-254h-188v266l116 174l78 -38l-61 -140l4 -8h51z" />
    <glyph glyph-name="quoteright" unicode="&#x2019;" horiz-adv-x="326" 
d="M68 1376v256h190v-268l-117 -172l-78 35l62 139l-4 10h-53z" />
    <glyph glyph-name="fraction" unicode="&#x2044;" horiz-adv-x="369" 
d="M571 1622l-700 -1622h-78l694 1622h84z" />
    <glyph glyph-name="fraction" unicode="&#x2215;" horiz-adv-x="369" 
d="M571 1622l-700 -1622h-78l694 1622h84z" />
    <glyph glyph-name="Euro" unicode="&#x20ac;" horiz-adv-x="1227" 
d="M178 856h-145v96h147q7 268 58.5 411.5t157 209t276.5 65.5q157 0 256.5 -54t153 -165t71.5 -317h-152q-25 220 -104 311.5t-227 91.5q-119 0 -191 -54.5t-107.5 -168.5t-41.5 -330h577v-96h-579v-94h579v-98h-577q9 -207 44 -324.5t103 -170t195 -52.5q111 0 172.5 36.5
t98.5 118t54 224.5h148q-34 -270 -144.5 -391t-330.5 -121q-177 0 -276 69.5t-150 216.5t-64 394h-147v98h145v94z" />
    <glyph glyph-name="guilsinglleft" unicode="&#x2039;" horiz-adv-x="530" 
d="M492 248l-447 422v98l447 428v-160l-328 -313l328 -313v-162z" />
    <glyph glyph-name="guilsinglright" unicode="&#x203a;" horiz-adv-x="530" 
d="M39 248v162l330 313l-330 313v160l444 -428v-98z" />
    <glyph glyph-name="daggerdbl" unicode="&#x2021;" horiz-adv-x="610" 
d="M375 690h192v-117h-190v-585l-72 -178l-65 178v585h-197v117h197v291h-197v119h197l-2 202v322h141v-322l-2 -202h190v-119h-192v-291z" />
    <glyph glyph-name="periodcentered" unicode="&#xb7;" horiz-adv-x="539" 
d="M365 670h-199v264h199v-264z" />
    <glyph glyph-name="periodcentered" unicode="&#x2219;" horiz-adv-x="539" 
d="M365 670h-199v264h199v-264z" />
    <glyph glyph-name="quotesinglbase" unicode="&#x201a;" horiz-adv-x="326" 
d="M68 0v256h190v-266l-117 -176l-78 34l62 144l-4 8h-53z" />
    <glyph glyph-name="quotedblbase" unicode="&#x201e;" horiz-adv-x="621" 
d="M375 0v250h184v-262l-119 -178l-78 34l68 148l-4 8h-51zM78 0v250h184v-262l-119 -178l-75 34l65 148l-4 8h-51z" />
    <glyph glyph-name="perthousand" unicode="&#x2030;" horiz-adv-x="2462" 
d="M801 1151q0 -98 -44 -178t-127 -126t-190 -46q-108 0 -190 45.5t-127 127t-45 177.5v143q0 163 97.5 258t264.5 95q111 0 192.5 -44.5t125 -124t43.5 -184.5v-143zM1307 1575l-850 -1575h-99l850 1575h99zM2413 336q0 -164 -97.5 -258t-267.5 -94q-162 0 -260 98t-98 254
v143q0 101 45 183t126.5 127t190.5 45t190 -46.5t126 -129.5t45 -179v-143zM1620 336q0 -162 -96 -257t-267 -95q-109 0 -191 45.5t-125.5 126t-43.5 180.5v143q0 101 45 183t126.5 127t188.5 45q109 0 191 -46t127 -129t45 -180v-143zM684 1153v147q0 102 -68 167t-176 65
q-117 0 -181 -59.5t-64 -169.5v-150q0 -107 69.5 -175.5t175.5 -68.5q112 0 178 65.5t66 178.5zM2298 338v149q0 99 -68.5 165.5t-177.5 66.5q-116 0 -181 -63t-65 -169v-149q0 -103 69 -172.5t177 -69.5q116 0 181 64.5t65 177.5zM1503 338v149q0 98 -67 165t-179 67
q-116 0 -179.5 -63t-63.5 -169v-149q0 -104 68.5 -173t174.5 -69q117 0 181.5 63.5t64.5 178.5z" />
    <glyph glyph-name="apple" unicode="&#xf8ff;" horiz-adv-x="852" 
d="M264 659q-42 -52 -49 -63q-12 -17 -25 -17q-15 0 -27 14.5t-12 31.5q0 22 23 26l78 19q-57 68 -57 151q0 84 55 150q-36 11 -66 16q-24 3 -24 26q0 16 11.5 31t27.5 15q13 0 24 -14.5t43 -57.5q53 53 127 64v473h-383v104h832v-104h-385v-473q74 -10 125 -62l45 60
q12 17 25 17q15 0 27 -14.5t12 -31.5q0 -23 -23 -27l-72 -16q59 -65 59 -156q0 -81 -55 -147l70 -17q23 -4 23 -26q0 -17 -12 -31.5t-27 -14.5q-13 0 -25 17l-43 55q-63 -52 -131 -61v-475h387v-111h-832v111h383l-2 475q-74 12 -127 63zM457 995v-96l-33 -70l-29 70v96
q-62 -12 -103.5 -61.5t-41.5 -112.5t41 -111.5t102 -60.5v96l31 68l31 -68v-96q62 12 104.5 60t42.5 112t-41.5 113t-103.5 61z" />
    <glyph glyph-name="dotlessi" unicode="&#x131;" horiz-adv-x="395" 
d="M276 0h-137q-10 10 -10 80v1046h139v-1040q0 -78 8 -86z" />
    <glyph glyph-name="circumflex" unicode="&#x2c6;" 
d="M655 1221h-123l-153 176l-154 -176h-121l195 258h162z" />
    <glyph glyph-name="tilde" unicode="&#x2dc;" 
d="M273 1346h-3q-67 0 -73 -119h-101q3 100 45 159.5t117 59.5q45 0 80 -17t82 -67q37 -41 67 -41q34 0 54 26.5t26 92.5h101q-5 -100 -44 -159.5t-116 -59.5q-82 0 -139 57q-26 28 -46 48t-50 20z" />
    <glyph glyph-name="macron" unicode="&#xaf;" 
d="M627 1260h-498v98h498v-98z" />
    <glyph glyph-name="macron" unicode="&#x304;" 
d="M627 1260h-498v98h498v-98z" />
    <glyph glyph-name="breve" unicode="&#x2d8;" 
d="M643 1454q0 -105 -71.5 -173.5t-190.5 -68.5q-118 0 -192 67.5t-74 174.5h108q0 -64 42.5 -105.5t113.5 -41.5q69 0 111 40.5t42 106.5h111z" />
    <glyph glyph-name="dotaccent" unicode="&#x2d9;" 
d="M451 1221h-142v196h142v-196z" />
    <glyph glyph-name="ring" unicode="&#x2da;" 
d="M379 1559q70 0 120 -49.5t50 -123.5q0 -70 -50 -122t-120 -52t-120 52.5t-50 121.5q0 73 50 123t120 50zM379 1468q-35 0 -54.5 -25.5t-19.5 -56.5q0 -34 20.5 -57.5t53.5 -23.5q32 0 53 23t21 58q0 31 -18.5 56.5t-55.5 25.5z" />
    <glyph glyph-name="cedilla" unicode="&#xb8;" 
d="M492 -227q0 38 -41 59t-125 21v147h88v-61q101 -9 148.5 -50.5t47.5 -115.5q0 -70 -58 -113.5t-157 -43.5q-69 0 -155 30v98q92 -34 160 -34q92 0 92 63z" />
    <glyph glyph-name="hungarumlaut" unicode="&#x2dd;" 
d="M408 1217l153 260h127l-172 -260h-108zM195 1217l151 260h127l-172 -260h-106z" />
    <glyph glyph-name="ogonek" unicode="&#x2db;" horiz-adv-x="772" 
d="M324 -174q0 -53 46 -80t128 -27v-90q-128 0 -199.5 50.5t-71.5 146.5q0 67 58 115.5t166 64.5l20 -65q-147 -25 -147 -115z" />
    <glyph glyph-name="caron" unicode="&#x2c7;" 
d="M102 1479h123l154 -174l153 174h123l-196 -256h-160z" />
    <glyph glyph-name="notequal" unicode="&#x2260;" horiz-adv-x="1536" 
d="M212 976v200h688l96 180h172l-96 -180h256v-200h-362l-198 -372h560v-200h-666l-114 -216h-176l115 216h-275v200h382l199 372h-581z" />
    <glyph glyph-name="infinity" unicode="&#x221e;" horiz-adv-x="1536" 
d="M1072 396q-108 0 -181.5 45.5t-123.5 149.5q-56 -90 -141 -142.5t-186 -52.5q-156 0 -250 112t-94 300q0 176 112 292t260 116q108 0 185 -43.5t128 -142.5q105 186 319 186q148 0 246 -104t98 -292q0 -180 -104 -302t-268 -122zM472 1048q-96 0 -156 -66t-60 -190
t46 -182t146 -58q176 0 252 254q-38 134 -93.5 188t-134.5 54zM1072 556q84 0 146 70t62 190q0 100 -46 172t-154 72q-84 0 -134 -55.5t-96 -201.5q13 -151 75 -199t147 -48z" />
    <glyph glyph-name="plusminus" unicode="&#xb1;" horiz-adv-x="1536" 
d="M672 352v412h-472v172h472v416h192v-416h476v-172h-476v-412h-192zM204 24v192h1132v-192h-1132z" />
    <glyph glyph-name="lessequal" unicode="&#x2264;" horiz-adv-x="1536" 
d="M1348 236l-1140 472v164l1140 472v-216l-900 -336l900 -340v-216zM212 24v192h1136v-192h-1136z" />
    <glyph glyph-name="greaterequal" unicode="&#x2265;" horiz-adv-x="1536" 
d="M212 236v216l900 340l-900 336v216l1140 -472v-164zM212 24v192h1136v-192h-1136z" />
    <glyph glyph-name="mu" unicode="&#xb5;" horiz-adv-x="1408" 
d="M252 -424q-56 0 -84 32t-28 112q0 156 16 380q16 200 16 228l4 28v820h192v-856q0 -92 82 -144t178 -52q132 0 230 66t150 190v796h192v-868l20 -308h-164l-36 176q-68 -108 -184 -162t-264 -54q-52 0 -128 26t-120 74q0 -88 28 -172t28 -152q0 -160 -128 -160z" />
    <glyph glyph-name="mu" unicode="&#x3bc;" horiz-adv-x="1408" 
d="M252 -424q-56 0 -84 32t-28 112q0 156 16 380q16 200 16 228l4 28v820h192v-856q0 -92 82 -144t178 -52q132 0 230 66t150 190v796h192v-868l20 -308h-164l-36 176q-68 -108 -184 -162t-264 -54q-52 0 -128 26t-120 74q0 -88 28 -172t28 -152q0 -160 -128 -160z" />
    <glyph glyph-name="partialdiff" unicode="&#x2202;" horiz-adv-x="1280" 
d="M476 -32q-200 0 -310 112t-110 280q0 220 158 390t390 170q96 0 198 -34t162 -70q12 84 12 168q0 188 -68 294t-188 106q-128 0 -202 -28t-150 -76l-44 164q76 44 168 74t228 30q236 0 344 -154t108 -426q0 -416 -204 -708t-492 -292zM488 128q343 0 456 556
q-32 32 -120 64t-176 32q-192 0 -288 -126t-96 -282q0 -108 54 -176t170 -68z" />
    <glyph glyph-name="summation" unicode="&#x2211;" horiz-adv-x="1152" 
d="M1084 1524v-180h-752l464 -560l-492 -596h776v-188h-1040v172l520 616l-492 592v144h1016z" />
    <glyph glyph-name="product" unicode="&#x220f;" horiz-adv-x="1536" 
d="M332 0v1348h-252v176h1376v-176h-244v-1348h-208v1356h-464v-1356h-208z" />
    <glyph glyph-name="pi" unicode="&#x3c0;" horiz-adv-x="1408" 
d="M296 0v1028h-284v148h1304v-148h-320v-684q0 -116 46 -160t110 -44q48 0 80 2t64 14v-128q-48 -24 -90 -34t-118 -10q-128 0 -202 80t-74 272v692h-328v-1028h-188z" />
    <glyph glyph-name="integral" unicode="&#x222b;" horiz-adv-x="1152" 
d="M-8 -392l64 132q60 -20 108 -20t78 34t46 134l228 1336q56 320 364 320q92 0 162 -22t110 -46l-64 -172q-119 76 -220 76q-92 0 -138 -58t-58 -134l-224 -1412q-20 -108 -98 -158t-174 -50q-60 0 -110 12t-74 28z" />
    <glyph glyph-name="Omega" unicode="&#x3a9;" horiz-adv-x="1664" 
d="M832 1376q-188 0 -322 -142t-134 -398q0 -244 88 -404t260 -252v-180h-636v196h448q-120 44 -232 210t-112 442q0 264 166 482t474 218t474 -210t166 -490q0 -276 -112 -442t-232 -210h448v-196h-636v180q172 92 260 252t88 404q0 208 -126 374t-330 166z" />
    <glyph glyph-name="Omega" unicode="&#x2126;" horiz-adv-x="1664" 
d="M832 1376q-188 0 -322 -142t-134 -398q0 -244 88 -404t260 -252v-180h-636v196h448q-120 44 -232 210t-112 442q0 264 166 482t474 218t474 -210t166 -490q0 -276 -112 -442t-232 -210h448v-196h-636v180q172 92 260 252t88 404q0 208 -126 374t-330 166z" />
    <glyph glyph-name="logicalnot" unicode="&#xac;" horiz-adv-x="1536" 
d="M1116 352v376h-904v192h1084v-568h-180z" />
    <glyph glyph-name="approxequal" unicode="&#x2248;" horiz-adv-x="1536" 
d="M236 400q-8 44 -8 80q0 100 60 172t188 72q100 0 174 -28t138 -54t124 -44t108 -18q76 0 108 30t32 74l-4 32h144q8 -44 8 -80q0 -100 -60 -172t-188 -72q-100 0 -174 26t-138 52t-124 42t-108 16q-76 0 -108 -28t-32 -68l4 -32h-144zM236 860q-8 44 -8 80q0 100 60 172
t188 72q100 0 174 -28t138 -54t124 -44t108 -18q76 0 108 30t32 74l-4 32h144q8 -44 8 -80q0 -100 -60 -172t-188 -72q-100 0 -174 26t-138 52t-124 42t-108 16q-76 0 -108 -28t-32 -68l4 -32h-144z" />
    <glyph glyph-name="Delta" unicode="&#x394;" horiz-adv-x="1536" 
d="M76 0l576 1536h232l572 -1536h-1380zM352 148h812l-412 1108z" />
    <glyph glyph-name="Delta" unicode="&#x2206;" horiz-adv-x="1536" 
d="M76 0l576 1536h232l572 -1536h-1380zM352 148h812l-412 1108z" />
    <glyph glyph-name="divide" unicode="&#xf7;" horiz-adv-x="1536" 
d="M208 684v212h1120v-212h-1120zM768 228q-64 0 -112 48t-48 112t42 112t118 48q72 0 116 -48t44 -112t-48 -112t-112 -48zM768 1028q-64 0 -112 48t-48 112t42 112t118 48q72 0 116 -48t44 -112t-48 -112t-112 -48z" />
    <glyph glyph-name="lozenge" unicode="&#x25ca;" horiz-adv-x="1152" 
d="M472 -48l-404 804l404 804h184l428 -804l-428 -804h-184zM556 152l320 616l-304 588l-320 -616z" />
    <glyph glyph-name="currency" unicode="&#xa4;" horiz-adv-x="1152" 
d="M1056 392l-116 -108l-200 216q-72 -48 -168 -48q-92 0 -164 48l-200 -216l-116 108l208 216q-28 40 -38 78t-10 94q0 103 48 172l-208 216l116 108l200 -216q72 48 164 48q96 0 168 -48l204 216l116 -120l-208 -204q28 -40 38 -80t10 -92q0 -96 -52 -172zM748 780
q0 80 -50 130t-126 50t-124 -50t-48 -130t50 -128t122 -48q80 0 128 48t48 128z" />
    <glyph glyph-name="Eth" unicode="&#xd0;" horiz-adv-x="1243" 
d="M160 739h-123v146h123v737h520q140 0 229 -36t145.5 -109.5t82.5 -236.5t26 -402q0 -534 -92 -672q-60 -88 -149 -127t-224 -39h-538v739zM305 885h344v-146h-344v-602h373q85 0 145 18.5t101.5 62t59.5 120.5t27 191.5t11 306.5q0 162 -15 292.5t-42.5 199t-98.5 112
t-192 43.5h-369v-598z" />
    <glyph glyph-name="eth" unicode="&#xf0;" horiz-adv-x="1079" 
d="M834 1217q-29 -19 -52 -29t-57 -10q-68 0 -110.5 43t-51.5 127l66 16q7 -61 29.5 -90t66.5 -29q31 0 52 11.5t44 31.5q-16 63 -22 74q-38 84 -103 122t-166 38q-195 0 -245 -127q-6 -22 -6 -39h-140l6 27q2 20 9 38q31 108 132.5 163.5t262.5 55.5q137 0 231.5 -57
t139.5 -166l22 -61q39 30 59 36.5t50 6.5q141 0 159 -178l-61 -19q-9 69 -34 97t-66 28q-29 0 -45.5 -10t-40.5 -29q23 -77 37 -189.5t14 -215.5q0 -392 -29 -531q-79 -368 -448 -368q-235 0 -353 130t-118 418q0 191 45 307.5t141.5 179t249.5 62.5q259 0 370 -172
q0 167 -38 308zM537 113q137 0 216 71t101 199q12 72 15 280l1 89q-18 58 -68 109t-116.5 76.5t-146.5 25.5q-122 0 -199 -57t-100.5 -152t-23.5 -232q0 -180 38.5 -257.5t111.5 -114.5t171 -37z" />
    <glyph glyph-name="Agrave" unicode="&#xc0;" horiz-adv-x="1165" 
d="M285 420l-129 -420h-150l502 1622h180l471 -1622h-147l-127 420h-600zM852 549l-219 756l-39 161l-41 -159l-231 -758h530zM751 1627h-137l-201 260h154z" />
    <glyph glyph-name="Aacute" unicode="&#xc1;" horiz-adv-x="1165" 
d="M285 420l-129 -420h-150l502 1622h180l471 -1622h-147l-127 420h-600zM852 549l-219 756l-39 161l-41 -159l-231 -758h530zM414 1627l182 260h154l-203 -260h-133z" />
    <glyph glyph-name="Acircumflex" unicode="&#xc2;" horiz-adv-x="1165" 
d="M285 420l-129 -420h-150l502 1622h180l471 -1622h-147l-127 420h-600zM852 549l-219 756l-39 161l-41 -159l-231 -758h530zM858 1631h-123l-153 176l-154 -176h-121l195 258h162z" />
    <glyph glyph-name="Atilde" unicode="&#xc3;" horiz-adv-x="1165" 
d="M285 420l-129 -420h-150l502 1622h180l471 -1622h-147l-127 420h-600zM852 549l-219 756l-39 161l-41 -159l-231 -758h530zM473 1756h-3q-67 0 -73 -119h-101q3 100 45 159.5t117 59.5q45 0 80 -17t82 -67q37 -41 67 -41q34 0 54 26.5t26 92.5h101q-5 -100 -44 -159.5
t-116 -59.5q-82 0 -139 57q-26 28 -46 48t-50 20z" />
    <glyph glyph-name="Adieresis" unicode="&#xc4;" horiz-adv-x="1165" 
d="M285 420l-129 -420h-150l502 1622h180l471 -1622h-147l-127 420h-600zM852 549l-219 756l-39 161l-41 -159l-231 -758h530zM799 1629h-137v202h137v-202zM504 1629h-139v202h139v-202z" />
    <glyph glyph-name="Egrave" unicode="&#xc8;" horiz-adv-x="1116" 
d="M1030 0h-870v1622h864v-139h-721v-592h688v-141h-688v-613h727v-137zM727 1627h-137l-201 260h154z" />
    <glyph glyph-name="Eacute" unicode="&#xc9;" horiz-adv-x="1116" 
d="M1030 0h-870v1622h864v-139h-721v-592h688v-141h-688v-613h727v-137zM390 1627l182 260h154l-203 -260h-133z" />
    <glyph glyph-name="Ecircumflex" unicode="&#xca;" horiz-adv-x="1116" 
d="M1030 0h-870v1622h864v-139h-721v-592h688v-141h-688v-613h727v-137zM833 1631h-123l-153 176l-154 -176h-121l195 258h162z" />
    <glyph glyph-name="Edieresis" unicode="&#xcb;" horiz-adv-x="1116" 
d="M1030 0h-870v1622h864v-139h-721v-592h688v-141h-688v-613h727v-137zM775 1629h-137v202h137v-202zM480 1629h-139v202h139v-202z" />
    <glyph glyph-name="Igrave" unicode="&#xcc;" horiz-adv-x="467" 
d="M309 0h-149v1622h149v-1622zM404 1627h-137l-201 260h154z" />
    <glyph glyph-name="Iacute" unicode="&#xcd;" horiz-adv-x="467" 
d="M309 0h-149v1622h149v-1622zM67 1627l182 260h154l-203 -260h-133z" />
    <glyph glyph-name="Icircumflex" unicode="&#xce;" horiz-adv-x="467" 
d="M309 0h-149v1622h149v-1622zM510 1631h-123l-153 176l-154 -176h-121l195 258h162z" />
    <glyph glyph-name="Idieresis" unicode="&#xcf;" horiz-adv-x="467" 
d="M309 0h-149v1622h149v-1622zM452 1629h-137v202h137v-202zM157 1629h-139v202h139v-202z" />
    <glyph glyph-name="Ntilde" unicode="&#xd1;" horiz-adv-x="1276" 
d="M1122 0h-168l-655 1380v-1380h-139v1622h178l647 -1380v1380h137v-1622zM529 1756h-3q-67 0 -73 -119h-101q3 100 45 159.5t117 59.5q45 0 80 -17t82 -67q37 -41 67 -41q34 0 54 26.5t26 92.5h101q-5 -100 -44 -159.5t-116 -59.5q-82 0 -139 57q-26 28 -46 48t-50 20z
" />
    <glyph glyph-name="Ograve" unicode="&#xd2;" horiz-adv-x="1284" 
d="M643 1638q199 0 319.5 -83t181 -265t60.5 -473q0 -406 -125.5 -620.5t-437.5 -214.5q-146 0 -248 48t-168.5 143.5t-103.5 263t-37 378.5q0 230 35.5 388t102.5 249t173.5 138.5t247.5 47.5zM645 119q225 0 318.5 169t93.5 525q0 180 -28.5 327.5t-78.5 219.5t-121 105
t-186 34q-157 0 -242.5 -69.5t-126.5 -228t-41 -392.5q0 -247 50 -406t137.5 -221.5t224.5 -62.5zM811 1627h-137l-201 260h154z" />
    <glyph glyph-name="Oacute" unicode="&#xd3;" horiz-adv-x="1284" 
d="M643 1638q199 0 319.5 -83t181 -265t60.5 -473q0 -406 -125.5 -620.5t-437.5 -214.5q-146 0 -248 48t-168.5 143.5t-103.5 263t-37 378.5q0 230 35.5 388t102.5 249t173.5 138.5t247.5 47.5zM645 119q225 0 318.5 169t93.5 525q0 180 -28.5 327.5t-78.5 219.5t-121 105
t-186 34q-157 0 -242.5 -69.5t-126.5 -228t-41 -392.5q0 -247 50 -406t137.5 -221.5t224.5 -62.5zM474 1627l182 260h154l-203 -260h-133z" />
    <glyph glyph-name="Ocircumflex" unicode="&#xd4;" horiz-adv-x="1284" 
d="M643 1638q199 0 319.5 -83t181 -265t60.5 -473q0 -406 -125.5 -620.5t-437.5 -214.5q-146 0 -248 48t-168.5 143.5t-103.5 263t-37 378.5q0 230 35.5 388t102.5 249t173.5 138.5t247.5 47.5zM645 119q225 0 318.5 169t93.5 525q0 180 -28.5 327.5t-78.5 219.5t-121 105
t-186 34q-157 0 -242.5 -69.5t-126.5 -228t-41 -392.5q0 -247 50 -406t137.5 -221.5t224.5 -62.5zM917 1631h-123l-153 176l-154 -176h-121l195 258h162z" />
    <glyph glyph-name="Otilde" unicode="&#xd5;" horiz-adv-x="1284" 
d="M643 1638q199 0 319.5 -83t181 -265t60.5 -473q0 -406 -125.5 -620.5t-437.5 -214.5q-146 0 -248 48t-168.5 143.5t-103.5 263t-37 378.5q0 230 35.5 388t102.5 249t173.5 138.5t247.5 47.5zM645 119q225 0 318.5 169t93.5 525q0 180 -28.5 327.5t-78.5 219.5t-121 105
t-186 34q-157 0 -242.5 -69.5t-126.5 -228t-41 -392.5q0 -247 50 -406t137.5 -221.5t224.5 -62.5zM533 1756h-3q-67 0 -73 -119h-101q3 100 45 159.5t117 59.5q45 0 80 -17t82 -67q37 -41 67 -41q34 0 54 26.5t26 92.5h101q-5 -100 -44 -159.5t-116 -59.5q-82 0 -139 57
q-26 28 -46 48t-50 20z" />
    <glyph glyph-name="Odieresis" unicode="&#xd6;" horiz-adv-x="1284" 
d="M643 1638q199 0 319.5 -83t181 -265t60.5 -473q0 -406 -125.5 -620.5t-437.5 -214.5q-146 0 -248 48t-168.5 143.5t-103.5 263t-37 378.5q0 230 35.5 388t102.5 249t173.5 138.5t247.5 47.5zM645 119q225 0 318.5 169t93.5 525q0 180 -28.5 327.5t-78.5 219.5t-121 105
t-186 34q-157 0 -242.5 -69.5t-126.5 -228t-41 -392.5q0 -247 50 -406t137.5 -221.5t224.5 -62.5zM859 1629h-137v202h137v-202zM564 1629h-139v202h139v-202z" />
    <glyph glyph-name="Ugrave" unicode="&#xd9;" horiz-adv-x="1262" 
d="M1120 381q0 -185 -129.5 -291t-355.5 -106q-237 0 -365.5 104t-128.5 299v1235h146v-1229q0 -274 350 -274q156 0 247 73.5t91 198.5v1231h145v-1241zM800 1627h-137l-201 260h154z" />
    <glyph glyph-name="Uacute" unicode="&#xda;" horiz-adv-x="1262" 
d="M1120 381q0 -185 -129.5 -291t-355.5 -106q-237 0 -365.5 104t-128.5 299v1235h146v-1229q0 -274 350 -274q156 0 247 73.5t91 198.5v1231h145v-1241zM463 1627l182 260h154l-203 -260h-133z" />
    <glyph glyph-name="Ucircumflex" unicode="&#xdb;" horiz-adv-x="1262" 
d="M1120 381q0 -185 -129.5 -291t-355.5 -106q-237 0 -365.5 104t-128.5 299v1235h146v-1229q0 -274 350 -274q156 0 247 73.5t91 198.5v1231h145v-1241zM906 1631h-123l-153 176l-154 -176h-121l195 258h162z" />
    <glyph glyph-name="Udieresis" unicode="&#xdc;" horiz-adv-x="1262" 
d="M1120 381q0 -185 -129.5 -291t-355.5 -106q-237 0 -365.5 104t-128.5 299v1235h146v-1229q0 -274 350 -274q156 0 247 73.5t91 198.5v1231h145v-1241zM848 1629h-137v202h137v-202zM553 1629h-139v202h139v-202z" />
    <glyph glyph-name="Yacute" unicode="&#xdd;" horiz-adv-x="1196" 
d="M1192 1622l-528 -1059v-563h-152v561l-506 1061h156q428 -888 428 -907q0 24 452 907h150zM430 1627l182 260h154l-203 -260h-133z" />
    <glyph glyph-name="agrave" unicode="&#xe0;" horiz-adv-x="1024" 
d="M930 0h-129q-4 0 -10 51.5t-6 69.5l1 20q-41 -76 -133 -114.5t-223 -38.5q-161 0 -255.5 72.5t-98.5 199.5v88q5 101 62 172t167.5 111t285.5 40q105 0 191 -9v90l-2 102q-6 88 -66.5 131t-189.5 43q-102 0 -157 -26t-85 -84t-30 -152h-129q0 147 53 229t137.5 117
t214.5 35q121 0 203.5 -29t126.5 -87t51 -148t7 -273l-3 -411q0 -56 5.5 -117.5t11.5 -81.5zM784 555q-99 10 -167 10q-207 0 -307 -57t-100 -195q0 -61 25 -110t82 -75t140 -26q107 0 180 37.5t110 119.5t37 230v66zM681 1217h-137l-201 260h154z" />
    <glyph glyph-name="aacute" unicode="&#xe1;" horiz-adv-x="1024" 
d="M930 0h-129q-4 0 -10 51.5t-6 69.5l1 20q-41 -76 -133 -114.5t-223 -38.5q-161 0 -255.5 72.5t-98.5 199.5v88q5 101 62 172t167.5 111t285.5 40q105 0 191 -9v90l-2 102q-6 88 -66.5 131t-189.5 43q-102 0 -157 -26t-85 -84t-30 -152h-129q0 147 53 229t137.5 117
t214.5 35q121 0 203.5 -29t126.5 -87t51 -148t7 -273l-3 -411q0 -56 5.5 -117.5t11.5 -81.5zM784 555q-99 10 -167 10q-207 0 -307 -57t-100 -195q0 -61 25 -110t82 -75t140 -26q107 0 180 37.5t110 119.5t37 230v66zM344 1217l182 260h154l-203 -260h-133z" />
    <glyph glyph-name="acircumflex" unicode="&#xe2;" horiz-adv-x="1024" 
d="M930 0h-129q-4 0 -10 51.5t-6 69.5l1 20q-41 -76 -133 -114.5t-223 -38.5q-161 0 -255.5 72.5t-98.5 199.5v88q5 101 62 172t167.5 111t285.5 40q105 0 191 -9v90l-2 102q-6 88 -66.5 131t-189.5 43q-102 0 -157 -26t-85 -84t-30 -152h-129q0 147 53 229t137.5 117
t214.5 35q121 0 203.5 -29t126.5 -87t51 -148t7 -273l-3 -411q0 -56 5.5 -117.5t11.5 -81.5zM784 555q-99 10 -167 10q-207 0 -307 -57t-100 -195q0 -61 25 -110t82 -75t140 -26q107 0 180 37.5t110 119.5t37 230v66zM787 1221h-123l-153 176l-154 -176h-121l195 258h162z
" />
    <glyph glyph-name="atilde" unicode="&#xe3;" horiz-adv-x="1024" 
d="M930 0h-129q-4 0 -10 51.5t-6 69.5l1 20q-41 -76 -133 -114.5t-223 -38.5q-161 0 -255.5 72.5t-98.5 199.5v88q5 101 62 172t167.5 111t285.5 40q105 0 191 -9v90l-2 102q-6 88 -66.5 131t-189.5 43q-102 0 -157 -26t-85 -84t-30 -152h-129q0 147 53 229t137.5 117
t214.5 35q121 0 203.5 -29t126.5 -87t51 -148t7 -273l-3 -411q0 -56 5.5 -117.5t11.5 -81.5zM784 555q-99 10 -167 10q-207 0 -307 -57t-100 -195q0 -61 25 -110t82 -75t140 -26q107 0 180 37.5t110 119.5t37 230v66zM403 1346h-3q-67 0 -73 -119h-101q3 100 45 159.5
t117 59.5q45 0 80 -17t82 -67q37 -41 67 -41q34 0 54 26.5t26 92.5h101q-5 -100 -44 -159.5t-116 -59.5q-82 0 -139 57q-26 28 -46 48t-50 20z" />
    <glyph glyph-name="adieresis" unicode="&#xe4;" horiz-adv-x="1024" 
d="M930 0h-129q-4 0 -10 51.5t-6 69.5l1 20q-41 -76 -133 -114.5t-223 -38.5q-161 0 -255.5 72.5t-98.5 199.5v88q5 101 62 172t167.5 111t285.5 40q105 0 191 -9v90l-2 102q-6 88 -66.5 131t-189.5 43q-102 0 -157 -26t-85 -84t-30 -152h-129q0 147 53 229t137.5 117
t214.5 35q121 0 203.5 -29t126.5 -87t51 -148t7 -273l-3 -411q0 -56 5.5 -117.5t11.5 -81.5zM784 555q-99 10 -167 10q-207 0 -307 -57t-100 -195q0 -61 25 -110t82 -75t140 -26q107 0 180 37.5t110 119.5t37 230v66zM729 1219h-137v202h137v-202zM434 1219h-139v202h139
v-202z" />
    <glyph glyph-name="aring" unicode="&#xe5;" horiz-adv-x="1024" 
d="M930 0h-129q-4 0 -10 51.5t-6 69.5l1 20q-41 -76 -133 -114.5t-223 -38.5q-161 0 -255.5 72.5t-98.5 199.5v88q5 101 62 172t167.5 111t285.5 40q105 0 191 -9v90l-2 102q-6 88 -66.5 131t-189.5 43q-102 0 -157 -26t-85 -84t-30 -152h-129q0 147 53 229t137.5 117
t214.5 35q121 0 203.5 -29t126.5 -87t51 -148t7 -273l-3 -411q0 -56 5.5 -117.5t11.5 -81.5zM784 555q-99 10 -167 10q-207 0 -307 -57t-100 -195q0 -61 25 -110t82 -75t140 -26q107 0 180 37.5t110 119.5t37 230v66zM512 1559q70 0 120 -49.5t50 -123.5q0 -70 -50 -122
t-120 -52t-120 52.5t-50 121.5q0 73 50 123t120 50zM512 1468q-35 0 -54.5 -25.5t-19.5 -56.5q0 -34 20.5 -57.5t53.5 -23.5q32 0 53 23t21 58q0 31 -18.5 56.5t-55.5 25.5z" />
    <glyph glyph-name="egrave" unicode="&#xe8;" horiz-adv-x="1016" 
d="M965 340q-41 -356 -435 -356q-151 0 -252.5 57t-154.5 184t-53 338q0 159 28 264t92 178t148.5 107.5t187.5 34.5q156 0 259 -64t145 -171.5t42 -325.5l-1 -80h-766q3 -163 44 -247t109.5 -119.5t176.5 -35.5q95 0 164.5 30.5t100 88.5t34.5 117h131zM834 623
q0 148 -25 228.5t-96.5 125.5t-186.5 45q-113 0 -185 -45t-104 -141.5t-32 -212.5h629zM677 1217h-137l-201 260h154z" />
    <glyph glyph-name="eacute" unicode="&#xe9;" horiz-adv-x="1016" 
d="M965 340q-41 -356 -435 -356q-151 0 -252.5 57t-154.5 184t-53 338q0 159 28 264t92 178t148.5 107.5t187.5 34.5q156 0 259 -64t145 -171.5t42 -325.5l-1 -80h-766q3 -163 44 -247t109.5 -119.5t176.5 -35.5q95 0 164.5 30.5t100 88.5t34.5 117h131zM834 623
q0 148 -25 228.5t-96.5 125.5t-186.5 45q-113 0 -185 -45t-104 -141.5t-32 -212.5h629zM340 1217l182 260h154l-203 -260h-133z" />
    <glyph glyph-name="ecircumflex" unicode="&#xea;" horiz-adv-x="1016" 
d="M965 340q-41 -356 -435 -356q-151 0 -252.5 57t-154.5 184t-53 338q0 159 28 264t92 178t148.5 107.5t187.5 34.5q156 0 259 -64t145 -171.5t42 -325.5l-1 -80h-766q3 -163 44 -247t109.5 -119.5t176.5 -35.5q95 0 164.5 30.5t100 88.5t34.5 117h131zM834 623
q0 148 -25 228.5t-96.5 125.5t-186.5 45q-113 0 -185 -45t-104 -141.5t-32 -212.5h629zM783 1221h-123l-153 176l-154 -176h-121l195 258h162z" />
    <glyph glyph-name="edieresis" unicode="&#xeb;" horiz-adv-x="1016" 
d="M965 340q-41 -356 -435 -356q-151 0 -252.5 57t-154.5 184t-53 338q0 159 28 264t92 178t148.5 107.5t187.5 34.5q156 0 259 -64t145 -171.5t42 -325.5l-1 -80h-766q3 -163 44 -247t109.5 -119.5t176.5 -35.5q95 0 164.5 30.5t100 88.5t34.5 117h131zM834 623
q0 148 -25 228.5t-96.5 125.5t-186.5 45q-113 0 -185 -45t-104 -141.5t-32 -212.5h629zM725 1219h-137v202h137v-202zM430 1219h-139v202h139v-202z" />
    <glyph glyph-name="igrave" unicode="&#xec;" horiz-adv-x="395" 
d="M276 0h-137q-10 10 -10 80v1046h139v-1040q0 -78 8 -86zM368 1217h-137l-201 260h154z" />
    <glyph glyph-name="iacute" unicode="&#xed;" horiz-adv-x="395" 
d="M276 0h-137q-10 10 -10 80v1046h139v-1040q0 -78 8 -86zM31 1217l182 260h154l-203 -260h-133z" />
    <glyph glyph-name="icircumflex" unicode="&#xee;" horiz-adv-x="395" 
d="M276 0h-137q-10 10 -10 80v1046h139v-1040q0 -78 8 -86zM474 1221h-123l-153 176l-154 -176h-121l195 258h162z" />
    <glyph glyph-name="idieresis" unicode="&#xef;" horiz-adv-x="395" 
d="M276 0h-137q-10 10 -10 80v1046h139v-1040q0 -78 8 -86zM416 1219h-137v202h137v-202zM121 1219h-139v202h139v-202z" />
    <glyph glyph-name="ntilde" unicode="&#xf1;" horiz-adv-x="1034" 
d="M930 0h-133q-4 0 -5.5 32t-2.5 155t-1 285v333q0 205 -243 205q-131 0 -208 -65.5t-77 -176.5v-768h-137v1126h131v-151q30 82 116 127t222 45q157 0 245.5 -85t88.5 -235v-267q0 -488 4 -560zM408 1346h-3q-67 0 -73 -119h-101q3 100 45 159.5t117 59.5q45 0 80 -17
t82 -67q37 -41 67 -41q34 0 54 26.5t26 92.5h101q-5 -100 -44 -159.5t-116 -59.5q-82 0 -139 57q-26 28 -46 48t-50 20z" />
    <glyph glyph-name="ograve" unicode="&#xf2;" horiz-adv-x="1071" 
d="M1004 565q0 -284 -117.5 -432.5t-347.5 -148.5q-244 0 -356.5 141t-112.5 440q0 281 118.5 431.5t350.5 150.5q233 0 349 -138.5t116 -443.5zM868 565q0 179 -33 268.5t-104.5 136t-193.5 46.5q-168 0 -250 -108t-82 -343q0 -238 80 -347t254 -109q166 0 247.5 110
t81.5 346zM704 1217h-137l-201 260h154z" />
    <glyph glyph-name="oacute" unicode="&#xf3;" horiz-adv-x="1071" 
d="M1004 565q0 -284 -117.5 -432.5t-347.5 -148.5q-244 0 -356.5 141t-112.5 440q0 281 118.5 431.5t350.5 150.5q233 0 349 -138.5t116 -443.5zM868 565q0 179 -33 268.5t-104.5 136t-193.5 46.5q-168 0 -250 -108t-82 -343q0 -238 80 -347t254 -109q166 0 247.5 110
t81.5 346zM367 1217l182 260h154l-203 -260h-133z" />
    <glyph glyph-name="ocircumflex" unicode="&#xf4;" horiz-adv-x="1071" 
d="M1004 565q0 -284 -117.5 -432.5t-347.5 -148.5q-244 0 -356.5 141t-112.5 440q0 281 118.5 431.5t350.5 150.5q233 0 349 -138.5t116 -443.5zM868 565q0 179 -33 268.5t-104.5 136t-193.5 46.5q-168 0 -250 -108t-82 -343q0 -238 80 -347t254 -109q166 0 247.5 110
t81.5 346zM811 1221h-123l-153 176l-154 -176h-121l195 258h162z" />
    <glyph glyph-name="otilde" unicode="&#xf5;" horiz-adv-x="1071" 
d="M1004 565q0 -284 -117.5 -432.5t-347.5 -148.5q-244 0 -356.5 141t-112.5 440q0 281 118.5 431.5t350.5 150.5q233 0 349 -138.5t116 -443.5zM868 565q0 179 -33 268.5t-104.5 136t-193.5 46.5q-168 0 -250 -108t-82 -343q0 -238 80 -347t254 -109q166 0 247.5 110
t81.5 346zM426 1346h-3q-67 0 -73 -119h-101q3 100 45 159.5t117 59.5q45 0 80 -17t82 -67q37 -41 67 -41q34 0 54 26.5t26 92.5h101q-5 -100 -44 -159.5t-116 -59.5q-82 0 -139 57q-26 28 -46 48t-50 20z" />
    <glyph glyph-name="odieresis" unicode="&#xf6;" horiz-adv-x="1071" 
d="M1004 565q0 -284 -117.5 -432.5t-347.5 -148.5q-244 0 -356.5 141t-112.5 440q0 281 118.5 431.5t350.5 150.5q233 0 349 -138.5t116 -443.5zM868 565q0 179 -33 268.5t-104.5 136t-193.5 46.5q-168 0 -250 -108t-82 -343q0 -238 80 -347t254 -109q166 0 247.5 110
t81.5 346zM752 1219h-137v202h137v-202zM457 1219h-139v202h139v-202z" />
    <glyph glyph-name="ugrave" unicode="&#xf9;" horiz-adv-x="1036" 
d="M924 0h-136l-4 137q-42 -75 -119 -113t-204 -38q-164 0 -254 81.5t-90 227.5v622q0 209 -6 209h139q4 -76 4 -489v-305q0 -228 254 -228q126 0 201 66.5t75 175.5v780h134v-946q0 -153 6 -180zM687 1217h-137l-201 260h154z" />
    <glyph glyph-name="uacute" unicode="&#xfa;" horiz-adv-x="1036" 
d="M924 0h-136l-4 137q-42 -75 -119 -113t-204 -38q-164 0 -254 81.5t-90 227.5v622q0 209 -6 209h139q4 -76 4 -489v-305q0 -228 254 -228q126 0 201 66.5t75 175.5v780h134v-946q0 -153 6 -180zM350 1217l182 260h154l-203 -260h-133z" />
    <glyph glyph-name="ucircumflex" unicode="&#xfb;" horiz-adv-x="1036" 
d="M924 0h-136l-4 137q-42 -75 -119 -113t-204 -38q-164 0 -254 81.5t-90 227.5v622q0 209 -6 209h139q4 -76 4 -489v-305q0 -228 254 -228q126 0 201 66.5t75 175.5v780h134v-946q0 -153 6 -180zM793 1221h-123l-153 176l-154 -176h-121l195 258h162z" />
    <glyph glyph-name="udieresis" unicode="&#xfc;" horiz-adv-x="1036" 
d="M924 0h-136l-4 137q-42 -75 -119 -113t-204 -38q-164 0 -254 81.5t-90 227.5v622q0 209 -6 209h139q4 -76 4 -489v-305q0 -228 254 -228q126 0 201 66.5t75 175.5v780h134v-946q0 -153 6 -180zM735 1219h-137v202h137v-202zM440 1219h-139v202h139v-202z" />
    <glyph glyph-name="yacute" unicode="&#xfd;" horiz-adv-x="989" 
d="M975 1126l-539 -1474h-143l131 368l-408 1106h146q338 -910 338 -938q0 24 336 938h139zM326 1217l182 260h154l-203 -260h-133z" />
    <glyph glyph-name="ydieresis" unicode="&#xff;" horiz-adv-x="989" 
d="M975 1126l-539 -1474h-143l131 368l-408 1106h146q338 -910 338 -938q0 24 336 938h139zM711 1219h-137v202h137v-202zM416 1219h-139v202h139v-202z" />
    <glyph glyph-name="Scaron" unicode="&#x160;" horiz-adv-x="1206" 
d="M1116 401q0 -199 -126.5 -309t-364.5 -110q-272 0 -405.5 116t-133.5 357h145q0 -340 390 -340q348 0 348 276q0 138 -79 219t-298 166q-156 61 -219 92t-113 67.5t-86 82t-56 104.5t-20 133q0 183 126.5 283t361.5 100q243 0 376.5 -118t133.5 -340h-146q0 323 -370 323
q-164 0 -249 -62.5t-85 -178.5q0 -76 33.5 -130t89 -94t127.5 -70.5t149 -60.5q212 -84 301 -148.5t129.5 -148.5t40.5 -209zM326 1889h123l154 -174l153 174h123l-196 -256h-160z" />
    <glyph glyph-name="scaron" unicode="&#x161;" horiz-adv-x="993" 
d="M918 299q0 -161 -102 -238t-304 -77q-158 0 -252.5 35.5t-138 109t-43.5 201.5h135q0 -93 28 -140t91.5 -68.5t179.5 -21.5q145 0 209.5 47t64.5 144q0 61 -28.5 102t-81 68.5t-178.5 58.5q-47 12 -95.5 24.5t-93 30t-83.5 41.5t-68 59t-45.5 83t-16.5 112
q0 132 100.5 205.5t282.5 73.5q144 0 233.5 -37t131 -112t41.5 -205h-135q0 96 -26.5 141.5t-85 67.5t-155.5 22q-254 0 -254 -162q0 -57 27.5 -94.5t76.5 -63t195 -63.5q142 -33 207.5 -63.5t103.5 -68.5t58.5 -90.5t20.5 -121.5zM220 1479h123l154 -174l153 174h123
l-196 -256h-160z" />
    <glyph glyph-name="Ydieresis" unicode="&#x178;" horiz-adv-x="1196" 
d="M1192 1622l-528 -1059v-563h-152v561l-506 1061h156q428 -888 428 -907q0 24 452 907h150zM815 1629h-137v202h137v-202zM520 1629h-139v202h139v-202z" />
    <glyph glyph-name="Zcaron" unicode="&#x17d;" horiz-adv-x="1051" 
d="M1014 0h-959v127l764 1358h-727v137h897v-119l-774 -1366h799v-137zM249 1889h123l154 -174l153 174h123l-196 -256h-160z" />
    <glyph glyph-name="zcaron" unicode="&#x17e;" horiz-adv-x="862" 
d="M825 0h-776v119l600 882h-588v125h742v-129l-594 -874h616v-123zM154 1479h123l154 -174l153 174h123l-196 -256h-160z" />
    </font>
</defs>
</svg>
