<svg xmlns="http://www.w3.org/2000/svg" id="Ebene_1" viewBox="0 0 160 90"><style>.st0{fill:#F59C00;} .st1{fill:#EA5B0C;} .st2{fill:#CA460A;}</style><path d="M138.8 22.3c-5.5 0-9.7 1.8-12.7 4V23h-11.3v5.4c-4.8-4.8-13.2-6.7-19.8-6.7-11.2-.1-24.4 4.7-24.4 18.3 0 13.5 13 18.4 24.4 18.4 7.6 0 14.7-2.4 19.5-6.5V69h11.6V53.7c2.1 2 6.6 4.6 13 4.6 9.1 0 20.9-5.5 20.9-18.3 0-11.9-9.5-17.7-21.2-17.7zM94.9 50c-5.6 0-10.1-4.5-10.1-10.1s4.5-10.2 10.1-10.2S105 34.3 105 39.9 100.5 50 94.9 50zm41.3.8c-5.7 0-10.5-4.4-10.5-10.8 0-6.2 4.8-10.6 10.5-10.6 5.9 0 10.2 4.7 10.2 10.5.1 5.7-4.2 10.9-10.2 10.9z" class="st0"/><path d="M60.5 21.6c-11.2 0-24.3 4.8-24.3 18.4 0 1.8.3 3.5.6 5-2.4 2.7-6.4 5.3-11.2 5.3-6.5 0-11.1-4.1-11.1-10.4 0-5.9 4.6-10.2 10.5-10.2 3 0 5.2 1.1 6.4 1.8l4.7-7.4c-2.4-1.1-7-2.8-13-2.8-11.6 0-23 6.2-23 18.8 0 12.4 10.3 18.8 22.6 18.8 7.8 0 14-3.9 17.5-7.8 4.7 5 12.4 7.4 20.3 7.4 10.8 0 24.3-4.6 24.3-18.4 0-13.6-13-18.5-24.3-18.5zm0 28.6c-5.6 0-10.1-4.5-10.1-10.1S54.9 30 60.5 30s10.1 4.5 10.1 10.1-4.5 10.1-10.1 10.1z" class="st1"/><path d="M77.7 53.6c-4.1-2.9-7.1-7.3-7.1-13.7 0-6.3 2.9-10.8 7.1-13.6 4.2 2.9 7.1 7.3 7.1 13.6 0 6.4-2.9 10.8-7.1 13.7z" class="st2"/></svg>